G04 #@! TF.GenerationSoftware,KiCad,Pcbnew,(5.1.9)-1*
G04 #@! TF.CreationDate,2021-06-08T18:40:06+01:00*
G04 #@! TF.ProjectId,BrushlessPlatform V1 - SMD,42727573-686c-4657-9373-506c6174666f,rev?*
G04 #@! TF.SameCoordinates,Original*
G04 #@! TF.FileFunction,Legend,Top*
G04 #@! TF.FilePolarity,Positive*
%FSLAX46Y46*%
G04 Gerber Fmt 4.6, Leading zero omitted, Abs format (unit mm)*
G04 Created by KiCad (PCBNEW (5.1.9)-1) date 2021-06-08 18:40:06*
%MOMM*%
%LPD*%
G01*
G04 APERTURE LIST*
%ADD10C,0.150000*%
%ADD11C,0.300000*%
%ADD12C,0.450000*%
%ADD13C,0.010000*%
%ADD14C,0.120000*%
G04 APERTURE END LIST*
D10*
X-70619047Y-55452380D02*
X-70619047Y-56166666D01*
X-70666666Y-56309523D01*
X-70761904Y-56404761D01*
X-70904761Y-56452380D01*
X-71000000Y-56452380D01*
X-69666666Y-56452380D02*
X-70142857Y-56452380D01*
X-70142857Y-55452380D01*
X-68761904Y-56357142D02*
X-68809523Y-56404761D01*
X-68952380Y-56452380D01*
X-69047619Y-56452380D01*
X-69190476Y-56404761D01*
X-69285714Y-56309523D01*
X-69333333Y-56214285D01*
X-69380952Y-56023809D01*
X-69380952Y-55880952D01*
X-69333333Y-55690476D01*
X-69285714Y-55595238D01*
X-69190476Y-55500000D01*
X-69047619Y-55452380D01*
X-68952380Y-55452380D01*
X-68809523Y-55500000D01*
X-68761904Y-55547619D01*
X-68047619Y-55452380D02*
X-68047619Y-56166666D01*
X-68095238Y-56309523D01*
X-68190476Y-56404761D01*
X-68333333Y-56452380D01*
X-68428571Y-56452380D01*
X-67095238Y-56452380D02*
X-67571428Y-56452380D01*
X-67571428Y-55452380D01*
X-66190476Y-56357142D02*
X-66238095Y-56404761D01*
X-66380952Y-56452380D01*
X-66476190Y-56452380D01*
X-66619047Y-56404761D01*
X-66714285Y-56309523D01*
X-66761904Y-56214285D01*
X-66809523Y-56023809D01*
X-66809523Y-55880952D01*
X-66761904Y-55690476D01*
X-66714285Y-55595238D01*
X-66619047Y-55500000D01*
X-66476190Y-55452380D01*
X-66380952Y-55452380D01*
X-66238095Y-55500000D01*
X-66190476Y-55547619D01*
X-65476190Y-55452380D02*
X-65476190Y-56166666D01*
X-65523809Y-56309523D01*
X-65619047Y-56404761D01*
X-65761904Y-56452380D01*
X-65857142Y-56452380D01*
X-64523809Y-56452380D02*
X-65000000Y-56452380D01*
X-65000000Y-55452380D01*
X-63619047Y-56357142D02*
X-63666666Y-56404761D01*
X-63809523Y-56452380D01*
X-63904761Y-56452380D01*
X-64047619Y-56404761D01*
X-64142857Y-56309523D01*
X-64190476Y-56214285D01*
X-64238095Y-56023809D01*
X-64238095Y-55880952D01*
X-64190476Y-55690476D01*
X-64142857Y-55595238D01*
X-64047619Y-55500000D01*
X-63904761Y-55452380D01*
X-63809523Y-55452380D01*
X-63666666Y-55500000D01*
X-63619047Y-55547619D01*
X-62904761Y-55452380D02*
X-62904761Y-56166666D01*
X-62952380Y-56309523D01*
X-63047619Y-56404761D01*
X-63190476Y-56452380D01*
X-63285714Y-56452380D01*
X-61952380Y-56452380D02*
X-62428571Y-56452380D01*
X-62428571Y-55452380D01*
X-61047619Y-56357142D02*
X-61095238Y-56404761D01*
X-61238095Y-56452380D01*
X-61333333Y-56452380D01*
X-61476190Y-56404761D01*
X-61571428Y-56309523D01*
X-61619047Y-56214285D01*
X-61666666Y-56023809D01*
X-61666666Y-55880952D01*
X-61619047Y-55690476D01*
X-61571428Y-55595238D01*
X-61476190Y-55500000D01*
X-61333333Y-55452380D01*
X-61238095Y-55452380D01*
X-61095238Y-55500000D01*
X-61047619Y-55547619D01*
D11*
X-43909285Y-48678571D02*
X-43909285Y-47178571D01*
X-43409285Y-48250000D01*
X-42909285Y-47178571D01*
X-42909285Y-48678571D01*
X-41552142Y-48678571D02*
X-41552142Y-47892857D01*
X-41623571Y-47750000D01*
X-41766428Y-47678571D01*
X-42052142Y-47678571D01*
X-42194999Y-47750000D01*
X-41552142Y-48607142D02*
X-41695000Y-48678571D01*
X-42052142Y-48678571D01*
X-42194999Y-48607142D01*
X-42266428Y-48464285D01*
X-42266428Y-48321428D01*
X-42194999Y-48178571D01*
X-42052142Y-48107142D01*
X-41695000Y-48107142D01*
X-41552142Y-48035714D01*
X-40980714Y-48678571D02*
X-40195000Y-47678571D01*
X-40980714Y-47678571D02*
X-40195000Y-48678571D01*
X-38623571Y-47178571D02*
X-37695000Y-47178571D01*
X-38195000Y-47750000D01*
X-37980714Y-47750000D01*
X-37837857Y-47821428D01*
X-37766428Y-47892857D01*
X-37695000Y-48035714D01*
X-37695000Y-48392857D01*
X-37766428Y-48535714D01*
X-37837857Y-48607142D01*
X-37980714Y-48678571D01*
X-38409285Y-48678571D01*
X-38552142Y-48607142D01*
X-38623571Y-48535714D01*
X-36766428Y-47178571D02*
X-36623571Y-47178571D01*
X-36480714Y-47250000D01*
X-36409285Y-47321428D01*
X-36337857Y-47464285D01*
X-36266428Y-47750000D01*
X-36266428Y-48107142D01*
X-36337857Y-48392857D01*
X-36409285Y-48535714D01*
X-36480714Y-48607142D01*
X-36623571Y-48678571D01*
X-36766428Y-48678571D01*
X-36909285Y-48607142D01*
X-36980714Y-48535714D01*
X-37052142Y-48392857D01*
X-37123571Y-48107142D01*
X-37123571Y-47750000D01*
X-37052142Y-47464285D01*
X-36980714Y-47321428D01*
X-36909285Y-47250000D01*
X-36766428Y-47178571D01*
X-35695000Y-48250000D02*
X-34980714Y-48250000D01*
X-35837857Y-48678571D02*
X-35337857Y-47178571D01*
X-34837857Y-48678571D01*
X-54980714Y-44678571D02*
X-54980714Y-45892857D01*
X-54909285Y-46035714D01*
X-54837857Y-46107142D01*
X-54695000Y-46178571D01*
X-54409285Y-46178571D01*
X-54266428Y-46107142D01*
X-54195000Y-46035714D01*
X-54123571Y-45892857D01*
X-54123571Y-44678571D01*
X-53480714Y-46107142D02*
X-53337857Y-46178571D01*
X-53052142Y-46178571D01*
X-52909285Y-46107142D01*
X-52837857Y-45964285D01*
X-52837857Y-45892857D01*
X-52909285Y-45750000D01*
X-53052142Y-45678571D01*
X-53266428Y-45678571D01*
X-53409285Y-45607142D01*
X-53480714Y-45464285D01*
X-53480714Y-45392857D01*
X-53409285Y-45250000D01*
X-53266428Y-45178571D01*
X-53052142Y-45178571D01*
X-52909285Y-45250000D01*
X-51623571Y-46107142D02*
X-51766428Y-46178571D01*
X-52052142Y-46178571D01*
X-52195000Y-46107142D01*
X-52266428Y-45964285D01*
X-52266428Y-45392857D01*
X-52195000Y-45250000D01*
X-52052142Y-45178571D01*
X-51766428Y-45178571D01*
X-51623571Y-45250000D01*
X-51552142Y-45392857D01*
X-51552142Y-45535714D01*
X-52266428Y-45678571D01*
X-49909285Y-44678571D02*
X-48980714Y-44678571D01*
X-49480714Y-45250000D01*
X-49266428Y-45250000D01*
X-49123571Y-45321428D01*
X-49052142Y-45392857D01*
X-48980714Y-45535714D01*
X-48980714Y-45892857D01*
X-49052142Y-46035714D01*
X-49123571Y-46107142D01*
X-49266428Y-46178571D01*
X-49695000Y-46178571D01*
X-49837857Y-46107142D01*
X-49909285Y-46035714D01*
X-48409285Y-46107142D02*
X-48195000Y-46178571D01*
X-47837857Y-46178571D01*
X-47695000Y-46107142D01*
X-47623571Y-46035714D01*
X-47552142Y-45892857D01*
X-47552142Y-45750000D01*
X-47623571Y-45607142D01*
X-47695000Y-45535714D01*
X-47837857Y-45464285D01*
X-48123571Y-45392857D01*
X-48266428Y-45321428D01*
X-48337857Y-45250000D01*
X-48409285Y-45107142D01*
X-48409285Y-44964285D01*
X-48337857Y-44821428D01*
X-48266428Y-44750000D01*
X-48123571Y-44678571D01*
X-47766428Y-44678571D01*
X-47552142Y-44750000D01*
X-45052142Y-46178571D02*
X-45766428Y-46178571D01*
X-45766428Y-44678571D01*
X-44552142Y-46178571D02*
X-44552142Y-45178571D01*
X-44552142Y-44678571D02*
X-44623571Y-44750000D01*
X-44552142Y-44821428D01*
X-44480714Y-44750000D01*
X-44552142Y-44678571D01*
X-44552142Y-44821428D01*
X-43837857Y-45178571D02*
X-43837857Y-46678571D01*
X-43837857Y-45250000D02*
X-43695000Y-45178571D01*
X-43409285Y-45178571D01*
X-43266428Y-45250000D01*
X-43195000Y-45321428D01*
X-43123571Y-45464285D01*
X-43123571Y-45892857D01*
X-43195000Y-46035714D01*
X-43266428Y-46107142D01*
X-43409285Y-46178571D01*
X-43695000Y-46178571D01*
X-43837857Y-46107142D01*
X-42266428Y-46178571D02*
X-42409285Y-46107142D01*
X-42480714Y-46035714D01*
X-42552142Y-45892857D01*
X-42552142Y-45464285D01*
X-42480714Y-45321428D01*
X-42409285Y-45250000D01*
X-42266428Y-45178571D01*
X-42052142Y-45178571D01*
X-41909285Y-45250000D01*
X-41837857Y-45321428D01*
X-41766428Y-45464285D01*
X-41766428Y-45892857D01*
X-41837857Y-46035714D01*
X-41909285Y-46107142D01*
X-42052142Y-46178571D01*
X-42266428Y-46178571D01*
X-39695000Y-44678571D02*
X-39409285Y-44678571D01*
X-39266428Y-44750000D01*
X-39123571Y-44892857D01*
X-39052142Y-45178571D01*
X-39052142Y-45678571D01*
X-39123571Y-45964285D01*
X-39266428Y-46107142D01*
X-39409285Y-46178571D01*
X-39695000Y-46178571D01*
X-39837857Y-46107142D01*
X-39980714Y-45964285D01*
X-40052142Y-45678571D01*
X-40052142Y-45178571D01*
X-39980714Y-44892857D01*
X-39837857Y-44750000D01*
X-39695000Y-44678571D01*
X-38409285Y-46178571D02*
X-38409285Y-44678571D01*
X-37552142Y-46178571D01*
X-37552142Y-44678571D01*
X-36123571Y-46178571D02*
X-36837857Y-46178571D01*
X-36837857Y-44678571D01*
X-35337857Y-45464285D02*
X-35337857Y-46178571D01*
X-35837857Y-44678571D02*
X-35337857Y-45464285D01*
X-34837857Y-44678571D01*
D10*
X-97170357Y-45785714D02*
X-97015595Y-46452380D01*
X-96694166Y-45785714D01*
X-96384642Y-46357142D02*
X-96342976Y-46404761D01*
X-96396547Y-46452380D01*
X-96438214Y-46404761D01*
X-96384642Y-46357142D01*
X-96396547Y-46452380D01*
X-95396547Y-46452380D02*
X-95967976Y-46452380D01*
X-95682261Y-46452380D02*
X-95557261Y-45452380D01*
X-95670357Y-45595238D01*
X-95777500Y-45690476D01*
X-95878690Y-45738095D01*
D12*
X-96250357Y-41739285D02*
X-96850357Y-40882142D01*
X-97278928Y-41739285D02*
X-97278928Y-39939285D01*
X-96593214Y-39939285D01*
X-96421785Y-40025000D01*
X-96336071Y-40110714D01*
X-96250357Y-40282142D01*
X-96250357Y-40539285D01*
X-96336071Y-40710714D01*
X-96421785Y-40796428D01*
X-96593214Y-40882142D01*
X-97278928Y-40882142D01*
X-94793214Y-41653571D02*
X-94964642Y-41739285D01*
X-95307500Y-41739285D01*
X-95478928Y-41653571D01*
X-95564642Y-41482142D01*
X-95564642Y-40796428D01*
X-95478928Y-40625000D01*
X-95307500Y-40539285D01*
X-94964642Y-40539285D01*
X-94793214Y-40625000D01*
X-94707500Y-40796428D01*
X-94707500Y-40967857D01*
X-95564642Y-41139285D01*
X-93164642Y-41739285D02*
X-93164642Y-39939285D01*
X-93164642Y-41653571D02*
X-93336071Y-41739285D01*
X-93678928Y-41739285D01*
X-93850357Y-41653571D01*
X-93936071Y-41567857D01*
X-94021785Y-41396428D01*
X-94021785Y-40882142D01*
X-93936071Y-40710714D01*
X-93850357Y-40625000D01*
X-93678928Y-40539285D01*
X-93336071Y-40539285D01*
X-93164642Y-40625000D01*
X-91536071Y-40539285D02*
X-91536071Y-41739285D01*
X-92307500Y-40539285D02*
X-92307500Y-41482142D01*
X-92221785Y-41653571D01*
X-92050357Y-41739285D01*
X-91793214Y-41739285D01*
X-91621785Y-41653571D01*
X-91536071Y-41567857D01*
X-90678928Y-40539285D02*
X-90678928Y-41739285D01*
X-90678928Y-40710714D02*
X-90593214Y-40625000D01*
X-90421785Y-40539285D01*
X-90164642Y-40539285D01*
X-89993214Y-40625000D01*
X-89907500Y-40796428D01*
X-89907500Y-41739285D01*
X-88278928Y-41739285D02*
X-88278928Y-39939285D01*
X-88278928Y-41653571D02*
X-88450357Y-41739285D01*
X-88793214Y-41739285D01*
X-88964642Y-41653571D01*
X-89050357Y-41567857D01*
X-89136071Y-41396428D01*
X-89136071Y-40882142D01*
X-89050357Y-40710714D01*
X-88964642Y-40625000D01*
X-88793214Y-40539285D01*
X-88450357Y-40539285D01*
X-88278928Y-40625000D01*
X-86650357Y-41739285D02*
X-86650357Y-40796428D01*
X-86736071Y-40625000D01*
X-86907500Y-40539285D01*
X-87250357Y-40539285D01*
X-87421785Y-40625000D01*
X-86650357Y-41653571D02*
X-86821785Y-41739285D01*
X-87250357Y-41739285D01*
X-87421785Y-41653571D01*
X-87507500Y-41482142D01*
X-87507500Y-41310714D01*
X-87421785Y-41139285D01*
X-87250357Y-41053571D01*
X-86821785Y-41053571D01*
X-86650357Y-40967857D01*
X-85793214Y-40539285D02*
X-85793214Y-41739285D01*
X-85793214Y-40710714D02*
X-85707500Y-40625000D01*
X-85536071Y-40539285D01*
X-85278928Y-40539285D01*
X-85107500Y-40625000D01*
X-85021785Y-40796428D01*
X-85021785Y-41739285D01*
X-84421785Y-40539285D02*
X-83736071Y-40539285D01*
X-84164642Y-39939285D02*
X-84164642Y-41482142D01*
X-84078928Y-41653571D01*
X-83907500Y-41739285D01*
X-83736071Y-41739285D01*
X-81850357Y-41225000D02*
X-80993214Y-41225000D01*
X-82021785Y-41739285D02*
X-81421785Y-39939285D01*
X-80821785Y-41739285D01*
X-79450357Y-41653571D02*
X-79621785Y-41739285D01*
X-79964642Y-41739285D01*
X-80136071Y-41653571D01*
X-80221785Y-41567857D01*
X-80307500Y-41396428D01*
X-80307500Y-40882142D01*
X-80221785Y-40710714D01*
X-80136071Y-40625000D01*
X-79964642Y-40539285D01*
X-79621785Y-40539285D01*
X-79450357Y-40625000D01*
X-78936071Y-40539285D02*
X-78250357Y-40539285D01*
X-78678928Y-39939285D02*
X-78678928Y-41482142D01*
X-78593214Y-41653571D01*
X-78421785Y-41739285D01*
X-78250357Y-41739285D01*
X-76878928Y-40539285D02*
X-76878928Y-41739285D01*
X-77650357Y-40539285D02*
X-77650357Y-41482142D01*
X-77564642Y-41653571D01*
X-77393214Y-41739285D01*
X-77136071Y-41739285D01*
X-76964642Y-41653571D01*
X-76878928Y-41567857D01*
X-75250357Y-41739285D02*
X-75250357Y-40796428D01*
X-75336071Y-40625000D01*
X-75507500Y-40539285D01*
X-75850357Y-40539285D01*
X-76021785Y-40625000D01*
X-75250357Y-41653571D02*
X-75421785Y-41739285D01*
X-75850357Y-41739285D01*
X-76021785Y-41653571D01*
X-76107500Y-41482142D01*
X-76107500Y-41310714D01*
X-76021785Y-41139285D01*
X-75850357Y-41053571D01*
X-75421785Y-41053571D01*
X-75250357Y-40967857D01*
X-74650357Y-40539285D02*
X-73964642Y-40539285D01*
X-74393214Y-39939285D02*
X-74393214Y-41482142D01*
X-74307500Y-41653571D01*
X-74136071Y-41739285D01*
X-73964642Y-41739285D01*
X-73107500Y-41739285D02*
X-73278928Y-41653571D01*
X-73364642Y-41567857D01*
X-73450357Y-41396428D01*
X-73450357Y-40882142D01*
X-73364642Y-40710714D01*
X-73278928Y-40625000D01*
X-73107500Y-40539285D01*
X-72850357Y-40539285D01*
X-72678928Y-40625000D01*
X-72593214Y-40710714D01*
X-72507500Y-40882142D01*
X-72507500Y-41396428D01*
X-72593214Y-41567857D01*
X-72678928Y-41653571D01*
X-72850357Y-41739285D01*
X-73107500Y-41739285D01*
X-71736071Y-41739285D02*
X-71736071Y-40539285D01*
X-71736071Y-40882142D02*
X-71650357Y-40710714D01*
X-71564642Y-40625000D01*
X-71393214Y-40539285D01*
X-71221785Y-40539285D01*
X-96250357Y-44717857D02*
X-96336071Y-44803571D01*
X-96593214Y-44889285D01*
X-96764642Y-44889285D01*
X-97021785Y-44803571D01*
X-97193214Y-44632142D01*
X-97278928Y-44460714D01*
X-97364642Y-44117857D01*
X-97364642Y-43860714D01*
X-97278928Y-43517857D01*
X-97193214Y-43346428D01*
X-97021785Y-43175000D01*
X-96764642Y-43089285D01*
X-96593214Y-43089285D01*
X-96336071Y-43175000D01*
X-96250357Y-43260714D01*
X-95221785Y-44889285D02*
X-95393214Y-44803571D01*
X-95478928Y-44717857D01*
X-95564642Y-44546428D01*
X-95564642Y-44032142D01*
X-95478928Y-43860714D01*
X-95393214Y-43775000D01*
X-95221785Y-43689285D01*
X-94964642Y-43689285D01*
X-94793214Y-43775000D01*
X-94707500Y-43860714D01*
X-94621785Y-44032142D01*
X-94621785Y-44546428D01*
X-94707500Y-44717857D01*
X-94793214Y-44803571D01*
X-94964642Y-44889285D01*
X-95221785Y-44889285D01*
X-93850357Y-43689285D02*
X-93850357Y-44889285D01*
X-93850357Y-43860714D02*
X-93764642Y-43775000D01*
X-93593214Y-43689285D01*
X-93336071Y-43689285D01*
X-93164642Y-43775000D01*
X-93078928Y-43946428D01*
X-93078928Y-44889285D01*
X-92478928Y-43689285D02*
X-91793214Y-43689285D01*
X-92221785Y-43089285D02*
X-92221785Y-44632142D01*
X-92136071Y-44803571D01*
X-91964642Y-44889285D01*
X-91793214Y-44889285D01*
X-91193214Y-44889285D02*
X-91193214Y-43689285D01*
X-91193214Y-44032142D02*
X-91107500Y-43860714D01*
X-91021785Y-43775000D01*
X-90850357Y-43689285D01*
X-90678928Y-43689285D01*
X-89821785Y-44889285D02*
X-89993214Y-44803571D01*
X-90078928Y-44717857D01*
X-90164642Y-44546428D01*
X-90164642Y-44032142D01*
X-90078928Y-43860714D01*
X-89993214Y-43775000D01*
X-89821785Y-43689285D01*
X-89564642Y-43689285D01*
X-89393214Y-43775000D01*
X-89307500Y-43860714D01*
X-89221785Y-44032142D01*
X-89221785Y-44546428D01*
X-89307500Y-44717857D01*
X-89393214Y-44803571D01*
X-89564642Y-44889285D01*
X-89821785Y-44889285D01*
X-88193214Y-44889285D02*
X-88364642Y-44803571D01*
X-88450357Y-44632142D01*
X-88450357Y-43089285D01*
X-87250357Y-44889285D02*
X-87421785Y-44803571D01*
X-87507500Y-44632142D01*
X-87507500Y-43089285D01*
X-85878928Y-44803571D02*
X-86050357Y-44889285D01*
X-86393214Y-44889285D01*
X-86564642Y-44803571D01*
X-86650357Y-44632142D01*
X-86650357Y-43946428D01*
X-86564642Y-43775000D01*
X-86393214Y-43689285D01*
X-86050357Y-43689285D01*
X-85878928Y-43775000D01*
X-85793214Y-43946428D01*
X-85793214Y-44117857D01*
X-86650357Y-44289285D01*
X-85021785Y-44889285D02*
X-85021785Y-43689285D01*
X-85021785Y-44032142D02*
X-84936071Y-43860714D01*
X-84850357Y-43775000D01*
X-84678928Y-43689285D01*
X-84507500Y-43689285D01*
D11*
X-39877904Y-59959857D02*
X-38354095Y-59959857D01*
X-39116000Y-60721761D02*
X-39116000Y-59197952D01*
X-39877904Y-74945857D02*
X-38354095Y-74945857D01*
X-39116000Y-75707761D02*
X-39116000Y-74183952D01*
X-39877904Y-90058857D02*
X-38354095Y-90058857D01*
X-39116000Y-90820761D02*
X-39116000Y-89296952D01*
X-93725904Y-85232857D02*
X-92202095Y-85232857D01*
X-92964000Y-85994761D02*
X-92964000Y-84470952D01*
X-93725904Y-70246857D02*
X-92202095Y-70246857D01*
X-92964000Y-71008761D02*
X-92964000Y-69484952D01*
X-93725904Y-55006857D02*
X-92202095Y-55006857D01*
X-92964000Y-55768761D02*
X-92964000Y-54244952D01*
D10*
X-55427619Y-107445119D02*
X-56427619Y-107445119D01*
X-56427619Y-107064166D01*
X-56380000Y-106968928D01*
X-56332380Y-106921309D01*
X-56237142Y-106873690D01*
X-56094285Y-106873690D01*
X-55999047Y-106921309D01*
X-55951428Y-106968928D01*
X-55903809Y-107064166D01*
X-55903809Y-107445119D01*
X-56427619Y-106540357D02*
X-55427619Y-106302261D01*
X-56141904Y-106111785D01*
X-55427619Y-105921309D01*
X-56427619Y-105683214D01*
X-55427619Y-105302261D02*
X-56427619Y-105302261D01*
X-55713333Y-104968928D01*
X-56427619Y-104635595D01*
X-55427619Y-104635595D01*
X-54012619Y-105492738D02*
X-54012619Y-105968928D01*
X-53536428Y-106016547D01*
X-53584047Y-105968928D01*
X-53631666Y-105873690D01*
X-53631666Y-105635595D01*
X-53584047Y-105540357D01*
X-53536428Y-105492738D01*
X-53441190Y-105445119D01*
X-53203095Y-105445119D01*
X-53107857Y-105492738D01*
X-53060238Y-105540357D01*
X-53012619Y-105635595D01*
X-53012619Y-105873690D01*
X-53060238Y-105968928D01*
X-53107857Y-106016547D01*
X-54012619Y-105159404D02*
X-53012619Y-104826071D01*
X-54012619Y-104492738D01*
X-51300000Y-106683214D02*
X-51347619Y-106778452D01*
X-51347619Y-106921309D01*
X-51300000Y-107064166D01*
X-51204761Y-107159404D01*
X-51109523Y-107207023D01*
X-50919047Y-107254642D01*
X-50776190Y-107254642D01*
X-50585714Y-107207023D01*
X-50490476Y-107159404D01*
X-50395238Y-107064166D01*
X-50347619Y-106921309D01*
X-50347619Y-106826071D01*
X-50395238Y-106683214D01*
X-50442857Y-106635595D01*
X-50776190Y-106635595D01*
X-50776190Y-106826071D01*
X-50347619Y-106207023D02*
X-51347619Y-106207023D01*
X-50347619Y-105635595D01*
X-51347619Y-105635595D01*
X-50347619Y-105159404D02*
X-51347619Y-105159404D01*
X-51347619Y-104921309D01*
X-51300000Y-104778452D01*
X-51204761Y-104683214D01*
X-51109523Y-104635595D01*
X-50919047Y-104587976D01*
X-50776190Y-104587976D01*
X-50585714Y-104635595D01*
X-50490476Y-104683214D01*
X-50395238Y-104778452D01*
X-50347619Y-104921309D01*
X-50347619Y-105159404D01*
X-75747619Y-107445119D02*
X-76747619Y-107445119D01*
X-76747619Y-107064166D01*
X-76700000Y-106968928D01*
X-76652380Y-106921309D01*
X-76557142Y-106873690D01*
X-76414285Y-106873690D01*
X-76319047Y-106921309D01*
X-76271428Y-106968928D01*
X-76223809Y-107064166D01*
X-76223809Y-107445119D01*
X-76747619Y-106540357D02*
X-75747619Y-106302261D01*
X-76461904Y-106111785D01*
X-75747619Y-105921309D01*
X-76747619Y-105683214D01*
X-75747619Y-105302261D02*
X-76747619Y-105302261D01*
X-76033333Y-104968928D01*
X-76747619Y-104635595D01*
X-75747619Y-104635595D01*
X-79412619Y-105492738D02*
X-79412619Y-105968928D01*
X-78936428Y-106016547D01*
X-78984047Y-105968928D01*
X-79031666Y-105873690D01*
X-79031666Y-105635595D01*
X-78984047Y-105540357D01*
X-78936428Y-105492738D01*
X-78841190Y-105445119D01*
X-78603095Y-105445119D01*
X-78507857Y-105492738D01*
X-78460238Y-105540357D01*
X-78412619Y-105635595D01*
X-78412619Y-105873690D01*
X-78460238Y-105968928D01*
X-78507857Y-106016547D01*
X-79412619Y-105159404D02*
X-78412619Y-104826071D01*
X-79412619Y-104492738D01*
X-69080000Y-106523214D02*
X-69127619Y-106618452D01*
X-69127619Y-106761309D01*
X-69080000Y-106904166D01*
X-68984761Y-106999404D01*
X-68889523Y-107047023D01*
X-68699047Y-107094642D01*
X-68556190Y-107094642D01*
X-68365714Y-107047023D01*
X-68270476Y-106999404D01*
X-68175238Y-106904166D01*
X-68127619Y-106761309D01*
X-68127619Y-106666071D01*
X-68175238Y-106523214D01*
X-68222857Y-106475595D01*
X-68556190Y-106475595D01*
X-68556190Y-106666071D01*
X-68127619Y-106047023D02*
X-69127619Y-106047023D01*
X-68127619Y-105475595D01*
X-69127619Y-105475595D01*
X-68127619Y-104999404D02*
X-69127619Y-104999404D01*
X-69127619Y-104761309D01*
X-69080000Y-104618452D01*
X-68984761Y-104523214D01*
X-68889523Y-104475595D01*
X-68699047Y-104427976D01*
X-68556190Y-104427976D01*
X-68365714Y-104475595D01*
X-68270476Y-104523214D01*
X-68175238Y-104618452D01*
X-68127619Y-104761309D01*
X-68127619Y-104999404D01*
X-81780000Y-106683214D02*
X-81827619Y-106778452D01*
X-81827619Y-106921309D01*
X-81780000Y-107064166D01*
X-81684761Y-107159404D01*
X-81589523Y-107207023D01*
X-81399047Y-107254642D01*
X-81256190Y-107254642D01*
X-81065714Y-107207023D01*
X-80970476Y-107159404D01*
X-80875238Y-107064166D01*
X-80827619Y-106921309D01*
X-80827619Y-106826071D01*
X-80875238Y-106683214D01*
X-80922857Y-106635595D01*
X-81256190Y-106635595D01*
X-81256190Y-106826071D01*
X-80827619Y-106207023D02*
X-81827619Y-106207023D01*
X-80827619Y-105635595D01*
X-81827619Y-105635595D01*
X-80827619Y-105159404D02*
X-81827619Y-105159404D01*
X-81827619Y-104921309D01*
X-81780000Y-104778452D01*
X-81684761Y-104683214D01*
X-81589523Y-104635595D01*
X-81399047Y-104587976D01*
X-81256190Y-104587976D01*
X-81065714Y-104635595D01*
X-80970476Y-104683214D01*
X-80875238Y-104778452D01*
X-80827619Y-104921309D01*
X-80827619Y-105159404D01*
X-62970238Y-106856547D02*
X-62922619Y-106713690D01*
X-62922619Y-106475595D01*
X-62970238Y-106380357D01*
X-63017857Y-106332738D01*
X-63113095Y-106285119D01*
X-63208333Y-106285119D01*
X-63303571Y-106332738D01*
X-63351190Y-106380357D01*
X-63398809Y-106475595D01*
X-63446428Y-106666071D01*
X-63494047Y-106761309D01*
X-63541666Y-106808928D01*
X-63636904Y-106856547D01*
X-63732142Y-106856547D01*
X-63827380Y-106808928D01*
X-63875000Y-106761309D01*
X-63922619Y-106666071D01*
X-63922619Y-106427976D01*
X-63875000Y-106285119D01*
X-62922619Y-105856547D02*
X-63922619Y-105856547D01*
X-63922619Y-105618452D01*
X-63875000Y-105475595D01*
X-63779761Y-105380357D01*
X-63684523Y-105332738D01*
X-63494047Y-105285119D01*
X-63351190Y-105285119D01*
X-63160714Y-105332738D01*
X-63065476Y-105380357D01*
X-62970238Y-105475595D01*
X-62922619Y-105618452D01*
X-62922619Y-105856547D01*
X-63208333Y-104904166D02*
X-63208333Y-104427976D01*
X-62922619Y-104999404D02*
X-63922619Y-104666071D01*
X-62922619Y-104332738D01*
X-65510238Y-106808928D02*
X-65462619Y-106666071D01*
X-65462619Y-106427976D01*
X-65510238Y-106332738D01*
X-65557857Y-106285119D01*
X-65653095Y-106237500D01*
X-65748333Y-106237500D01*
X-65843571Y-106285119D01*
X-65891190Y-106332738D01*
X-65938809Y-106427976D01*
X-65986428Y-106618452D01*
X-66034047Y-106713690D01*
X-66081666Y-106761309D01*
X-66176904Y-106808928D01*
X-66272142Y-106808928D01*
X-66367380Y-106761309D01*
X-66415000Y-106713690D01*
X-66462619Y-106618452D01*
X-66462619Y-106380357D01*
X-66415000Y-106237500D01*
X-65557857Y-105237500D02*
X-65510238Y-105285119D01*
X-65462619Y-105427976D01*
X-65462619Y-105523214D01*
X-65510238Y-105666071D01*
X-65605476Y-105761309D01*
X-65700714Y-105808928D01*
X-65891190Y-105856547D01*
X-66034047Y-105856547D01*
X-66224523Y-105808928D01*
X-66319761Y-105761309D01*
X-66415000Y-105666071D01*
X-66462619Y-105523214D01*
X-66462619Y-105427976D01*
X-66415000Y-105285119D01*
X-66367380Y-105237500D01*
X-65462619Y-104332738D02*
X-65462619Y-104808928D01*
X-66462619Y-104808928D01*
D13*
G36*
X-30677906Y-104291158D02*
G01*
X-30645381Y-104303736D01*
X-30595807Y-104328712D01*
X-30524626Y-104367876D01*
X-30519084Y-104370988D01*
X-30453526Y-104408476D01*
X-30398202Y-104441319D01*
X-30358545Y-104466205D01*
X-30339988Y-104479820D01*
X-30339469Y-104480487D01*
X-30343952Y-104499390D01*
X-30364514Y-104541605D01*
X-30399817Y-104604832D01*
X-30448520Y-104686772D01*
X-30509282Y-104785122D01*
X-30580764Y-104897585D01*
X-30598555Y-104925165D01*
X-30644907Y-105001699D01*
X-30678658Y-105067556D01*
X-30696847Y-105116782D01*
X-30698714Y-105126507D01*
X-30697885Y-105169312D01*
X-30688606Y-105237209D01*
X-30672032Y-105325843D01*
X-30649320Y-105430859D01*
X-30621627Y-105547902D01*
X-30590110Y-105672616D01*
X-30555925Y-105800645D01*
X-30520229Y-105927634D01*
X-30484179Y-106049228D01*
X-30448932Y-106161072D01*
X-30415644Y-106258810D01*
X-30385472Y-106338087D01*
X-30364439Y-106385122D01*
X-30339663Y-106435225D01*
X-30316270Y-106483168D01*
X-30315003Y-106485793D01*
X-30276301Y-106534220D01*
X-30219816Y-106566828D01*
X-30154061Y-106582454D01*
X-30087549Y-106579937D01*
X-30028795Y-106558114D01*
X-29995742Y-106529382D01*
X-29948141Y-106450583D01*
X-29913261Y-106352378D01*
X-29894123Y-106244779D01*
X-29891412Y-106183780D01*
X-29902330Y-106069935D01*
X-29934376Y-105975660D01*
X-29989274Y-105896379D01*
X-30006393Y-105878733D01*
X-30057339Y-105829235D01*
X-30060837Y-105479362D01*
X-30064336Y-105129489D01*
X-29975182Y-104994531D01*
X-29933346Y-104933445D01*
X-29893055Y-104878493D01*
X-29860057Y-104837336D01*
X-29845874Y-104822192D01*
X-29805719Y-104784810D01*
X-29751335Y-104814098D01*
X-29716961Y-104835084D01*
X-29698154Y-104851378D01*
X-29696951Y-104854307D01*
X-29684097Y-104866728D01*
X-29662104Y-104875977D01*
X-29640850Y-104884313D01*
X-29608306Y-104900149D01*
X-29561678Y-104925033D01*
X-29498171Y-104960509D01*
X-29414992Y-105008123D01*
X-29309347Y-105069422D01*
X-29251938Y-105102932D01*
X-29184406Y-105143071D01*
X-29140115Y-105171659D01*
X-29115145Y-105192039D01*
X-29105577Y-105207553D01*
X-29107492Y-105221546D01*
X-29109089Y-105224796D01*
X-29124624Y-105245266D01*
X-29157864Y-105283665D01*
X-29204938Y-105335696D01*
X-29261972Y-105397066D01*
X-29311300Y-105449090D01*
X-29424970Y-105572567D01*
X-29513895Y-105679591D01*
X-29578866Y-105771240D01*
X-29620679Y-105848588D01*
X-29634783Y-105887866D01*
X-29640608Y-105922249D01*
X-29646625Y-105980899D01*
X-29652304Y-106057117D01*
X-29657116Y-106144202D01*
X-29659381Y-106199268D01*
X-29662541Y-106294464D01*
X-29663931Y-106364062D01*
X-29663142Y-106413409D01*
X-29659765Y-106447854D01*
X-29653392Y-106472743D01*
X-29643613Y-106493425D01*
X-29635933Y-106506053D01*
X-29591579Y-106554726D01*
X-29534426Y-106588645D01*
X-29474292Y-106603438D01*
X-29429227Y-106598086D01*
X-29388424Y-106574930D01*
X-29337276Y-106533462D01*
X-29282958Y-106480912D01*
X-29232643Y-106424516D01*
X-29193506Y-106371505D01*
X-29179095Y-106345889D01*
X-29157509Y-106310814D01*
X-29118247Y-106257389D01*
X-29064898Y-106189789D01*
X-29001048Y-106112190D01*
X-28930285Y-106028768D01*
X-28856196Y-105943698D01*
X-28782368Y-105861155D01*
X-28712389Y-105785316D01*
X-28649845Y-105720356D01*
X-28600740Y-105672669D01*
X-28546221Y-105625032D01*
X-28500358Y-105589908D01*
X-28468189Y-105570949D01*
X-28457511Y-105568864D01*
X-28441147Y-105577274D01*
X-28400329Y-105599846D01*
X-28337414Y-105635224D01*
X-28254756Y-105682054D01*
X-28154711Y-105738981D01*
X-28039634Y-105804649D01*
X-27911881Y-105877703D01*
X-27773806Y-105956788D01*
X-27627766Y-106040548D01*
X-27476116Y-106127629D01*
X-27321210Y-106216676D01*
X-27165405Y-106306332D01*
X-27011056Y-106395243D01*
X-26860518Y-106482054D01*
X-26716146Y-106565409D01*
X-26580296Y-106643954D01*
X-26455323Y-106716333D01*
X-26343583Y-106781190D01*
X-26247430Y-106837171D01*
X-26169221Y-106882920D01*
X-26111311Y-106917083D01*
X-26076054Y-106938304D01*
X-26065835Y-106944963D01*
X-26079598Y-106946280D01*
X-26122896Y-106947559D01*
X-26194286Y-106948796D01*
X-26292327Y-106949983D01*
X-26415578Y-106951115D01*
X-26562597Y-106952186D01*
X-26731943Y-106953189D01*
X-26922174Y-106954119D01*
X-27131849Y-106954968D01*
X-27359527Y-106955732D01*
X-27603765Y-106956403D01*
X-27863123Y-106956976D01*
X-28136159Y-106957444D01*
X-28421432Y-106957802D01*
X-28717500Y-106958042D01*
X-29022921Y-106958159D01*
X-29151076Y-106958171D01*
X-32251030Y-106958171D01*
X-32029947Y-106574847D01*
X-31983144Y-106493680D01*
X-31922898Y-106389166D01*
X-31851222Y-106264801D01*
X-31770131Y-106124082D01*
X-31681638Y-105970503D01*
X-31587760Y-105807562D01*
X-31490509Y-105638754D01*
X-31391900Y-105467575D01*
X-31293947Y-105297521D01*
X-31269175Y-105254512D01*
X-31178848Y-105097857D01*
X-31092711Y-104948803D01*
X-31012058Y-104809568D01*
X-30938184Y-104682371D01*
X-30872383Y-104569432D01*
X-30815950Y-104472968D01*
X-30770179Y-104395200D01*
X-30736365Y-104338346D01*
X-30715802Y-104304625D01*
X-30710047Y-104296040D01*
X-30697942Y-104289189D01*
X-30677906Y-104291158D01*
G37*
X-30677906Y-104291158D02*
X-30645381Y-104303736D01*
X-30595807Y-104328712D01*
X-30524626Y-104367876D01*
X-30519084Y-104370988D01*
X-30453526Y-104408476D01*
X-30398202Y-104441319D01*
X-30358545Y-104466205D01*
X-30339988Y-104479820D01*
X-30339469Y-104480487D01*
X-30343952Y-104499390D01*
X-30364514Y-104541605D01*
X-30399817Y-104604832D01*
X-30448520Y-104686772D01*
X-30509282Y-104785122D01*
X-30580764Y-104897585D01*
X-30598555Y-104925165D01*
X-30644907Y-105001699D01*
X-30678658Y-105067556D01*
X-30696847Y-105116782D01*
X-30698714Y-105126507D01*
X-30697885Y-105169312D01*
X-30688606Y-105237209D01*
X-30672032Y-105325843D01*
X-30649320Y-105430859D01*
X-30621627Y-105547902D01*
X-30590110Y-105672616D01*
X-30555925Y-105800645D01*
X-30520229Y-105927634D01*
X-30484179Y-106049228D01*
X-30448932Y-106161072D01*
X-30415644Y-106258810D01*
X-30385472Y-106338087D01*
X-30364439Y-106385122D01*
X-30339663Y-106435225D01*
X-30316270Y-106483168D01*
X-30315003Y-106485793D01*
X-30276301Y-106534220D01*
X-30219816Y-106566828D01*
X-30154061Y-106582454D01*
X-30087549Y-106579937D01*
X-30028795Y-106558114D01*
X-29995742Y-106529382D01*
X-29948141Y-106450583D01*
X-29913261Y-106352378D01*
X-29894123Y-106244779D01*
X-29891412Y-106183780D01*
X-29902330Y-106069935D01*
X-29934376Y-105975660D01*
X-29989274Y-105896379D01*
X-30006393Y-105878733D01*
X-30057339Y-105829235D01*
X-30060837Y-105479362D01*
X-30064336Y-105129489D01*
X-29975182Y-104994531D01*
X-29933346Y-104933445D01*
X-29893055Y-104878493D01*
X-29860057Y-104837336D01*
X-29845874Y-104822192D01*
X-29805719Y-104784810D01*
X-29751335Y-104814098D01*
X-29716961Y-104835084D01*
X-29698154Y-104851378D01*
X-29696951Y-104854307D01*
X-29684097Y-104866728D01*
X-29662104Y-104875977D01*
X-29640850Y-104884313D01*
X-29608306Y-104900149D01*
X-29561678Y-104925033D01*
X-29498171Y-104960509D01*
X-29414992Y-105008123D01*
X-29309347Y-105069422D01*
X-29251938Y-105102932D01*
X-29184406Y-105143071D01*
X-29140115Y-105171659D01*
X-29115145Y-105192039D01*
X-29105577Y-105207553D01*
X-29107492Y-105221546D01*
X-29109089Y-105224796D01*
X-29124624Y-105245266D01*
X-29157864Y-105283665D01*
X-29204938Y-105335696D01*
X-29261972Y-105397066D01*
X-29311300Y-105449090D01*
X-29424970Y-105572567D01*
X-29513895Y-105679591D01*
X-29578866Y-105771240D01*
X-29620679Y-105848588D01*
X-29634783Y-105887866D01*
X-29640608Y-105922249D01*
X-29646625Y-105980899D01*
X-29652304Y-106057117D01*
X-29657116Y-106144202D01*
X-29659381Y-106199268D01*
X-29662541Y-106294464D01*
X-29663931Y-106364062D01*
X-29663142Y-106413409D01*
X-29659765Y-106447854D01*
X-29653392Y-106472743D01*
X-29643613Y-106493425D01*
X-29635933Y-106506053D01*
X-29591579Y-106554726D01*
X-29534426Y-106588645D01*
X-29474292Y-106603438D01*
X-29429227Y-106598086D01*
X-29388424Y-106574930D01*
X-29337276Y-106533462D01*
X-29282958Y-106480912D01*
X-29232643Y-106424516D01*
X-29193506Y-106371505D01*
X-29179095Y-106345889D01*
X-29157509Y-106310814D01*
X-29118247Y-106257389D01*
X-29064898Y-106189789D01*
X-29001048Y-106112190D01*
X-28930285Y-106028768D01*
X-28856196Y-105943698D01*
X-28782368Y-105861155D01*
X-28712389Y-105785316D01*
X-28649845Y-105720356D01*
X-28600740Y-105672669D01*
X-28546221Y-105625032D01*
X-28500358Y-105589908D01*
X-28468189Y-105570949D01*
X-28457511Y-105568864D01*
X-28441147Y-105577274D01*
X-28400329Y-105599846D01*
X-28337414Y-105635224D01*
X-28254756Y-105682054D01*
X-28154711Y-105738981D01*
X-28039634Y-105804649D01*
X-27911881Y-105877703D01*
X-27773806Y-105956788D01*
X-27627766Y-106040548D01*
X-27476116Y-106127629D01*
X-27321210Y-106216676D01*
X-27165405Y-106306332D01*
X-27011056Y-106395243D01*
X-26860518Y-106482054D01*
X-26716146Y-106565409D01*
X-26580296Y-106643954D01*
X-26455323Y-106716333D01*
X-26343583Y-106781190D01*
X-26247430Y-106837171D01*
X-26169221Y-106882920D01*
X-26111311Y-106917083D01*
X-26076054Y-106938304D01*
X-26065835Y-106944963D01*
X-26079598Y-106946280D01*
X-26122896Y-106947559D01*
X-26194286Y-106948796D01*
X-26292327Y-106949983D01*
X-26415578Y-106951115D01*
X-26562597Y-106952186D01*
X-26731943Y-106953189D01*
X-26922174Y-106954119D01*
X-27131849Y-106954968D01*
X-27359527Y-106955732D01*
X-27603765Y-106956403D01*
X-27863123Y-106956976D01*
X-28136159Y-106957444D01*
X-28421432Y-106957802D01*
X-28717500Y-106958042D01*
X-29022921Y-106958159D01*
X-29151076Y-106958171D01*
X-32251030Y-106958171D01*
X-32029947Y-106574847D01*
X-31983144Y-106493680D01*
X-31922898Y-106389166D01*
X-31851222Y-106264801D01*
X-31770131Y-106124082D01*
X-31681638Y-105970503D01*
X-31587760Y-105807562D01*
X-31490509Y-105638754D01*
X-31391900Y-105467575D01*
X-31293947Y-105297521D01*
X-31269175Y-105254512D01*
X-31178848Y-105097857D01*
X-31092711Y-104948803D01*
X-31012058Y-104809568D01*
X-30938184Y-104682371D01*
X-30872383Y-104569432D01*
X-30815950Y-104472968D01*
X-30770179Y-104395200D01*
X-30736365Y-104338346D01*
X-30715802Y-104304625D01*
X-30710047Y-104296040D01*
X-30697942Y-104289189D01*
X-30677906Y-104291158D01*
G36*
X-27012472Y-104234619D02*
G01*
X-27001092Y-104253693D01*
X-26975512Y-104297421D01*
X-26936998Y-104363619D01*
X-26886814Y-104450102D01*
X-26826225Y-104554685D01*
X-26756497Y-104675183D01*
X-26678893Y-104809412D01*
X-26594680Y-104955187D01*
X-26505121Y-105110323D01*
X-26413002Y-105270000D01*
X-26318924Y-105433117D01*
X-26228598Y-105589709D01*
X-26143335Y-105737506D01*
X-26064443Y-105874240D01*
X-25993231Y-105997642D01*
X-25931009Y-106105444D01*
X-25879087Y-106195377D01*
X-25838772Y-106265173D01*
X-25811376Y-106312564D01*
X-25798493Y-106334786D01*
X-25777493Y-106372330D01*
X-25766075Y-106395831D01*
X-25765449Y-106399920D01*
X-25779364Y-106392242D01*
X-25818059Y-106370203D01*
X-25879513Y-106334971D01*
X-25961702Y-106287711D01*
X-26062604Y-106229589D01*
X-26180195Y-106161771D01*
X-26312454Y-106085424D01*
X-26457358Y-106001714D01*
X-26612883Y-105911806D01*
X-26777008Y-105816867D01*
X-26839451Y-105780732D01*
X-27006513Y-105684083D01*
X-27165926Y-105591938D01*
X-27315645Y-105505475D01*
X-27453624Y-105425871D01*
X-27577815Y-105354305D01*
X-27686173Y-105291955D01*
X-27776652Y-105239998D01*
X-27847204Y-105199613D01*
X-27895785Y-105171978D01*
X-27920346Y-105158272D01*
X-27922915Y-105156974D01*
X-27915431Y-105145220D01*
X-27889386Y-105113795D01*
X-27847441Y-105065594D01*
X-27792254Y-105003510D01*
X-27726483Y-104930439D01*
X-27652788Y-104849276D01*
X-27573827Y-104762916D01*
X-27492260Y-104674253D01*
X-27410746Y-104586182D01*
X-27331943Y-104501599D01*
X-27258510Y-104423397D01*
X-27193107Y-104354472D01*
X-27138392Y-104297719D01*
X-27097023Y-104256032D01*
X-27082836Y-104242363D01*
X-27035820Y-104198201D01*
X-27012472Y-104234619D01*
G37*
X-27012472Y-104234619D02*
X-27001092Y-104253693D01*
X-26975512Y-104297421D01*
X-26936998Y-104363619D01*
X-26886814Y-104450102D01*
X-26826225Y-104554685D01*
X-26756497Y-104675183D01*
X-26678893Y-104809412D01*
X-26594680Y-104955187D01*
X-26505121Y-105110323D01*
X-26413002Y-105270000D01*
X-26318924Y-105433117D01*
X-26228598Y-105589709D01*
X-26143335Y-105737506D01*
X-26064443Y-105874240D01*
X-25993231Y-105997642D01*
X-25931009Y-106105444D01*
X-25879087Y-106195377D01*
X-25838772Y-106265173D01*
X-25811376Y-106312564D01*
X-25798493Y-106334786D01*
X-25777493Y-106372330D01*
X-25766075Y-106395831D01*
X-25765449Y-106399920D01*
X-25779364Y-106392242D01*
X-25818059Y-106370203D01*
X-25879513Y-106334971D01*
X-25961702Y-106287711D01*
X-26062604Y-106229589D01*
X-26180195Y-106161771D01*
X-26312454Y-106085424D01*
X-26457358Y-106001714D01*
X-26612883Y-105911806D01*
X-26777008Y-105816867D01*
X-26839451Y-105780732D01*
X-27006513Y-105684083D01*
X-27165926Y-105591938D01*
X-27315645Y-105505475D01*
X-27453624Y-105425871D01*
X-27577815Y-105354305D01*
X-27686173Y-105291955D01*
X-27776652Y-105239998D01*
X-27847204Y-105199613D01*
X-27895785Y-105171978D01*
X-27920346Y-105158272D01*
X-27922915Y-105156974D01*
X-27915431Y-105145220D01*
X-27889386Y-105113795D01*
X-27847441Y-105065594D01*
X-27792254Y-105003510D01*
X-27726483Y-104930439D01*
X-27652788Y-104849276D01*
X-27573827Y-104762916D01*
X-27492260Y-104674253D01*
X-27410746Y-104586182D01*
X-27331943Y-104501599D01*
X-27258510Y-104423397D01*
X-27193107Y-104354472D01*
X-27138392Y-104297719D01*
X-27097023Y-104256032D01*
X-27082836Y-104242363D01*
X-27035820Y-104198201D01*
X-27012472Y-104234619D01*
G36*
X-28835957Y-101085835D02*
G01*
X-28812935Y-101123245D01*
X-28777466Y-101182514D01*
X-28731004Y-101261118D01*
X-28675004Y-101356538D01*
X-28610919Y-101466250D01*
X-28540204Y-101587734D01*
X-28464313Y-101718468D01*
X-28384701Y-101855930D01*
X-28302822Y-101997598D01*
X-28220130Y-102140951D01*
X-28138079Y-102283467D01*
X-28058124Y-102422624D01*
X-27981719Y-102555901D01*
X-27910318Y-102680776D01*
X-27845376Y-102794727D01*
X-27788347Y-102895233D01*
X-27740685Y-102979772D01*
X-27703845Y-103045822D01*
X-27679280Y-103090862D01*
X-27668446Y-103112370D01*
X-27668049Y-103113714D01*
X-27681499Y-103131965D01*
X-27718886Y-103159882D01*
X-27775765Y-103194725D01*
X-27847688Y-103233754D01*
X-27922985Y-103270843D01*
X-28025440Y-103315817D01*
X-28133183Y-103356226D01*
X-28249927Y-103392969D01*
X-28379382Y-103426942D01*
X-28525260Y-103459044D01*
X-28691274Y-103490173D01*
X-28881134Y-103521227D01*
X-29077531Y-103550145D01*
X-29248166Y-103575800D01*
X-29391455Y-103601198D01*
X-29510992Y-103627602D01*
X-29610370Y-103656273D01*
X-29693182Y-103688473D01*
X-29763022Y-103725465D01*
X-29823482Y-103768512D01*
X-29878155Y-103818875D01*
X-29895786Y-103837583D01*
X-29934000Y-103881139D01*
X-29962268Y-103916682D01*
X-29975382Y-103937583D01*
X-29975732Y-103939297D01*
X-29980320Y-103949806D01*
X-29996242Y-103949924D01*
X-30026734Y-103938254D01*
X-30075032Y-103913396D01*
X-30144373Y-103873952D01*
X-30192561Y-103845587D01*
X-30264417Y-103801247D01*
X-30320258Y-103763279D01*
X-30356333Y-103734416D01*
X-30368887Y-103717388D01*
X-30368879Y-103717264D01*
X-30361094Y-103701037D01*
X-30339108Y-103660400D01*
X-30304197Y-103597567D01*
X-30257637Y-103514752D01*
X-30200705Y-103414172D01*
X-30134677Y-103298040D01*
X-30060828Y-103168571D01*
X-29980436Y-103027980D01*
X-29894776Y-102878482D01*
X-29805124Y-102722292D01*
X-29712757Y-102561624D01*
X-29618951Y-102398693D01*
X-29524982Y-102235713D01*
X-29432126Y-102074900D01*
X-29341660Y-101918468D01*
X-29254859Y-101768633D01*
X-29173000Y-101627608D01*
X-29097359Y-101497609D01*
X-29029213Y-101380849D01*
X-28969837Y-101279545D01*
X-28920507Y-101195911D01*
X-28882500Y-101132162D01*
X-28857093Y-101090511D01*
X-28845560Y-101073175D01*
X-28845077Y-101072805D01*
X-28835957Y-101085835D01*
G37*
X-28835957Y-101085835D02*
X-28812935Y-101123245D01*
X-28777466Y-101182514D01*
X-28731004Y-101261118D01*
X-28675004Y-101356538D01*
X-28610919Y-101466250D01*
X-28540204Y-101587734D01*
X-28464313Y-101718468D01*
X-28384701Y-101855930D01*
X-28302822Y-101997598D01*
X-28220130Y-102140951D01*
X-28138079Y-102283467D01*
X-28058124Y-102422624D01*
X-27981719Y-102555901D01*
X-27910318Y-102680776D01*
X-27845376Y-102794727D01*
X-27788347Y-102895233D01*
X-27740685Y-102979772D01*
X-27703845Y-103045822D01*
X-27679280Y-103090862D01*
X-27668446Y-103112370D01*
X-27668049Y-103113714D01*
X-27681499Y-103131965D01*
X-27718886Y-103159882D01*
X-27775765Y-103194725D01*
X-27847688Y-103233754D01*
X-27922985Y-103270843D01*
X-28025440Y-103315817D01*
X-28133183Y-103356226D01*
X-28249927Y-103392969D01*
X-28379382Y-103426942D01*
X-28525260Y-103459044D01*
X-28691274Y-103490173D01*
X-28881134Y-103521227D01*
X-29077531Y-103550145D01*
X-29248166Y-103575800D01*
X-29391455Y-103601198D01*
X-29510992Y-103627602D01*
X-29610370Y-103656273D01*
X-29693182Y-103688473D01*
X-29763022Y-103725465D01*
X-29823482Y-103768512D01*
X-29878155Y-103818875D01*
X-29895786Y-103837583D01*
X-29934000Y-103881139D01*
X-29962268Y-103916682D01*
X-29975382Y-103937583D01*
X-29975732Y-103939297D01*
X-29980320Y-103949806D01*
X-29996242Y-103949924D01*
X-30026734Y-103938254D01*
X-30075032Y-103913396D01*
X-30144373Y-103873952D01*
X-30192561Y-103845587D01*
X-30264417Y-103801247D01*
X-30320258Y-103763279D01*
X-30356333Y-103734416D01*
X-30368887Y-103717388D01*
X-30368879Y-103717264D01*
X-30361094Y-103701037D01*
X-30339108Y-103660400D01*
X-30304197Y-103597567D01*
X-30257637Y-103514752D01*
X-30200705Y-103414172D01*
X-30134677Y-103298040D01*
X-30060828Y-103168571D01*
X-29980436Y-103027980D01*
X-29894776Y-102878482D01*
X-29805124Y-102722292D01*
X-29712757Y-102561624D01*
X-29618951Y-102398693D01*
X-29524982Y-102235713D01*
X-29432126Y-102074900D01*
X-29341660Y-101918468D01*
X-29254859Y-101768633D01*
X-29173000Y-101627608D01*
X-29097359Y-101497609D01*
X-29029213Y-101380849D01*
X-28969837Y-101279545D01*
X-28920507Y-101195911D01*
X-28882500Y-101132162D01*
X-28857093Y-101090511D01*
X-28845560Y-101073175D01*
X-28845077Y-101072805D01*
X-28835957Y-101085835D01*
G36*
X-101944186Y-101468931D02*
G01*
X-101860365Y-101913555D01*
X-101551080Y-102041053D01*
X-101241794Y-102168551D01*
X-100870754Y-101916246D01*
X-100766843Y-101845996D01*
X-100672913Y-101783272D01*
X-100593348Y-101730938D01*
X-100532530Y-101691857D01*
X-100494843Y-101668893D01*
X-100484579Y-101663942D01*
X-100466090Y-101676676D01*
X-100426580Y-101711882D01*
X-100370478Y-101765062D01*
X-100302213Y-101831718D01*
X-100226214Y-101907354D01*
X-100146908Y-101987472D01*
X-100068725Y-102067574D01*
X-99996093Y-102143164D01*
X-99933441Y-102209745D01*
X-99885197Y-102262818D01*
X-99855790Y-102297887D01*
X-99848759Y-102309623D01*
X-99858877Y-102331260D01*
X-99887241Y-102378662D01*
X-99930871Y-102447193D01*
X-99986782Y-102532215D01*
X-100051994Y-102629093D01*
X-100089781Y-102684350D01*
X-100158657Y-102785248D01*
X-100219860Y-102876299D01*
X-100270422Y-102952970D01*
X-100307372Y-103010728D01*
X-100327742Y-103045043D01*
X-100330803Y-103052254D01*
X-100323864Y-103072748D01*
X-100304949Y-103120513D01*
X-100276913Y-103188832D01*
X-100242609Y-103270989D01*
X-100204891Y-103360270D01*
X-100166613Y-103449958D01*
X-100130630Y-103533338D01*
X-100099794Y-103603694D01*
X-100076961Y-103654310D01*
X-100064983Y-103678471D01*
X-100064276Y-103679422D01*
X-100045469Y-103684036D01*
X-99995382Y-103694328D01*
X-99919207Y-103709287D01*
X-99822135Y-103727901D01*
X-99709357Y-103749159D01*
X-99643558Y-103761418D01*
X-99523050Y-103784362D01*
X-99414203Y-103806195D01*
X-99322524Y-103825722D01*
X-99253519Y-103841748D01*
X-99212696Y-103853079D01*
X-99204489Y-103856674D01*
X-99196452Y-103881006D01*
X-99189967Y-103935959D01*
X-99185030Y-104015108D01*
X-99181636Y-104112026D01*
X-99179782Y-104220287D01*
X-99179462Y-104333465D01*
X-99180673Y-104445135D01*
X-99183410Y-104548868D01*
X-99187669Y-104638241D01*
X-99193445Y-104706826D01*
X-99200733Y-104748197D01*
X-99205105Y-104756810D01*
X-99231236Y-104767133D01*
X-99286607Y-104781892D01*
X-99363893Y-104799352D01*
X-99455770Y-104817780D01*
X-99487842Y-104823741D01*
X-99642476Y-104852066D01*
X-99764625Y-104874876D01*
X-99858327Y-104893080D01*
X-99927616Y-104907583D01*
X-99976529Y-104919292D01*
X-100009103Y-104929115D01*
X-100029372Y-104937956D01*
X-100041374Y-104946724D01*
X-100043053Y-104948457D01*
X-100059816Y-104976371D01*
X-100085386Y-105030695D01*
X-100117212Y-105104777D01*
X-100152740Y-105191965D01*
X-100189417Y-105285608D01*
X-100224689Y-105379052D01*
X-100256004Y-105465647D01*
X-100280807Y-105538740D01*
X-100296546Y-105591678D01*
X-100300668Y-105617811D01*
X-100300324Y-105618726D01*
X-100286359Y-105640086D01*
X-100254678Y-105687084D01*
X-100208609Y-105754827D01*
X-100151482Y-105838423D01*
X-100086627Y-105932982D01*
X-100068157Y-105959854D01*
X-100002301Y-106057275D01*
X-99944350Y-106146163D01*
X-99897462Y-106221412D01*
X-99864793Y-106277920D01*
X-99849500Y-106310581D01*
X-99848759Y-106314593D01*
X-99861608Y-106335684D01*
X-99897112Y-106377464D01*
X-99950707Y-106435445D01*
X-100017829Y-106505135D01*
X-100093913Y-106582045D01*
X-100174396Y-106661683D01*
X-100254713Y-106739561D01*
X-100330301Y-106811186D01*
X-100396595Y-106872070D01*
X-100449031Y-106917721D01*
X-100483045Y-106943650D01*
X-100492455Y-106947883D01*
X-100514357Y-106937912D01*
X-100559200Y-106911020D01*
X-100619679Y-106871736D01*
X-100666211Y-106840117D01*
X-100750525Y-106782098D01*
X-100850374Y-106713784D01*
X-100950527Y-106645579D01*
X-101004373Y-106609075D01*
X-101186629Y-106485800D01*
X-101339619Y-106568520D01*
X-101409318Y-106604759D01*
X-101468586Y-106632926D01*
X-101508689Y-106648991D01*
X-101518897Y-106651226D01*
X-101531171Y-106634722D01*
X-101555387Y-106588082D01*
X-101589737Y-106515609D01*
X-101632412Y-106421606D01*
X-101681606Y-106310374D01*
X-101735510Y-106186215D01*
X-101792316Y-106053432D01*
X-101850218Y-105916327D01*
X-101907407Y-105779202D01*
X-101962076Y-105646358D01*
X-102012416Y-105522098D01*
X-102056620Y-105410725D01*
X-102092881Y-105316539D01*
X-102119391Y-105243844D01*
X-102134342Y-105196941D01*
X-102136746Y-105180833D01*
X-102117689Y-105160286D01*
X-102075964Y-105126933D01*
X-102020294Y-105087702D01*
X-102015622Y-105084599D01*
X-101871736Y-104969423D01*
X-101755717Y-104835053D01*
X-101668570Y-104685784D01*
X-101611301Y-104525913D01*
X-101584914Y-104359737D01*
X-101590415Y-104191552D01*
X-101628810Y-104025655D01*
X-101701105Y-103866342D01*
X-101722374Y-103831487D01*
X-101833004Y-103690737D01*
X-101963698Y-103577714D01*
X-102109936Y-103493003D01*
X-102267192Y-103437194D01*
X-102430943Y-103410874D01*
X-102596667Y-103414630D01*
X-102759838Y-103449050D01*
X-102915935Y-103514723D01*
X-103060433Y-103612235D01*
X-103105131Y-103651813D01*
X-103218888Y-103775703D01*
X-103301782Y-103906124D01*
X-103358644Y-104052315D01*
X-103390313Y-104197088D01*
X-103398131Y-104359860D01*
X-103372062Y-104523440D01*
X-103314755Y-104682298D01*
X-103228856Y-104830906D01*
X-103117014Y-104963735D01*
X-102981877Y-105075256D01*
X-102964117Y-105087011D01*
X-102907850Y-105125508D01*
X-102865077Y-105158863D01*
X-102844628Y-105180160D01*
X-102844331Y-105180833D01*
X-102848721Y-105203871D01*
X-102866124Y-105256157D01*
X-102894732Y-105333390D01*
X-102932735Y-105431268D01*
X-102978326Y-105545491D01*
X-103029697Y-105671758D01*
X-103085038Y-105805767D01*
X-103142542Y-105943218D01*
X-103200399Y-106079808D01*
X-103256802Y-106211237D01*
X-103309942Y-106333205D01*
X-103358010Y-106441409D01*
X-103399199Y-106531549D01*
X-103431699Y-106599323D01*
X-103453703Y-106640430D01*
X-103462564Y-106651226D01*
X-103489640Y-106642819D01*
X-103540303Y-106620272D01*
X-103605817Y-106587613D01*
X-103641841Y-106568520D01*
X-103794832Y-106485800D01*
X-103977088Y-106609075D01*
X-104070125Y-106672228D01*
X-104171985Y-106741727D01*
X-104267438Y-106807165D01*
X-104315250Y-106840117D01*
X-104382495Y-106885273D01*
X-104439436Y-106921057D01*
X-104478646Y-106942938D01*
X-104491381Y-106947563D01*
X-104509917Y-106935085D01*
X-104550941Y-106900252D01*
X-104610475Y-106846678D01*
X-104684542Y-106777983D01*
X-104769165Y-106697781D01*
X-104822685Y-106646286D01*
X-104916319Y-106554286D01*
X-104997241Y-106471999D01*
X-105062177Y-106402945D01*
X-105107858Y-106350644D01*
X-105131011Y-106318616D01*
X-105133232Y-106312116D01*
X-105122924Y-106287394D01*
X-105094439Y-106237405D01*
X-105050937Y-106167212D01*
X-104995577Y-106081875D01*
X-104931520Y-105986456D01*
X-104913303Y-105959854D01*
X-104846927Y-105863167D01*
X-104787378Y-105776117D01*
X-104737984Y-105703595D01*
X-104702075Y-105650493D01*
X-104682981Y-105621703D01*
X-104681136Y-105618726D01*
X-104683895Y-105595782D01*
X-104698538Y-105545336D01*
X-104722513Y-105474041D01*
X-104753266Y-105388547D01*
X-104788244Y-105295507D01*
X-104824893Y-105201574D01*
X-104860661Y-105113399D01*
X-104892994Y-105037634D01*
X-104919338Y-104980931D01*
X-104937142Y-104949943D01*
X-104938407Y-104948457D01*
X-104949294Y-104939601D01*
X-104967682Y-104930843D01*
X-104997606Y-104921277D01*
X-105043103Y-104909996D01*
X-105108209Y-104896093D01*
X-105196961Y-104878663D01*
X-105313393Y-104856798D01*
X-105461542Y-104829591D01*
X-105493618Y-104823741D01*
X-105588686Y-104805374D01*
X-105671565Y-104787405D01*
X-105734930Y-104771569D01*
X-105771458Y-104759600D01*
X-105776356Y-104756810D01*
X-105784427Y-104732072D01*
X-105790987Y-104676790D01*
X-105796033Y-104597389D01*
X-105799559Y-104500296D01*
X-105801561Y-104391938D01*
X-105802036Y-104278740D01*
X-105800977Y-104167128D01*
X-105798382Y-104063529D01*
X-105794246Y-103974368D01*
X-105788563Y-103906072D01*
X-105781331Y-103865066D01*
X-105776971Y-103856674D01*
X-105752698Y-103848208D01*
X-105697426Y-103834435D01*
X-105616662Y-103816550D01*
X-105515912Y-103795748D01*
X-105400683Y-103773223D01*
X-105337902Y-103761418D01*
X-105218787Y-103739151D01*
X-105112565Y-103718979D01*
X-105024427Y-103701915D01*
X-104959566Y-103688969D01*
X-104923174Y-103681155D01*
X-104917184Y-103679422D01*
X-104907061Y-103659890D01*
X-104885662Y-103612843D01*
X-104855839Y-103545003D01*
X-104820445Y-103463091D01*
X-104782332Y-103373828D01*
X-104744353Y-103283935D01*
X-104709360Y-103200135D01*
X-104680206Y-103129147D01*
X-104659743Y-103077694D01*
X-104650823Y-103052497D01*
X-104650657Y-103051396D01*
X-104660769Y-103031519D01*
X-104689117Y-102985777D01*
X-104732723Y-102918717D01*
X-104788606Y-102834884D01*
X-104853787Y-102738826D01*
X-104891679Y-102683650D01*
X-104960725Y-102582481D01*
X-105022050Y-102490630D01*
X-105072663Y-102412744D01*
X-105109571Y-102353469D01*
X-105129782Y-102317451D01*
X-105132701Y-102309377D01*
X-105120153Y-102290584D01*
X-105085463Y-102250457D01*
X-105033063Y-102193493D01*
X-104967384Y-102124185D01*
X-104892856Y-102047031D01*
X-104813913Y-101966525D01*
X-104734983Y-101887163D01*
X-104660500Y-101813440D01*
X-104594894Y-101749852D01*
X-104542596Y-101700894D01*
X-104508039Y-101671061D01*
X-104496478Y-101663942D01*
X-104477654Y-101673953D01*
X-104432631Y-101702078D01*
X-104365787Y-101745454D01*
X-104281499Y-101801218D01*
X-104184144Y-101866506D01*
X-104110707Y-101916246D01*
X-103739667Y-102168551D01*
X-103121095Y-101913555D01*
X-103037275Y-101468931D01*
X-102953454Y-101024307D01*
X-102028006Y-101024307D01*
X-101944186Y-101468931D01*
G37*
X-101944186Y-101468931D02*
X-101860365Y-101913555D01*
X-101551080Y-102041053D01*
X-101241794Y-102168551D01*
X-100870754Y-101916246D01*
X-100766843Y-101845996D01*
X-100672913Y-101783272D01*
X-100593348Y-101730938D01*
X-100532530Y-101691857D01*
X-100494843Y-101668893D01*
X-100484579Y-101663942D01*
X-100466090Y-101676676D01*
X-100426580Y-101711882D01*
X-100370478Y-101765062D01*
X-100302213Y-101831718D01*
X-100226214Y-101907354D01*
X-100146908Y-101987472D01*
X-100068725Y-102067574D01*
X-99996093Y-102143164D01*
X-99933441Y-102209745D01*
X-99885197Y-102262818D01*
X-99855790Y-102297887D01*
X-99848759Y-102309623D01*
X-99858877Y-102331260D01*
X-99887241Y-102378662D01*
X-99930871Y-102447193D01*
X-99986782Y-102532215D01*
X-100051994Y-102629093D01*
X-100089781Y-102684350D01*
X-100158657Y-102785248D01*
X-100219860Y-102876299D01*
X-100270422Y-102952970D01*
X-100307372Y-103010728D01*
X-100327742Y-103045043D01*
X-100330803Y-103052254D01*
X-100323864Y-103072748D01*
X-100304949Y-103120513D01*
X-100276913Y-103188832D01*
X-100242609Y-103270989D01*
X-100204891Y-103360270D01*
X-100166613Y-103449958D01*
X-100130630Y-103533338D01*
X-100099794Y-103603694D01*
X-100076961Y-103654310D01*
X-100064983Y-103678471D01*
X-100064276Y-103679422D01*
X-100045469Y-103684036D01*
X-99995382Y-103694328D01*
X-99919207Y-103709287D01*
X-99822135Y-103727901D01*
X-99709357Y-103749159D01*
X-99643558Y-103761418D01*
X-99523050Y-103784362D01*
X-99414203Y-103806195D01*
X-99322524Y-103825722D01*
X-99253519Y-103841748D01*
X-99212696Y-103853079D01*
X-99204489Y-103856674D01*
X-99196452Y-103881006D01*
X-99189967Y-103935959D01*
X-99185030Y-104015108D01*
X-99181636Y-104112026D01*
X-99179782Y-104220287D01*
X-99179462Y-104333465D01*
X-99180673Y-104445135D01*
X-99183410Y-104548868D01*
X-99187669Y-104638241D01*
X-99193445Y-104706826D01*
X-99200733Y-104748197D01*
X-99205105Y-104756810D01*
X-99231236Y-104767133D01*
X-99286607Y-104781892D01*
X-99363893Y-104799352D01*
X-99455770Y-104817780D01*
X-99487842Y-104823741D01*
X-99642476Y-104852066D01*
X-99764625Y-104874876D01*
X-99858327Y-104893080D01*
X-99927616Y-104907583D01*
X-99976529Y-104919292D01*
X-100009103Y-104929115D01*
X-100029372Y-104937956D01*
X-100041374Y-104946724D01*
X-100043053Y-104948457D01*
X-100059816Y-104976371D01*
X-100085386Y-105030695D01*
X-100117212Y-105104777D01*
X-100152740Y-105191965D01*
X-100189417Y-105285608D01*
X-100224689Y-105379052D01*
X-100256004Y-105465647D01*
X-100280807Y-105538740D01*
X-100296546Y-105591678D01*
X-100300668Y-105617811D01*
X-100300324Y-105618726D01*
X-100286359Y-105640086D01*
X-100254678Y-105687084D01*
X-100208609Y-105754827D01*
X-100151482Y-105838423D01*
X-100086627Y-105932982D01*
X-100068157Y-105959854D01*
X-100002301Y-106057275D01*
X-99944350Y-106146163D01*
X-99897462Y-106221412D01*
X-99864793Y-106277920D01*
X-99849500Y-106310581D01*
X-99848759Y-106314593D01*
X-99861608Y-106335684D01*
X-99897112Y-106377464D01*
X-99950707Y-106435445D01*
X-100017829Y-106505135D01*
X-100093913Y-106582045D01*
X-100174396Y-106661683D01*
X-100254713Y-106739561D01*
X-100330301Y-106811186D01*
X-100396595Y-106872070D01*
X-100449031Y-106917721D01*
X-100483045Y-106943650D01*
X-100492455Y-106947883D01*
X-100514357Y-106937912D01*
X-100559200Y-106911020D01*
X-100619679Y-106871736D01*
X-100666211Y-106840117D01*
X-100750525Y-106782098D01*
X-100850374Y-106713784D01*
X-100950527Y-106645579D01*
X-101004373Y-106609075D01*
X-101186629Y-106485800D01*
X-101339619Y-106568520D01*
X-101409318Y-106604759D01*
X-101468586Y-106632926D01*
X-101508689Y-106648991D01*
X-101518897Y-106651226D01*
X-101531171Y-106634722D01*
X-101555387Y-106588082D01*
X-101589737Y-106515609D01*
X-101632412Y-106421606D01*
X-101681606Y-106310374D01*
X-101735510Y-106186215D01*
X-101792316Y-106053432D01*
X-101850218Y-105916327D01*
X-101907407Y-105779202D01*
X-101962076Y-105646358D01*
X-102012416Y-105522098D01*
X-102056620Y-105410725D01*
X-102092881Y-105316539D01*
X-102119391Y-105243844D01*
X-102134342Y-105196941D01*
X-102136746Y-105180833D01*
X-102117689Y-105160286D01*
X-102075964Y-105126933D01*
X-102020294Y-105087702D01*
X-102015622Y-105084599D01*
X-101871736Y-104969423D01*
X-101755717Y-104835053D01*
X-101668570Y-104685784D01*
X-101611301Y-104525913D01*
X-101584914Y-104359737D01*
X-101590415Y-104191552D01*
X-101628810Y-104025655D01*
X-101701105Y-103866342D01*
X-101722374Y-103831487D01*
X-101833004Y-103690737D01*
X-101963698Y-103577714D01*
X-102109936Y-103493003D01*
X-102267192Y-103437194D01*
X-102430943Y-103410874D01*
X-102596667Y-103414630D01*
X-102759838Y-103449050D01*
X-102915935Y-103514723D01*
X-103060433Y-103612235D01*
X-103105131Y-103651813D01*
X-103218888Y-103775703D01*
X-103301782Y-103906124D01*
X-103358644Y-104052315D01*
X-103390313Y-104197088D01*
X-103398131Y-104359860D01*
X-103372062Y-104523440D01*
X-103314755Y-104682298D01*
X-103228856Y-104830906D01*
X-103117014Y-104963735D01*
X-102981877Y-105075256D01*
X-102964117Y-105087011D01*
X-102907850Y-105125508D01*
X-102865077Y-105158863D01*
X-102844628Y-105180160D01*
X-102844331Y-105180833D01*
X-102848721Y-105203871D01*
X-102866124Y-105256157D01*
X-102894732Y-105333390D01*
X-102932735Y-105431268D01*
X-102978326Y-105545491D01*
X-103029697Y-105671758D01*
X-103085038Y-105805767D01*
X-103142542Y-105943218D01*
X-103200399Y-106079808D01*
X-103256802Y-106211237D01*
X-103309942Y-106333205D01*
X-103358010Y-106441409D01*
X-103399199Y-106531549D01*
X-103431699Y-106599323D01*
X-103453703Y-106640430D01*
X-103462564Y-106651226D01*
X-103489640Y-106642819D01*
X-103540303Y-106620272D01*
X-103605817Y-106587613D01*
X-103641841Y-106568520D01*
X-103794832Y-106485800D01*
X-103977088Y-106609075D01*
X-104070125Y-106672228D01*
X-104171985Y-106741727D01*
X-104267438Y-106807165D01*
X-104315250Y-106840117D01*
X-104382495Y-106885273D01*
X-104439436Y-106921057D01*
X-104478646Y-106942938D01*
X-104491381Y-106947563D01*
X-104509917Y-106935085D01*
X-104550941Y-106900252D01*
X-104610475Y-106846678D01*
X-104684542Y-106777983D01*
X-104769165Y-106697781D01*
X-104822685Y-106646286D01*
X-104916319Y-106554286D01*
X-104997241Y-106471999D01*
X-105062177Y-106402945D01*
X-105107858Y-106350644D01*
X-105131011Y-106318616D01*
X-105133232Y-106312116D01*
X-105122924Y-106287394D01*
X-105094439Y-106237405D01*
X-105050937Y-106167212D01*
X-104995577Y-106081875D01*
X-104931520Y-105986456D01*
X-104913303Y-105959854D01*
X-104846927Y-105863167D01*
X-104787378Y-105776117D01*
X-104737984Y-105703595D01*
X-104702075Y-105650493D01*
X-104682981Y-105621703D01*
X-104681136Y-105618726D01*
X-104683895Y-105595782D01*
X-104698538Y-105545336D01*
X-104722513Y-105474041D01*
X-104753266Y-105388547D01*
X-104788244Y-105295507D01*
X-104824893Y-105201574D01*
X-104860661Y-105113399D01*
X-104892994Y-105037634D01*
X-104919338Y-104980931D01*
X-104937142Y-104949943D01*
X-104938407Y-104948457D01*
X-104949294Y-104939601D01*
X-104967682Y-104930843D01*
X-104997606Y-104921277D01*
X-105043103Y-104909996D01*
X-105108209Y-104896093D01*
X-105196961Y-104878663D01*
X-105313393Y-104856798D01*
X-105461542Y-104829591D01*
X-105493618Y-104823741D01*
X-105588686Y-104805374D01*
X-105671565Y-104787405D01*
X-105734930Y-104771569D01*
X-105771458Y-104759600D01*
X-105776356Y-104756810D01*
X-105784427Y-104732072D01*
X-105790987Y-104676790D01*
X-105796033Y-104597389D01*
X-105799559Y-104500296D01*
X-105801561Y-104391938D01*
X-105802036Y-104278740D01*
X-105800977Y-104167128D01*
X-105798382Y-104063529D01*
X-105794246Y-103974368D01*
X-105788563Y-103906072D01*
X-105781331Y-103865066D01*
X-105776971Y-103856674D01*
X-105752698Y-103848208D01*
X-105697426Y-103834435D01*
X-105616662Y-103816550D01*
X-105515912Y-103795748D01*
X-105400683Y-103773223D01*
X-105337902Y-103761418D01*
X-105218787Y-103739151D01*
X-105112565Y-103718979D01*
X-105024427Y-103701915D01*
X-104959566Y-103688969D01*
X-104923174Y-103681155D01*
X-104917184Y-103679422D01*
X-104907061Y-103659890D01*
X-104885662Y-103612843D01*
X-104855839Y-103545003D01*
X-104820445Y-103463091D01*
X-104782332Y-103373828D01*
X-104744353Y-103283935D01*
X-104709360Y-103200135D01*
X-104680206Y-103129147D01*
X-104659743Y-103077694D01*
X-104650823Y-103052497D01*
X-104650657Y-103051396D01*
X-104660769Y-103031519D01*
X-104689117Y-102985777D01*
X-104732723Y-102918717D01*
X-104788606Y-102834884D01*
X-104853787Y-102738826D01*
X-104891679Y-102683650D01*
X-104960725Y-102582481D01*
X-105022050Y-102490630D01*
X-105072663Y-102412744D01*
X-105109571Y-102353469D01*
X-105129782Y-102317451D01*
X-105132701Y-102309377D01*
X-105120153Y-102290584D01*
X-105085463Y-102250457D01*
X-105033063Y-102193493D01*
X-104967384Y-102124185D01*
X-104892856Y-102047031D01*
X-104813913Y-101966525D01*
X-104734983Y-101887163D01*
X-104660500Y-101813440D01*
X-104594894Y-101749852D01*
X-104542596Y-101700894D01*
X-104508039Y-101671061D01*
X-104496478Y-101663942D01*
X-104477654Y-101673953D01*
X-104432631Y-101702078D01*
X-104365787Y-101745454D01*
X-104281499Y-101801218D01*
X-104184144Y-101866506D01*
X-104110707Y-101916246D01*
X-103739667Y-102168551D01*
X-103121095Y-101913555D01*
X-103037275Y-101468931D01*
X-102953454Y-101024307D01*
X-102028006Y-101024307D01*
X-101944186Y-101468931D01*
D14*
X-97535000Y-56260000D02*
X-108540000Y-56260000D01*
X-97535000Y-53740000D02*
X-108540000Y-53740000D01*
X-97535000Y-61060000D02*
X-108540000Y-61060000D01*
X-97535000Y-58540000D02*
X-108540000Y-58540000D01*
X-30550000Y-34750000D02*
X-33150000Y-37600000D01*
X-24850000Y-37600000D02*
X-27400000Y-34750000D01*
X-33150000Y-50450000D02*
X-24850000Y-50450000D01*
X-33150000Y-37600000D02*
X-33150000Y-50450000D01*
X-27400000Y-34750000D02*
X-30550000Y-34750000D01*
X-24850000Y-50450000D02*
X-24850000Y-37600000D01*
X-104550000Y-34550000D02*
X-107150000Y-37400000D01*
X-98850000Y-37400000D02*
X-101400000Y-34550000D01*
X-107150000Y-50250000D02*
X-98850000Y-50250000D01*
X-107150000Y-37400000D02*
X-107150000Y-50250000D01*
X-101400000Y-34550000D02*
X-104550000Y-34550000D01*
X-98850000Y-50250000D02*
X-98850000Y-37400000D01*
X-67550000Y-34550000D02*
X-70150000Y-37400000D01*
X-61850000Y-37400000D02*
X-64400000Y-34550000D01*
X-70150000Y-50250000D02*
X-61850000Y-50250000D01*
X-70150000Y-37400000D02*
X-70150000Y-50250000D01*
X-64400000Y-34550000D02*
X-67550000Y-34550000D01*
X-61850000Y-50250000D02*
X-61850000Y-37400000D01*
X-72390000Y-57150000D02*
X-72390000Y-54610000D01*
X-72390000Y-54610000D02*
X-75060000Y-54610000D01*
X-75060000Y-57150000D02*
X-75060000Y-95380000D01*
X-75060000Y-51940000D02*
X-75060000Y-54610000D01*
X-59690000Y-54610000D02*
X-57020000Y-54610000D01*
X-59690000Y-54610000D02*
X-59690000Y-92710000D01*
X-59690000Y-92710000D02*
X-57020000Y-92710000D01*
X-72390000Y-57150000D02*
X-75060000Y-57150000D01*
X-72390000Y-57150000D02*
X-72390000Y-92710000D01*
X-72390000Y-92710000D02*
X-75060000Y-92710000D01*
X-75060000Y-95380000D02*
X-57020000Y-95380000D01*
X-57020000Y-95380000D02*
X-57020000Y-51940000D01*
X-57020000Y-51940000D02*
X-75060000Y-51940000D01*
X-97535000Y-86460000D02*
X-108540000Y-86460000D01*
X-97535000Y-83940000D02*
X-108540000Y-83940000D01*
X-97535000Y-91260000D02*
X-108540000Y-91260000D01*
X-97535000Y-88740000D02*
X-108540000Y-88740000D01*
X-97535000Y-71460000D02*
X-108540000Y-71460000D01*
X-97535000Y-68940000D02*
X-108540000Y-68940000D01*
X-97535000Y-76260000D02*
X-108540000Y-76260000D01*
X-97535000Y-73740000D02*
X-108540000Y-73740000D01*
X-34465000Y-88740000D02*
X-23460000Y-88740000D01*
X-34465000Y-91260000D02*
X-23460000Y-91260000D01*
X-34465000Y-83940000D02*
X-23460000Y-83940000D01*
X-34465000Y-86460000D02*
X-23460000Y-86460000D01*
X-34465000Y-73540000D02*
X-23460000Y-73540000D01*
X-34465000Y-76060000D02*
X-23460000Y-76060000D01*
X-34465000Y-68740000D02*
X-23460000Y-68740000D01*
X-34465000Y-71260000D02*
X-23460000Y-71260000D01*
X-34465000Y-58540000D02*
X-23460000Y-58540000D01*
X-34465000Y-61060000D02*
X-23460000Y-61060000D01*
X-34465000Y-53740000D02*
X-23460000Y-53740000D01*
X-34465000Y-56260000D02*
X-23460000Y-56260000D01*
X-83276000Y-94868000D02*
X-88676000Y-94868000D01*
X-83276000Y-91568000D02*
X-88676000Y-91568000D01*
X-83276000Y-94868000D02*
X-83276000Y-91568000D01*
X-83530000Y-78104000D02*
X-88930000Y-78104000D01*
X-83530000Y-74804000D02*
X-88930000Y-74804000D01*
X-83530000Y-78104000D02*
X-83530000Y-74804000D01*
X-83530000Y-62610000D02*
X-88930000Y-62610000D01*
X-83530000Y-59310000D02*
X-88930000Y-59310000D01*
X-83530000Y-62610000D02*
X-83530000Y-59310000D01*
X-48436000Y-84472000D02*
X-43036000Y-84472000D01*
X-48436000Y-87772000D02*
X-43036000Y-87772000D01*
X-48436000Y-84472000D02*
X-48436000Y-87772000D01*
X-48436000Y-67962000D02*
X-43036000Y-67962000D01*
X-48436000Y-71262000D02*
X-43036000Y-71262000D01*
X-48436000Y-67962000D02*
X-48436000Y-71262000D01*
X-80072000Y-89916000D02*
G75*
G03*
X-80072000Y-89916000I-254000J0D01*
G01*
X-85152000Y-87757000D02*
X-85152000Y-89535000D01*
X-79056000Y-87757000D02*
X-79056000Y-89535000D01*
X-79056000Y-86614000D02*
X-79056000Y-86995000D01*
X-85152000Y-86614000D02*
X-85152000Y-86995000D01*
X-85152000Y-90678000D02*
X-85152000Y-90297000D01*
X-79056000Y-90678000D02*
X-79056000Y-90297000D01*
X-82612000Y-90678000D02*
X-85152000Y-90678000D01*
X-82612000Y-90170000D02*
X-82612000Y-90678000D01*
X-81596000Y-90678000D02*
X-81596000Y-90170000D01*
X-79056000Y-90678000D02*
X-81596000Y-90678000D01*
X-79056000Y-86614000D02*
X-85152000Y-86614000D01*
X-82612000Y-90170000D02*
G75*
G02*
X-81596000Y-90170000I508000J0D01*
G01*
X-80326000Y-73152000D02*
G75*
G03*
X-80326000Y-73152000I-254000J0D01*
G01*
X-85406000Y-70993000D02*
X-85406000Y-72771000D01*
X-79310000Y-70993000D02*
X-79310000Y-72771000D01*
X-79310000Y-69850000D02*
X-79310000Y-70231000D01*
X-85406000Y-69850000D02*
X-85406000Y-70231000D01*
X-85406000Y-73914000D02*
X-85406000Y-73533000D01*
X-79310000Y-73914000D02*
X-79310000Y-73533000D01*
X-82866000Y-73914000D02*
X-85406000Y-73914000D01*
X-82866000Y-73406000D02*
X-82866000Y-73914000D01*
X-81850000Y-73914000D02*
X-81850000Y-73406000D01*
X-79310000Y-73914000D02*
X-81850000Y-73914000D01*
X-79310000Y-69850000D02*
X-85406000Y-69850000D01*
X-82866000Y-73406000D02*
G75*
G02*
X-81850000Y-73406000I508000J0D01*
G01*
X-80326000Y-57658000D02*
G75*
G03*
X-80326000Y-57658000I-254000J0D01*
G01*
X-85406000Y-55499000D02*
X-85406000Y-57277000D01*
X-79310000Y-55499000D02*
X-79310000Y-57277000D01*
X-79310000Y-54356000D02*
X-79310000Y-54737000D01*
X-85406000Y-54356000D02*
X-85406000Y-54737000D01*
X-85406000Y-58420000D02*
X-85406000Y-58039000D01*
X-79310000Y-58420000D02*
X-79310000Y-58039000D01*
X-82866000Y-58420000D02*
X-85406000Y-58420000D01*
X-82866000Y-57912000D02*
X-82866000Y-58420000D01*
X-81850000Y-58420000D02*
X-81850000Y-57912000D01*
X-79310000Y-58420000D02*
X-81850000Y-58420000D01*
X-79310000Y-54356000D02*
X-85406000Y-54356000D01*
X-82866000Y-57912000D02*
G75*
G02*
X-81850000Y-57912000I508000J0D01*
G01*
X-51132000Y-89424000D02*
G75*
G03*
X-51132000Y-89424000I-254000J0D01*
G01*
X-46560000Y-91583000D02*
X-46560000Y-89805000D01*
X-52656000Y-91583000D02*
X-52656000Y-89805000D01*
X-52656000Y-92726000D02*
X-52656000Y-92345000D01*
X-46560000Y-92726000D02*
X-46560000Y-92345000D01*
X-46560000Y-88662000D02*
X-46560000Y-89043000D01*
X-52656000Y-88662000D02*
X-52656000Y-89043000D01*
X-49100000Y-88662000D02*
X-46560000Y-88662000D01*
X-49100000Y-89170000D02*
X-49100000Y-88662000D01*
X-50116000Y-88662000D02*
X-50116000Y-89170000D01*
X-52656000Y-88662000D02*
X-50116000Y-88662000D01*
X-52656000Y-92726000D02*
X-46560000Y-92726000D01*
X-49100000Y-89170000D02*
G75*
G02*
X-50116000Y-89170000I-508000J0D01*
G01*
X-51132000Y-72914000D02*
G75*
G03*
X-51132000Y-72914000I-254000J0D01*
G01*
X-46560000Y-75073000D02*
X-46560000Y-73295000D01*
X-52656000Y-75073000D02*
X-52656000Y-73295000D01*
X-52656000Y-76216000D02*
X-52656000Y-75835000D01*
X-46560000Y-76216000D02*
X-46560000Y-75835000D01*
X-46560000Y-72152000D02*
X-46560000Y-72533000D01*
X-52656000Y-72152000D02*
X-52656000Y-72533000D01*
X-49100000Y-72152000D02*
X-46560000Y-72152000D01*
X-49100000Y-72660000D02*
X-49100000Y-72152000D01*
X-50116000Y-72152000D02*
X-50116000Y-72660000D01*
X-52656000Y-72152000D02*
X-50116000Y-72152000D01*
X-52656000Y-76216000D02*
X-46560000Y-76216000D01*
X-49100000Y-72660000D02*
G75*
G02*
X-50116000Y-72660000I-508000J0D01*
G01*
X-51005000Y-56404000D02*
G75*
G03*
X-51005000Y-56404000I-254000J0D01*
G01*
X-46433000Y-58563000D02*
X-46433000Y-56785000D01*
X-52529000Y-58563000D02*
X-52529000Y-56785000D01*
X-52529000Y-59706000D02*
X-52529000Y-59325000D01*
X-46433000Y-59706000D02*
X-46433000Y-59325000D01*
X-46433000Y-55642000D02*
X-46433000Y-56023000D01*
X-52529000Y-55642000D02*
X-52529000Y-56023000D01*
X-48973000Y-55642000D02*
X-46433000Y-55642000D01*
X-48973000Y-56150000D02*
X-48973000Y-55642000D01*
X-49989000Y-55642000D02*
X-49989000Y-56150000D01*
X-52529000Y-55642000D02*
X-49989000Y-55642000D01*
X-52529000Y-59706000D02*
X-46433000Y-59706000D01*
X-48973000Y-56150000D02*
G75*
G02*
X-49989000Y-56150000I-508000J0D01*
G01*
X-84819258Y-85612500D02*
X-84344742Y-85612500D01*
X-84819258Y-84567500D02*
X-84344742Y-84567500D01*
X-85135258Y-68848500D02*
X-84660742Y-68848500D01*
X-85135258Y-67803500D02*
X-84660742Y-67803500D01*
X-85135258Y-53354500D02*
X-84660742Y-53354500D01*
X-85135258Y-52309500D02*
X-84660742Y-52309500D01*
X-46830742Y-93727500D02*
X-47305258Y-93727500D01*
X-46830742Y-94772500D02*
X-47305258Y-94772500D01*
X-46830742Y-77217500D02*
X-47305258Y-77217500D01*
X-46830742Y-78262500D02*
X-47305258Y-78262500D01*
X-46576742Y-60707500D02*
X-47051258Y-60707500D01*
X-46576742Y-61752500D02*
X-47051258Y-61752500D01*
X-79326742Y-91679500D02*
X-79801258Y-91679500D01*
X-79326742Y-92724500D02*
X-79801258Y-92724500D01*
X-79580742Y-74915500D02*
X-80055258Y-74915500D01*
X-79580742Y-75960500D02*
X-80055258Y-75960500D01*
X-79580742Y-59421500D02*
X-80055258Y-59421500D01*
X-79580742Y-60466500D02*
X-80055258Y-60466500D01*
X-52385258Y-87660500D02*
X-51910742Y-87660500D01*
X-52385258Y-86615500D02*
X-51910742Y-86615500D01*
X-52385258Y-71150500D02*
X-51910742Y-71150500D01*
X-52385258Y-70105500D02*
X-51910742Y-70105500D01*
X-52448258Y-54640500D02*
X-51973742Y-54640500D01*
X-52448258Y-53595500D02*
X-51973742Y-53595500D01*
X-89468000Y-87066000D02*
X-88008000Y-87066000D01*
X-89468000Y-90226000D02*
X-87308000Y-90226000D01*
X-89468000Y-90226000D02*
X-89468000Y-89296000D01*
X-89468000Y-87066000D02*
X-89468000Y-87996000D01*
X-89738000Y-70302000D02*
X-88278000Y-70302000D01*
X-89738000Y-73462000D02*
X-87578000Y-73462000D01*
X-89738000Y-73462000D02*
X-89738000Y-72532000D01*
X-89738000Y-70302000D02*
X-89738000Y-71232000D01*
X-89722000Y-54808000D02*
X-88262000Y-54808000D01*
X-89722000Y-57968000D02*
X-87562000Y-57968000D01*
X-89722000Y-57968000D02*
X-89722000Y-57038000D01*
X-89722000Y-54808000D02*
X-89722000Y-55738000D01*
X-42244000Y-92274000D02*
X-43704000Y-92274000D01*
X-42244000Y-89114000D02*
X-44404000Y-89114000D01*
X-42244000Y-89114000D02*
X-42244000Y-90044000D01*
X-42244000Y-92274000D02*
X-42244000Y-91344000D01*
X-42244000Y-75764000D02*
X-43704000Y-75764000D01*
X-42244000Y-72604000D02*
X-44404000Y-72604000D01*
X-42244000Y-72604000D02*
X-42244000Y-73534000D01*
X-42244000Y-75764000D02*
X-42244000Y-74834000D01*
X-41990000Y-59254000D02*
X-43450000Y-59254000D01*
X-41990000Y-56094000D02*
X-44150000Y-56094000D01*
X-41990000Y-56094000D02*
X-41990000Y-57024000D01*
X-41990000Y-59254000D02*
X-41990000Y-58324000D01*
X-77740000Y-97025000D02*
X-77740000Y-99825000D01*
X-77740000Y-99825000D02*
X-79740000Y-99825000D01*
X-79740000Y-99825000D02*
X-79740000Y-97025000D01*
X-79740000Y-97025000D02*
X-77740000Y-97025000D01*
X-52340000Y-97010000D02*
X-52340000Y-99810000D01*
X-52340000Y-99810000D02*
X-54340000Y-99810000D01*
X-54340000Y-99810000D02*
X-54340000Y-97010000D01*
X-54340000Y-97010000D02*
X-52340000Y-97010000D01*
X-62045000Y-102235000D02*
X-62045000Y-103565000D01*
X-62045000Y-103565000D02*
X-63375000Y-103565000D01*
X-64645000Y-103565000D02*
X-69785000Y-103565000D01*
X-69785000Y-100905000D02*
X-69785000Y-103565000D01*
X-64645000Y-100905000D02*
X-69785000Y-100905000D01*
X-64645000Y-100905000D02*
X-64645000Y-103565000D01*
X-74870000Y-102235000D02*
X-74870000Y-103565000D01*
X-74870000Y-103565000D02*
X-76200000Y-103565000D01*
X-77470000Y-103565000D02*
X-82610000Y-103565000D01*
X-82610000Y-100905000D02*
X-82610000Y-103565000D01*
X-77470000Y-100905000D02*
X-82610000Y-100905000D01*
X-77470000Y-100905000D02*
X-77470000Y-103565000D01*
X-57210000Y-102235000D02*
X-57210000Y-100905000D01*
X-57210000Y-100905000D02*
X-55880000Y-100905000D01*
X-54610000Y-100905000D02*
X-49470000Y-100905000D01*
X-49470000Y-103565000D02*
X-49470000Y-100905000D01*
X-54610000Y-103565000D02*
X-49470000Y-103565000D01*
X-54610000Y-103565000D02*
X-54610000Y-100905000D01*
X-48182000Y-51579000D02*
X-42782000Y-51579000D01*
X-48182000Y-54879000D02*
X-42782000Y-54879000D01*
X-48182000Y-51579000D02*
X-48182000Y-54879000D01*
X-78079000Y-84355000D02*
X-80364000Y-84355000D01*
X-78079000Y-85825000D02*
X-78079000Y-84355000D01*
X-80364000Y-85825000D02*
X-78079000Y-85825000D01*
X-78333000Y-67591000D02*
X-80618000Y-67591000D01*
X-78333000Y-69061000D02*
X-78333000Y-67591000D01*
X-80618000Y-69061000D02*
X-78333000Y-69061000D01*
X-78333000Y-52097000D02*
X-80618000Y-52097000D01*
X-78333000Y-53567000D02*
X-78333000Y-52097000D01*
X-80618000Y-53567000D02*
X-78333000Y-53567000D01*
X-53633000Y-94985000D02*
X-51348000Y-94985000D01*
X-53633000Y-93515000D02*
X-53633000Y-94985000D01*
X-51348000Y-93515000D02*
X-53633000Y-93515000D01*
X-53633000Y-78475000D02*
X-51348000Y-78475000D01*
X-53633000Y-77005000D02*
X-53633000Y-78475000D01*
X-51348000Y-77005000D02*
X-53633000Y-77005000D01*
X-53506000Y-61965000D02*
X-51221000Y-61965000D01*
X-53506000Y-60495000D02*
X-53506000Y-61965000D01*
X-51221000Y-60495000D02*
X-53506000Y-60495000D01*
D10*
X-83119904Y-54824380D02*
X-83119904Y-55633904D01*
X-83072285Y-55729142D01*
X-83024666Y-55776761D01*
X-82929428Y-55824380D01*
X-82738952Y-55824380D01*
X-82643714Y-55776761D01*
X-82596095Y-55729142D01*
X-82548476Y-55633904D01*
X-82548476Y-54824380D01*
X-81643714Y-55157714D02*
X-81643714Y-55824380D01*
X-81881809Y-54776761D02*
X-82119904Y-55491047D01*
X-81500857Y-55491047D01*
M02*
