G04 #@! TF.GenerationSoftware,KiCad,Pcbnew,(5.1.9)-1*
G04 #@! TF.CreationDate,2021-06-08T18:40:06+01:00*
G04 #@! TF.ProjectId,BrushlessPlatform V1 - SMD,42727573-686c-4657-9373-506c6174666f,rev?*
G04 #@! TF.SameCoordinates,Original*
G04 #@! TF.FileFunction,Copper,L1,Top*
G04 #@! TF.FilePolarity,Positive*
%FSLAX46Y46*%
G04 Gerber Fmt 4.6, Leading zero omitted, Abs format (unit mm)*
G04 Created by KiCad (PCBNEW (5.1.9)-1) date 2021-06-08 18:40:06*
%MOMM*%
%LPD*%
G01*
G04 APERTURE LIST*
G04 #@! TA.AperFunction,ComponentPad*
%ADD10C,2.550000*%
G04 #@! TD*
G04 #@! TA.AperFunction,ComponentPad*
%ADD11C,6.000000*%
G04 #@! TD*
G04 #@! TA.AperFunction,ComponentPad*
%ADD12C,5.700000*%
G04 #@! TD*
G04 #@! TA.AperFunction,ComponentPad*
%ADD13O,1.600000X1.600000*%
G04 #@! TD*
G04 #@! TA.AperFunction,ComponentPad*
%ADD14R,1.600000X1.600000*%
G04 #@! TD*
G04 #@! TA.AperFunction,SMDPad,CuDef*
%ADD15R,2.500000X1.800000*%
G04 #@! TD*
G04 #@! TA.AperFunction,SMDPad,CuDef*
%ADD16R,1.500000X0.600000*%
G04 #@! TD*
G04 #@! TA.AperFunction,SMDPad,CuDef*
%ADD17R,0.900000X0.800000*%
G04 #@! TD*
G04 #@! TA.AperFunction,SMDPad,CuDef*
%ADD18R,1.500000X1.000000*%
G04 #@! TD*
G04 #@! TA.AperFunction,ComponentPad*
%ADD19O,1.700000X1.700000*%
G04 #@! TD*
G04 #@! TA.AperFunction,ComponentPad*
%ADD20R,1.700000X1.700000*%
G04 #@! TD*
G04 #@! TA.AperFunction,ViaPad*
%ADD21C,0.800000*%
G04 #@! TD*
G04 #@! TA.AperFunction,Conductor*
%ADD22C,0.250000*%
G04 #@! TD*
G04 #@! TA.AperFunction,Conductor*
%ADD23C,1.000000*%
G04 #@! TD*
G04 #@! TA.AperFunction,Conductor*
%ADD24C,0.254000*%
G04 #@! TD*
G04 #@! TA.AperFunction,Conductor*
%ADD25C,0.100000*%
G04 #@! TD*
G04 APERTURE END LIST*
D10*
X-96000000Y-59800000D03*
G04 #@! TA.AperFunction,ComponentPad*
G36*
G01*
X-97025001Y-53725000D02*
X-94974999Y-53725000D01*
G75*
G02*
X-94725000Y-53974999I0J-249999D01*
G01*
X-94725000Y-56025001D01*
G75*
G02*
X-94974999Y-56275000I-249999J0D01*
G01*
X-97025001Y-56275000D01*
G75*
G02*
X-97275000Y-56025001I0J249999D01*
G01*
X-97275000Y-53974999D01*
G75*
G02*
X-97025001Y-53725000I249999J0D01*
G01*
G37*
G04 #@! TD.AperFunction*
G04 #@! TA.AperFunction,ComponentPad*
G36*
G01*
X-30500000Y-36000000D02*
X-27500000Y-36000000D01*
G75*
G02*
X-26000000Y-37500000I0J-1500000D01*
G01*
X-26000000Y-40500000D01*
G75*
G02*
X-27500000Y-42000000I-1500000J0D01*
G01*
X-30500000Y-42000000D01*
G75*
G02*
X-32000000Y-40500000I0J1500000D01*
G01*
X-32000000Y-37500000D01*
G75*
G02*
X-30500000Y-36000000I1500000J0D01*
G01*
G37*
G04 #@! TD.AperFunction*
D11*
X-29000000Y-46200000D03*
G04 #@! TA.AperFunction,ComponentPad*
G36*
G01*
X-104500000Y-35800000D02*
X-101500000Y-35800000D01*
G75*
G02*
X-100000000Y-37300000I0J-1500000D01*
G01*
X-100000000Y-40300000D01*
G75*
G02*
X-101500000Y-41800000I-1500000J0D01*
G01*
X-104500000Y-41800000D01*
G75*
G02*
X-106000000Y-40300000I0J1500000D01*
G01*
X-106000000Y-37300000D01*
G75*
G02*
X-104500000Y-35800000I1500000J0D01*
G01*
G37*
G04 #@! TD.AperFunction*
X-103000000Y-46000000D03*
G04 #@! TA.AperFunction,ComponentPad*
G36*
G01*
X-67500000Y-35800000D02*
X-64500000Y-35800000D01*
G75*
G02*
X-63000000Y-37300000I0J-1500000D01*
G01*
X-63000000Y-40300000D01*
G75*
G02*
X-64500000Y-41800000I-1500000J0D01*
G01*
X-67500000Y-41800000D01*
G75*
G02*
X-69000000Y-40300000I0J1500000D01*
G01*
X-69000000Y-37300000D01*
G75*
G02*
X-67500000Y-35800000I1500000J0D01*
G01*
G37*
G04 #@! TD.AperFunction*
X-66000000Y-46000000D03*
D12*
X-110000000Y-104000000D03*
X-110000000Y-35000000D03*
D13*
X-58420000Y-91440000D03*
X-73660000Y-91440000D03*
X-58420000Y-55880000D03*
X-73660000Y-88900000D03*
X-58420000Y-58420000D03*
X-73660000Y-86360000D03*
X-58420000Y-60960000D03*
X-73660000Y-83820000D03*
X-58420000Y-63500000D03*
X-73660000Y-81280000D03*
X-58420000Y-66040000D03*
X-73660000Y-78740000D03*
X-58420000Y-68580000D03*
X-73660000Y-76200000D03*
X-58420000Y-71120000D03*
X-73660000Y-73660000D03*
X-58420000Y-73660000D03*
X-73660000Y-71120000D03*
X-58420000Y-76200000D03*
X-73660000Y-68580000D03*
X-58420000Y-78740000D03*
X-73660000Y-66040000D03*
X-58420000Y-81280000D03*
X-73660000Y-63500000D03*
X-58420000Y-83820000D03*
X-73660000Y-60960000D03*
X-58420000Y-86360000D03*
X-73660000Y-58420000D03*
X-58420000Y-88900000D03*
D14*
X-73660000Y-55880000D03*
D10*
X-96000000Y-90000000D03*
G04 #@! TA.AperFunction,ComponentPad*
G36*
G01*
X-97025001Y-83925000D02*
X-94974999Y-83925000D01*
G75*
G02*
X-94725000Y-84174999I0J-249999D01*
G01*
X-94725000Y-86225001D01*
G75*
G02*
X-94974999Y-86475000I-249999J0D01*
G01*
X-97025001Y-86475000D01*
G75*
G02*
X-97275000Y-86225001I0J249999D01*
G01*
X-97275000Y-84174999D01*
G75*
G02*
X-97025001Y-83925000I249999J0D01*
G01*
G37*
G04 #@! TD.AperFunction*
X-96000000Y-75000000D03*
G04 #@! TA.AperFunction,ComponentPad*
G36*
G01*
X-97025001Y-68925000D02*
X-94974999Y-68925000D01*
G75*
G02*
X-94725000Y-69174999I0J-249999D01*
G01*
X-94725000Y-71225001D01*
G75*
G02*
X-94974999Y-71475000I-249999J0D01*
G01*
X-97025001Y-71475000D01*
G75*
G02*
X-97275000Y-71225001I0J249999D01*
G01*
X-97275000Y-69174999D01*
G75*
G02*
X-97025001Y-68925000I249999J0D01*
G01*
G37*
G04 #@! TD.AperFunction*
X-36000000Y-85200000D03*
G04 #@! TA.AperFunction,ComponentPad*
G36*
G01*
X-34974999Y-91275000D02*
X-37025001Y-91275000D01*
G75*
G02*
X-37275000Y-91025001I0J249999D01*
G01*
X-37275000Y-88974999D01*
G75*
G02*
X-37025001Y-88725000I249999J0D01*
G01*
X-34974999Y-88725000D01*
G75*
G02*
X-34725000Y-88974999I0J-249999D01*
G01*
X-34725000Y-91025001D01*
G75*
G02*
X-34974999Y-91275000I-249999J0D01*
G01*
G37*
G04 #@! TD.AperFunction*
X-36000000Y-70000000D03*
G04 #@! TA.AperFunction,ComponentPad*
G36*
G01*
X-34974999Y-76075000D02*
X-37025001Y-76075000D01*
G75*
G02*
X-37275000Y-75825001I0J249999D01*
G01*
X-37275000Y-73774999D01*
G75*
G02*
X-37025001Y-73525000I249999J0D01*
G01*
X-34974999Y-73525000D01*
G75*
G02*
X-34725000Y-73774999I0J-249999D01*
G01*
X-34725000Y-75825001D01*
G75*
G02*
X-34974999Y-76075000I-249999J0D01*
G01*
G37*
G04 #@! TD.AperFunction*
X-36000000Y-55000000D03*
G04 #@! TA.AperFunction,ComponentPad*
G36*
G01*
X-34974999Y-61075000D02*
X-37025001Y-61075000D01*
G75*
G02*
X-37275000Y-60825001I0J249999D01*
G01*
X-37275000Y-58774999D01*
G75*
G02*
X-37025001Y-58525000I249999J0D01*
G01*
X-34974999Y-58525000D01*
G75*
G02*
X-34725000Y-58774999I0J-249999D01*
G01*
X-34725000Y-60825001D01*
G75*
G02*
X-34974999Y-61075000I-249999J0D01*
G01*
G37*
G04 #@! TD.AperFunction*
D12*
X-22000000Y-35000000D03*
X-22000000Y-104000000D03*
D15*
X-88676000Y-93218000D03*
X-84676000Y-93218000D03*
X-88930000Y-76454000D03*
X-84930000Y-76454000D03*
X-88930000Y-60960000D03*
X-84930000Y-60960000D03*
X-43036000Y-86122000D03*
X-47036000Y-86122000D03*
X-43036000Y-69612000D03*
X-47036000Y-69612000D03*
D16*
X-85279000Y-89916000D03*
X-85279000Y-87376000D03*
X-78929000Y-87376000D03*
X-78929000Y-89916000D03*
X-85533000Y-73152000D03*
X-85533000Y-70612000D03*
X-79183000Y-70612000D03*
X-79183000Y-73152000D03*
X-85533000Y-57658000D03*
X-85533000Y-55118000D03*
X-79183000Y-55118000D03*
X-79183000Y-57658000D03*
X-46433000Y-89424000D03*
X-46433000Y-91964000D03*
X-52783000Y-91964000D03*
X-52783000Y-89424000D03*
X-46433000Y-72914000D03*
X-46433000Y-75454000D03*
X-52783000Y-75454000D03*
X-52783000Y-72914000D03*
X-46306000Y-56404000D03*
X-46306000Y-58944000D03*
X-52656000Y-58944000D03*
X-52656000Y-56404000D03*
G04 #@! TA.AperFunction,SMDPad,CuDef*
G36*
G01*
X-84157000Y-85365000D02*
X-84157000Y-84815000D01*
G75*
G02*
X-83957000Y-84615000I200000J0D01*
G01*
X-83557000Y-84615000D01*
G75*
G02*
X-83357000Y-84815000I0J-200000D01*
G01*
X-83357000Y-85365000D01*
G75*
G02*
X-83557000Y-85565000I-200000J0D01*
G01*
X-83957000Y-85565000D01*
G75*
G02*
X-84157000Y-85365000I0J200000D01*
G01*
G37*
G04 #@! TD.AperFunction*
G04 #@! TA.AperFunction,SMDPad,CuDef*
G36*
G01*
X-85807000Y-85365000D02*
X-85807000Y-84815000D01*
G75*
G02*
X-85607000Y-84615000I200000J0D01*
G01*
X-85207000Y-84615000D01*
G75*
G02*
X-85007000Y-84815000I0J-200000D01*
G01*
X-85007000Y-85365000D01*
G75*
G02*
X-85207000Y-85565000I-200000J0D01*
G01*
X-85607000Y-85565000D01*
G75*
G02*
X-85807000Y-85365000I0J200000D01*
G01*
G37*
G04 #@! TD.AperFunction*
G04 #@! TA.AperFunction,SMDPad,CuDef*
G36*
G01*
X-84473000Y-68601000D02*
X-84473000Y-68051000D01*
G75*
G02*
X-84273000Y-67851000I200000J0D01*
G01*
X-83873000Y-67851000D01*
G75*
G02*
X-83673000Y-68051000I0J-200000D01*
G01*
X-83673000Y-68601000D01*
G75*
G02*
X-83873000Y-68801000I-200000J0D01*
G01*
X-84273000Y-68801000D01*
G75*
G02*
X-84473000Y-68601000I0J200000D01*
G01*
G37*
G04 #@! TD.AperFunction*
G04 #@! TA.AperFunction,SMDPad,CuDef*
G36*
G01*
X-86123000Y-68601000D02*
X-86123000Y-68051000D01*
G75*
G02*
X-85923000Y-67851000I200000J0D01*
G01*
X-85523000Y-67851000D01*
G75*
G02*
X-85323000Y-68051000I0J-200000D01*
G01*
X-85323000Y-68601000D01*
G75*
G02*
X-85523000Y-68801000I-200000J0D01*
G01*
X-85923000Y-68801000D01*
G75*
G02*
X-86123000Y-68601000I0J200000D01*
G01*
G37*
G04 #@! TD.AperFunction*
G04 #@! TA.AperFunction,SMDPad,CuDef*
G36*
G01*
X-84473000Y-53107000D02*
X-84473000Y-52557000D01*
G75*
G02*
X-84273000Y-52357000I200000J0D01*
G01*
X-83873000Y-52357000D01*
G75*
G02*
X-83673000Y-52557000I0J-200000D01*
G01*
X-83673000Y-53107000D01*
G75*
G02*
X-83873000Y-53307000I-200000J0D01*
G01*
X-84273000Y-53307000D01*
G75*
G02*
X-84473000Y-53107000I0J200000D01*
G01*
G37*
G04 #@! TD.AperFunction*
G04 #@! TA.AperFunction,SMDPad,CuDef*
G36*
G01*
X-86123000Y-53107000D02*
X-86123000Y-52557000D01*
G75*
G02*
X-85923000Y-52357000I200000J0D01*
G01*
X-85523000Y-52357000D01*
G75*
G02*
X-85323000Y-52557000I0J-200000D01*
G01*
X-85323000Y-53107000D01*
G75*
G02*
X-85523000Y-53307000I-200000J0D01*
G01*
X-85923000Y-53307000D01*
G75*
G02*
X-86123000Y-53107000I0J200000D01*
G01*
G37*
G04 #@! TD.AperFunction*
G04 #@! TA.AperFunction,SMDPad,CuDef*
G36*
G01*
X-47493000Y-93975000D02*
X-47493000Y-94525000D01*
G75*
G02*
X-47693000Y-94725000I-200000J0D01*
G01*
X-48093000Y-94725000D01*
G75*
G02*
X-48293000Y-94525000I0J200000D01*
G01*
X-48293000Y-93975000D01*
G75*
G02*
X-48093000Y-93775000I200000J0D01*
G01*
X-47693000Y-93775000D01*
G75*
G02*
X-47493000Y-93975000I0J-200000D01*
G01*
G37*
G04 #@! TD.AperFunction*
G04 #@! TA.AperFunction,SMDPad,CuDef*
G36*
G01*
X-45843000Y-93975000D02*
X-45843000Y-94525000D01*
G75*
G02*
X-46043000Y-94725000I-200000J0D01*
G01*
X-46443000Y-94725000D01*
G75*
G02*
X-46643000Y-94525000I0J200000D01*
G01*
X-46643000Y-93975000D01*
G75*
G02*
X-46443000Y-93775000I200000J0D01*
G01*
X-46043000Y-93775000D01*
G75*
G02*
X-45843000Y-93975000I0J-200000D01*
G01*
G37*
G04 #@! TD.AperFunction*
G04 #@! TA.AperFunction,SMDPad,CuDef*
G36*
G01*
X-47493000Y-77465000D02*
X-47493000Y-78015000D01*
G75*
G02*
X-47693000Y-78215000I-200000J0D01*
G01*
X-48093000Y-78215000D01*
G75*
G02*
X-48293000Y-78015000I0J200000D01*
G01*
X-48293000Y-77465000D01*
G75*
G02*
X-48093000Y-77265000I200000J0D01*
G01*
X-47693000Y-77265000D01*
G75*
G02*
X-47493000Y-77465000I0J-200000D01*
G01*
G37*
G04 #@! TD.AperFunction*
G04 #@! TA.AperFunction,SMDPad,CuDef*
G36*
G01*
X-45843000Y-77465000D02*
X-45843000Y-78015000D01*
G75*
G02*
X-46043000Y-78215000I-200000J0D01*
G01*
X-46443000Y-78215000D01*
G75*
G02*
X-46643000Y-78015000I0J200000D01*
G01*
X-46643000Y-77465000D01*
G75*
G02*
X-46443000Y-77265000I200000J0D01*
G01*
X-46043000Y-77265000D01*
G75*
G02*
X-45843000Y-77465000I0J-200000D01*
G01*
G37*
G04 #@! TD.AperFunction*
G04 #@! TA.AperFunction,SMDPad,CuDef*
G36*
G01*
X-47239000Y-60955000D02*
X-47239000Y-61505000D01*
G75*
G02*
X-47439000Y-61705000I-200000J0D01*
G01*
X-47839000Y-61705000D01*
G75*
G02*
X-48039000Y-61505000I0J200000D01*
G01*
X-48039000Y-60955000D01*
G75*
G02*
X-47839000Y-60755000I200000J0D01*
G01*
X-47439000Y-60755000D01*
G75*
G02*
X-47239000Y-60955000I0J-200000D01*
G01*
G37*
G04 #@! TD.AperFunction*
G04 #@! TA.AperFunction,SMDPad,CuDef*
G36*
G01*
X-45589000Y-60955000D02*
X-45589000Y-61505000D01*
G75*
G02*
X-45789000Y-61705000I-200000J0D01*
G01*
X-46189000Y-61705000D01*
G75*
G02*
X-46389000Y-61505000I0J200000D01*
G01*
X-46389000Y-60955000D01*
G75*
G02*
X-46189000Y-60755000I200000J0D01*
G01*
X-45789000Y-60755000D01*
G75*
G02*
X-45589000Y-60955000I0J-200000D01*
G01*
G37*
G04 #@! TD.AperFunction*
G04 #@! TA.AperFunction,SMDPad,CuDef*
G36*
G01*
X-79989000Y-91927000D02*
X-79989000Y-92477000D01*
G75*
G02*
X-80189000Y-92677000I-200000J0D01*
G01*
X-80589000Y-92677000D01*
G75*
G02*
X-80789000Y-92477000I0J200000D01*
G01*
X-80789000Y-91927000D01*
G75*
G02*
X-80589000Y-91727000I200000J0D01*
G01*
X-80189000Y-91727000D01*
G75*
G02*
X-79989000Y-91927000I0J-200000D01*
G01*
G37*
G04 #@! TD.AperFunction*
G04 #@! TA.AperFunction,SMDPad,CuDef*
G36*
G01*
X-78339000Y-91927000D02*
X-78339000Y-92477000D01*
G75*
G02*
X-78539000Y-92677000I-200000J0D01*
G01*
X-78939000Y-92677000D01*
G75*
G02*
X-79139000Y-92477000I0J200000D01*
G01*
X-79139000Y-91927000D01*
G75*
G02*
X-78939000Y-91727000I200000J0D01*
G01*
X-78539000Y-91727000D01*
G75*
G02*
X-78339000Y-91927000I0J-200000D01*
G01*
G37*
G04 #@! TD.AperFunction*
G04 #@! TA.AperFunction,SMDPad,CuDef*
G36*
G01*
X-80243000Y-75163000D02*
X-80243000Y-75713000D01*
G75*
G02*
X-80443000Y-75913000I-200000J0D01*
G01*
X-80843000Y-75913000D01*
G75*
G02*
X-81043000Y-75713000I0J200000D01*
G01*
X-81043000Y-75163000D01*
G75*
G02*
X-80843000Y-74963000I200000J0D01*
G01*
X-80443000Y-74963000D01*
G75*
G02*
X-80243000Y-75163000I0J-200000D01*
G01*
G37*
G04 #@! TD.AperFunction*
G04 #@! TA.AperFunction,SMDPad,CuDef*
G36*
G01*
X-78593000Y-75163000D02*
X-78593000Y-75713000D01*
G75*
G02*
X-78793000Y-75913000I-200000J0D01*
G01*
X-79193000Y-75913000D01*
G75*
G02*
X-79393000Y-75713000I0J200000D01*
G01*
X-79393000Y-75163000D01*
G75*
G02*
X-79193000Y-74963000I200000J0D01*
G01*
X-78793000Y-74963000D01*
G75*
G02*
X-78593000Y-75163000I0J-200000D01*
G01*
G37*
G04 #@! TD.AperFunction*
G04 #@! TA.AperFunction,SMDPad,CuDef*
G36*
G01*
X-80243000Y-59669000D02*
X-80243000Y-60219000D01*
G75*
G02*
X-80443000Y-60419000I-200000J0D01*
G01*
X-80843000Y-60419000D01*
G75*
G02*
X-81043000Y-60219000I0J200000D01*
G01*
X-81043000Y-59669000D01*
G75*
G02*
X-80843000Y-59469000I200000J0D01*
G01*
X-80443000Y-59469000D01*
G75*
G02*
X-80243000Y-59669000I0J-200000D01*
G01*
G37*
G04 #@! TD.AperFunction*
G04 #@! TA.AperFunction,SMDPad,CuDef*
G36*
G01*
X-78593000Y-59669000D02*
X-78593000Y-60219000D01*
G75*
G02*
X-78793000Y-60419000I-200000J0D01*
G01*
X-79193000Y-60419000D01*
G75*
G02*
X-79393000Y-60219000I0J200000D01*
G01*
X-79393000Y-59669000D01*
G75*
G02*
X-79193000Y-59469000I200000J0D01*
G01*
X-78793000Y-59469000D01*
G75*
G02*
X-78593000Y-59669000I0J-200000D01*
G01*
G37*
G04 #@! TD.AperFunction*
G04 #@! TA.AperFunction,SMDPad,CuDef*
G36*
G01*
X-51723000Y-87413000D02*
X-51723000Y-86863000D01*
G75*
G02*
X-51523000Y-86663000I200000J0D01*
G01*
X-51123000Y-86663000D01*
G75*
G02*
X-50923000Y-86863000I0J-200000D01*
G01*
X-50923000Y-87413000D01*
G75*
G02*
X-51123000Y-87613000I-200000J0D01*
G01*
X-51523000Y-87613000D01*
G75*
G02*
X-51723000Y-87413000I0J200000D01*
G01*
G37*
G04 #@! TD.AperFunction*
G04 #@! TA.AperFunction,SMDPad,CuDef*
G36*
G01*
X-53373000Y-87413000D02*
X-53373000Y-86863000D01*
G75*
G02*
X-53173000Y-86663000I200000J0D01*
G01*
X-52773000Y-86663000D01*
G75*
G02*
X-52573000Y-86863000I0J-200000D01*
G01*
X-52573000Y-87413000D01*
G75*
G02*
X-52773000Y-87613000I-200000J0D01*
G01*
X-53173000Y-87613000D01*
G75*
G02*
X-53373000Y-87413000I0J200000D01*
G01*
G37*
G04 #@! TD.AperFunction*
G04 #@! TA.AperFunction,SMDPad,CuDef*
G36*
G01*
X-51723000Y-70903000D02*
X-51723000Y-70353000D01*
G75*
G02*
X-51523000Y-70153000I200000J0D01*
G01*
X-51123000Y-70153000D01*
G75*
G02*
X-50923000Y-70353000I0J-200000D01*
G01*
X-50923000Y-70903000D01*
G75*
G02*
X-51123000Y-71103000I-200000J0D01*
G01*
X-51523000Y-71103000D01*
G75*
G02*
X-51723000Y-70903000I0J200000D01*
G01*
G37*
G04 #@! TD.AperFunction*
G04 #@! TA.AperFunction,SMDPad,CuDef*
G36*
G01*
X-53373000Y-70903000D02*
X-53373000Y-70353000D01*
G75*
G02*
X-53173000Y-70153000I200000J0D01*
G01*
X-52773000Y-70153000D01*
G75*
G02*
X-52573000Y-70353000I0J-200000D01*
G01*
X-52573000Y-70903000D01*
G75*
G02*
X-52773000Y-71103000I-200000J0D01*
G01*
X-53173000Y-71103000D01*
G75*
G02*
X-53373000Y-70903000I0J200000D01*
G01*
G37*
G04 #@! TD.AperFunction*
G04 #@! TA.AperFunction,SMDPad,CuDef*
G36*
G01*
X-51786000Y-54393000D02*
X-51786000Y-53843000D01*
G75*
G02*
X-51586000Y-53643000I200000J0D01*
G01*
X-51186000Y-53643000D01*
G75*
G02*
X-50986000Y-53843000I0J-200000D01*
G01*
X-50986000Y-54393000D01*
G75*
G02*
X-51186000Y-54593000I-200000J0D01*
G01*
X-51586000Y-54593000D01*
G75*
G02*
X-51786000Y-54393000I0J200000D01*
G01*
G37*
G04 #@! TD.AperFunction*
G04 #@! TA.AperFunction,SMDPad,CuDef*
G36*
G01*
X-53436000Y-54393000D02*
X-53436000Y-53843000D01*
G75*
G02*
X-53236000Y-53643000I200000J0D01*
G01*
X-52836000Y-53643000D01*
G75*
G02*
X-52636000Y-53843000I0J-200000D01*
G01*
X-52636000Y-54393000D01*
G75*
G02*
X-52836000Y-54593000I-200000J0D01*
G01*
X-53236000Y-54593000D01*
G75*
G02*
X-53436000Y-54393000I0J200000D01*
G01*
G37*
G04 #@! TD.AperFunction*
D17*
X-89708000Y-88646000D03*
X-87708000Y-87696000D03*
X-87708000Y-89596000D03*
X-89978000Y-71882000D03*
X-87978000Y-70932000D03*
X-87978000Y-72832000D03*
X-89962000Y-56388000D03*
X-87962000Y-55438000D03*
X-87962000Y-57338000D03*
X-42004000Y-90694000D03*
X-44004000Y-91644000D03*
X-44004000Y-89744000D03*
X-42004000Y-74184000D03*
X-44004000Y-75134000D03*
X-44004000Y-73234000D03*
X-41750000Y-57674000D03*
X-43750000Y-58624000D03*
X-43750000Y-56724000D03*
D18*
X-78740000Y-97775000D03*
X-78740000Y-99075000D03*
X-53340000Y-97760000D03*
X-53340000Y-99060000D03*
D19*
X-68455000Y-102235000D03*
X-65915000Y-102235000D03*
D20*
X-63375000Y-102235000D03*
D19*
X-81280000Y-102235000D03*
X-78740000Y-102235000D03*
D20*
X-76200000Y-102235000D03*
D19*
X-50800000Y-102235000D03*
X-53340000Y-102235000D03*
D20*
X-55880000Y-102235000D03*
D15*
X-42782000Y-53229000D03*
X-46782000Y-53229000D03*
G04 #@! TA.AperFunction,SMDPad,CuDef*
G36*
G01*
X-79914000Y-84833750D02*
X-79914000Y-85346250D01*
G75*
G02*
X-80132750Y-85565000I-218750J0D01*
G01*
X-80570250Y-85565000D01*
G75*
G02*
X-80789000Y-85346250I0J218750D01*
G01*
X-80789000Y-84833750D01*
G75*
G02*
X-80570250Y-84615000I218750J0D01*
G01*
X-80132750Y-84615000D01*
G75*
G02*
X-79914000Y-84833750I0J-218750D01*
G01*
G37*
G04 #@! TD.AperFunction*
G04 #@! TA.AperFunction,SMDPad,CuDef*
G36*
G01*
X-78339000Y-84833750D02*
X-78339000Y-85346250D01*
G75*
G02*
X-78557750Y-85565000I-218750J0D01*
G01*
X-78995250Y-85565000D01*
G75*
G02*
X-79214000Y-85346250I0J218750D01*
G01*
X-79214000Y-84833750D01*
G75*
G02*
X-78995250Y-84615000I218750J0D01*
G01*
X-78557750Y-84615000D01*
G75*
G02*
X-78339000Y-84833750I0J-218750D01*
G01*
G37*
G04 #@! TD.AperFunction*
G04 #@! TA.AperFunction,SMDPad,CuDef*
G36*
G01*
X-80168000Y-68069750D02*
X-80168000Y-68582250D01*
G75*
G02*
X-80386750Y-68801000I-218750J0D01*
G01*
X-80824250Y-68801000D01*
G75*
G02*
X-81043000Y-68582250I0J218750D01*
G01*
X-81043000Y-68069750D01*
G75*
G02*
X-80824250Y-67851000I218750J0D01*
G01*
X-80386750Y-67851000D01*
G75*
G02*
X-80168000Y-68069750I0J-218750D01*
G01*
G37*
G04 #@! TD.AperFunction*
G04 #@! TA.AperFunction,SMDPad,CuDef*
G36*
G01*
X-78593000Y-68069750D02*
X-78593000Y-68582250D01*
G75*
G02*
X-78811750Y-68801000I-218750J0D01*
G01*
X-79249250Y-68801000D01*
G75*
G02*
X-79468000Y-68582250I0J218750D01*
G01*
X-79468000Y-68069750D01*
G75*
G02*
X-79249250Y-67851000I218750J0D01*
G01*
X-78811750Y-67851000D01*
G75*
G02*
X-78593000Y-68069750I0J-218750D01*
G01*
G37*
G04 #@! TD.AperFunction*
G04 #@! TA.AperFunction,SMDPad,CuDef*
G36*
G01*
X-80168000Y-52575750D02*
X-80168000Y-53088250D01*
G75*
G02*
X-80386750Y-53307000I-218750J0D01*
G01*
X-80824250Y-53307000D01*
G75*
G02*
X-81043000Y-53088250I0J218750D01*
G01*
X-81043000Y-52575750D01*
G75*
G02*
X-80824250Y-52357000I218750J0D01*
G01*
X-80386750Y-52357000D01*
G75*
G02*
X-80168000Y-52575750I0J-218750D01*
G01*
G37*
G04 #@! TD.AperFunction*
G04 #@! TA.AperFunction,SMDPad,CuDef*
G36*
G01*
X-78593000Y-52575750D02*
X-78593000Y-53088250D01*
G75*
G02*
X-78811750Y-53307000I-218750J0D01*
G01*
X-79249250Y-53307000D01*
G75*
G02*
X-79468000Y-53088250I0J218750D01*
G01*
X-79468000Y-52575750D01*
G75*
G02*
X-79249250Y-52357000I218750J0D01*
G01*
X-78811750Y-52357000D01*
G75*
G02*
X-78593000Y-52575750I0J-218750D01*
G01*
G37*
G04 #@! TD.AperFunction*
G04 #@! TA.AperFunction,SMDPad,CuDef*
G36*
G01*
X-51798000Y-94506250D02*
X-51798000Y-93993750D01*
G75*
G02*
X-51579250Y-93775000I218750J0D01*
G01*
X-51141750Y-93775000D01*
G75*
G02*
X-50923000Y-93993750I0J-218750D01*
G01*
X-50923000Y-94506250D01*
G75*
G02*
X-51141750Y-94725000I-218750J0D01*
G01*
X-51579250Y-94725000D01*
G75*
G02*
X-51798000Y-94506250I0J218750D01*
G01*
G37*
G04 #@! TD.AperFunction*
G04 #@! TA.AperFunction,SMDPad,CuDef*
G36*
G01*
X-53373000Y-94506250D02*
X-53373000Y-93993750D01*
G75*
G02*
X-53154250Y-93775000I218750J0D01*
G01*
X-52716750Y-93775000D01*
G75*
G02*
X-52498000Y-93993750I0J-218750D01*
G01*
X-52498000Y-94506250D01*
G75*
G02*
X-52716750Y-94725000I-218750J0D01*
G01*
X-53154250Y-94725000D01*
G75*
G02*
X-53373000Y-94506250I0J218750D01*
G01*
G37*
G04 #@! TD.AperFunction*
G04 #@! TA.AperFunction,SMDPad,CuDef*
G36*
G01*
X-51798000Y-77996250D02*
X-51798000Y-77483750D01*
G75*
G02*
X-51579250Y-77265000I218750J0D01*
G01*
X-51141750Y-77265000D01*
G75*
G02*
X-50923000Y-77483750I0J-218750D01*
G01*
X-50923000Y-77996250D01*
G75*
G02*
X-51141750Y-78215000I-218750J0D01*
G01*
X-51579250Y-78215000D01*
G75*
G02*
X-51798000Y-77996250I0J218750D01*
G01*
G37*
G04 #@! TD.AperFunction*
G04 #@! TA.AperFunction,SMDPad,CuDef*
G36*
G01*
X-53373000Y-77996250D02*
X-53373000Y-77483750D01*
G75*
G02*
X-53154250Y-77265000I218750J0D01*
G01*
X-52716750Y-77265000D01*
G75*
G02*
X-52498000Y-77483750I0J-218750D01*
G01*
X-52498000Y-77996250D01*
G75*
G02*
X-52716750Y-78215000I-218750J0D01*
G01*
X-53154250Y-78215000D01*
G75*
G02*
X-53373000Y-77996250I0J218750D01*
G01*
G37*
G04 #@! TD.AperFunction*
G04 #@! TA.AperFunction,SMDPad,CuDef*
G36*
G01*
X-51671000Y-61486250D02*
X-51671000Y-60973750D01*
G75*
G02*
X-51452250Y-60755000I218750J0D01*
G01*
X-51014750Y-60755000D01*
G75*
G02*
X-50796000Y-60973750I0J-218750D01*
G01*
X-50796000Y-61486250D01*
G75*
G02*
X-51014750Y-61705000I-218750J0D01*
G01*
X-51452250Y-61705000D01*
G75*
G02*
X-51671000Y-61486250I0J218750D01*
G01*
G37*
G04 #@! TD.AperFunction*
G04 #@! TA.AperFunction,SMDPad,CuDef*
G36*
G01*
X-53246000Y-61486250D02*
X-53246000Y-60973750D01*
G75*
G02*
X-53027250Y-60755000I218750J0D01*
G01*
X-52589750Y-60755000D01*
G75*
G02*
X-52371000Y-60973750I0J-218750D01*
G01*
X-52371000Y-61486250D01*
G75*
G02*
X-52589750Y-61705000I-218750J0D01*
G01*
X-53027250Y-61705000D01*
G75*
G02*
X-53246000Y-61486250I0J218750D01*
G01*
G37*
G04 #@! TD.AperFunction*
D21*
X-86445484Y-56530744D03*
X-86445484Y-71864015D03*
X-85892933Y-88670753D03*
X-45280486Y-57727936D03*
X-45464669Y-74166308D03*
X-45464669Y-90512588D03*
D22*
X-76200000Y-91440000D02*
X-73660000Y-88900000D01*
X-76200000Y-102235000D02*
X-76200000Y-91440000D01*
X-57785000Y-102235000D02*
X-73660000Y-86360000D01*
X-55880000Y-102235000D02*
X-57785000Y-102235000D01*
D23*
X-50095990Y-55408010D02*
X-51386000Y-54118000D01*
X-51656808Y-63500000D02*
X-50095990Y-61939182D01*
X-50095990Y-61939182D02*
X-50095990Y-55408010D01*
X-58420000Y-63500000D02*
X-51656808Y-63500000D01*
X-81743010Y-74337990D02*
X-80643000Y-75438000D01*
X-81743010Y-61044010D02*
X-81743010Y-74337990D01*
X-80643000Y-59944000D02*
X-81743010Y-61044010D01*
X-81743010Y-90847990D02*
X-80389000Y-92202000D01*
X-81743010Y-74337990D02*
X-81743010Y-90847990D01*
X-80389000Y-96126000D02*
X-78740000Y-97775000D01*
X-80389000Y-92202000D02*
X-80389000Y-96126000D01*
X-50095990Y-69400990D02*
X-51323000Y-70628000D01*
X-50095990Y-61939182D02*
X-50095990Y-69400990D01*
X-50095990Y-85910990D02*
X-51323000Y-87138000D01*
X-50095990Y-69400990D02*
X-50095990Y-85910990D01*
X-53096174Y-97760000D02*
X-53340000Y-97760000D01*
X-50095990Y-94759816D02*
X-53096174Y-97760000D01*
X-50095990Y-85910990D02*
X-50095990Y-94759816D01*
X-81743010Y-52195184D02*
X-81743010Y-61044010D01*
X-81204816Y-51656990D02*
X-81743010Y-52195184D01*
X-53372010Y-51656990D02*
X-81204816Y-51656990D01*
X-51386000Y-53643000D02*
X-53372010Y-51656990D01*
X-51386000Y-54118000D02*
X-51386000Y-53643000D01*
D22*
X-78776500Y-83856500D02*
X-73660000Y-78740000D01*
X-78776500Y-85090000D02*
X-78776500Y-83856500D01*
X-77178250Y-72681750D02*
X-73660000Y-76200000D01*
X-77178250Y-70178250D02*
X-77178250Y-72681750D01*
X-79030500Y-68326000D02*
X-77178250Y-70178250D01*
X-79030500Y-52832000D02*
X-79030500Y-52969500D01*
X-73660000Y-73060090D02*
X-73660000Y-73660000D01*
X-76000000Y-70720090D02*
X-73660000Y-73060090D01*
X-76000000Y-56000000D02*
X-76000000Y-70720090D01*
X-79030500Y-52969500D02*
X-76000000Y-56000000D01*
X-72534999Y-72245001D02*
X-73660000Y-71120000D01*
X-72534999Y-78990003D02*
X-72534999Y-72245001D01*
X-57275002Y-94250000D02*
X-72534999Y-78990003D01*
X-52935500Y-94250000D02*
X-57275002Y-94250000D01*
X-72245001Y-69994999D02*
X-73660000Y-68580000D01*
X-57294999Y-70579999D02*
X-57879999Y-69994999D01*
X-57294999Y-73380501D02*
X-57294999Y-70579999D01*
X-57879999Y-69994999D02*
X-72245001Y-69994999D01*
X-52935500Y-77740000D02*
X-57294999Y-73380501D01*
X-53953499Y-62374999D02*
X-69994999Y-62374999D01*
X-69994999Y-62374999D02*
X-73660000Y-66040000D01*
X-52808500Y-61230000D02*
X-53953499Y-62374999D01*
X-51233500Y-60366500D02*
X-52656000Y-58944000D01*
X-51233500Y-61230000D02*
X-51233500Y-60366500D01*
X-51360500Y-76876500D02*
X-52783000Y-75454000D01*
X-51360500Y-77740000D02*
X-51360500Y-76876500D01*
X-51360500Y-93386500D02*
X-52783000Y-91964000D01*
X-51360500Y-94250000D02*
X-51360500Y-93386500D01*
X-79183000Y-54254500D02*
X-80605500Y-52832000D01*
X-79183000Y-55118000D02*
X-79183000Y-54254500D01*
X-79183000Y-69748500D02*
X-80605500Y-68326000D01*
X-79183000Y-70612000D02*
X-79183000Y-69748500D01*
X-78929000Y-86512500D02*
X-80351500Y-85090000D01*
X-78929000Y-87376000D02*
X-78929000Y-86512500D01*
D23*
X-37771000Y-53229000D02*
X-36000000Y-55000000D01*
X-42782000Y-53229000D02*
X-37771000Y-53229000D01*
X-41750000Y-54261000D02*
X-42782000Y-53229000D01*
X-41750000Y-57674000D02*
X-41750000Y-54261000D01*
X-46306000Y-53705000D02*
X-46782000Y-53229000D01*
X-46306000Y-56404000D02*
X-46306000Y-53705000D01*
X-47036000Y-72311000D02*
X-46433000Y-72914000D01*
X-47036000Y-69612000D02*
X-47036000Y-72311000D01*
X-47036000Y-88821000D02*
X-46433000Y-89424000D01*
X-47036000Y-86122000D02*
X-47036000Y-88821000D01*
X-85533000Y-60357000D02*
X-84930000Y-60960000D01*
X-85533000Y-57658000D02*
X-85533000Y-60357000D01*
X-85533000Y-75851000D02*
X-84930000Y-76454000D01*
X-85533000Y-73152000D02*
X-85533000Y-75851000D01*
X-85279000Y-92615000D02*
X-84676000Y-93218000D01*
X-85279000Y-89916000D02*
X-85279000Y-92615000D01*
X-85533000Y-57443228D02*
X-86445484Y-56530744D01*
X-85533000Y-57658000D02*
X-85533000Y-57443228D01*
X-85533000Y-72776499D02*
X-86445484Y-71864015D01*
X-85533000Y-73152000D02*
X-85533000Y-72776499D01*
X-85279000Y-89284686D02*
X-85892933Y-88670753D01*
X-85279000Y-89916000D02*
X-85279000Y-89284686D01*
X-46306000Y-56702422D02*
X-45280486Y-57727936D01*
X-46306000Y-56404000D02*
X-46306000Y-56702422D01*
X-46433000Y-73197977D02*
X-45464669Y-74166308D01*
X-46433000Y-72914000D02*
X-46433000Y-73197977D01*
X-46433000Y-89544257D02*
X-45464669Y-90512588D01*
X-46433000Y-89424000D02*
X-46433000Y-89544257D01*
X-42004000Y-70644000D02*
X-43036000Y-69612000D01*
X-42004000Y-74184000D02*
X-42004000Y-70644000D01*
X-36388000Y-69612000D02*
X-36000000Y-70000000D01*
X-43036000Y-69612000D02*
X-36388000Y-69612000D01*
X-36922000Y-86122000D02*
X-36000000Y-85200000D01*
X-43036000Y-86122000D02*
X-36922000Y-86122000D01*
X-42004000Y-87154000D02*
X-42004000Y-90694000D01*
X-43036000Y-86122000D02*
X-42004000Y-87154000D01*
X-89962000Y-59928000D02*
X-89962000Y-56388000D01*
X-88930000Y-60960000D02*
X-89962000Y-59928000D01*
X-94840000Y-60960000D02*
X-96000000Y-59800000D01*
X-88930000Y-60960000D02*
X-94840000Y-60960000D01*
X-89978000Y-75406000D02*
X-89978000Y-71882000D01*
X-88930000Y-76454000D02*
X-89978000Y-75406000D01*
X-94546000Y-76454000D02*
X-96000000Y-75000000D01*
X-88930000Y-76454000D02*
X-94546000Y-76454000D01*
X-89708000Y-92186000D02*
X-89708000Y-88646000D01*
X-88676000Y-93218000D02*
X-89708000Y-92186000D01*
X-92782000Y-93218000D02*
X-96000000Y-90000000D01*
X-88676000Y-93218000D02*
X-92782000Y-93218000D01*
X-53340000Y-99060000D02*
X-53340000Y-102235000D01*
X-78740000Y-99075000D02*
X-78740000Y-102235000D01*
D22*
X-45989000Y-60863000D02*
X-43750000Y-58624000D01*
X-45989000Y-61230000D02*
X-45989000Y-60863000D01*
X-44004000Y-75501000D02*
X-46243000Y-77740000D01*
X-44004000Y-75134000D02*
X-44004000Y-75501000D01*
X-46243000Y-93883000D02*
X-44004000Y-91644000D01*
X-46243000Y-94250000D02*
X-46243000Y-93883000D01*
X-87962000Y-55071000D02*
X-85723000Y-52832000D01*
X-87962000Y-55438000D02*
X-87962000Y-55071000D01*
X-87978000Y-70581000D02*
X-85723000Y-68326000D01*
X-87978000Y-70932000D02*
X-87978000Y-70581000D01*
X-87708000Y-87391000D02*
X-85407000Y-85090000D01*
X-87708000Y-87696000D02*
X-87708000Y-87391000D01*
X-53036000Y-56024000D02*
X-52656000Y-56404000D01*
X-53036000Y-54118000D02*
X-53036000Y-56024000D01*
X-52973000Y-72724000D02*
X-52783000Y-72914000D01*
X-52973000Y-70628000D02*
X-52973000Y-72724000D01*
X-52973000Y-89234000D02*
X-52783000Y-89424000D01*
X-52973000Y-87138000D02*
X-52973000Y-89234000D01*
X-78993000Y-57848000D02*
X-79183000Y-57658000D01*
X-78993000Y-59944000D02*
X-78993000Y-57848000D01*
X-78993000Y-73342000D02*
X-79183000Y-73152000D01*
X-78993000Y-75438000D02*
X-78993000Y-73342000D01*
X-78739000Y-90106000D02*
X-78929000Y-89916000D01*
X-78739000Y-92202000D02*
X-78739000Y-90106000D01*
X-46306000Y-59897000D02*
X-47639000Y-61230000D01*
X-46306000Y-58944000D02*
X-46306000Y-59897000D01*
X-46433000Y-76280000D02*
X-47893000Y-77740000D01*
X-46433000Y-75454000D02*
X-46433000Y-76280000D01*
X-46433000Y-92790000D02*
X-47893000Y-94250000D01*
X-46433000Y-91964000D02*
X-46433000Y-92790000D01*
X-85533000Y-54292000D02*
X-84073000Y-52832000D01*
X-85533000Y-55118000D02*
X-85533000Y-54292000D01*
X-85533000Y-69786000D02*
X-84073000Y-68326000D01*
X-85533000Y-70612000D02*
X-85533000Y-69786000D01*
X-85279000Y-86612000D02*
X-83757000Y-85090000D01*
X-85279000Y-87376000D02*
X-85279000Y-86612000D01*
D24*
X-105318205Y-42275321D02*
X-104917117Y-42396990D01*
X-104500000Y-42438072D01*
X-103775695Y-42438072D01*
X-104382609Y-42619204D01*
X-105015603Y-42953898D01*
X-105042894Y-42972132D01*
X-105379081Y-43441314D01*
X-103000000Y-45820395D01*
X-100620919Y-43441314D01*
X-100957106Y-42972132D01*
X-101587068Y-42631763D01*
X-102215406Y-42438072D01*
X-101500000Y-42438072D01*
X-101082883Y-42396990D01*
X-100681795Y-42275321D01*
X-100404306Y-42127000D01*
X-68595694Y-42127000D01*
X-68318205Y-42275321D01*
X-67917117Y-42396990D01*
X-67500000Y-42438072D01*
X-66775695Y-42438072D01*
X-67382609Y-42619204D01*
X-68015603Y-42953898D01*
X-68042894Y-42972132D01*
X-68379081Y-43441314D01*
X-66000000Y-45820395D01*
X-63620919Y-43441314D01*
X-63957106Y-42972132D01*
X-64587068Y-42631763D01*
X-65215406Y-42438072D01*
X-64500000Y-42438072D01*
X-64082883Y-42396990D01*
X-63681795Y-42275321D01*
X-63404306Y-42127000D01*
X-31871528Y-42127000D01*
X-31687849Y-42277742D01*
X-31318205Y-42475321D01*
X-30917117Y-42596990D01*
X-30500000Y-42638072D01*
X-29775695Y-42638072D01*
X-30382609Y-42819204D01*
X-31015603Y-43153898D01*
X-31042894Y-43172132D01*
X-31379081Y-43641314D01*
X-29000000Y-46020395D01*
X-26620919Y-43641314D01*
X-26957106Y-43172132D01*
X-27587068Y-42831763D01*
X-28215406Y-42638072D01*
X-27500000Y-42638072D01*
X-27082883Y-42596990D01*
X-26681795Y-42475321D01*
X-26312151Y-42277742D01*
X-26128472Y-42127000D01*
X-18660000Y-42127000D01*
X-18659999Y-97873000D01*
X-48873000Y-97873000D01*
X-48873000Y-94826853D01*
X-48867278Y-94845716D01*
X-48789831Y-94990608D01*
X-48685606Y-95117606D01*
X-48558608Y-95221831D01*
X-48413716Y-95299278D01*
X-48256500Y-95346969D01*
X-48093000Y-95363072D01*
X-47693000Y-95363072D01*
X-47529500Y-95346969D01*
X-47372284Y-95299278D01*
X-47227392Y-95221831D01*
X-47100394Y-95117606D01*
X-47068000Y-95078134D01*
X-47035606Y-95117606D01*
X-46908608Y-95221831D01*
X-46763716Y-95299278D01*
X-46606500Y-95346969D01*
X-46443000Y-95363072D01*
X-46043000Y-95363072D01*
X-45879500Y-95346969D01*
X-45722284Y-95299278D01*
X-45577392Y-95221831D01*
X-45450394Y-95117606D01*
X-45346169Y-94990608D01*
X-45268722Y-94845716D01*
X-45221031Y-94688500D01*
X-45204928Y-94525000D01*
X-45204928Y-93975000D01*
X-45209884Y-93924685D01*
X-43967270Y-92682072D01*
X-43554000Y-92682072D01*
X-43429518Y-92669812D01*
X-43309820Y-92633502D01*
X-43199506Y-92574537D01*
X-43102815Y-92495185D01*
X-43023463Y-92398494D01*
X-42964498Y-92288180D01*
X-42928188Y-92168482D01*
X-42915928Y-92044000D01*
X-42915928Y-91532095D01*
X-42905185Y-91545185D01*
X-42808494Y-91624537D01*
X-42698180Y-91683502D01*
X-42578482Y-91719812D01*
X-42473172Y-91730184D01*
X-42440446Y-91747676D01*
X-42226498Y-91812577D01*
X-42004000Y-91834491D01*
X-41781501Y-91812577D01*
X-41567553Y-91747676D01*
X-41534827Y-91730184D01*
X-41429518Y-91719812D01*
X-41309820Y-91683502D01*
X-41199506Y-91624537D01*
X-41102815Y-91545185D01*
X-41023463Y-91448494D01*
X-40964498Y-91338180D01*
X-40928188Y-91218482D01*
X-40915928Y-91094000D01*
X-40915928Y-91017060D01*
X-40885423Y-90916499D01*
X-40869000Y-90749752D01*
X-40869000Y-88974999D01*
X-37913072Y-88974999D01*
X-37913072Y-91025001D01*
X-37896008Y-91198255D01*
X-37845472Y-91364851D01*
X-37763405Y-91518387D01*
X-37652962Y-91652962D01*
X-37518387Y-91763405D01*
X-37364851Y-91845472D01*
X-37198255Y-91896008D01*
X-37025001Y-91913072D01*
X-34974999Y-91913072D01*
X-34801745Y-91896008D01*
X-34635149Y-91845472D01*
X-34481613Y-91763405D01*
X-34347038Y-91652962D01*
X-34236595Y-91518387D01*
X-34154528Y-91364851D01*
X-34103992Y-91198255D01*
X-34086928Y-91025001D01*
X-34086928Y-89799570D01*
X-24235000Y-89799570D01*
X-24235000Y-90200430D01*
X-24156796Y-90593587D01*
X-24003393Y-90963934D01*
X-23780687Y-91297237D01*
X-23497237Y-91580687D01*
X-23163934Y-91803393D01*
X-22793587Y-91956796D01*
X-22400430Y-92035000D01*
X-21999570Y-92035000D01*
X-21606413Y-91956796D01*
X-21236066Y-91803393D01*
X-20902763Y-91580687D01*
X-20619313Y-91297237D01*
X-20396607Y-90963934D01*
X-20243204Y-90593587D01*
X-20165000Y-90200430D01*
X-20165000Y-89799570D01*
X-20243204Y-89406413D01*
X-20396607Y-89036066D01*
X-20619313Y-88702763D01*
X-20902763Y-88419313D01*
X-21236066Y-88196607D01*
X-21606413Y-88043204D01*
X-21999570Y-87965000D01*
X-22400430Y-87965000D01*
X-22793587Y-88043204D01*
X-23163934Y-88196607D01*
X-23497237Y-88419313D01*
X-23780687Y-88702763D01*
X-24003393Y-89036066D01*
X-24156796Y-89406413D01*
X-24235000Y-89799570D01*
X-34086928Y-89799570D01*
X-34086928Y-88974999D01*
X-34103992Y-88801745D01*
X-34154528Y-88635149D01*
X-34236595Y-88481613D01*
X-34347038Y-88347038D01*
X-34481613Y-88236595D01*
X-34635149Y-88154528D01*
X-34801745Y-88103992D01*
X-34974999Y-88086928D01*
X-37025001Y-88086928D01*
X-37198255Y-88103992D01*
X-37364851Y-88154528D01*
X-37518387Y-88236595D01*
X-37652962Y-88347038D01*
X-37763405Y-88481613D01*
X-37845472Y-88635149D01*
X-37896008Y-88801745D01*
X-37913072Y-88974999D01*
X-40869000Y-88974999D01*
X-40869000Y-87257000D01*
X-36977751Y-87257000D01*
X-36922000Y-87262491D01*
X-36866249Y-87257000D01*
X-36866248Y-87257000D01*
X-36699501Y-87240577D01*
X-36485553Y-87175676D01*
X-36315338Y-87084695D01*
X-36188119Y-87110000D01*
X-35811881Y-87110000D01*
X-35442873Y-87036600D01*
X-35095276Y-86892620D01*
X-34782446Y-86683594D01*
X-34516406Y-86417554D01*
X-34307380Y-86104724D01*
X-34163400Y-85757127D01*
X-34090000Y-85388119D01*
X-34090000Y-85011881D01*
X-34092448Y-84999570D01*
X-24235000Y-84999570D01*
X-24235000Y-85400430D01*
X-24156796Y-85793587D01*
X-24003393Y-86163934D01*
X-23780687Y-86497237D01*
X-23497237Y-86780687D01*
X-23163934Y-87003393D01*
X-22793587Y-87156796D01*
X-22400430Y-87235000D01*
X-21999570Y-87235000D01*
X-21606413Y-87156796D01*
X-21236066Y-87003393D01*
X-20902763Y-86780687D01*
X-20619313Y-86497237D01*
X-20396607Y-86163934D01*
X-20243204Y-85793587D01*
X-20165000Y-85400430D01*
X-20165000Y-84999570D01*
X-20243204Y-84606413D01*
X-20396607Y-84236066D01*
X-20619313Y-83902763D01*
X-20902763Y-83619313D01*
X-21236066Y-83396607D01*
X-21606413Y-83243204D01*
X-21999570Y-83165000D01*
X-22400430Y-83165000D01*
X-22793587Y-83243204D01*
X-23163934Y-83396607D01*
X-23497237Y-83619313D01*
X-23780687Y-83902763D01*
X-24003393Y-84236066D01*
X-24156796Y-84606413D01*
X-24235000Y-84999570D01*
X-34092448Y-84999570D01*
X-34163400Y-84642873D01*
X-34307380Y-84295276D01*
X-34516406Y-83982446D01*
X-34782446Y-83716406D01*
X-35095276Y-83507380D01*
X-35442873Y-83363400D01*
X-35811881Y-83290000D01*
X-36188119Y-83290000D01*
X-36557127Y-83363400D01*
X-36904724Y-83507380D01*
X-37217554Y-83716406D01*
X-37483594Y-83982446D01*
X-37692620Y-84295276D01*
X-37836600Y-84642873D01*
X-37905051Y-84987000D01*
X-41193713Y-84987000D01*
X-41196498Y-84977820D01*
X-41255463Y-84867506D01*
X-41334815Y-84770815D01*
X-41431506Y-84691463D01*
X-41541820Y-84632498D01*
X-41661518Y-84596188D01*
X-41786000Y-84583928D01*
X-44286000Y-84583928D01*
X-44410482Y-84596188D01*
X-44530180Y-84632498D01*
X-44640494Y-84691463D01*
X-44737185Y-84770815D01*
X-44816537Y-84867506D01*
X-44875502Y-84977820D01*
X-44911812Y-85097518D01*
X-44924072Y-85222000D01*
X-44924072Y-87022000D01*
X-44911812Y-87146482D01*
X-44875502Y-87266180D01*
X-44816537Y-87376494D01*
X-44737185Y-87473185D01*
X-44640494Y-87552537D01*
X-44530180Y-87611502D01*
X-44410482Y-87647812D01*
X-44286000Y-87660072D01*
X-43139000Y-87660072D01*
X-43139000Y-88863119D01*
X-43199506Y-88813463D01*
X-43309820Y-88754498D01*
X-43429518Y-88718188D01*
X-43554000Y-88705928D01*
X-43718250Y-88709000D01*
X-43877000Y-88867750D01*
X-43877000Y-89617000D01*
X-43857000Y-89617000D01*
X-43857000Y-89871000D01*
X-43877000Y-89871000D01*
X-43877000Y-89891000D01*
X-44131000Y-89891000D01*
X-44131000Y-89871000D01*
X-44151000Y-89871000D01*
X-44151000Y-89617000D01*
X-44131000Y-89617000D01*
X-44131000Y-88867750D01*
X-44289750Y-88709000D01*
X-44454000Y-88705928D01*
X-44578482Y-88718188D01*
X-44698180Y-88754498D01*
X-44808494Y-88813463D01*
X-44905185Y-88892815D01*
X-44984537Y-88989506D01*
X-45043502Y-89099820D01*
X-45046376Y-89109295D01*
X-45057188Y-88999518D01*
X-45093498Y-88879820D01*
X-45152463Y-88769506D01*
X-45231815Y-88672815D01*
X-45328506Y-88593463D01*
X-45438820Y-88534498D01*
X-45558518Y-88498188D01*
X-45683000Y-88485928D01*
X-45765941Y-88485928D01*
X-45901000Y-88350869D01*
X-45901000Y-87660072D01*
X-45786000Y-87660072D01*
X-45661518Y-87647812D01*
X-45541820Y-87611502D01*
X-45431506Y-87552537D01*
X-45334815Y-87473185D01*
X-45255463Y-87376494D01*
X-45196498Y-87266180D01*
X-45160188Y-87146482D01*
X-45147928Y-87022000D01*
X-45147928Y-85222000D01*
X-45160188Y-85097518D01*
X-45196498Y-84977820D01*
X-45255463Y-84867506D01*
X-45334815Y-84770815D01*
X-45431506Y-84691463D01*
X-45541820Y-84632498D01*
X-45661518Y-84596188D01*
X-45786000Y-84583928D01*
X-48286000Y-84583928D01*
X-48410482Y-84596188D01*
X-48530180Y-84632498D01*
X-48640494Y-84691463D01*
X-48737185Y-84770815D01*
X-48816537Y-84867506D01*
X-48873000Y-84973139D01*
X-48873000Y-78316853D01*
X-48867278Y-78335716D01*
X-48789831Y-78480608D01*
X-48685606Y-78607606D01*
X-48558608Y-78711831D01*
X-48413716Y-78789278D01*
X-48256500Y-78836969D01*
X-48093000Y-78853072D01*
X-47693000Y-78853072D01*
X-47529500Y-78836969D01*
X-47372284Y-78789278D01*
X-47227392Y-78711831D01*
X-47100394Y-78607606D01*
X-47068000Y-78568134D01*
X-47035606Y-78607606D01*
X-46908608Y-78711831D01*
X-46763716Y-78789278D01*
X-46606500Y-78836969D01*
X-46443000Y-78853072D01*
X-46043000Y-78853072D01*
X-45879500Y-78836969D01*
X-45722284Y-78789278D01*
X-45577392Y-78711831D01*
X-45450394Y-78607606D01*
X-45346169Y-78480608D01*
X-45268722Y-78335716D01*
X-45221031Y-78178500D01*
X-45204928Y-78015000D01*
X-45204928Y-77776729D01*
X-43600270Y-76172072D01*
X-43554000Y-76172072D01*
X-43429518Y-76159812D01*
X-43309820Y-76123502D01*
X-43199506Y-76064537D01*
X-43102815Y-75985185D01*
X-43023463Y-75888494D01*
X-42964498Y-75778180D01*
X-42928188Y-75658482D01*
X-42915928Y-75534000D01*
X-42915928Y-75022095D01*
X-42905185Y-75035185D01*
X-42808494Y-75114537D01*
X-42698180Y-75173502D01*
X-42578482Y-75209812D01*
X-42473173Y-75220184D01*
X-42440447Y-75237676D01*
X-42226499Y-75302577D01*
X-42004000Y-75324491D01*
X-41781502Y-75302577D01*
X-41567554Y-75237676D01*
X-41534828Y-75220184D01*
X-41429518Y-75209812D01*
X-41309820Y-75173502D01*
X-41199506Y-75114537D01*
X-41102815Y-75035185D01*
X-41023463Y-74938494D01*
X-40964498Y-74828180D01*
X-40928188Y-74708482D01*
X-40915928Y-74584000D01*
X-40915928Y-74507060D01*
X-40885423Y-74406499D01*
X-40869000Y-74239752D01*
X-40869000Y-73774999D01*
X-37913072Y-73774999D01*
X-37913072Y-75825001D01*
X-37896008Y-75998255D01*
X-37845472Y-76164851D01*
X-37763405Y-76318387D01*
X-37652962Y-76452962D01*
X-37518387Y-76563405D01*
X-37364851Y-76645472D01*
X-37198255Y-76696008D01*
X-37025001Y-76713072D01*
X-34974999Y-76713072D01*
X-34801745Y-76696008D01*
X-34635149Y-76645472D01*
X-34481613Y-76563405D01*
X-34347038Y-76452962D01*
X-34236595Y-76318387D01*
X-34154528Y-76164851D01*
X-34103992Y-75998255D01*
X-34086928Y-75825001D01*
X-34086928Y-74599570D01*
X-24235000Y-74599570D01*
X-24235000Y-75000430D01*
X-24156796Y-75393587D01*
X-24003393Y-75763934D01*
X-23780687Y-76097237D01*
X-23497237Y-76380687D01*
X-23163934Y-76603393D01*
X-22793587Y-76756796D01*
X-22400430Y-76835000D01*
X-21999570Y-76835000D01*
X-21606413Y-76756796D01*
X-21236066Y-76603393D01*
X-20902763Y-76380687D01*
X-20619313Y-76097237D01*
X-20396607Y-75763934D01*
X-20243204Y-75393587D01*
X-20165000Y-75000430D01*
X-20165000Y-74599570D01*
X-20243204Y-74206413D01*
X-20396607Y-73836066D01*
X-20619313Y-73502763D01*
X-20902763Y-73219313D01*
X-21236066Y-72996607D01*
X-21606413Y-72843204D01*
X-21999570Y-72765000D01*
X-22400430Y-72765000D01*
X-22793587Y-72843204D01*
X-23163934Y-72996607D01*
X-23497237Y-73219313D01*
X-23780687Y-73502763D01*
X-24003393Y-73836066D01*
X-24156796Y-74206413D01*
X-24235000Y-74599570D01*
X-34086928Y-74599570D01*
X-34086928Y-73774999D01*
X-34103992Y-73601745D01*
X-34154528Y-73435149D01*
X-34236595Y-73281613D01*
X-34347038Y-73147038D01*
X-34481613Y-73036595D01*
X-34635149Y-72954528D01*
X-34801745Y-72903992D01*
X-34974999Y-72886928D01*
X-37025001Y-72886928D01*
X-37198255Y-72903992D01*
X-37364851Y-72954528D01*
X-37518387Y-73036595D01*
X-37652962Y-73147038D01*
X-37763405Y-73281613D01*
X-37845472Y-73435149D01*
X-37896008Y-73601745D01*
X-37913072Y-73774999D01*
X-40869000Y-73774999D01*
X-40869000Y-70747000D01*
X-37757952Y-70747000D01*
X-37692620Y-70904724D01*
X-37483594Y-71217554D01*
X-37217554Y-71483594D01*
X-36904724Y-71692620D01*
X-36557127Y-71836600D01*
X-36188119Y-71910000D01*
X-35811881Y-71910000D01*
X-35442873Y-71836600D01*
X-35095276Y-71692620D01*
X-34782446Y-71483594D01*
X-34516406Y-71217554D01*
X-34307380Y-70904724D01*
X-34163400Y-70557127D01*
X-34090000Y-70188119D01*
X-34090000Y-69811881D01*
X-34092448Y-69799570D01*
X-24235000Y-69799570D01*
X-24235000Y-70200430D01*
X-24156796Y-70593587D01*
X-24003393Y-70963934D01*
X-23780687Y-71297237D01*
X-23497237Y-71580687D01*
X-23163934Y-71803393D01*
X-22793587Y-71956796D01*
X-22400430Y-72035000D01*
X-21999570Y-72035000D01*
X-21606413Y-71956796D01*
X-21236066Y-71803393D01*
X-20902763Y-71580687D01*
X-20619313Y-71297237D01*
X-20396607Y-70963934D01*
X-20243204Y-70593587D01*
X-20165000Y-70200430D01*
X-20165000Y-69799570D01*
X-20243204Y-69406413D01*
X-20396607Y-69036066D01*
X-20619313Y-68702763D01*
X-20902763Y-68419313D01*
X-21236066Y-68196607D01*
X-21606413Y-68043204D01*
X-21999570Y-67965000D01*
X-22400430Y-67965000D01*
X-22793587Y-68043204D01*
X-23163934Y-68196607D01*
X-23497237Y-68419313D01*
X-23780687Y-68702763D01*
X-24003393Y-69036066D01*
X-24156796Y-69406413D01*
X-24235000Y-69799570D01*
X-34092448Y-69799570D01*
X-34163400Y-69442873D01*
X-34307380Y-69095276D01*
X-34516406Y-68782446D01*
X-34782446Y-68516406D01*
X-35095276Y-68307380D01*
X-35442873Y-68163400D01*
X-35811881Y-68090000D01*
X-36188119Y-68090000D01*
X-36557127Y-68163400D01*
X-36904724Y-68307380D01*
X-37158579Y-68477000D01*
X-41193713Y-68477000D01*
X-41196498Y-68467820D01*
X-41255463Y-68357506D01*
X-41334815Y-68260815D01*
X-41431506Y-68181463D01*
X-41541820Y-68122498D01*
X-41661518Y-68086188D01*
X-41786000Y-68073928D01*
X-44286000Y-68073928D01*
X-44410482Y-68086188D01*
X-44530180Y-68122498D01*
X-44640494Y-68181463D01*
X-44737185Y-68260815D01*
X-44816537Y-68357506D01*
X-44875502Y-68467820D01*
X-44911812Y-68587518D01*
X-44924072Y-68712000D01*
X-44924072Y-70512000D01*
X-44911812Y-70636482D01*
X-44875502Y-70756180D01*
X-44816537Y-70866494D01*
X-44737185Y-70963185D01*
X-44640494Y-71042537D01*
X-44530180Y-71101502D01*
X-44410482Y-71137812D01*
X-44286000Y-71150072D01*
X-43138999Y-71150072D01*
X-43138999Y-72353119D01*
X-43199506Y-72303463D01*
X-43309820Y-72244498D01*
X-43429518Y-72208188D01*
X-43554000Y-72195928D01*
X-43718250Y-72199000D01*
X-43877000Y-72357750D01*
X-43877000Y-73107000D01*
X-43857000Y-73107000D01*
X-43857000Y-73361000D01*
X-43877000Y-73361000D01*
X-43877000Y-73381000D01*
X-44131000Y-73381000D01*
X-44131000Y-73361000D01*
X-44151000Y-73361000D01*
X-44151000Y-73107000D01*
X-44131000Y-73107000D01*
X-44131000Y-72357750D01*
X-44289750Y-72199000D01*
X-44454000Y-72195928D01*
X-44578482Y-72208188D01*
X-44698180Y-72244498D01*
X-44808494Y-72303463D01*
X-44905185Y-72382815D01*
X-44984537Y-72479506D01*
X-45043502Y-72589820D01*
X-45046376Y-72599295D01*
X-45057188Y-72489518D01*
X-45093498Y-72369820D01*
X-45152463Y-72259506D01*
X-45231815Y-72162815D01*
X-45328506Y-72083463D01*
X-45438820Y-72024498D01*
X-45558518Y-71988188D01*
X-45683000Y-71975928D01*
X-45765941Y-71975928D01*
X-45901000Y-71840869D01*
X-45901000Y-71150072D01*
X-45786000Y-71150072D01*
X-45661518Y-71137812D01*
X-45541820Y-71101502D01*
X-45431506Y-71042537D01*
X-45334815Y-70963185D01*
X-45255463Y-70866494D01*
X-45196498Y-70756180D01*
X-45160188Y-70636482D01*
X-45147928Y-70512000D01*
X-45147928Y-68712000D01*
X-45160188Y-68587518D01*
X-45196498Y-68467820D01*
X-45255463Y-68357506D01*
X-45334815Y-68260815D01*
X-45431506Y-68181463D01*
X-45541820Y-68122498D01*
X-45661518Y-68086188D01*
X-45786000Y-68073928D01*
X-48286000Y-68073928D01*
X-48410482Y-68086188D01*
X-48530180Y-68122498D01*
X-48640494Y-68181463D01*
X-48737185Y-68260815D01*
X-48816537Y-68357506D01*
X-48873000Y-68463139D01*
X-48873000Y-60955000D01*
X-48677072Y-60955000D01*
X-48677072Y-61505000D01*
X-48660969Y-61668500D01*
X-48613278Y-61825716D01*
X-48535831Y-61970608D01*
X-48431606Y-62097606D01*
X-48304608Y-62201831D01*
X-48159716Y-62279278D01*
X-48002500Y-62326969D01*
X-47839000Y-62343072D01*
X-47439000Y-62343072D01*
X-47275500Y-62326969D01*
X-47118284Y-62279278D01*
X-46973392Y-62201831D01*
X-46846394Y-62097606D01*
X-46814000Y-62058134D01*
X-46781606Y-62097606D01*
X-46654608Y-62201831D01*
X-46509716Y-62279278D01*
X-46352500Y-62326969D01*
X-46189000Y-62343072D01*
X-45789000Y-62343072D01*
X-45625500Y-62326969D01*
X-45468284Y-62279278D01*
X-45323392Y-62201831D01*
X-45196394Y-62097606D01*
X-45092169Y-61970608D01*
X-45014722Y-61825716D01*
X-44967031Y-61668500D01*
X-44950928Y-61505000D01*
X-44950928Y-60955000D01*
X-44955884Y-60904685D01*
X-43713270Y-59662072D01*
X-43300000Y-59662072D01*
X-43175518Y-59649812D01*
X-43055820Y-59613502D01*
X-42945506Y-59554537D01*
X-42848815Y-59475185D01*
X-42769463Y-59378494D01*
X-42710498Y-59268180D01*
X-42674188Y-59148482D01*
X-42661928Y-59024000D01*
X-42661928Y-58512095D01*
X-42651185Y-58525185D01*
X-42554494Y-58604537D01*
X-42444180Y-58663502D01*
X-42324482Y-58699812D01*
X-42219173Y-58710184D01*
X-42186447Y-58727676D01*
X-41972499Y-58792577D01*
X-41750000Y-58814491D01*
X-41527502Y-58792577D01*
X-41469556Y-58774999D01*
X-37913072Y-58774999D01*
X-37913072Y-60825001D01*
X-37896008Y-60998255D01*
X-37845472Y-61164851D01*
X-37763405Y-61318387D01*
X-37652962Y-61452962D01*
X-37518387Y-61563405D01*
X-37364851Y-61645472D01*
X-37198255Y-61696008D01*
X-37025001Y-61713072D01*
X-34974999Y-61713072D01*
X-34801745Y-61696008D01*
X-34635149Y-61645472D01*
X-34481613Y-61563405D01*
X-34347038Y-61452962D01*
X-34236595Y-61318387D01*
X-34154528Y-61164851D01*
X-34103992Y-60998255D01*
X-34086928Y-60825001D01*
X-34086928Y-59599570D01*
X-24235000Y-59599570D01*
X-24235000Y-60000430D01*
X-24156796Y-60393587D01*
X-24003393Y-60763934D01*
X-23780687Y-61097237D01*
X-23497237Y-61380687D01*
X-23163934Y-61603393D01*
X-22793587Y-61756796D01*
X-22400430Y-61835000D01*
X-21999570Y-61835000D01*
X-21606413Y-61756796D01*
X-21236066Y-61603393D01*
X-20902763Y-61380687D01*
X-20619313Y-61097237D01*
X-20396607Y-60763934D01*
X-20243204Y-60393587D01*
X-20165000Y-60000430D01*
X-20165000Y-59599570D01*
X-20243204Y-59206413D01*
X-20396607Y-58836066D01*
X-20619313Y-58502763D01*
X-20902763Y-58219313D01*
X-21236066Y-57996607D01*
X-21606413Y-57843204D01*
X-21999570Y-57765000D01*
X-22400430Y-57765000D01*
X-22793587Y-57843204D01*
X-23163934Y-57996607D01*
X-23497237Y-58219313D01*
X-23780687Y-58502763D01*
X-24003393Y-58836066D01*
X-24156796Y-59206413D01*
X-24235000Y-59599570D01*
X-34086928Y-59599570D01*
X-34086928Y-58774999D01*
X-34103992Y-58601745D01*
X-34154528Y-58435149D01*
X-34236595Y-58281613D01*
X-34347038Y-58147038D01*
X-34481613Y-58036595D01*
X-34635149Y-57954528D01*
X-34801745Y-57903992D01*
X-34974999Y-57886928D01*
X-37025001Y-57886928D01*
X-37198255Y-57903992D01*
X-37364851Y-57954528D01*
X-37518387Y-58036595D01*
X-37652962Y-58147038D01*
X-37763405Y-58281613D01*
X-37845472Y-58435149D01*
X-37896008Y-58601745D01*
X-37913072Y-58774999D01*
X-41469556Y-58774999D01*
X-41313554Y-58727676D01*
X-41280828Y-58710184D01*
X-41175518Y-58699812D01*
X-41055820Y-58663502D01*
X-40945506Y-58604537D01*
X-40848815Y-58525185D01*
X-40769463Y-58428494D01*
X-40710498Y-58318180D01*
X-40674188Y-58198482D01*
X-40661928Y-58074000D01*
X-40661928Y-57997060D01*
X-40631423Y-57896499D01*
X-40615000Y-57729752D01*
X-40615000Y-54364000D01*
X-38241131Y-54364000D01*
X-37890630Y-54714501D01*
X-37910000Y-54811881D01*
X-37910000Y-55188119D01*
X-37836600Y-55557127D01*
X-37692620Y-55904724D01*
X-37483594Y-56217554D01*
X-37217554Y-56483594D01*
X-36904724Y-56692620D01*
X-36557127Y-56836600D01*
X-36188119Y-56910000D01*
X-35811881Y-56910000D01*
X-35442873Y-56836600D01*
X-35095276Y-56692620D01*
X-34782446Y-56483594D01*
X-34516406Y-56217554D01*
X-34307380Y-55904724D01*
X-34163400Y-55557127D01*
X-34090000Y-55188119D01*
X-34090000Y-54811881D01*
X-34092448Y-54799570D01*
X-24235000Y-54799570D01*
X-24235000Y-55200430D01*
X-24156796Y-55593587D01*
X-24003393Y-55963934D01*
X-23780687Y-56297237D01*
X-23497237Y-56580687D01*
X-23163934Y-56803393D01*
X-22793587Y-56956796D01*
X-22400430Y-57035000D01*
X-21999570Y-57035000D01*
X-21606413Y-56956796D01*
X-21236066Y-56803393D01*
X-20902763Y-56580687D01*
X-20619313Y-56297237D01*
X-20396607Y-55963934D01*
X-20243204Y-55593587D01*
X-20165000Y-55200430D01*
X-20165000Y-54799570D01*
X-20243204Y-54406413D01*
X-20396607Y-54036066D01*
X-20619313Y-53702763D01*
X-20902763Y-53419313D01*
X-21236066Y-53196607D01*
X-21606413Y-53043204D01*
X-21999570Y-52965000D01*
X-22400430Y-52965000D01*
X-22793587Y-53043204D01*
X-23163934Y-53196607D01*
X-23497237Y-53419313D01*
X-23780687Y-53702763D01*
X-24003393Y-54036066D01*
X-24156796Y-54406413D01*
X-24235000Y-54799570D01*
X-34092448Y-54799570D01*
X-34163400Y-54442873D01*
X-34307380Y-54095276D01*
X-34516406Y-53782446D01*
X-34782446Y-53516406D01*
X-35095276Y-53307380D01*
X-35442873Y-53163400D01*
X-35811881Y-53090000D01*
X-36188119Y-53090000D01*
X-36285499Y-53109370D01*
X-36929004Y-52465865D01*
X-36964551Y-52422551D01*
X-37137377Y-52280716D01*
X-37334553Y-52175324D01*
X-37548501Y-52110423D01*
X-37715248Y-52094000D01*
X-37715249Y-52094000D01*
X-37771000Y-52088509D01*
X-37826751Y-52094000D01*
X-40939713Y-52094000D01*
X-40942498Y-52084820D01*
X-41001463Y-51974506D01*
X-41080815Y-51877815D01*
X-41177506Y-51798463D01*
X-41287820Y-51739498D01*
X-41407518Y-51703188D01*
X-41532000Y-51690928D01*
X-44032000Y-51690928D01*
X-44156482Y-51703188D01*
X-44276180Y-51739498D01*
X-44386494Y-51798463D01*
X-44483185Y-51877815D01*
X-44562537Y-51974506D01*
X-44621502Y-52084820D01*
X-44657812Y-52204518D01*
X-44670072Y-52329000D01*
X-44670072Y-54129000D01*
X-44657812Y-54253482D01*
X-44621502Y-54373180D01*
X-44562537Y-54483494D01*
X-44483185Y-54580185D01*
X-44386494Y-54659537D01*
X-44276180Y-54718502D01*
X-44156482Y-54754812D01*
X-44032000Y-54767072D01*
X-42884999Y-54767072D01*
X-42884999Y-55843119D01*
X-42945506Y-55793463D01*
X-43055820Y-55734498D01*
X-43175518Y-55698188D01*
X-43300000Y-55685928D01*
X-43464250Y-55689000D01*
X-43623000Y-55847750D01*
X-43623000Y-56597000D01*
X-43603000Y-56597000D01*
X-43603000Y-56851000D01*
X-43623000Y-56851000D01*
X-43623000Y-56871000D01*
X-43877000Y-56871000D01*
X-43877000Y-56851000D01*
X-43897000Y-56851000D01*
X-43897000Y-56597000D01*
X-43877000Y-56597000D01*
X-43877000Y-55847750D01*
X-44035750Y-55689000D01*
X-44200000Y-55685928D01*
X-44324482Y-55698188D01*
X-44444180Y-55734498D01*
X-44554494Y-55793463D01*
X-44651185Y-55872815D01*
X-44730537Y-55969506D01*
X-44789502Y-56079820D01*
X-44825812Y-56199518D01*
X-44838072Y-56324000D01*
X-44835000Y-56438250D01*
X-44676252Y-56596998D01*
X-44806292Y-56596998D01*
X-44917928Y-56485362D01*
X-44917928Y-56104000D01*
X-44930188Y-55979518D01*
X-44966498Y-55859820D01*
X-45025463Y-55749506D01*
X-45104815Y-55652815D01*
X-45171000Y-55598499D01*
X-45171000Y-54654198D01*
X-45080815Y-54580185D01*
X-45001463Y-54483494D01*
X-44942498Y-54373180D01*
X-44906188Y-54253482D01*
X-44893928Y-54129000D01*
X-44893928Y-52329000D01*
X-44906188Y-52204518D01*
X-44942498Y-52084820D01*
X-45001463Y-51974506D01*
X-45080815Y-51877815D01*
X-45177506Y-51798463D01*
X-45287820Y-51739498D01*
X-45407518Y-51703188D01*
X-45532000Y-51690928D01*
X-48032000Y-51690928D01*
X-48156482Y-51703188D01*
X-48276180Y-51739498D01*
X-48386494Y-51798463D01*
X-48483185Y-51877815D01*
X-48562537Y-51974506D01*
X-48621502Y-52084820D01*
X-48657812Y-52204518D01*
X-48670072Y-52329000D01*
X-48670072Y-54129000D01*
X-48657812Y-54253482D01*
X-48621502Y-54373180D01*
X-48562537Y-54483494D01*
X-48483185Y-54580185D01*
X-48386494Y-54659537D01*
X-48276180Y-54718502D01*
X-48156482Y-54754812D01*
X-48032000Y-54767072D01*
X-47440999Y-54767072D01*
X-47441000Y-55598498D01*
X-47507185Y-55652815D01*
X-47586537Y-55749506D01*
X-47645502Y-55859820D01*
X-47681812Y-55979518D01*
X-47694072Y-56104000D01*
X-47694072Y-56704000D01*
X-47681812Y-56828482D01*
X-47645502Y-56948180D01*
X-47586537Y-57058494D01*
X-47507185Y-57155185D01*
X-47410494Y-57234537D01*
X-47300180Y-57293502D01*
X-47272542Y-57301886D01*
X-47254284Y-57336045D01*
X-47112448Y-57508871D01*
X-47069140Y-57544413D01*
X-46607625Y-58005928D01*
X-47056000Y-58005928D01*
X-47180482Y-58018188D01*
X-47300180Y-58054498D01*
X-47410494Y-58113463D01*
X-47507185Y-58192815D01*
X-47586537Y-58289506D01*
X-47645502Y-58399820D01*
X-47681812Y-58519518D01*
X-47694072Y-58644000D01*
X-47694072Y-59244000D01*
X-47681812Y-59368482D01*
X-47645502Y-59488180D01*
X-47586537Y-59598494D01*
X-47507185Y-59695185D01*
X-47410494Y-59774537D01*
X-47311339Y-59827537D01*
X-47600729Y-60116928D01*
X-47839000Y-60116928D01*
X-48002500Y-60133031D01*
X-48159716Y-60180722D01*
X-48304608Y-60258169D01*
X-48431606Y-60362394D01*
X-48535831Y-60489392D01*
X-48613278Y-60634284D01*
X-48660969Y-60791500D01*
X-48677072Y-60955000D01*
X-48873000Y-60955000D01*
X-48873000Y-50000000D01*
X-48875440Y-49975224D01*
X-48882667Y-49951399D01*
X-48894403Y-49929443D01*
X-48910197Y-49910197D01*
X-48929443Y-49894403D01*
X-48951399Y-49882667D01*
X-48975224Y-49875440D01*
X-49000000Y-49873000D01*
X-82550000Y-49873000D01*
X-82574776Y-49875440D01*
X-82598601Y-49882667D01*
X-82620557Y-49894403D01*
X-82639803Y-49910197D01*
X-82655597Y-49929443D01*
X-82667333Y-49951399D01*
X-82674560Y-49975224D01*
X-82677000Y-50000000D01*
X-82677000Y-51544144D01*
X-82691294Y-51561561D01*
X-82784207Y-51735392D01*
X-82796686Y-51758738D01*
X-82861587Y-51972686D01*
X-82883501Y-52195184D01*
X-82878010Y-52250936D01*
X-82878009Y-60988249D01*
X-82883501Y-61044010D01*
X-82878010Y-61099761D01*
X-82878009Y-74282229D01*
X-82883501Y-74337990D01*
X-82878010Y-74393741D01*
X-82878009Y-84327654D01*
X-82964394Y-84222394D01*
X-83091392Y-84118169D01*
X-83236284Y-84040722D01*
X-83393500Y-83993031D01*
X-83557000Y-83976928D01*
X-83957000Y-83976928D01*
X-84120500Y-83993031D01*
X-84277716Y-84040722D01*
X-84422608Y-84118169D01*
X-84549606Y-84222394D01*
X-84582000Y-84261866D01*
X-84614394Y-84222394D01*
X-84741392Y-84118169D01*
X-84886284Y-84040722D01*
X-85043500Y-83993031D01*
X-85207000Y-83976928D01*
X-85607000Y-83976928D01*
X-85770500Y-83993031D01*
X-85927716Y-84040722D01*
X-86072608Y-84118169D01*
X-86199606Y-84222394D01*
X-86303831Y-84349392D01*
X-86381278Y-84494284D01*
X-86428969Y-84651500D01*
X-86445072Y-84815000D01*
X-86445072Y-85053269D01*
X-88049729Y-86657928D01*
X-88158000Y-86657928D01*
X-88282482Y-86670188D01*
X-88402180Y-86706498D01*
X-88512494Y-86765463D01*
X-88609185Y-86844815D01*
X-88688537Y-86941506D01*
X-88747502Y-87051820D01*
X-88783812Y-87171518D01*
X-88796072Y-87296000D01*
X-88796072Y-87807905D01*
X-88806815Y-87794815D01*
X-88903506Y-87715463D01*
X-89013820Y-87656498D01*
X-89133518Y-87620188D01*
X-89238827Y-87609816D01*
X-89271553Y-87592324D01*
X-89485501Y-87527423D01*
X-89708000Y-87505509D01*
X-89930498Y-87527423D01*
X-90144446Y-87592324D01*
X-90177172Y-87609816D01*
X-90282482Y-87620188D01*
X-90402180Y-87656498D01*
X-90512494Y-87715463D01*
X-90609185Y-87794815D01*
X-90688537Y-87891506D01*
X-90747502Y-88001820D01*
X-90783812Y-88121518D01*
X-90796072Y-88246000D01*
X-90796072Y-88322944D01*
X-90826576Y-88423501D01*
X-90842999Y-88590248D01*
X-90843000Y-92083000D01*
X-92311868Y-92083000D01*
X-94109370Y-90285499D01*
X-94090000Y-90188119D01*
X-94090000Y-89811881D01*
X-94163400Y-89442873D01*
X-94307380Y-89095276D01*
X-94516406Y-88782446D01*
X-94782446Y-88516406D01*
X-95095276Y-88307380D01*
X-95442873Y-88163400D01*
X-95811881Y-88090000D01*
X-96188119Y-88090000D01*
X-96557127Y-88163400D01*
X-96904724Y-88307380D01*
X-97217554Y-88516406D01*
X-97483594Y-88782446D01*
X-97692620Y-89095276D01*
X-97836600Y-89442873D01*
X-97910000Y-89811881D01*
X-97910000Y-90188119D01*
X-97836600Y-90557127D01*
X-97692620Y-90904724D01*
X-97483594Y-91217554D01*
X-97217554Y-91483594D01*
X-96904724Y-91692620D01*
X-96557127Y-91836600D01*
X-96188119Y-91910000D01*
X-95811881Y-91910000D01*
X-95714501Y-91890630D01*
X-93623991Y-93981141D01*
X-93588449Y-94024449D01*
X-93415623Y-94166284D01*
X-93218447Y-94271676D01*
X-93004499Y-94336577D01*
X-92837752Y-94353000D01*
X-92837743Y-94353000D01*
X-92782001Y-94358490D01*
X-92726259Y-94353000D01*
X-90518287Y-94353000D01*
X-90515502Y-94362180D01*
X-90456537Y-94472494D01*
X-90377185Y-94569185D01*
X-90280494Y-94648537D01*
X-90170180Y-94707502D01*
X-90050482Y-94743812D01*
X-89926000Y-94756072D01*
X-87426000Y-94756072D01*
X-87301518Y-94743812D01*
X-87181820Y-94707502D01*
X-87071506Y-94648537D01*
X-86974815Y-94569185D01*
X-86895463Y-94472494D01*
X-86836498Y-94362180D01*
X-86800188Y-94242482D01*
X-86787928Y-94118000D01*
X-86787928Y-92318000D01*
X-86800188Y-92193518D01*
X-86836498Y-92073820D01*
X-86895463Y-91963506D01*
X-86974815Y-91866815D01*
X-87071506Y-91787463D01*
X-87181820Y-91728498D01*
X-87301518Y-91692188D01*
X-87426000Y-91679928D01*
X-88573000Y-91679928D01*
X-88573000Y-90476881D01*
X-88512494Y-90526537D01*
X-88402180Y-90585502D01*
X-88282482Y-90621812D01*
X-88158000Y-90634072D01*
X-87993750Y-90631000D01*
X-87835000Y-90472250D01*
X-87835000Y-89723000D01*
X-87855000Y-89723000D01*
X-87855000Y-89469000D01*
X-87835000Y-89469000D01*
X-87835000Y-89449000D01*
X-87581000Y-89449000D01*
X-87581000Y-89469000D01*
X-87561000Y-89469000D01*
X-87561000Y-89723000D01*
X-87581000Y-89723000D01*
X-87581000Y-90472250D01*
X-87422250Y-90631000D01*
X-87258000Y-90634072D01*
X-87133518Y-90621812D01*
X-87013820Y-90585502D01*
X-86903506Y-90526537D01*
X-86806815Y-90447185D01*
X-86727463Y-90350494D01*
X-86668498Y-90240180D01*
X-86665624Y-90230705D01*
X-86654812Y-90340482D01*
X-86618502Y-90460180D01*
X-86559537Y-90570494D01*
X-86480185Y-90667185D01*
X-86414000Y-90721502D01*
X-86413999Y-91911673D01*
X-86456537Y-91963506D01*
X-86515502Y-92073820D01*
X-86551812Y-92193518D01*
X-86564072Y-92318000D01*
X-86564072Y-94118000D01*
X-86551812Y-94242482D01*
X-86515502Y-94362180D01*
X-86456537Y-94472494D01*
X-86377185Y-94569185D01*
X-86280494Y-94648537D01*
X-86170180Y-94707502D01*
X-86050482Y-94743812D01*
X-85926000Y-94756072D01*
X-83426000Y-94756072D01*
X-83301518Y-94743812D01*
X-83181820Y-94707502D01*
X-83071506Y-94648537D01*
X-82974815Y-94569185D01*
X-82895463Y-94472494D01*
X-82836498Y-94362180D01*
X-82800188Y-94242482D01*
X-82787928Y-94118000D01*
X-82787928Y-92318000D01*
X-82800188Y-92193518D01*
X-82836498Y-92073820D01*
X-82895463Y-91963506D01*
X-82974815Y-91866815D01*
X-83071506Y-91787463D01*
X-83181820Y-91728498D01*
X-83301518Y-91692188D01*
X-83426000Y-91679928D01*
X-84144000Y-91679928D01*
X-84144000Y-90721501D01*
X-84077815Y-90667185D01*
X-83998463Y-90570494D01*
X-83939498Y-90460180D01*
X-83903188Y-90340482D01*
X-83890928Y-90216000D01*
X-83890928Y-89616000D01*
X-83903188Y-89491518D01*
X-83939498Y-89371820D01*
X-83998463Y-89261506D01*
X-84077815Y-89164815D01*
X-84156691Y-89100084D01*
X-84160423Y-89062188D01*
X-84225324Y-88848239D01*
X-84330716Y-88651063D01*
X-84472551Y-88478237D01*
X-84515865Y-88442690D01*
X-84644483Y-88314072D01*
X-84529000Y-88314072D01*
X-84404518Y-88301812D01*
X-84284820Y-88265502D01*
X-84174506Y-88206537D01*
X-84077815Y-88127185D01*
X-83998463Y-88030494D01*
X-83939498Y-87920180D01*
X-83903188Y-87800482D01*
X-83890928Y-87676000D01*
X-83890928Y-87076000D01*
X-83903188Y-86951518D01*
X-83939498Y-86831820D01*
X-83998463Y-86721506D01*
X-84077815Y-86624815D01*
X-84154269Y-86562071D01*
X-83795270Y-86203072D01*
X-83557000Y-86203072D01*
X-83393500Y-86186969D01*
X-83236284Y-86139278D01*
X-83091392Y-86061831D01*
X-82964394Y-85957606D01*
X-82878009Y-85852346D01*
X-82878009Y-90792228D01*
X-82883501Y-90847990D01*
X-82861587Y-91070488D01*
X-82796686Y-91284436D01*
X-82779534Y-91316525D01*
X-82691293Y-91481613D01*
X-82677000Y-91499029D01*
X-82677000Y-97663000D01*
X-113340000Y-97663000D01*
X-113340000Y-89799570D01*
X-111835000Y-89799570D01*
X-111835000Y-90200430D01*
X-111756796Y-90593587D01*
X-111603393Y-90963934D01*
X-111380687Y-91297237D01*
X-111097237Y-91580687D01*
X-110763934Y-91803393D01*
X-110393587Y-91956796D01*
X-110000430Y-92035000D01*
X-109599570Y-92035000D01*
X-109206413Y-91956796D01*
X-108836066Y-91803393D01*
X-108502763Y-91580687D01*
X-108219313Y-91297237D01*
X-107996607Y-90963934D01*
X-107843204Y-90593587D01*
X-107765000Y-90200430D01*
X-107765000Y-89799570D01*
X-107843204Y-89406413D01*
X-107996607Y-89036066D01*
X-108219313Y-88702763D01*
X-108502763Y-88419313D01*
X-108836066Y-88196607D01*
X-109206413Y-88043204D01*
X-109599570Y-87965000D01*
X-110000430Y-87965000D01*
X-110393587Y-88043204D01*
X-110763934Y-88196607D01*
X-111097237Y-88419313D01*
X-111380687Y-88702763D01*
X-111603393Y-89036066D01*
X-111756796Y-89406413D01*
X-111835000Y-89799570D01*
X-113340000Y-89799570D01*
X-113340000Y-84999570D01*
X-111835000Y-84999570D01*
X-111835000Y-85400430D01*
X-111756796Y-85793587D01*
X-111603393Y-86163934D01*
X-111380687Y-86497237D01*
X-111097237Y-86780687D01*
X-110763934Y-87003393D01*
X-110393587Y-87156796D01*
X-110000430Y-87235000D01*
X-109599570Y-87235000D01*
X-109206413Y-87156796D01*
X-108836066Y-87003393D01*
X-108502763Y-86780687D01*
X-108219313Y-86497237D01*
X-107996607Y-86163934D01*
X-107843204Y-85793587D01*
X-107765000Y-85400430D01*
X-107765000Y-84999570D01*
X-107843204Y-84606413D01*
X-107996607Y-84236066D01*
X-108037410Y-84174999D01*
X-97913072Y-84174999D01*
X-97913072Y-86225001D01*
X-97896008Y-86398255D01*
X-97845472Y-86564851D01*
X-97763405Y-86718387D01*
X-97652962Y-86852962D01*
X-97518387Y-86963405D01*
X-97364851Y-87045472D01*
X-97198255Y-87096008D01*
X-97025001Y-87113072D01*
X-94974999Y-87113072D01*
X-94801745Y-87096008D01*
X-94635149Y-87045472D01*
X-94481613Y-86963405D01*
X-94347038Y-86852962D01*
X-94236595Y-86718387D01*
X-94154528Y-86564851D01*
X-94103992Y-86398255D01*
X-94086928Y-86225001D01*
X-94086928Y-84174999D01*
X-94103992Y-84001745D01*
X-94154528Y-83835149D01*
X-94236595Y-83681613D01*
X-94347038Y-83547038D01*
X-94481613Y-83436595D01*
X-94635149Y-83354528D01*
X-94801745Y-83303992D01*
X-94974999Y-83286928D01*
X-97025001Y-83286928D01*
X-97198255Y-83303992D01*
X-97364851Y-83354528D01*
X-97518387Y-83436595D01*
X-97652962Y-83547038D01*
X-97763405Y-83681613D01*
X-97845472Y-83835149D01*
X-97896008Y-84001745D01*
X-97913072Y-84174999D01*
X-108037410Y-84174999D01*
X-108219313Y-83902763D01*
X-108502763Y-83619313D01*
X-108836066Y-83396607D01*
X-109206413Y-83243204D01*
X-109599570Y-83165000D01*
X-110000430Y-83165000D01*
X-110393587Y-83243204D01*
X-110763934Y-83396607D01*
X-111097237Y-83619313D01*
X-111380687Y-83902763D01*
X-111603393Y-84236066D01*
X-111756796Y-84606413D01*
X-111835000Y-84999570D01*
X-113340000Y-84999570D01*
X-113340000Y-74799570D01*
X-111835000Y-74799570D01*
X-111835000Y-75200430D01*
X-111756796Y-75593587D01*
X-111603393Y-75963934D01*
X-111380687Y-76297237D01*
X-111097237Y-76580687D01*
X-110763934Y-76803393D01*
X-110393587Y-76956796D01*
X-110000430Y-77035000D01*
X-109599570Y-77035000D01*
X-109206413Y-76956796D01*
X-108836066Y-76803393D01*
X-108502763Y-76580687D01*
X-108219313Y-76297237D01*
X-107996607Y-75963934D01*
X-107843204Y-75593587D01*
X-107765000Y-75200430D01*
X-107765000Y-74811881D01*
X-97910000Y-74811881D01*
X-97910000Y-75188119D01*
X-97836600Y-75557127D01*
X-97692620Y-75904724D01*
X-97483594Y-76217554D01*
X-97217554Y-76483594D01*
X-96904724Y-76692620D01*
X-96557127Y-76836600D01*
X-96188119Y-76910000D01*
X-95811881Y-76910000D01*
X-95714502Y-76890630D01*
X-95387987Y-77217146D01*
X-95352449Y-77260449D01*
X-95309146Y-77295987D01*
X-95309144Y-77295989D01*
X-95179623Y-77402284D01*
X-94982447Y-77507676D01*
X-94768499Y-77572577D01*
X-94546000Y-77594491D01*
X-94490248Y-77589000D01*
X-90772287Y-77589000D01*
X-90769502Y-77598180D01*
X-90710537Y-77708494D01*
X-90631185Y-77805185D01*
X-90534494Y-77884537D01*
X-90424180Y-77943502D01*
X-90304482Y-77979812D01*
X-90180000Y-77992072D01*
X-87680000Y-77992072D01*
X-87555518Y-77979812D01*
X-87435820Y-77943502D01*
X-87325506Y-77884537D01*
X-87228815Y-77805185D01*
X-87149463Y-77708494D01*
X-87090498Y-77598180D01*
X-87054188Y-77478482D01*
X-87041928Y-77354000D01*
X-87041928Y-75554000D01*
X-87054188Y-75429518D01*
X-87090498Y-75309820D01*
X-87149463Y-75199506D01*
X-87228815Y-75102815D01*
X-87325506Y-75023463D01*
X-87435820Y-74964498D01*
X-87555518Y-74928188D01*
X-87680000Y-74915928D01*
X-88843000Y-74915928D01*
X-88843000Y-73712881D01*
X-88782494Y-73762537D01*
X-88672180Y-73821502D01*
X-88552482Y-73857812D01*
X-88428000Y-73870072D01*
X-88263750Y-73867000D01*
X-88105000Y-73708250D01*
X-88105000Y-72959000D01*
X-88125000Y-72959000D01*
X-88125000Y-72705000D01*
X-88105000Y-72705000D01*
X-88105000Y-72685000D01*
X-87851000Y-72685000D01*
X-87851000Y-72705000D01*
X-87831000Y-72705000D01*
X-87831000Y-72959000D01*
X-87851000Y-72959000D01*
X-87851000Y-73708250D01*
X-87692250Y-73867000D01*
X-87528000Y-73870072D01*
X-87403518Y-73857812D01*
X-87283820Y-73821502D01*
X-87173506Y-73762537D01*
X-87076815Y-73683185D01*
X-86997463Y-73586494D01*
X-86938498Y-73476180D01*
X-86921072Y-73418734D01*
X-86921072Y-73452000D01*
X-86908812Y-73576482D01*
X-86872502Y-73696180D01*
X-86813537Y-73806494D01*
X-86734185Y-73903185D01*
X-86668000Y-73957502D01*
X-86667999Y-75147673D01*
X-86710537Y-75199506D01*
X-86769502Y-75309820D01*
X-86805812Y-75429518D01*
X-86818072Y-75554000D01*
X-86818072Y-77354000D01*
X-86805812Y-77478482D01*
X-86769502Y-77598180D01*
X-86710537Y-77708494D01*
X-86631185Y-77805185D01*
X-86534494Y-77884537D01*
X-86424180Y-77943502D01*
X-86304482Y-77979812D01*
X-86180000Y-77992072D01*
X-83680000Y-77992072D01*
X-83555518Y-77979812D01*
X-83435820Y-77943502D01*
X-83325506Y-77884537D01*
X-83228815Y-77805185D01*
X-83149463Y-77708494D01*
X-83090498Y-77598180D01*
X-83054188Y-77478482D01*
X-83041928Y-77354000D01*
X-83041928Y-75554000D01*
X-83054188Y-75429518D01*
X-83090498Y-75309820D01*
X-83149463Y-75199506D01*
X-83228815Y-75102815D01*
X-83325506Y-75023463D01*
X-83435820Y-74964498D01*
X-83555518Y-74928188D01*
X-83680000Y-74915928D01*
X-84398000Y-74915928D01*
X-84398000Y-73957501D01*
X-84331815Y-73903185D01*
X-84252463Y-73806494D01*
X-84193498Y-73696180D01*
X-84157188Y-73576482D01*
X-84144928Y-73452000D01*
X-84144928Y-72852000D01*
X-84157188Y-72727518D01*
X-84193498Y-72607820D01*
X-84252463Y-72497506D01*
X-84331815Y-72400815D01*
X-84428506Y-72321463D01*
X-84513561Y-72275999D01*
X-84584716Y-72142876D01*
X-84726551Y-71970050D01*
X-84769860Y-71934507D01*
X-85154295Y-71550072D01*
X-84783000Y-71550072D01*
X-84658518Y-71537812D01*
X-84538820Y-71501502D01*
X-84428506Y-71442537D01*
X-84331815Y-71363185D01*
X-84252463Y-71266494D01*
X-84193498Y-71156180D01*
X-84157188Y-71036482D01*
X-84144928Y-70912000D01*
X-84144928Y-70312000D01*
X-84157188Y-70187518D01*
X-84193498Y-70067820D01*
X-84252463Y-69957506D01*
X-84331815Y-69860815D01*
X-84428506Y-69781463D01*
X-84444899Y-69772701D01*
X-84111270Y-69439072D01*
X-83873000Y-69439072D01*
X-83709500Y-69422969D01*
X-83552284Y-69375278D01*
X-83407392Y-69297831D01*
X-83280394Y-69193606D01*
X-83176169Y-69066608D01*
X-83098722Y-68921716D01*
X-83051031Y-68764500D01*
X-83034928Y-68601000D01*
X-83034928Y-68051000D01*
X-83051031Y-67887500D01*
X-83098722Y-67730284D01*
X-83176169Y-67585392D01*
X-83280394Y-67458394D01*
X-83407392Y-67354169D01*
X-83552284Y-67276722D01*
X-83709500Y-67229031D01*
X-83873000Y-67212928D01*
X-84273000Y-67212928D01*
X-84436500Y-67229031D01*
X-84593716Y-67276722D01*
X-84738608Y-67354169D01*
X-84865606Y-67458394D01*
X-84898000Y-67497866D01*
X-84930394Y-67458394D01*
X-85057392Y-67354169D01*
X-85202284Y-67276722D01*
X-85359500Y-67229031D01*
X-85523000Y-67212928D01*
X-85923000Y-67212928D01*
X-86086500Y-67229031D01*
X-86243716Y-67276722D01*
X-86388608Y-67354169D01*
X-86515606Y-67458394D01*
X-86619831Y-67585392D01*
X-86697278Y-67730284D01*
X-86744969Y-67887500D01*
X-86761072Y-68051000D01*
X-86761072Y-68289270D01*
X-88365729Y-69893928D01*
X-88428000Y-69893928D01*
X-88552482Y-69906188D01*
X-88672180Y-69942498D01*
X-88782494Y-70001463D01*
X-88879185Y-70080815D01*
X-88958537Y-70177506D01*
X-89017502Y-70287820D01*
X-89053812Y-70407518D01*
X-89066072Y-70532000D01*
X-89066072Y-71043905D01*
X-89076815Y-71030815D01*
X-89173506Y-70951463D01*
X-89283820Y-70892498D01*
X-89403518Y-70856188D01*
X-89508827Y-70845816D01*
X-89541553Y-70828324D01*
X-89755501Y-70763423D01*
X-89978000Y-70741509D01*
X-90200498Y-70763423D01*
X-90414446Y-70828324D01*
X-90447172Y-70845816D01*
X-90552482Y-70856188D01*
X-90672180Y-70892498D01*
X-90782494Y-70951463D01*
X-90879185Y-71030815D01*
X-90958537Y-71127506D01*
X-91017502Y-71237820D01*
X-91053812Y-71357518D01*
X-91066072Y-71482000D01*
X-91066072Y-71558944D01*
X-91096576Y-71659501D01*
X-91112999Y-71826248D01*
X-91113000Y-75319000D01*
X-94075867Y-75319000D01*
X-94109370Y-75285498D01*
X-94090000Y-75188119D01*
X-94090000Y-74811881D01*
X-94163400Y-74442873D01*
X-94307380Y-74095276D01*
X-94516406Y-73782446D01*
X-94782446Y-73516406D01*
X-95095276Y-73307380D01*
X-95442873Y-73163400D01*
X-95811881Y-73090000D01*
X-96188119Y-73090000D01*
X-96557127Y-73163400D01*
X-96904724Y-73307380D01*
X-97217554Y-73516406D01*
X-97483594Y-73782446D01*
X-97692620Y-74095276D01*
X-97836600Y-74442873D01*
X-97910000Y-74811881D01*
X-107765000Y-74811881D01*
X-107765000Y-74799570D01*
X-107843204Y-74406413D01*
X-107996607Y-74036066D01*
X-108219313Y-73702763D01*
X-108502763Y-73419313D01*
X-108836066Y-73196607D01*
X-109206413Y-73043204D01*
X-109599570Y-72965000D01*
X-110000430Y-72965000D01*
X-110393587Y-73043204D01*
X-110763934Y-73196607D01*
X-111097237Y-73419313D01*
X-111380687Y-73702763D01*
X-111603393Y-74036066D01*
X-111756796Y-74406413D01*
X-111835000Y-74799570D01*
X-113340000Y-74799570D01*
X-113340000Y-69999570D01*
X-111835000Y-69999570D01*
X-111835000Y-70400430D01*
X-111756796Y-70793587D01*
X-111603393Y-71163934D01*
X-111380687Y-71497237D01*
X-111097237Y-71780687D01*
X-110763934Y-72003393D01*
X-110393587Y-72156796D01*
X-110000430Y-72235000D01*
X-109599570Y-72235000D01*
X-109206413Y-72156796D01*
X-108836066Y-72003393D01*
X-108502763Y-71780687D01*
X-108219313Y-71497237D01*
X-107996607Y-71163934D01*
X-107843204Y-70793587D01*
X-107765000Y-70400430D01*
X-107765000Y-69999570D01*
X-107843204Y-69606413D01*
X-107996607Y-69236066D01*
X-108037410Y-69174999D01*
X-97913072Y-69174999D01*
X-97913072Y-71225001D01*
X-97896008Y-71398255D01*
X-97845472Y-71564851D01*
X-97763405Y-71718387D01*
X-97652962Y-71852962D01*
X-97518387Y-71963405D01*
X-97364851Y-72045472D01*
X-97198255Y-72096008D01*
X-97025001Y-72113072D01*
X-94974999Y-72113072D01*
X-94801745Y-72096008D01*
X-94635149Y-72045472D01*
X-94481613Y-71963405D01*
X-94347038Y-71852962D01*
X-94236595Y-71718387D01*
X-94154528Y-71564851D01*
X-94103992Y-71398255D01*
X-94086928Y-71225001D01*
X-94086928Y-69174999D01*
X-94103992Y-69001745D01*
X-94154528Y-68835149D01*
X-94236595Y-68681613D01*
X-94347038Y-68547038D01*
X-94481613Y-68436595D01*
X-94635149Y-68354528D01*
X-94801745Y-68303992D01*
X-94974999Y-68286928D01*
X-97025001Y-68286928D01*
X-97198255Y-68303992D01*
X-97364851Y-68354528D01*
X-97518387Y-68436595D01*
X-97652962Y-68547038D01*
X-97763405Y-68681613D01*
X-97845472Y-68835149D01*
X-97896008Y-69001745D01*
X-97913072Y-69174999D01*
X-108037410Y-69174999D01*
X-108219313Y-68902763D01*
X-108502763Y-68619313D01*
X-108836066Y-68396607D01*
X-109206413Y-68243204D01*
X-109599570Y-68165000D01*
X-110000430Y-68165000D01*
X-110393587Y-68243204D01*
X-110763934Y-68396607D01*
X-111097237Y-68619313D01*
X-111380687Y-68902763D01*
X-111603393Y-69236066D01*
X-111756796Y-69606413D01*
X-111835000Y-69999570D01*
X-113340000Y-69999570D01*
X-113340000Y-59599570D01*
X-111835000Y-59599570D01*
X-111835000Y-60000430D01*
X-111756796Y-60393587D01*
X-111603393Y-60763934D01*
X-111380687Y-61097237D01*
X-111097237Y-61380687D01*
X-110763934Y-61603393D01*
X-110393587Y-61756796D01*
X-110000430Y-61835000D01*
X-109599570Y-61835000D01*
X-109206413Y-61756796D01*
X-108836066Y-61603393D01*
X-108502763Y-61380687D01*
X-108219313Y-61097237D01*
X-107996607Y-60763934D01*
X-107843204Y-60393587D01*
X-107765000Y-60000430D01*
X-107765000Y-59611881D01*
X-97910000Y-59611881D01*
X-97910000Y-59988119D01*
X-97836600Y-60357127D01*
X-97692620Y-60704724D01*
X-97483594Y-61017554D01*
X-97217554Y-61283594D01*
X-96904724Y-61492620D01*
X-96557127Y-61636600D01*
X-96188119Y-61710000D01*
X-95811881Y-61710000D01*
X-95714503Y-61690630D01*
X-95681987Y-61723146D01*
X-95646449Y-61766449D01*
X-95603146Y-61801987D01*
X-95603144Y-61801989D01*
X-95473623Y-61908284D01*
X-95276447Y-62013676D01*
X-95062499Y-62078577D01*
X-94840000Y-62100491D01*
X-94784248Y-62095000D01*
X-90772287Y-62095000D01*
X-90769502Y-62104180D01*
X-90710537Y-62214494D01*
X-90631185Y-62311185D01*
X-90534494Y-62390537D01*
X-90424180Y-62449502D01*
X-90304482Y-62485812D01*
X-90180000Y-62498072D01*
X-87680000Y-62498072D01*
X-87555518Y-62485812D01*
X-87435820Y-62449502D01*
X-87325506Y-62390537D01*
X-87228815Y-62311185D01*
X-87149463Y-62214494D01*
X-87090498Y-62104180D01*
X-87054188Y-61984482D01*
X-87041928Y-61860000D01*
X-87041928Y-60060000D01*
X-87054188Y-59935518D01*
X-87090498Y-59815820D01*
X-87149463Y-59705506D01*
X-87228815Y-59608815D01*
X-87325506Y-59529463D01*
X-87435820Y-59470498D01*
X-87555518Y-59434188D01*
X-87680000Y-59421928D01*
X-88827000Y-59421928D01*
X-88827000Y-58218881D01*
X-88766494Y-58268537D01*
X-88656180Y-58327502D01*
X-88536482Y-58363812D01*
X-88412000Y-58376072D01*
X-88247750Y-58373000D01*
X-88089000Y-58214250D01*
X-88089000Y-57465000D01*
X-88109000Y-57465000D01*
X-88109000Y-57211000D01*
X-88089000Y-57211000D01*
X-88089000Y-57191000D01*
X-87835000Y-57191000D01*
X-87835000Y-57211000D01*
X-87815000Y-57211000D01*
X-87815000Y-57465000D01*
X-87835000Y-57465000D01*
X-87835000Y-58214250D01*
X-87676250Y-58373000D01*
X-87512000Y-58376072D01*
X-87387518Y-58363812D01*
X-87267820Y-58327502D01*
X-87157506Y-58268537D01*
X-87060815Y-58189185D01*
X-86981463Y-58092494D01*
X-86922498Y-57982180D01*
X-86919624Y-57972705D01*
X-86908812Y-58082482D01*
X-86872502Y-58202180D01*
X-86813537Y-58312494D01*
X-86734185Y-58409185D01*
X-86668000Y-58463502D01*
X-86667999Y-59653673D01*
X-86710537Y-59705506D01*
X-86769502Y-59815820D01*
X-86805812Y-59935518D01*
X-86818072Y-60060000D01*
X-86818072Y-61860000D01*
X-86805812Y-61984482D01*
X-86769502Y-62104180D01*
X-86710537Y-62214494D01*
X-86631185Y-62311185D01*
X-86534494Y-62390537D01*
X-86424180Y-62449502D01*
X-86304482Y-62485812D01*
X-86180000Y-62498072D01*
X-83680000Y-62498072D01*
X-83555518Y-62485812D01*
X-83435820Y-62449502D01*
X-83325506Y-62390537D01*
X-83228815Y-62311185D01*
X-83149463Y-62214494D01*
X-83090498Y-62104180D01*
X-83054188Y-61984482D01*
X-83041928Y-61860000D01*
X-83041928Y-60060000D01*
X-83054188Y-59935518D01*
X-83090498Y-59815820D01*
X-83149463Y-59705506D01*
X-83228815Y-59608815D01*
X-83325506Y-59529463D01*
X-83435820Y-59470498D01*
X-83555518Y-59434188D01*
X-83680000Y-59421928D01*
X-84398000Y-59421928D01*
X-84398000Y-58463501D01*
X-84331815Y-58409185D01*
X-84252463Y-58312494D01*
X-84193498Y-58202180D01*
X-84157188Y-58082482D01*
X-84144928Y-57958000D01*
X-84144928Y-57358000D01*
X-84157188Y-57233518D01*
X-84193498Y-57113820D01*
X-84252463Y-57003506D01*
X-84331815Y-56906815D01*
X-84428506Y-56827463D01*
X-84538820Y-56768498D01*
X-84644847Y-56736335D01*
X-84726551Y-56636779D01*
X-84769860Y-56601236D01*
X-85315025Y-56056072D01*
X-84783000Y-56056072D01*
X-84658518Y-56043812D01*
X-84538820Y-56007502D01*
X-84428506Y-55948537D01*
X-84331815Y-55869185D01*
X-84252463Y-55772494D01*
X-84193498Y-55662180D01*
X-84157188Y-55542482D01*
X-84144928Y-55418000D01*
X-84144928Y-54818000D01*
X-84157188Y-54693518D01*
X-84193498Y-54573820D01*
X-84252463Y-54463506D01*
X-84331815Y-54366815D01*
X-84428506Y-54287463D01*
X-84444899Y-54278701D01*
X-84111270Y-53945072D01*
X-83873000Y-53945072D01*
X-83709500Y-53928969D01*
X-83552284Y-53881278D01*
X-83407392Y-53803831D01*
X-83280394Y-53699606D01*
X-83176169Y-53572608D01*
X-83098722Y-53427716D01*
X-83051031Y-53270500D01*
X-83034928Y-53107000D01*
X-83034928Y-52557000D01*
X-83051031Y-52393500D01*
X-83098722Y-52236284D01*
X-83176169Y-52091392D01*
X-83280394Y-51964394D01*
X-83407392Y-51860169D01*
X-83552284Y-51782722D01*
X-83709500Y-51735031D01*
X-83873000Y-51718928D01*
X-84273000Y-51718928D01*
X-84436500Y-51735031D01*
X-84593716Y-51782722D01*
X-84738608Y-51860169D01*
X-84865606Y-51964394D01*
X-84898000Y-52003866D01*
X-84930394Y-51964394D01*
X-85057392Y-51860169D01*
X-85202284Y-51782722D01*
X-85359500Y-51735031D01*
X-85523000Y-51718928D01*
X-85923000Y-51718928D01*
X-86086500Y-51735031D01*
X-86243716Y-51782722D01*
X-86388608Y-51860169D01*
X-86515606Y-51964394D01*
X-86619831Y-52091392D01*
X-86697278Y-52236284D01*
X-86744969Y-52393500D01*
X-86761072Y-52557000D01*
X-86761072Y-52795270D01*
X-88365729Y-54399928D01*
X-88412000Y-54399928D01*
X-88536482Y-54412188D01*
X-88656180Y-54448498D01*
X-88766494Y-54507463D01*
X-88863185Y-54586815D01*
X-88942537Y-54683506D01*
X-89001502Y-54793820D01*
X-89037812Y-54913518D01*
X-89050072Y-55038000D01*
X-89050072Y-55549905D01*
X-89060815Y-55536815D01*
X-89157506Y-55457463D01*
X-89267820Y-55398498D01*
X-89387518Y-55362188D01*
X-89492827Y-55351816D01*
X-89525553Y-55334324D01*
X-89739501Y-55269423D01*
X-89962000Y-55247509D01*
X-90184498Y-55269423D01*
X-90398446Y-55334324D01*
X-90431172Y-55351816D01*
X-90536482Y-55362188D01*
X-90656180Y-55398498D01*
X-90766494Y-55457463D01*
X-90863185Y-55536815D01*
X-90942537Y-55633506D01*
X-91001502Y-55743820D01*
X-91037812Y-55863518D01*
X-91050072Y-55988000D01*
X-91050072Y-56064944D01*
X-91080576Y-56165501D01*
X-91096999Y-56332248D01*
X-91097000Y-59825000D01*
X-94090000Y-59825000D01*
X-94090000Y-59611881D01*
X-94163400Y-59242873D01*
X-94307380Y-58895276D01*
X-94516406Y-58582446D01*
X-94782446Y-58316406D01*
X-95095276Y-58107380D01*
X-95442873Y-57963400D01*
X-95811881Y-57890000D01*
X-96188119Y-57890000D01*
X-96557127Y-57963400D01*
X-96904724Y-58107380D01*
X-97217554Y-58316406D01*
X-97483594Y-58582446D01*
X-97692620Y-58895276D01*
X-97836600Y-59242873D01*
X-97910000Y-59611881D01*
X-107765000Y-59611881D01*
X-107765000Y-59599570D01*
X-107843204Y-59206413D01*
X-107996607Y-58836066D01*
X-108219313Y-58502763D01*
X-108502763Y-58219313D01*
X-108836066Y-57996607D01*
X-109206413Y-57843204D01*
X-109599570Y-57765000D01*
X-110000430Y-57765000D01*
X-110393587Y-57843204D01*
X-110763934Y-57996607D01*
X-111097237Y-58219313D01*
X-111380687Y-58502763D01*
X-111603393Y-58836066D01*
X-111756796Y-59206413D01*
X-111835000Y-59599570D01*
X-113340000Y-59599570D01*
X-113340000Y-54799570D01*
X-111835000Y-54799570D01*
X-111835000Y-55200430D01*
X-111756796Y-55593587D01*
X-111603393Y-55963934D01*
X-111380687Y-56297237D01*
X-111097237Y-56580687D01*
X-110763934Y-56803393D01*
X-110393587Y-56956796D01*
X-110000430Y-57035000D01*
X-109599570Y-57035000D01*
X-109206413Y-56956796D01*
X-108836066Y-56803393D01*
X-108502763Y-56580687D01*
X-108219313Y-56297237D01*
X-107996607Y-55963934D01*
X-107843204Y-55593587D01*
X-107765000Y-55200430D01*
X-107765000Y-54799570D01*
X-107843204Y-54406413D01*
X-107996607Y-54036066D01*
X-108037410Y-53974999D01*
X-97913072Y-53974999D01*
X-97913072Y-56025001D01*
X-97896008Y-56198255D01*
X-97845472Y-56364851D01*
X-97763405Y-56518387D01*
X-97652962Y-56652962D01*
X-97518387Y-56763405D01*
X-97364851Y-56845472D01*
X-97198255Y-56896008D01*
X-97025001Y-56913072D01*
X-94974999Y-56913072D01*
X-94801745Y-56896008D01*
X-94635149Y-56845472D01*
X-94481613Y-56763405D01*
X-94347038Y-56652962D01*
X-94236595Y-56518387D01*
X-94154528Y-56364851D01*
X-94103992Y-56198255D01*
X-94086928Y-56025001D01*
X-94086928Y-53974999D01*
X-94103992Y-53801745D01*
X-94154528Y-53635149D01*
X-94236595Y-53481613D01*
X-94347038Y-53347038D01*
X-94481613Y-53236595D01*
X-94635149Y-53154528D01*
X-94801745Y-53103992D01*
X-94974999Y-53086928D01*
X-97025001Y-53086928D01*
X-97198255Y-53103992D01*
X-97364851Y-53154528D01*
X-97518387Y-53236595D01*
X-97652962Y-53347038D01*
X-97763405Y-53481613D01*
X-97845472Y-53635149D01*
X-97896008Y-53801745D01*
X-97913072Y-53974999D01*
X-108037410Y-53974999D01*
X-108219313Y-53702763D01*
X-108502763Y-53419313D01*
X-108836066Y-53196607D01*
X-109206413Y-53043204D01*
X-109599570Y-52965000D01*
X-110000430Y-52965000D01*
X-110393587Y-53043204D01*
X-110763934Y-53196607D01*
X-111097237Y-53419313D01*
X-111380687Y-53702763D01*
X-111603393Y-54036066D01*
X-111756796Y-54406413D01*
X-111835000Y-54799570D01*
X-113340000Y-54799570D01*
X-113340000Y-48558686D01*
X-105379081Y-48558686D01*
X-105042894Y-49027868D01*
X-104412932Y-49368237D01*
X-103728673Y-49579166D01*
X-103016411Y-49652550D01*
X-102303518Y-49585569D01*
X-101617391Y-49380796D01*
X-100984397Y-49046102D01*
X-100957106Y-49027868D01*
X-100620919Y-48558686D01*
X-68379081Y-48558686D01*
X-68042894Y-49027868D01*
X-67412932Y-49368237D01*
X-66728673Y-49579166D01*
X-66016411Y-49652550D01*
X-65303518Y-49585569D01*
X-64617391Y-49380796D01*
X-63984397Y-49046102D01*
X-63957106Y-49027868D01*
X-63764227Y-48758686D01*
X-31379081Y-48758686D01*
X-31042894Y-49227868D01*
X-30412932Y-49568237D01*
X-29728673Y-49779166D01*
X-29016411Y-49852550D01*
X-28303518Y-49785569D01*
X-27617391Y-49580796D01*
X-26984397Y-49246102D01*
X-26957106Y-49227868D01*
X-26620919Y-48758686D01*
X-29000000Y-46379605D01*
X-31379081Y-48758686D01*
X-63764227Y-48758686D01*
X-63620919Y-48558686D01*
X-66000000Y-46179605D01*
X-68379081Y-48558686D01*
X-100620919Y-48558686D01*
X-103000000Y-46179605D01*
X-105379081Y-48558686D01*
X-113340000Y-48558686D01*
X-113340000Y-45983589D01*
X-106652550Y-45983589D01*
X-106585569Y-46696482D01*
X-106380796Y-47382609D01*
X-106046102Y-48015603D01*
X-106027868Y-48042894D01*
X-105558686Y-48379081D01*
X-103179605Y-46000000D01*
X-102820395Y-46000000D01*
X-100441314Y-48379081D01*
X-99972132Y-48042894D01*
X-99631763Y-47412932D01*
X-99420834Y-46728673D01*
X-99347450Y-46016411D01*
X-99350533Y-45983589D01*
X-69652550Y-45983589D01*
X-69585569Y-46696482D01*
X-69380796Y-47382609D01*
X-69046102Y-48015603D01*
X-69027868Y-48042894D01*
X-68558686Y-48379081D01*
X-66179605Y-46000000D01*
X-65820395Y-46000000D01*
X-63441314Y-48379081D01*
X-62972132Y-48042894D01*
X-62631763Y-47412932D01*
X-62420834Y-46728673D01*
X-62364675Y-46183589D01*
X-32652550Y-46183589D01*
X-32585569Y-46896482D01*
X-32380796Y-47582609D01*
X-32046102Y-48215603D01*
X-32027868Y-48242894D01*
X-31558686Y-48579081D01*
X-29179605Y-46200000D01*
X-28820395Y-46200000D01*
X-26441314Y-48579081D01*
X-25972132Y-48242894D01*
X-25631763Y-47612932D01*
X-25420834Y-46928673D01*
X-25347450Y-46216411D01*
X-25414431Y-45503518D01*
X-25619204Y-44817391D01*
X-25953898Y-44184397D01*
X-25972132Y-44157106D01*
X-26441314Y-43820919D01*
X-28820395Y-46200000D01*
X-29179605Y-46200000D01*
X-31558686Y-43820919D01*
X-32027868Y-44157106D01*
X-32368237Y-44787068D01*
X-32579166Y-45471327D01*
X-32652550Y-46183589D01*
X-62364675Y-46183589D01*
X-62347450Y-46016411D01*
X-62414431Y-45303518D01*
X-62619204Y-44617391D01*
X-62953898Y-43984397D01*
X-62972132Y-43957106D01*
X-63441314Y-43620919D01*
X-65820395Y-46000000D01*
X-66179605Y-46000000D01*
X-68558686Y-43620919D01*
X-69027868Y-43957106D01*
X-69368237Y-44587068D01*
X-69579166Y-45271327D01*
X-69652550Y-45983589D01*
X-99350533Y-45983589D01*
X-99414431Y-45303518D01*
X-99619204Y-44617391D01*
X-99953898Y-43984397D01*
X-99972132Y-43957106D01*
X-100441314Y-43620919D01*
X-102820395Y-46000000D01*
X-103179605Y-46000000D01*
X-105558686Y-43620919D01*
X-106027868Y-43957106D01*
X-106368237Y-44587068D01*
X-106579166Y-45271327D01*
X-106652550Y-45983589D01*
X-113340000Y-45983589D01*
X-113340000Y-42127000D01*
X-105595694Y-42127000D01*
X-105318205Y-42275321D01*
G04 #@! TA.AperFunction,Conductor*
D25*
G36*
X-105318205Y-42275321D02*
G01*
X-104917117Y-42396990D01*
X-104500000Y-42438072D01*
X-103775695Y-42438072D01*
X-104382609Y-42619204D01*
X-105015603Y-42953898D01*
X-105042894Y-42972132D01*
X-105379081Y-43441314D01*
X-103000000Y-45820395D01*
X-100620919Y-43441314D01*
X-100957106Y-42972132D01*
X-101587068Y-42631763D01*
X-102215406Y-42438072D01*
X-101500000Y-42438072D01*
X-101082883Y-42396990D01*
X-100681795Y-42275321D01*
X-100404306Y-42127000D01*
X-68595694Y-42127000D01*
X-68318205Y-42275321D01*
X-67917117Y-42396990D01*
X-67500000Y-42438072D01*
X-66775695Y-42438072D01*
X-67382609Y-42619204D01*
X-68015603Y-42953898D01*
X-68042894Y-42972132D01*
X-68379081Y-43441314D01*
X-66000000Y-45820395D01*
X-63620919Y-43441314D01*
X-63957106Y-42972132D01*
X-64587068Y-42631763D01*
X-65215406Y-42438072D01*
X-64500000Y-42438072D01*
X-64082883Y-42396990D01*
X-63681795Y-42275321D01*
X-63404306Y-42127000D01*
X-31871528Y-42127000D01*
X-31687849Y-42277742D01*
X-31318205Y-42475321D01*
X-30917117Y-42596990D01*
X-30500000Y-42638072D01*
X-29775695Y-42638072D01*
X-30382609Y-42819204D01*
X-31015603Y-43153898D01*
X-31042894Y-43172132D01*
X-31379081Y-43641314D01*
X-29000000Y-46020395D01*
X-26620919Y-43641314D01*
X-26957106Y-43172132D01*
X-27587068Y-42831763D01*
X-28215406Y-42638072D01*
X-27500000Y-42638072D01*
X-27082883Y-42596990D01*
X-26681795Y-42475321D01*
X-26312151Y-42277742D01*
X-26128472Y-42127000D01*
X-18660000Y-42127000D01*
X-18659999Y-97873000D01*
X-48873000Y-97873000D01*
X-48873000Y-94826853D01*
X-48867278Y-94845716D01*
X-48789831Y-94990608D01*
X-48685606Y-95117606D01*
X-48558608Y-95221831D01*
X-48413716Y-95299278D01*
X-48256500Y-95346969D01*
X-48093000Y-95363072D01*
X-47693000Y-95363072D01*
X-47529500Y-95346969D01*
X-47372284Y-95299278D01*
X-47227392Y-95221831D01*
X-47100394Y-95117606D01*
X-47068000Y-95078134D01*
X-47035606Y-95117606D01*
X-46908608Y-95221831D01*
X-46763716Y-95299278D01*
X-46606500Y-95346969D01*
X-46443000Y-95363072D01*
X-46043000Y-95363072D01*
X-45879500Y-95346969D01*
X-45722284Y-95299278D01*
X-45577392Y-95221831D01*
X-45450394Y-95117606D01*
X-45346169Y-94990608D01*
X-45268722Y-94845716D01*
X-45221031Y-94688500D01*
X-45204928Y-94525000D01*
X-45204928Y-93975000D01*
X-45209884Y-93924685D01*
X-43967270Y-92682072D01*
X-43554000Y-92682072D01*
X-43429518Y-92669812D01*
X-43309820Y-92633502D01*
X-43199506Y-92574537D01*
X-43102815Y-92495185D01*
X-43023463Y-92398494D01*
X-42964498Y-92288180D01*
X-42928188Y-92168482D01*
X-42915928Y-92044000D01*
X-42915928Y-91532095D01*
X-42905185Y-91545185D01*
X-42808494Y-91624537D01*
X-42698180Y-91683502D01*
X-42578482Y-91719812D01*
X-42473172Y-91730184D01*
X-42440446Y-91747676D01*
X-42226498Y-91812577D01*
X-42004000Y-91834491D01*
X-41781501Y-91812577D01*
X-41567553Y-91747676D01*
X-41534827Y-91730184D01*
X-41429518Y-91719812D01*
X-41309820Y-91683502D01*
X-41199506Y-91624537D01*
X-41102815Y-91545185D01*
X-41023463Y-91448494D01*
X-40964498Y-91338180D01*
X-40928188Y-91218482D01*
X-40915928Y-91094000D01*
X-40915928Y-91017060D01*
X-40885423Y-90916499D01*
X-40869000Y-90749752D01*
X-40869000Y-88974999D01*
X-37913072Y-88974999D01*
X-37913072Y-91025001D01*
X-37896008Y-91198255D01*
X-37845472Y-91364851D01*
X-37763405Y-91518387D01*
X-37652962Y-91652962D01*
X-37518387Y-91763405D01*
X-37364851Y-91845472D01*
X-37198255Y-91896008D01*
X-37025001Y-91913072D01*
X-34974999Y-91913072D01*
X-34801745Y-91896008D01*
X-34635149Y-91845472D01*
X-34481613Y-91763405D01*
X-34347038Y-91652962D01*
X-34236595Y-91518387D01*
X-34154528Y-91364851D01*
X-34103992Y-91198255D01*
X-34086928Y-91025001D01*
X-34086928Y-89799570D01*
X-24235000Y-89799570D01*
X-24235000Y-90200430D01*
X-24156796Y-90593587D01*
X-24003393Y-90963934D01*
X-23780687Y-91297237D01*
X-23497237Y-91580687D01*
X-23163934Y-91803393D01*
X-22793587Y-91956796D01*
X-22400430Y-92035000D01*
X-21999570Y-92035000D01*
X-21606413Y-91956796D01*
X-21236066Y-91803393D01*
X-20902763Y-91580687D01*
X-20619313Y-91297237D01*
X-20396607Y-90963934D01*
X-20243204Y-90593587D01*
X-20165000Y-90200430D01*
X-20165000Y-89799570D01*
X-20243204Y-89406413D01*
X-20396607Y-89036066D01*
X-20619313Y-88702763D01*
X-20902763Y-88419313D01*
X-21236066Y-88196607D01*
X-21606413Y-88043204D01*
X-21999570Y-87965000D01*
X-22400430Y-87965000D01*
X-22793587Y-88043204D01*
X-23163934Y-88196607D01*
X-23497237Y-88419313D01*
X-23780687Y-88702763D01*
X-24003393Y-89036066D01*
X-24156796Y-89406413D01*
X-24235000Y-89799570D01*
X-34086928Y-89799570D01*
X-34086928Y-88974999D01*
X-34103992Y-88801745D01*
X-34154528Y-88635149D01*
X-34236595Y-88481613D01*
X-34347038Y-88347038D01*
X-34481613Y-88236595D01*
X-34635149Y-88154528D01*
X-34801745Y-88103992D01*
X-34974999Y-88086928D01*
X-37025001Y-88086928D01*
X-37198255Y-88103992D01*
X-37364851Y-88154528D01*
X-37518387Y-88236595D01*
X-37652962Y-88347038D01*
X-37763405Y-88481613D01*
X-37845472Y-88635149D01*
X-37896008Y-88801745D01*
X-37913072Y-88974999D01*
X-40869000Y-88974999D01*
X-40869000Y-87257000D01*
X-36977751Y-87257000D01*
X-36922000Y-87262491D01*
X-36866249Y-87257000D01*
X-36866248Y-87257000D01*
X-36699501Y-87240577D01*
X-36485553Y-87175676D01*
X-36315338Y-87084695D01*
X-36188119Y-87110000D01*
X-35811881Y-87110000D01*
X-35442873Y-87036600D01*
X-35095276Y-86892620D01*
X-34782446Y-86683594D01*
X-34516406Y-86417554D01*
X-34307380Y-86104724D01*
X-34163400Y-85757127D01*
X-34090000Y-85388119D01*
X-34090000Y-85011881D01*
X-34092448Y-84999570D01*
X-24235000Y-84999570D01*
X-24235000Y-85400430D01*
X-24156796Y-85793587D01*
X-24003393Y-86163934D01*
X-23780687Y-86497237D01*
X-23497237Y-86780687D01*
X-23163934Y-87003393D01*
X-22793587Y-87156796D01*
X-22400430Y-87235000D01*
X-21999570Y-87235000D01*
X-21606413Y-87156796D01*
X-21236066Y-87003393D01*
X-20902763Y-86780687D01*
X-20619313Y-86497237D01*
X-20396607Y-86163934D01*
X-20243204Y-85793587D01*
X-20165000Y-85400430D01*
X-20165000Y-84999570D01*
X-20243204Y-84606413D01*
X-20396607Y-84236066D01*
X-20619313Y-83902763D01*
X-20902763Y-83619313D01*
X-21236066Y-83396607D01*
X-21606413Y-83243204D01*
X-21999570Y-83165000D01*
X-22400430Y-83165000D01*
X-22793587Y-83243204D01*
X-23163934Y-83396607D01*
X-23497237Y-83619313D01*
X-23780687Y-83902763D01*
X-24003393Y-84236066D01*
X-24156796Y-84606413D01*
X-24235000Y-84999570D01*
X-34092448Y-84999570D01*
X-34163400Y-84642873D01*
X-34307380Y-84295276D01*
X-34516406Y-83982446D01*
X-34782446Y-83716406D01*
X-35095276Y-83507380D01*
X-35442873Y-83363400D01*
X-35811881Y-83290000D01*
X-36188119Y-83290000D01*
X-36557127Y-83363400D01*
X-36904724Y-83507380D01*
X-37217554Y-83716406D01*
X-37483594Y-83982446D01*
X-37692620Y-84295276D01*
X-37836600Y-84642873D01*
X-37905051Y-84987000D01*
X-41193713Y-84987000D01*
X-41196498Y-84977820D01*
X-41255463Y-84867506D01*
X-41334815Y-84770815D01*
X-41431506Y-84691463D01*
X-41541820Y-84632498D01*
X-41661518Y-84596188D01*
X-41786000Y-84583928D01*
X-44286000Y-84583928D01*
X-44410482Y-84596188D01*
X-44530180Y-84632498D01*
X-44640494Y-84691463D01*
X-44737185Y-84770815D01*
X-44816537Y-84867506D01*
X-44875502Y-84977820D01*
X-44911812Y-85097518D01*
X-44924072Y-85222000D01*
X-44924072Y-87022000D01*
X-44911812Y-87146482D01*
X-44875502Y-87266180D01*
X-44816537Y-87376494D01*
X-44737185Y-87473185D01*
X-44640494Y-87552537D01*
X-44530180Y-87611502D01*
X-44410482Y-87647812D01*
X-44286000Y-87660072D01*
X-43139000Y-87660072D01*
X-43139000Y-88863119D01*
X-43199506Y-88813463D01*
X-43309820Y-88754498D01*
X-43429518Y-88718188D01*
X-43554000Y-88705928D01*
X-43718250Y-88709000D01*
X-43877000Y-88867750D01*
X-43877000Y-89617000D01*
X-43857000Y-89617000D01*
X-43857000Y-89871000D01*
X-43877000Y-89871000D01*
X-43877000Y-89891000D01*
X-44131000Y-89891000D01*
X-44131000Y-89871000D01*
X-44151000Y-89871000D01*
X-44151000Y-89617000D01*
X-44131000Y-89617000D01*
X-44131000Y-88867750D01*
X-44289750Y-88709000D01*
X-44454000Y-88705928D01*
X-44578482Y-88718188D01*
X-44698180Y-88754498D01*
X-44808494Y-88813463D01*
X-44905185Y-88892815D01*
X-44984537Y-88989506D01*
X-45043502Y-89099820D01*
X-45046376Y-89109295D01*
X-45057188Y-88999518D01*
X-45093498Y-88879820D01*
X-45152463Y-88769506D01*
X-45231815Y-88672815D01*
X-45328506Y-88593463D01*
X-45438820Y-88534498D01*
X-45558518Y-88498188D01*
X-45683000Y-88485928D01*
X-45765941Y-88485928D01*
X-45901000Y-88350869D01*
X-45901000Y-87660072D01*
X-45786000Y-87660072D01*
X-45661518Y-87647812D01*
X-45541820Y-87611502D01*
X-45431506Y-87552537D01*
X-45334815Y-87473185D01*
X-45255463Y-87376494D01*
X-45196498Y-87266180D01*
X-45160188Y-87146482D01*
X-45147928Y-87022000D01*
X-45147928Y-85222000D01*
X-45160188Y-85097518D01*
X-45196498Y-84977820D01*
X-45255463Y-84867506D01*
X-45334815Y-84770815D01*
X-45431506Y-84691463D01*
X-45541820Y-84632498D01*
X-45661518Y-84596188D01*
X-45786000Y-84583928D01*
X-48286000Y-84583928D01*
X-48410482Y-84596188D01*
X-48530180Y-84632498D01*
X-48640494Y-84691463D01*
X-48737185Y-84770815D01*
X-48816537Y-84867506D01*
X-48873000Y-84973139D01*
X-48873000Y-78316853D01*
X-48867278Y-78335716D01*
X-48789831Y-78480608D01*
X-48685606Y-78607606D01*
X-48558608Y-78711831D01*
X-48413716Y-78789278D01*
X-48256500Y-78836969D01*
X-48093000Y-78853072D01*
X-47693000Y-78853072D01*
X-47529500Y-78836969D01*
X-47372284Y-78789278D01*
X-47227392Y-78711831D01*
X-47100394Y-78607606D01*
X-47068000Y-78568134D01*
X-47035606Y-78607606D01*
X-46908608Y-78711831D01*
X-46763716Y-78789278D01*
X-46606500Y-78836969D01*
X-46443000Y-78853072D01*
X-46043000Y-78853072D01*
X-45879500Y-78836969D01*
X-45722284Y-78789278D01*
X-45577392Y-78711831D01*
X-45450394Y-78607606D01*
X-45346169Y-78480608D01*
X-45268722Y-78335716D01*
X-45221031Y-78178500D01*
X-45204928Y-78015000D01*
X-45204928Y-77776729D01*
X-43600270Y-76172072D01*
X-43554000Y-76172072D01*
X-43429518Y-76159812D01*
X-43309820Y-76123502D01*
X-43199506Y-76064537D01*
X-43102815Y-75985185D01*
X-43023463Y-75888494D01*
X-42964498Y-75778180D01*
X-42928188Y-75658482D01*
X-42915928Y-75534000D01*
X-42915928Y-75022095D01*
X-42905185Y-75035185D01*
X-42808494Y-75114537D01*
X-42698180Y-75173502D01*
X-42578482Y-75209812D01*
X-42473173Y-75220184D01*
X-42440447Y-75237676D01*
X-42226499Y-75302577D01*
X-42004000Y-75324491D01*
X-41781502Y-75302577D01*
X-41567554Y-75237676D01*
X-41534828Y-75220184D01*
X-41429518Y-75209812D01*
X-41309820Y-75173502D01*
X-41199506Y-75114537D01*
X-41102815Y-75035185D01*
X-41023463Y-74938494D01*
X-40964498Y-74828180D01*
X-40928188Y-74708482D01*
X-40915928Y-74584000D01*
X-40915928Y-74507060D01*
X-40885423Y-74406499D01*
X-40869000Y-74239752D01*
X-40869000Y-73774999D01*
X-37913072Y-73774999D01*
X-37913072Y-75825001D01*
X-37896008Y-75998255D01*
X-37845472Y-76164851D01*
X-37763405Y-76318387D01*
X-37652962Y-76452962D01*
X-37518387Y-76563405D01*
X-37364851Y-76645472D01*
X-37198255Y-76696008D01*
X-37025001Y-76713072D01*
X-34974999Y-76713072D01*
X-34801745Y-76696008D01*
X-34635149Y-76645472D01*
X-34481613Y-76563405D01*
X-34347038Y-76452962D01*
X-34236595Y-76318387D01*
X-34154528Y-76164851D01*
X-34103992Y-75998255D01*
X-34086928Y-75825001D01*
X-34086928Y-74599570D01*
X-24235000Y-74599570D01*
X-24235000Y-75000430D01*
X-24156796Y-75393587D01*
X-24003393Y-75763934D01*
X-23780687Y-76097237D01*
X-23497237Y-76380687D01*
X-23163934Y-76603393D01*
X-22793587Y-76756796D01*
X-22400430Y-76835000D01*
X-21999570Y-76835000D01*
X-21606413Y-76756796D01*
X-21236066Y-76603393D01*
X-20902763Y-76380687D01*
X-20619313Y-76097237D01*
X-20396607Y-75763934D01*
X-20243204Y-75393587D01*
X-20165000Y-75000430D01*
X-20165000Y-74599570D01*
X-20243204Y-74206413D01*
X-20396607Y-73836066D01*
X-20619313Y-73502763D01*
X-20902763Y-73219313D01*
X-21236066Y-72996607D01*
X-21606413Y-72843204D01*
X-21999570Y-72765000D01*
X-22400430Y-72765000D01*
X-22793587Y-72843204D01*
X-23163934Y-72996607D01*
X-23497237Y-73219313D01*
X-23780687Y-73502763D01*
X-24003393Y-73836066D01*
X-24156796Y-74206413D01*
X-24235000Y-74599570D01*
X-34086928Y-74599570D01*
X-34086928Y-73774999D01*
X-34103992Y-73601745D01*
X-34154528Y-73435149D01*
X-34236595Y-73281613D01*
X-34347038Y-73147038D01*
X-34481613Y-73036595D01*
X-34635149Y-72954528D01*
X-34801745Y-72903992D01*
X-34974999Y-72886928D01*
X-37025001Y-72886928D01*
X-37198255Y-72903992D01*
X-37364851Y-72954528D01*
X-37518387Y-73036595D01*
X-37652962Y-73147038D01*
X-37763405Y-73281613D01*
X-37845472Y-73435149D01*
X-37896008Y-73601745D01*
X-37913072Y-73774999D01*
X-40869000Y-73774999D01*
X-40869000Y-70747000D01*
X-37757952Y-70747000D01*
X-37692620Y-70904724D01*
X-37483594Y-71217554D01*
X-37217554Y-71483594D01*
X-36904724Y-71692620D01*
X-36557127Y-71836600D01*
X-36188119Y-71910000D01*
X-35811881Y-71910000D01*
X-35442873Y-71836600D01*
X-35095276Y-71692620D01*
X-34782446Y-71483594D01*
X-34516406Y-71217554D01*
X-34307380Y-70904724D01*
X-34163400Y-70557127D01*
X-34090000Y-70188119D01*
X-34090000Y-69811881D01*
X-34092448Y-69799570D01*
X-24235000Y-69799570D01*
X-24235000Y-70200430D01*
X-24156796Y-70593587D01*
X-24003393Y-70963934D01*
X-23780687Y-71297237D01*
X-23497237Y-71580687D01*
X-23163934Y-71803393D01*
X-22793587Y-71956796D01*
X-22400430Y-72035000D01*
X-21999570Y-72035000D01*
X-21606413Y-71956796D01*
X-21236066Y-71803393D01*
X-20902763Y-71580687D01*
X-20619313Y-71297237D01*
X-20396607Y-70963934D01*
X-20243204Y-70593587D01*
X-20165000Y-70200430D01*
X-20165000Y-69799570D01*
X-20243204Y-69406413D01*
X-20396607Y-69036066D01*
X-20619313Y-68702763D01*
X-20902763Y-68419313D01*
X-21236066Y-68196607D01*
X-21606413Y-68043204D01*
X-21999570Y-67965000D01*
X-22400430Y-67965000D01*
X-22793587Y-68043204D01*
X-23163934Y-68196607D01*
X-23497237Y-68419313D01*
X-23780687Y-68702763D01*
X-24003393Y-69036066D01*
X-24156796Y-69406413D01*
X-24235000Y-69799570D01*
X-34092448Y-69799570D01*
X-34163400Y-69442873D01*
X-34307380Y-69095276D01*
X-34516406Y-68782446D01*
X-34782446Y-68516406D01*
X-35095276Y-68307380D01*
X-35442873Y-68163400D01*
X-35811881Y-68090000D01*
X-36188119Y-68090000D01*
X-36557127Y-68163400D01*
X-36904724Y-68307380D01*
X-37158579Y-68477000D01*
X-41193713Y-68477000D01*
X-41196498Y-68467820D01*
X-41255463Y-68357506D01*
X-41334815Y-68260815D01*
X-41431506Y-68181463D01*
X-41541820Y-68122498D01*
X-41661518Y-68086188D01*
X-41786000Y-68073928D01*
X-44286000Y-68073928D01*
X-44410482Y-68086188D01*
X-44530180Y-68122498D01*
X-44640494Y-68181463D01*
X-44737185Y-68260815D01*
X-44816537Y-68357506D01*
X-44875502Y-68467820D01*
X-44911812Y-68587518D01*
X-44924072Y-68712000D01*
X-44924072Y-70512000D01*
X-44911812Y-70636482D01*
X-44875502Y-70756180D01*
X-44816537Y-70866494D01*
X-44737185Y-70963185D01*
X-44640494Y-71042537D01*
X-44530180Y-71101502D01*
X-44410482Y-71137812D01*
X-44286000Y-71150072D01*
X-43138999Y-71150072D01*
X-43138999Y-72353119D01*
X-43199506Y-72303463D01*
X-43309820Y-72244498D01*
X-43429518Y-72208188D01*
X-43554000Y-72195928D01*
X-43718250Y-72199000D01*
X-43877000Y-72357750D01*
X-43877000Y-73107000D01*
X-43857000Y-73107000D01*
X-43857000Y-73361000D01*
X-43877000Y-73361000D01*
X-43877000Y-73381000D01*
X-44131000Y-73381000D01*
X-44131000Y-73361000D01*
X-44151000Y-73361000D01*
X-44151000Y-73107000D01*
X-44131000Y-73107000D01*
X-44131000Y-72357750D01*
X-44289750Y-72199000D01*
X-44454000Y-72195928D01*
X-44578482Y-72208188D01*
X-44698180Y-72244498D01*
X-44808494Y-72303463D01*
X-44905185Y-72382815D01*
X-44984537Y-72479506D01*
X-45043502Y-72589820D01*
X-45046376Y-72599295D01*
X-45057188Y-72489518D01*
X-45093498Y-72369820D01*
X-45152463Y-72259506D01*
X-45231815Y-72162815D01*
X-45328506Y-72083463D01*
X-45438820Y-72024498D01*
X-45558518Y-71988188D01*
X-45683000Y-71975928D01*
X-45765941Y-71975928D01*
X-45901000Y-71840869D01*
X-45901000Y-71150072D01*
X-45786000Y-71150072D01*
X-45661518Y-71137812D01*
X-45541820Y-71101502D01*
X-45431506Y-71042537D01*
X-45334815Y-70963185D01*
X-45255463Y-70866494D01*
X-45196498Y-70756180D01*
X-45160188Y-70636482D01*
X-45147928Y-70512000D01*
X-45147928Y-68712000D01*
X-45160188Y-68587518D01*
X-45196498Y-68467820D01*
X-45255463Y-68357506D01*
X-45334815Y-68260815D01*
X-45431506Y-68181463D01*
X-45541820Y-68122498D01*
X-45661518Y-68086188D01*
X-45786000Y-68073928D01*
X-48286000Y-68073928D01*
X-48410482Y-68086188D01*
X-48530180Y-68122498D01*
X-48640494Y-68181463D01*
X-48737185Y-68260815D01*
X-48816537Y-68357506D01*
X-48873000Y-68463139D01*
X-48873000Y-60955000D01*
X-48677072Y-60955000D01*
X-48677072Y-61505000D01*
X-48660969Y-61668500D01*
X-48613278Y-61825716D01*
X-48535831Y-61970608D01*
X-48431606Y-62097606D01*
X-48304608Y-62201831D01*
X-48159716Y-62279278D01*
X-48002500Y-62326969D01*
X-47839000Y-62343072D01*
X-47439000Y-62343072D01*
X-47275500Y-62326969D01*
X-47118284Y-62279278D01*
X-46973392Y-62201831D01*
X-46846394Y-62097606D01*
X-46814000Y-62058134D01*
X-46781606Y-62097606D01*
X-46654608Y-62201831D01*
X-46509716Y-62279278D01*
X-46352500Y-62326969D01*
X-46189000Y-62343072D01*
X-45789000Y-62343072D01*
X-45625500Y-62326969D01*
X-45468284Y-62279278D01*
X-45323392Y-62201831D01*
X-45196394Y-62097606D01*
X-45092169Y-61970608D01*
X-45014722Y-61825716D01*
X-44967031Y-61668500D01*
X-44950928Y-61505000D01*
X-44950928Y-60955000D01*
X-44955884Y-60904685D01*
X-43713270Y-59662072D01*
X-43300000Y-59662072D01*
X-43175518Y-59649812D01*
X-43055820Y-59613502D01*
X-42945506Y-59554537D01*
X-42848815Y-59475185D01*
X-42769463Y-59378494D01*
X-42710498Y-59268180D01*
X-42674188Y-59148482D01*
X-42661928Y-59024000D01*
X-42661928Y-58512095D01*
X-42651185Y-58525185D01*
X-42554494Y-58604537D01*
X-42444180Y-58663502D01*
X-42324482Y-58699812D01*
X-42219173Y-58710184D01*
X-42186447Y-58727676D01*
X-41972499Y-58792577D01*
X-41750000Y-58814491D01*
X-41527502Y-58792577D01*
X-41469556Y-58774999D01*
X-37913072Y-58774999D01*
X-37913072Y-60825001D01*
X-37896008Y-60998255D01*
X-37845472Y-61164851D01*
X-37763405Y-61318387D01*
X-37652962Y-61452962D01*
X-37518387Y-61563405D01*
X-37364851Y-61645472D01*
X-37198255Y-61696008D01*
X-37025001Y-61713072D01*
X-34974999Y-61713072D01*
X-34801745Y-61696008D01*
X-34635149Y-61645472D01*
X-34481613Y-61563405D01*
X-34347038Y-61452962D01*
X-34236595Y-61318387D01*
X-34154528Y-61164851D01*
X-34103992Y-60998255D01*
X-34086928Y-60825001D01*
X-34086928Y-59599570D01*
X-24235000Y-59599570D01*
X-24235000Y-60000430D01*
X-24156796Y-60393587D01*
X-24003393Y-60763934D01*
X-23780687Y-61097237D01*
X-23497237Y-61380687D01*
X-23163934Y-61603393D01*
X-22793587Y-61756796D01*
X-22400430Y-61835000D01*
X-21999570Y-61835000D01*
X-21606413Y-61756796D01*
X-21236066Y-61603393D01*
X-20902763Y-61380687D01*
X-20619313Y-61097237D01*
X-20396607Y-60763934D01*
X-20243204Y-60393587D01*
X-20165000Y-60000430D01*
X-20165000Y-59599570D01*
X-20243204Y-59206413D01*
X-20396607Y-58836066D01*
X-20619313Y-58502763D01*
X-20902763Y-58219313D01*
X-21236066Y-57996607D01*
X-21606413Y-57843204D01*
X-21999570Y-57765000D01*
X-22400430Y-57765000D01*
X-22793587Y-57843204D01*
X-23163934Y-57996607D01*
X-23497237Y-58219313D01*
X-23780687Y-58502763D01*
X-24003393Y-58836066D01*
X-24156796Y-59206413D01*
X-24235000Y-59599570D01*
X-34086928Y-59599570D01*
X-34086928Y-58774999D01*
X-34103992Y-58601745D01*
X-34154528Y-58435149D01*
X-34236595Y-58281613D01*
X-34347038Y-58147038D01*
X-34481613Y-58036595D01*
X-34635149Y-57954528D01*
X-34801745Y-57903992D01*
X-34974999Y-57886928D01*
X-37025001Y-57886928D01*
X-37198255Y-57903992D01*
X-37364851Y-57954528D01*
X-37518387Y-58036595D01*
X-37652962Y-58147038D01*
X-37763405Y-58281613D01*
X-37845472Y-58435149D01*
X-37896008Y-58601745D01*
X-37913072Y-58774999D01*
X-41469556Y-58774999D01*
X-41313554Y-58727676D01*
X-41280828Y-58710184D01*
X-41175518Y-58699812D01*
X-41055820Y-58663502D01*
X-40945506Y-58604537D01*
X-40848815Y-58525185D01*
X-40769463Y-58428494D01*
X-40710498Y-58318180D01*
X-40674188Y-58198482D01*
X-40661928Y-58074000D01*
X-40661928Y-57997060D01*
X-40631423Y-57896499D01*
X-40615000Y-57729752D01*
X-40615000Y-54364000D01*
X-38241131Y-54364000D01*
X-37890630Y-54714501D01*
X-37910000Y-54811881D01*
X-37910000Y-55188119D01*
X-37836600Y-55557127D01*
X-37692620Y-55904724D01*
X-37483594Y-56217554D01*
X-37217554Y-56483594D01*
X-36904724Y-56692620D01*
X-36557127Y-56836600D01*
X-36188119Y-56910000D01*
X-35811881Y-56910000D01*
X-35442873Y-56836600D01*
X-35095276Y-56692620D01*
X-34782446Y-56483594D01*
X-34516406Y-56217554D01*
X-34307380Y-55904724D01*
X-34163400Y-55557127D01*
X-34090000Y-55188119D01*
X-34090000Y-54811881D01*
X-34092448Y-54799570D01*
X-24235000Y-54799570D01*
X-24235000Y-55200430D01*
X-24156796Y-55593587D01*
X-24003393Y-55963934D01*
X-23780687Y-56297237D01*
X-23497237Y-56580687D01*
X-23163934Y-56803393D01*
X-22793587Y-56956796D01*
X-22400430Y-57035000D01*
X-21999570Y-57035000D01*
X-21606413Y-56956796D01*
X-21236066Y-56803393D01*
X-20902763Y-56580687D01*
X-20619313Y-56297237D01*
X-20396607Y-55963934D01*
X-20243204Y-55593587D01*
X-20165000Y-55200430D01*
X-20165000Y-54799570D01*
X-20243204Y-54406413D01*
X-20396607Y-54036066D01*
X-20619313Y-53702763D01*
X-20902763Y-53419313D01*
X-21236066Y-53196607D01*
X-21606413Y-53043204D01*
X-21999570Y-52965000D01*
X-22400430Y-52965000D01*
X-22793587Y-53043204D01*
X-23163934Y-53196607D01*
X-23497237Y-53419313D01*
X-23780687Y-53702763D01*
X-24003393Y-54036066D01*
X-24156796Y-54406413D01*
X-24235000Y-54799570D01*
X-34092448Y-54799570D01*
X-34163400Y-54442873D01*
X-34307380Y-54095276D01*
X-34516406Y-53782446D01*
X-34782446Y-53516406D01*
X-35095276Y-53307380D01*
X-35442873Y-53163400D01*
X-35811881Y-53090000D01*
X-36188119Y-53090000D01*
X-36285499Y-53109370D01*
X-36929004Y-52465865D01*
X-36964551Y-52422551D01*
X-37137377Y-52280716D01*
X-37334553Y-52175324D01*
X-37548501Y-52110423D01*
X-37715248Y-52094000D01*
X-37715249Y-52094000D01*
X-37771000Y-52088509D01*
X-37826751Y-52094000D01*
X-40939713Y-52094000D01*
X-40942498Y-52084820D01*
X-41001463Y-51974506D01*
X-41080815Y-51877815D01*
X-41177506Y-51798463D01*
X-41287820Y-51739498D01*
X-41407518Y-51703188D01*
X-41532000Y-51690928D01*
X-44032000Y-51690928D01*
X-44156482Y-51703188D01*
X-44276180Y-51739498D01*
X-44386494Y-51798463D01*
X-44483185Y-51877815D01*
X-44562537Y-51974506D01*
X-44621502Y-52084820D01*
X-44657812Y-52204518D01*
X-44670072Y-52329000D01*
X-44670072Y-54129000D01*
X-44657812Y-54253482D01*
X-44621502Y-54373180D01*
X-44562537Y-54483494D01*
X-44483185Y-54580185D01*
X-44386494Y-54659537D01*
X-44276180Y-54718502D01*
X-44156482Y-54754812D01*
X-44032000Y-54767072D01*
X-42884999Y-54767072D01*
X-42884999Y-55843119D01*
X-42945506Y-55793463D01*
X-43055820Y-55734498D01*
X-43175518Y-55698188D01*
X-43300000Y-55685928D01*
X-43464250Y-55689000D01*
X-43623000Y-55847750D01*
X-43623000Y-56597000D01*
X-43603000Y-56597000D01*
X-43603000Y-56851000D01*
X-43623000Y-56851000D01*
X-43623000Y-56871000D01*
X-43877000Y-56871000D01*
X-43877000Y-56851000D01*
X-43897000Y-56851000D01*
X-43897000Y-56597000D01*
X-43877000Y-56597000D01*
X-43877000Y-55847750D01*
X-44035750Y-55689000D01*
X-44200000Y-55685928D01*
X-44324482Y-55698188D01*
X-44444180Y-55734498D01*
X-44554494Y-55793463D01*
X-44651185Y-55872815D01*
X-44730537Y-55969506D01*
X-44789502Y-56079820D01*
X-44825812Y-56199518D01*
X-44838072Y-56324000D01*
X-44835000Y-56438250D01*
X-44676252Y-56596998D01*
X-44806292Y-56596998D01*
X-44917928Y-56485362D01*
X-44917928Y-56104000D01*
X-44930188Y-55979518D01*
X-44966498Y-55859820D01*
X-45025463Y-55749506D01*
X-45104815Y-55652815D01*
X-45171000Y-55598499D01*
X-45171000Y-54654198D01*
X-45080815Y-54580185D01*
X-45001463Y-54483494D01*
X-44942498Y-54373180D01*
X-44906188Y-54253482D01*
X-44893928Y-54129000D01*
X-44893928Y-52329000D01*
X-44906188Y-52204518D01*
X-44942498Y-52084820D01*
X-45001463Y-51974506D01*
X-45080815Y-51877815D01*
X-45177506Y-51798463D01*
X-45287820Y-51739498D01*
X-45407518Y-51703188D01*
X-45532000Y-51690928D01*
X-48032000Y-51690928D01*
X-48156482Y-51703188D01*
X-48276180Y-51739498D01*
X-48386494Y-51798463D01*
X-48483185Y-51877815D01*
X-48562537Y-51974506D01*
X-48621502Y-52084820D01*
X-48657812Y-52204518D01*
X-48670072Y-52329000D01*
X-48670072Y-54129000D01*
X-48657812Y-54253482D01*
X-48621502Y-54373180D01*
X-48562537Y-54483494D01*
X-48483185Y-54580185D01*
X-48386494Y-54659537D01*
X-48276180Y-54718502D01*
X-48156482Y-54754812D01*
X-48032000Y-54767072D01*
X-47440999Y-54767072D01*
X-47441000Y-55598498D01*
X-47507185Y-55652815D01*
X-47586537Y-55749506D01*
X-47645502Y-55859820D01*
X-47681812Y-55979518D01*
X-47694072Y-56104000D01*
X-47694072Y-56704000D01*
X-47681812Y-56828482D01*
X-47645502Y-56948180D01*
X-47586537Y-57058494D01*
X-47507185Y-57155185D01*
X-47410494Y-57234537D01*
X-47300180Y-57293502D01*
X-47272542Y-57301886D01*
X-47254284Y-57336045D01*
X-47112448Y-57508871D01*
X-47069140Y-57544413D01*
X-46607625Y-58005928D01*
X-47056000Y-58005928D01*
X-47180482Y-58018188D01*
X-47300180Y-58054498D01*
X-47410494Y-58113463D01*
X-47507185Y-58192815D01*
X-47586537Y-58289506D01*
X-47645502Y-58399820D01*
X-47681812Y-58519518D01*
X-47694072Y-58644000D01*
X-47694072Y-59244000D01*
X-47681812Y-59368482D01*
X-47645502Y-59488180D01*
X-47586537Y-59598494D01*
X-47507185Y-59695185D01*
X-47410494Y-59774537D01*
X-47311339Y-59827537D01*
X-47600729Y-60116928D01*
X-47839000Y-60116928D01*
X-48002500Y-60133031D01*
X-48159716Y-60180722D01*
X-48304608Y-60258169D01*
X-48431606Y-60362394D01*
X-48535831Y-60489392D01*
X-48613278Y-60634284D01*
X-48660969Y-60791500D01*
X-48677072Y-60955000D01*
X-48873000Y-60955000D01*
X-48873000Y-50000000D01*
X-48875440Y-49975224D01*
X-48882667Y-49951399D01*
X-48894403Y-49929443D01*
X-48910197Y-49910197D01*
X-48929443Y-49894403D01*
X-48951399Y-49882667D01*
X-48975224Y-49875440D01*
X-49000000Y-49873000D01*
X-82550000Y-49873000D01*
X-82574776Y-49875440D01*
X-82598601Y-49882667D01*
X-82620557Y-49894403D01*
X-82639803Y-49910197D01*
X-82655597Y-49929443D01*
X-82667333Y-49951399D01*
X-82674560Y-49975224D01*
X-82677000Y-50000000D01*
X-82677000Y-51544144D01*
X-82691294Y-51561561D01*
X-82784207Y-51735392D01*
X-82796686Y-51758738D01*
X-82861587Y-51972686D01*
X-82883501Y-52195184D01*
X-82878010Y-52250936D01*
X-82878009Y-60988249D01*
X-82883501Y-61044010D01*
X-82878010Y-61099761D01*
X-82878009Y-74282229D01*
X-82883501Y-74337990D01*
X-82878010Y-74393741D01*
X-82878009Y-84327654D01*
X-82964394Y-84222394D01*
X-83091392Y-84118169D01*
X-83236284Y-84040722D01*
X-83393500Y-83993031D01*
X-83557000Y-83976928D01*
X-83957000Y-83976928D01*
X-84120500Y-83993031D01*
X-84277716Y-84040722D01*
X-84422608Y-84118169D01*
X-84549606Y-84222394D01*
X-84582000Y-84261866D01*
X-84614394Y-84222394D01*
X-84741392Y-84118169D01*
X-84886284Y-84040722D01*
X-85043500Y-83993031D01*
X-85207000Y-83976928D01*
X-85607000Y-83976928D01*
X-85770500Y-83993031D01*
X-85927716Y-84040722D01*
X-86072608Y-84118169D01*
X-86199606Y-84222394D01*
X-86303831Y-84349392D01*
X-86381278Y-84494284D01*
X-86428969Y-84651500D01*
X-86445072Y-84815000D01*
X-86445072Y-85053269D01*
X-88049729Y-86657928D01*
X-88158000Y-86657928D01*
X-88282482Y-86670188D01*
X-88402180Y-86706498D01*
X-88512494Y-86765463D01*
X-88609185Y-86844815D01*
X-88688537Y-86941506D01*
X-88747502Y-87051820D01*
X-88783812Y-87171518D01*
X-88796072Y-87296000D01*
X-88796072Y-87807905D01*
X-88806815Y-87794815D01*
X-88903506Y-87715463D01*
X-89013820Y-87656498D01*
X-89133518Y-87620188D01*
X-89238827Y-87609816D01*
X-89271553Y-87592324D01*
X-89485501Y-87527423D01*
X-89708000Y-87505509D01*
X-89930498Y-87527423D01*
X-90144446Y-87592324D01*
X-90177172Y-87609816D01*
X-90282482Y-87620188D01*
X-90402180Y-87656498D01*
X-90512494Y-87715463D01*
X-90609185Y-87794815D01*
X-90688537Y-87891506D01*
X-90747502Y-88001820D01*
X-90783812Y-88121518D01*
X-90796072Y-88246000D01*
X-90796072Y-88322944D01*
X-90826576Y-88423501D01*
X-90842999Y-88590248D01*
X-90843000Y-92083000D01*
X-92311868Y-92083000D01*
X-94109370Y-90285499D01*
X-94090000Y-90188119D01*
X-94090000Y-89811881D01*
X-94163400Y-89442873D01*
X-94307380Y-89095276D01*
X-94516406Y-88782446D01*
X-94782446Y-88516406D01*
X-95095276Y-88307380D01*
X-95442873Y-88163400D01*
X-95811881Y-88090000D01*
X-96188119Y-88090000D01*
X-96557127Y-88163400D01*
X-96904724Y-88307380D01*
X-97217554Y-88516406D01*
X-97483594Y-88782446D01*
X-97692620Y-89095276D01*
X-97836600Y-89442873D01*
X-97910000Y-89811881D01*
X-97910000Y-90188119D01*
X-97836600Y-90557127D01*
X-97692620Y-90904724D01*
X-97483594Y-91217554D01*
X-97217554Y-91483594D01*
X-96904724Y-91692620D01*
X-96557127Y-91836600D01*
X-96188119Y-91910000D01*
X-95811881Y-91910000D01*
X-95714501Y-91890630D01*
X-93623991Y-93981141D01*
X-93588449Y-94024449D01*
X-93415623Y-94166284D01*
X-93218447Y-94271676D01*
X-93004499Y-94336577D01*
X-92837752Y-94353000D01*
X-92837743Y-94353000D01*
X-92782001Y-94358490D01*
X-92726259Y-94353000D01*
X-90518287Y-94353000D01*
X-90515502Y-94362180D01*
X-90456537Y-94472494D01*
X-90377185Y-94569185D01*
X-90280494Y-94648537D01*
X-90170180Y-94707502D01*
X-90050482Y-94743812D01*
X-89926000Y-94756072D01*
X-87426000Y-94756072D01*
X-87301518Y-94743812D01*
X-87181820Y-94707502D01*
X-87071506Y-94648537D01*
X-86974815Y-94569185D01*
X-86895463Y-94472494D01*
X-86836498Y-94362180D01*
X-86800188Y-94242482D01*
X-86787928Y-94118000D01*
X-86787928Y-92318000D01*
X-86800188Y-92193518D01*
X-86836498Y-92073820D01*
X-86895463Y-91963506D01*
X-86974815Y-91866815D01*
X-87071506Y-91787463D01*
X-87181820Y-91728498D01*
X-87301518Y-91692188D01*
X-87426000Y-91679928D01*
X-88573000Y-91679928D01*
X-88573000Y-90476881D01*
X-88512494Y-90526537D01*
X-88402180Y-90585502D01*
X-88282482Y-90621812D01*
X-88158000Y-90634072D01*
X-87993750Y-90631000D01*
X-87835000Y-90472250D01*
X-87835000Y-89723000D01*
X-87855000Y-89723000D01*
X-87855000Y-89469000D01*
X-87835000Y-89469000D01*
X-87835000Y-89449000D01*
X-87581000Y-89449000D01*
X-87581000Y-89469000D01*
X-87561000Y-89469000D01*
X-87561000Y-89723000D01*
X-87581000Y-89723000D01*
X-87581000Y-90472250D01*
X-87422250Y-90631000D01*
X-87258000Y-90634072D01*
X-87133518Y-90621812D01*
X-87013820Y-90585502D01*
X-86903506Y-90526537D01*
X-86806815Y-90447185D01*
X-86727463Y-90350494D01*
X-86668498Y-90240180D01*
X-86665624Y-90230705D01*
X-86654812Y-90340482D01*
X-86618502Y-90460180D01*
X-86559537Y-90570494D01*
X-86480185Y-90667185D01*
X-86414000Y-90721502D01*
X-86413999Y-91911673D01*
X-86456537Y-91963506D01*
X-86515502Y-92073820D01*
X-86551812Y-92193518D01*
X-86564072Y-92318000D01*
X-86564072Y-94118000D01*
X-86551812Y-94242482D01*
X-86515502Y-94362180D01*
X-86456537Y-94472494D01*
X-86377185Y-94569185D01*
X-86280494Y-94648537D01*
X-86170180Y-94707502D01*
X-86050482Y-94743812D01*
X-85926000Y-94756072D01*
X-83426000Y-94756072D01*
X-83301518Y-94743812D01*
X-83181820Y-94707502D01*
X-83071506Y-94648537D01*
X-82974815Y-94569185D01*
X-82895463Y-94472494D01*
X-82836498Y-94362180D01*
X-82800188Y-94242482D01*
X-82787928Y-94118000D01*
X-82787928Y-92318000D01*
X-82800188Y-92193518D01*
X-82836498Y-92073820D01*
X-82895463Y-91963506D01*
X-82974815Y-91866815D01*
X-83071506Y-91787463D01*
X-83181820Y-91728498D01*
X-83301518Y-91692188D01*
X-83426000Y-91679928D01*
X-84144000Y-91679928D01*
X-84144000Y-90721501D01*
X-84077815Y-90667185D01*
X-83998463Y-90570494D01*
X-83939498Y-90460180D01*
X-83903188Y-90340482D01*
X-83890928Y-90216000D01*
X-83890928Y-89616000D01*
X-83903188Y-89491518D01*
X-83939498Y-89371820D01*
X-83998463Y-89261506D01*
X-84077815Y-89164815D01*
X-84156691Y-89100084D01*
X-84160423Y-89062188D01*
X-84225324Y-88848239D01*
X-84330716Y-88651063D01*
X-84472551Y-88478237D01*
X-84515865Y-88442690D01*
X-84644483Y-88314072D01*
X-84529000Y-88314072D01*
X-84404518Y-88301812D01*
X-84284820Y-88265502D01*
X-84174506Y-88206537D01*
X-84077815Y-88127185D01*
X-83998463Y-88030494D01*
X-83939498Y-87920180D01*
X-83903188Y-87800482D01*
X-83890928Y-87676000D01*
X-83890928Y-87076000D01*
X-83903188Y-86951518D01*
X-83939498Y-86831820D01*
X-83998463Y-86721506D01*
X-84077815Y-86624815D01*
X-84154269Y-86562071D01*
X-83795270Y-86203072D01*
X-83557000Y-86203072D01*
X-83393500Y-86186969D01*
X-83236284Y-86139278D01*
X-83091392Y-86061831D01*
X-82964394Y-85957606D01*
X-82878009Y-85852346D01*
X-82878009Y-90792228D01*
X-82883501Y-90847990D01*
X-82861587Y-91070488D01*
X-82796686Y-91284436D01*
X-82779534Y-91316525D01*
X-82691293Y-91481613D01*
X-82677000Y-91499029D01*
X-82677000Y-97663000D01*
X-113340000Y-97663000D01*
X-113340000Y-89799570D01*
X-111835000Y-89799570D01*
X-111835000Y-90200430D01*
X-111756796Y-90593587D01*
X-111603393Y-90963934D01*
X-111380687Y-91297237D01*
X-111097237Y-91580687D01*
X-110763934Y-91803393D01*
X-110393587Y-91956796D01*
X-110000430Y-92035000D01*
X-109599570Y-92035000D01*
X-109206413Y-91956796D01*
X-108836066Y-91803393D01*
X-108502763Y-91580687D01*
X-108219313Y-91297237D01*
X-107996607Y-90963934D01*
X-107843204Y-90593587D01*
X-107765000Y-90200430D01*
X-107765000Y-89799570D01*
X-107843204Y-89406413D01*
X-107996607Y-89036066D01*
X-108219313Y-88702763D01*
X-108502763Y-88419313D01*
X-108836066Y-88196607D01*
X-109206413Y-88043204D01*
X-109599570Y-87965000D01*
X-110000430Y-87965000D01*
X-110393587Y-88043204D01*
X-110763934Y-88196607D01*
X-111097237Y-88419313D01*
X-111380687Y-88702763D01*
X-111603393Y-89036066D01*
X-111756796Y-89406413D01*
X-111835000Y-89799570D01*
X-113340000Y-89799570D01*
X-113340000Y-84999570D01*
X-111835000Y-84999570D01*
X-111835000Y-85400430D01*
X-111756796Y-85793587D01*
X-111603393Y-86163934D01*
X-111380687Y-86497237D01*
X-111097237Y-86780687D01*
X-110763934Y-87003393D01*
X-110393587Y-87156796D01*
X-110000430Y-87235000D01*
X-109599570Y-87235000D01*
X-109206413Y-87156796D01*
X-108836066Y-87003393D01*
X-108502763Y-86780687D01*
X-108219313Y-86497237D01*
X-107996607Y-86163934D01*
X-107843204Y-85793587D01*
X-107765000Y-85400430D01*
X-107765000Y-84999570D01*
X-107843204Y-84606413D01*
X-107996607Y-84236066D01*
X-108037410Y-84174999D01*
X-97913072Y-84174999D01*
X-97913072Y-86225001D01*
X-97896008Y-86398255D01*
X-97845472Y-86564851D01*
X-97763405Y-86718387D01*
X-97652962Y-86852962D01*
X-97518387Y-86963405D01*
X-97364851Y-87045472D01*
X-97198255Y-87096008D01*
X-97025001Y-87113072D01*
X-94974999Y-87113072D01*
X-94801745Y-87096008D01*
X-94635149Y-87045472D01*
X-94481613Y-86963405D01*
X-94347038Y-86852962D01*
X-94236595Y-86718387D01*
X-94154528Y-86564851D01*
X-94103992Y-86398255D01*
X-94086928Y-86225001D01*
X-94086928Y-84174999D01*
X-94103992Y-84001745D01*
X-94154528Y-83835149D01*
X-94236595Y-83681613D01*
X-94347038Y-83547038D01*
X-94481613Y-83436595D01*
X-94635149Y-83354528D01*
X-94801745Y-83303992D01*
X-94974999Y-83286928D01*
X-97025001Y-83286928D01*
X-97198255Y-83303992D01*
X-97364851Y-83354528D01*
X-97518387Y-83436595D01*
X-97652962Y-83547038D01*
X-97763405Y-83681613D01*
X-97845472Y-83835149D01*
X-97896008Y-84001745D01*
X-97913072Y-84174999D01*
X-108037410Y-84174999D01*
X-108219313Y-83902763D01*
X-108502763Y-83619313D01*
X-108836066Y-83396607D01*
X-109206413Y-83243204D01*
X-109599570Y-83165000D01*
X-110000430Y-83165000D01*
X-110393587Y-83243204D01*
X-110763934Y-83396607D01*
X-111097237Y-83619313D01*
X-111380687Y-83902763D01*
X-111603393Y-84236066D01*
X-111756796Y-84606413D01*
X-111835000Y-84999570D01*
X-113340000Y-84999570D01*
X-113340000Y-74799570D01*
X-111835000Y-74799570D01*
X-111835000Y-75200430D01*
X-111756796Y-75593587D01*
X-111603393Y-75963934D01*
X-111380687Y-76297237D01*
X-111097237Y-76580687D01*
X-110763934Y-76803393D01*
X-110393587Y-76956796D01*
X-110000430Y-77035000D01*
X-109599570Y-77035000D01*
X-109206413Y-76956796D01*
X-108836066Y-76803393D01*
X-108502763Y-76580687D01*
X-108219313Y-76297237D01*
X-107996607Y-75963934D01*
X-107843204Y-75593587D01*
X-107765000Y-75200430D01*
X-107765000Y-74811881D01*
X-97910000Y-74811881D01*
X-97910000Y-75188119D01*
X-97836600Y-75557127D01*
X-97692620Y-75904724D01*
X-97483594Y-76217554D01*
X-97217554Y-76483594D01*
X-96904724Y-76692620D01*
X-96557127Y-76836600D01*
X-96188119Y-76910000D01*
X-95811881Y-76910000D01*
X-95714502Y-76890630D01*
X-95387987Y-77217146D01*
X-95352449Y-77260449D01*
X-95309146Y-77295987D01*
X-95309144Y-77295989D01*
X-95179623Y-77402284D01*
X-94982447Y-77507676D01*
X-94768499Y-77572577D01*
X-94546000Y-77594491D01*
X-94490248Y-77589000D01*
X-90772287Y-77589000D01*
X-90769502Y-77598180D01*
X-90710537Y-77708494D01*
X-90631185Y-77805185D01*
X-90534494Y-77884537D01*
X-90424180Y-77943502D01*
X-90304482Y-77979812D01*
X-90180000Y-77992072D01*
X-87680000Y-77992072D01*
X-87555518Y-77979812D01*
X-87435820Y-77943502D01*
X-87325506Y-77884537D01*
X-87228815Y-77805185D01*
X-87149463Y-77708494D01*
X-87090498Y-77598180D01*
X-87054188Y-77478482D01*
X-87041928Y-77354000D01*
X-87041928Y-75554000D01*
X-87054188Y-75429518D01*
X-87090498Y-75309820D01*
X-87149463Y-75199506D01*
X-87228815Y-75102815D01*
X-87325506Y-75023463D01*
X-87435820Y-74964498D01*
X-87555518Y-74928188D01*
X-87680000Y-74915928D01*
X-88843000Y-74915928D01*
X-88843000Y-73712881D01*
X-88782494Y-73762537D01*
X-88672180Y-73821502D01*
X-88552482Y-73857812D01*
X-88428000Y-73870072D01*
X-88263750Y-73867000D01*
X-88105000Y-73708250D01*
X-88105000Y-72959000D01*
X-88125000Y-72959000D01*
X-88125000Y-72705000D01*
X-88105000Y-72705000D01*
X-88105000Y-72685000D01*
X-87851000Y-72685000D01*
X-87851000Y-72705000D01*
X-87831000Y-72705000D01*
X-87831000Y-72959000D01*
X-87851000Y-72959000D01*
X-87851000Y-73708250D01*
X-87692250Y-73867000D01*
X-87528000Y-73870072D01*
X-87403518Y-73857812D01*
X-87283820Y-73821502D01*
X-87173506Y-73762537D01*
X-87076815Y-73683185D01*
X-86997463Y-73586494D01*
X-86938498Y-73476180D01*
X-86921072Y-73418734D01*
X-86921072Y-73452000D01*
X-86908812Y-73576482D01*
X-86872502Y-73696180D01*
X-86813537Y-73806494D01*
X-86734185Y-73903185D01*
X-86668000Y-73957502D01*
X-86667999Y-75147673D01*
X-86710537Y-75199506D01*
X-86769502Y-75309820D01*
X-86805812Y-75429518D01*
X-86818072Y-75554000D01*
X-86818072Y-77354000D01*
X-86805812Y-77478482D01*
X-86769502Y-77598180D01*
X-86710537Y-77708494D01*
X-86631185Y-77805185D01*
X-86534494Y-77884537D01*
X-86424180Y-77943502D01*
X-86304482Y-77979812D01*
X-86180000Y-77992072D01*
X-83680000Y-77992072D01*
X-83555518Y-77979812D01*
X-83435820Y-77943502D01*
X-83325506Y-77884537D01*
X-83228815Y-77805185D01*
X-83149463Y-77708494D01*
X-83090498Y-77598180D01*
X-83054188Y-77478482D01*
X-83041928Y-77354000D01*
X-83041928Y-75554000D01*
X-83054188Y-75429518D01*
X-83090498Y-75309820D01*
X-83149463Y-75199506D01*
X-83228815Y-75102815D01*
X-83325506Y-75023463D01*
X-83435820Y-74964498D01*
X-83555518Y-74928188D01*
X-83680000Y-74915928D01*
X-84398000Y-74915928D01*
X-84398000Y-73957501D01*
X-84331815Y-73903185D01*
X-84252463Y-73806494D01*
X-84193498Y-73696180D01*
X-84157188Y-73576482D01*
X-84144928Y-73452000D01*
X-84144928Y-72852000D01*
X-84157188Y-72727518D01*
X-84193498Y-72607820D01*
X-84252463Y-72497506D01*
X-84331815Y-72400815D01*
X-84428506Y-72321463D01*
X-84513561Y-72275999D01*
X-84584716Y-72142876D01*
X-84726551Y-71970050D01*
X-84769860Y-71934507D01*
X-85154295Y-71550072D01*
X-84783000Y-71550072D01*
X-84658518Y-71537812D01*
X-84538820Y-71501502D01*
X-84428506Y-71442537D01*
X-84331815Y-71363185D01*
X-84252463Y-71266494D01*
X-84193498Y-71156180D01*
X-84157188Y-71036482D01*
X-84144928Y-70912000D01*
X-84144928Y-70312000D01*
X-84157188Y-70187518D01*
X-84193498Y-70067820D01*
X-84252463Y-69957506D01*
X-84331815Y-69860815D01*
X-84428506Y-69781463D01*
X-84444899Y-69772701D01*
X-84111270Y-69439072D01*
X-83873000Y-69439072D01*
X-83709500Y-69422969D01*
X-83552284Y-69375278D01*
X-83407392Y-69297831D01*
X-83280394Y-69193606D01*
X-83176169Y-69066608D01*
X-83098722Y-68921716D01*
X-83051031Y-68764500D01*
X-83034928Y-68601000D01*
X-83034928Y-68051000D01*
X-83051031Y-67887500D01*
X-83098722Y-67730284D01*
X-83176169Y-67585392D01*
X-83280394Y-67458394D01*
X-83407392Y-67354169D01*
X-83552284Y-67276722D01*
X-83709500Y-67229031D01*
X-83873000Y-67212928D01*
X-84273000Y-67212928D01*
X-84436500Y-67229031D01*
X-84593716Y-67276722D01*
X-84738608Y-67354169D01*
X-84865606Y-67458394D01*
X-84898000Y-67497866D01*
X-84930394Y-67458394D01*
X-85057392Y-67354169D01*
X-85202284Y-67276722D01*
X-85359500Y-67229031D01*
X-85523000Y-67212928D01*
X-85923000Y-67212928D01*
X-86086500Y-67229031D01*
X-86243716Y-67276722D01*
X-86388608Y-67354169D01*
X-86515606Y-67458394D01*
X-86619831Y-67585392D01*
X-86697278Y-67730284D01*
X-86744969Y-67887500D01*
X-86761072Y-68051000D01*
X-86761072Y-68289270D01*
X-88365729Y-69893928D01*
X-88428000Y-69893928D01*
X-88552482Y-69906188D01*
X-88672180Y-69942498D01*
X-88782494Y-70001463D01*
X-88879185Y-70080815D01*
X-88958537Y-70177506D01*
X-89017502Y-70287820D01*
X-89053812Y-70407518D01*
X-89066072Y-70532000D01*
X-89066072Y-71043905D01*
X-89076815Y-71030815D01*
X-89173506Y-70951463D01*
X-89283820Y-70892498D01*
X-89403518Y-70856188D01*
X-89508827Y-70845816D01*
X-89541553Y-70828324D01*
X-89755501Y-70763423D01*
X-89978000Y-70741509D01*
X-90200498Y-70763423D01*
X-90414446Y-70828324D01*
X-90447172Y-70845816D01*
X-90552482Y-70856188D01*
X-90672180Y-70892498D01*
X-90782494Y-70951463D01*
X-90879185Y-71030815D01*
X-90958537Y-71127506D01*
X-91017502Y-71237820D01*
X-91053812Y-71357518D01*
X-91066072Y-71482000D01*
X-91066072Y-71558944D01*
X-91096576Y-71659501D01*
X-91112999Y-71826248D01*
X-91113000Y-75319000D01*
X-94075867Y-75319000D01*
X-94109370Y-75285498D01*
X-94090000Y-75188119D01*
X-94090000Y-74811881D01*
X-94163400Y-74442873D01*
X-94307380Y-74095276D01*
X-94516406Y-73782446D01*
X-94782446Y-73516406D01*
X-95095276Y-73307380D01*
X-95442873Y-73163400D01*
X-95811881Y-73090000D01*
X-96188119Y-73090000D01*
X-96557127Y-73163400D01*
X-96904724Y-73307380D01*
X-97217554Y-73516406D01*
X-97483594Y-73782446D01*
X-97692620Y-74095276D01*
X-97836600Y-74442873D01*
X-97910000Y-74811881D01*
X-107765000Y-74811881D01*
X-107765000Y-74799570D01*
X-107843204Y-74406413D01*
X-107996607Y-74036066D01*
X-108219313Y-73702763D01*
X-108502763Y-73419313D01*
X-108836066Y-73196607D01*
X-109206413Y-73043204D01*
X-109599570Y-72965000D01*
X-110000430Y-72965000D01*
X-110393587Y-73043204D01*
X-110763934Y-73196607D01*
X-111097237Y-73419313D01*
X-111380687Y-73702763D01*
X-111603393Y-74036066D01*
X-111756796Y-74406413D01*
X-111835000Y-74799570D01*
X-113340000Y-74799570D01*
X-113340000Y-69999570D01*
X-111835000Y-69999570D01*
X-111835000Y-70400430D01*
X-111756796Y-70793587D01*
X-111603393Y-71163934D01*
X-111380687Y-71497237D01*
X-111097237Y-71780687D01*
X-110763934Y-72003393D01*
X-110393587Y-72156796D01*
X-110000430Y-72235000D01*
X-109599570Y-72235000D01*
X-109206413Y-72156796D01*
X-108836066Y-72003393D01*
X-108502763Y-71780687D01*
X-108219313Y-71497237D01*
X-107996607Y-71163934D01*
X-107843204Y-70793587D01*
X-107765000Y-70400430D01*
X-107765000Y-69999570D01*
X-107843204Y-69606413D01*
X-107996607Y-69236066D01*
X-108037410Y-69174999D01*
X-97913072Y-69174999D01*
X-97913072Y-71225001D01*
X-97896008Y-71398255D01*
X-97845472Y-71564851D01*
X-97763405Y-71718387D01*
X-97652962Y-71852962D01*
X-97518387Y-71963405D01*
X-97364851Y-72045472D01*
X-97198255Y-72096008D01*
X-97025001Y-72113072D01*
X-94974999Y-72113072D01*
X-94801745Y-72096008D01*
X-94635149Y-72045472D01*
X-94481613Y-71963405D01*
X-94347038Y-71852962D01*
X-94236595Y-71718387D01*
X-94154528Y-71564851D01*
X-94103992Y-71398255D01*
X-94086928Y-71225001D01*
X-94086928Y-69174999D01*
X-94103992Y-69001745D01*
X-94154528Y-68835149D01*
X-94236595Y-68681613D01*
X-94347038Y-68547038D01*
X-94481613Y-68436595D01*
X-94635149Y-68354528D01*
X-94801745Y-68303992D01*
X-94974999Y-68286928D01*
X-97025001Y-68286928D01*
X-97198255Y-68303992D01*
X-97364851Y-68354528D01*
X-97518387Y-68436595D01*
X-97652962Y-68547038D01*
X-97763405Y-68681613D01*
X-97845472Y-68835149D01*
X-97896008Y-69001745D01*
X-97913072Y-69174999D01*
X-108037410Y-69174999D01*
X-108219313Y-68902763D01*
X-108502763Y-68619313D01*
X-108836066Y-68396607D01*
X-109206413Y-68243204D01*
X-109599570Y-68165000D01*
X-110000430Y-68165000D01*
X-110393587Y-68243204D01*
X-110763934Y-68396607D01*
X-111097237Y-68619313D01*
X-111380687Y-68902763D01*
X-111603393Y-69236066D01*
X-111756796Y-69606413D01*
X-111835000Y-69999570D01*
X-113340000Y-69999570D01*
X-113340000Y-59599570D01*
X-111835000Y-59599570D01*
X-111835000Y-60000430D01*
X-111756796Y-60393587D01*
X-111603393Y-60763934D01*
X-111380687Y-61097237D01*
X-111097237Y-61380687D01*
X-110763934Y-61603393D01*
X-110393587Y-61756796D01*
X-110000430Y-61835000D01*
X-109599570Y-61835000D01*
X-109206413Y-61756796D01*
X-108836066Y-61603393D01*
X-108502763Y-61380687D01*
X-108219313Y-61097237D01*
X-107996607Y-60763934D01*
X-107843204Y-60393587D01*
X-107765000Y-60000430D01*
X-107765000Y-59611881D01*
X-97910000Y-59611881D01*
X-97910000Y-59988119D01*
X-97836600Y-60357127D01*
X-97692620Y-60704724D01*
X-97483594Y-61017554D01*
X-97217554Y-61283594D01*
X-96904724Y-61492620D01*
X-96557127Y-61636600D01*
X-96188119Y-61710000D01*
X-95811881Y-61710000D01*
X-95714503Y-61690630D01*
X-95681987Y-61723146D01*
X-95646449Y-61766449D01*
X-95603146Y-61801987D01*
X-95603144Y-61801989D01*
X-95473623Y-61908284D01*
X-95276447Y-62013676D01*
X-95062499Y-62078577D01*
X-94840000Y-62100491D01*
X-94784248Y-62095000D01*
X-90772287Y-62095000D01*
X-90769502Y-62104180D01*
X-90710537Y-62214494D01*
X-90631185Y-62311185D01*
X-90534494Y-62390537D01*
X-90424180Y-62449502D01*
X-90304482Y-62485812D01*
X-90180000Y-62498072D01*
X-87680000Y-62498072D01*
X-87555518Y-62485812D01*
X-87435820Y-62449502D01*
X-87325506Y-62390537D01*
X-87228815Y-62311185D01*
X-87149463Y-62214494D01*
X-87090498Y-62104180D01*
X-87054188Y-61984482D01*
X-87041928Y-61860000D01*
X-87041928Y-60060000D01*
X-87054188Y-59935518D01*
X-87090498Y-59815820D01*
X-87149463Y-59705506D01*
X-87228815Y-59608815D01*
X-87325506Y-59529463D01*
X-87435820Y-59470498D01*
X-87555518Y-59434188D01*
X-87680000Y-59421928D01*
X-88827000Y-59421928D01*
X-88827000Y-58218881D01*
X-88766494Y-58268537D01*
X-88656180Y-58327502D01*
X-88536482Y-58363812D01*
X-88412000Y-58376072D01*
X-88247750Y-58373000D01*
X-88089000Y-58214250D01*
X-88089000Y-57465000D01*
X-88109000Y-57465000D01*
X-88109000Y-57211000D01*
X-88089000Y-57211000D01*
X-88089000Y-57191000D01*
X-87835000Y-57191000D01*
X-87835000Y-57211000D01*
X-87815000Y-57211000D01*
X-87815000Y-57465000D01*
X-87835000Y-57465000D01*
X-87835000Y-58214250D01*
X-87676250Y-58373000D01*
X-87512000Y-58376072D01*
X-87387518Y-58363812D01*
X-87267820Y-58327502D01*
X-87157506Y-58268537D01*
X-87060815Y-58189185D01*
X-86981463Y-58092494D01*
X-86922498Y-57982180D01*
X-86919624Y-57972705D01*
X-86908812Y-58082482D01*
X-86872502Y-58202180D01*
X-86813537Y-58312494D01*
X-86734185Y-58409185D01*
X-86668000Y-58463502D01*
X-86667999Y-59653673D01*
X-86710537Y-59705506D01*
X-86769502Y-59815820D01*
X-86805812Y-59935518D01*
X-86818072Y-60060000D01*
X-86818072Y-61860000D01*
X-86805812Y-61984482D01*
X-86769502Y-62104180D01*
X-86710537Y-62214494D01*
X-86631185Y-62311185D01*
X-86534494Y-62390537D01*
X-86424180Y-62449502D01*
X-86304482Y-62485812D01*
X-86180000Y-62498072D01*
X-83680000Y-62498072D01*
X-83555518Y-62485812D01*
X-83435820Y-62449502D01*
X-83325506Y-62390537D01*
X-83228815Y-62311185D01*
X-83149463Y-62214494D01*
X-83090498Y-62104180D01*
X-83054188Y-61984482D01*
X-83041928Y-61860000D01*
X-83041928Y-60060000D01*
X-83054188Y-59935518D01*
X-83090498Y-59815820D01*
X-83149463Y-59705506D01*
X-83228815Y-59608815D01*
X-83325506Y-59529463D01*
X-83435820Y-59470498D01*
X-83555518Y-59434188D01*
X-83680000Y-59421928D01*
X-84398000Y-59421928D01*
X-84398000Y-58463501D01*
X-84331815Y-58409185D01*
X-84252463Y-58312494D01*
X-84193498Y-58202180D01*
X-84157188Y-58082482D01*
X-84144928Y-57958000D01*
X-84144928Y-57358000D01*
X-84157188Y-57233518D01*
X-84193498Y-57113820D01*
X-84252463Y-57003506D01*
X-84331815Y-56906815D01*
X-84428506Y-56827463D01*
X-84538820Y-56768498D01*
X-84644847Y-56736335D01*
X-84726551Y-56636779D01*
X-84769860Y-56601236D01*
X-85315025Y-56056072D01*
X-84783000Y-56056072D01*
X-84658518Y-56043812D01*
X-84538820Y-56007502D01*
X-84428506Y-55948537D01*
X-84331815Y-55869185D01*
X-84252463Y-55772494D01*
X-84193498Y-55662180D01*
X-84157188Y-55542482D01*
X-84144928Y-55418000D01*
X-84144928Y-54818000D01*
X-84157188Y-54693518D01*
X-84193498Y-54573820D01*
X-84252463Y-54463506D01*
X-84331815Y-54366815D01*
X-84428506Y-54287463D01*
X-84444899Y-54278701D01*
X-84111270Y-53945072D01*
X-83873000Y-53945072D01*
X-83709500Y-53928969D01*
X-83552284Y-53881278D01*
X-83407392Y-53803831D01*
X-83280394Y-53699606D01*
X-83176169Y-53572608D01*
X-83098722Y-53427716D01*
X-83051031Y-53270500D01*
X-83034928Y-53107000D01*
X-83034928Y-52557000D01*
X-83051031Y-52393500D01*
X-83098722Y-52236284D01*
X-83176169Y-52091392D01*
X-83280394Y-51964394D01*
X-83407392Y-51860169D01*
X-83552284Y-51782722D01*
X-83709500Y-51735031D01*
X-83873000Y-51718928D01*
X-84273000Y-51718928D01*
X-84436500Y-51735031D01*
X-84593716Y-51782722D01*
X-84738608Y-51860169D01*
X-84865606Y-51964394D01*
X-84898000Y-52003866D01*
X-84930394Y-51964394D01*
X-85057392Y-51860169D01*
X-85202284Y-51782722D01*
X-85359500Y-51735031D01*
X-85523000Y-51718928D01*
X-85923000Y-51718928D01*
X-86086500Y-51735031D01*
X-86243716Y-51782722D01*
X-86388608Y-51860169D01*
X-86515606Y-51964394D01*
X-86619831Y-52091392D01*
X-86697278Y-52236284D01*
X-86744969Y-52393500D01*
X-86761072Y-52557000D01*
X-86761072Y-52795270D01*
X-88365729Y-54399928D01*
X-88412000Y-54399928D01*
X-88536482Y-54412188D01*
X-88656180Y-54448498D01*
X-88766494Y-54507463D01*
X-88863185Y-54586815D01*
X-88942537Y-54683506D01*
X-89001502Y-54793820D01*
X-89037812Y-54913518D01*
X-89050072Y-55038000D01*
X-89050072Y-55549905D01*
X-89060815Y-55536815D01*
X-89157506Y-55457463D01*
X-89267820Y-55398498D01*
X-89387518Y-55362188D01*
X-89492827Y-55351816D01*
X-89525553Y-55334324D01*
X-89739501Y-55269423D01*
X-89962000Y-55247509D01*
X-90184498Y-55269423D01*
X-90398446Y-55334324D01*
X-90431172Y-55351816D01*
X-90536482Y-55362188D01*
X-90656180Y-55398498D01*
X-90766494Y-55457463D01*
X-90863185Y-55536815D01*
X-90942537Y-55633506D01*
X-91001502Y-55743820D01*
X-91037812Y-55863518D01*
X-91050072Y-55988000D01*
X-91050072Y-56064944D01*
X-91080576Y-56165501D01*
X-91096999Y-56332248D01*
X-91097000Y-59825000D01*
X-94090000Y-59825000D01*
X-94090000Y-59611881D01*
X-94163400Y-59242873D01*
X-94307380Y-58895276D01*
X-94516406Y-58582446D01*
X-94782446Y-58316406D01*
X-95095276Y-58107380D01*
X-95442873Y-57963400D01*
X-95811881Y-57890000D01*
X-96188119Y-57890000D01*
X-96557127Y-57963400D01*
X-96904724Y-58107380D01*
X-97217554Y-58316406D01*
X-97483594Y-58582446D01*
X-97692620Y-58895276D01*
X-97836600Y-59242873D01*
X-97910000Y-59611881D01*
X-107765000Y-59611881D01*
X-107765000Y-59599570D01*
X-107843204Y-59206413D01*
X-107996607Y-58836066D01*
X-108219313Y-58502763D01*
X-108502763Y-58219313D01*
X-108836066Y-57996607D01*
X-109206413Y-57843204D01*
X-109599570Y-57765000D01*
X-110000430Y-57765000D01*
X-110393587Y-57843204D01*
X-110763934Y-57996607D01*
X-111097237Y-58219313D01*
X-111380687Y-58502763D01*
X-111603393Y-58836066D01*
X-111756796Y-59206413D01*
X-111835000Y-59599570D01*
X-113340000Y-59599570D01*
X-113340000Y-54799570D01*
X-111835000Y-54799570D01*
X-111835000Y-55200430D01*
X-111756796Y-55593587D01*
X-111603393Y-55963934D01*
X-111380687Y-56297237D01*
X-111097237Y-56580687D01*
X-110763934Y-56803393D01*
X-110393587Y-56956796D01*
X-110000430Y-57035000D01*
X-109599570Y-57035000D01*
X-109206413Y-56956796D01*
X-108836066Y-56803393D01*
X-108502763Y-56580687D01*
X-108219313Y-56297237D01*
X-107996607Y-55963934D01*
X-107843204Y-55593587D01*
X-107765000Y-55200430D01*
X-107765000Y-54799570D01*
X-107843204Y-54406413D01*
X-107996607Y-54036066D01*
X-108037410Y-53974999D01*
X-97913072Y-53974999D01*
X-97913072Y-56025001D01*
X-97896008Y-56198255D01*
X-97845472Y-56364851D01*
X-97763405Y-56518387D01*
X-97652962Y-56652962D01*
X-97518387Y-56763405D01*
X-97364851Y-56845472D01*
X-97198255Y-56896008D01*
X-97025001Y-56913072D01*
X-94974999Y-56913072D01*
X-94801745Y-56896008D01*
X-94635149Y-56845472D01*
X-94481613Y-56763405D01*
X-94347038Y-56652962D01*
X-94236595Y-56518387D01*
X-94154528Y-56364851D01*
X-94103992Y-56198255D01*
X-94086928Y-56025001D01*
X-94086928Y-53974999D01*
X-94103992Y-53801745D01*
X-94154528Y-53635149D01*
X-94236595Y-53481613D01*
X-94347038Y-53347038D01*
X-94481613Y-53236595D01*
X-94635149Y-53154528D01*
X-94801745Y-53103992D01*
X-94974999Y-53086928D01*
X-97025001Y-53086928D01*
X-97198255Y-53103992D01*
X-97364851Y-53154528D01*
X-97518387Y-53236595D01*
X-97652962Y-53347038D01*
X-97763405Y-53481613D01*
X-97845472Y-53635149D01*
X-97896008Y-53801745D01*
X-97913072Y-53974999D01*
X-108037410Y-53974999D01*
X-108219313Y-53702763D01*
X-108502763Y-53419313D01*
X-108836066Y-53196607D01*
X-109206413Y-53043204D01*
X-109599570Y-52965000D01*
X-110000430Y-52965000D01*
X-110393587Y-53043204D01*
X-110763934Y-53196607D01*
X-111097237Y-53419313D01*
X-111380687Y-53702763D01*
X-111603393Y-54036066D01*
X-111756796Y-54406413D01*
X-111835000Y-54799570D01*
X-113340000Y-54799570D01*
X-113340000Y-48558686D01*
X-105379081Y-48558686D01*
X-105042894Y-49027868D01*
X-104412932Y-49368237D01*
X-103728673Y-49579166D01*
X-103016411Y-49652550D01*
X-102303518Y-49585569D01*
X-101617391Y-49380796D01*
X-100984397Y-49046102D01*
X-100957106Y-49027868D01*
X-100620919Y-48558686D01*
X-68379081Y-48558686D01*
X-68042894Y-49027868D01*
X-67412932Y-49368237D01*
X-66728673Y-49579166D01*
X-66016411Y-49652550D01*
X-65303518Y-49585569D01*
X-64617391Y-49380796D01*
X-63984397Y-49046102D01*
X-63957106Y-49027868D01*
X-63764227Y-48758686D01*
X-31379081Y-48758686D01*
X-31042894Y-49227868D01*
X-30412932Y-49568237D01*
X-29728673Y-49779166D01*
X-29016411Y-49852550D01*
X-28303518Y-49785569D01*
X-27617391Y-49580796D01*
X-26984397Y-49246102D01*
X-26957106Y-49227868D01*
X-26620919Y-48758686D01*
X-29000000Y-46379605D01*
X-31379081Y-48758686D01*
X-63764227Y-48758686D01*
X-63620919Y-48558686D01*
X-66000000Y-46179605D01*
X-68379081Y-48558686D01*
X-100620919Y-48558686D01*
X-103000000Y-46179605D01*
X-105379081Y-48558686D01*
X-113340000Y-48558686D01*
X-113340000Y-45983589D01*
X-106652550Y-45983589D01*
X-106585569Y-46696482D01*
X-106380796Y-47382609D01*
X-106046102Y-48015603D01*
X-106027868Y-48042894D01*
X-105558686Y-48379081D01*
X-103179605Y-46000000D01*
X-102820395Y-46000000D01*
X-100441314Y-48379081D01*
X-99972132Y-48042894D01*
X-99631763Y-47412932D01*
X-99420834Y-46728673D01*
X-99347450Y-46016411D01*
X-99350533Y-45983589D01*
X-69652550Y-45983589D01*
X-69585569Y-46696482D01*
X-69380796Y-47382609D01*
X-69046102Y-48015603D01*
X-69027868Y-48042894D01*
X-68558686Y-48379081D01*
X-66179605Y-46000000D01*
X-65820395Y-46000000D01*
X-63441314Y-48379081D01*
X-62972132Y-48042894D01*
X-62631763Y-47412932D01*
X-62420834Y-46728673D01*
X-62364675Y-46183589D01*
X-32652550Y-46183589D01*
X-32585569Y-46896482D01*
X-32380796Y-47582609D01*
X-32046102Y-48215603D01*
X-32027868Y-48242894D01*
X-31558686Y-48579081D01*
X-29179605Y-46200000D01*
X-28820395Y-46200000D01*
X-26441314Y-48579081D01*
X-25972132Y-48242894D01*
X-25631763Y-47612932D01*
X-25420834Y-46928673D01*
X-25347450Y-46216411D01*
X-25414431Y-45503518D01*
X-25619204Y-44817391D01*
X-25953898Y-44184397D01*
X-25972132Y-44157106D01*
X-26441314Y-43820919D01*
X-28820395Y-46200000D01*
X-29179605Y-46200000D01*
X-31558686Y-43820919D01*
X-32027868Y-44157106D01*
X-32368237Y-44787068D01*
X-32579166Y-45471327D01*
X-32652550Y-46183589D01*
X-62364675Y-46183589D01*
X-62347450Y-46016411D01*
X-62414431Y-45303518D01*
X-62619204Y-44617391D01*
X-62953898Y-43984397D01*
X-62972132Y-43957106D01*
X-63441314Y-43620919D01*
X-65820395Y-46000000D01*
X-66179605Y-46000000D01*
X-68558686Y-43620919D01*
X-69027868Y-43957106D01*
X-69368237Y-44587068D01*
X-69579166Y-45271327D01*
X-69652550Y-45983589D01*
X-99350533Y-45983589D01*
X-99414431Y-45303518D01*
X-99619204Y-44617391D01*
X-99953898Y-43984397D01*
X-99972132Y-43957106D01*
X-100441314Y-43620919D01*
X-102820395Y-46000000D01*
X-103179605Y-46000000D01*
X-105558686Y-43620919D01*
X-106027868Y-43957106D01*
X-106368237Y-44587068D01*
X-106579166Y-45271327D01*
X-106652550Y-45983589D01*
X-113340000Y-45983589D01*
X-113340000Y-42127000D01*
X-105595694Y-42127000D01*
X-105318205Y-42275321D01*
G37*
G04 #@! TD.AperFunction*
M02*
