G04 #@! TF.GenerationSoftware,KiCad,Pcbnew,(5.1.9)-1*
G04 #@! TF.CreationDate,2021-06-08T18:40:06+01:00*
G04 #@! TF.ProjectId,BrushlessPlatform V1 - SMD,42727573-686c-4657-9373-506c6174666f,rev?*
G04 #@! TF.SameCoordinates,Original*
G04 #@! TF.FileFunction,Copper,L2,Bot*
G04 #@! TF.FilePolarity,Positive*
%FSLAX46Y46*%
G04 Gerber Fmt 4.6, Leading zero omitted, Abs format (unit mm)*
G04 Created by KiCad (PCBNEW (5.1.9)-1) date 2021-06-08 18:40:06*
%MOMM*%
%LPD*%
G01*
G04 APERTURE LIST*
G04 #@! TA.AperFunction,ComponentPad*
%ADD10C,2.550000*%
G04 #@! TD*
G04 #@! TA.AperFunction,ComponentPad*
%ADD11C,6.000000*%
G04 #@! TD*
G04 #@! TA.AperFunction,ComponentPad*
%ADD12C,5.700000*%
G04 #@! TD*
G04 #@! TA.AperFunction,ComponentPad*
%ADD13O,1.600000X1.600000*%
G04 #@! TD*
G04 #@! TA.AperFunction,ComponentPad*
%ADD14R,1.600000X1.600000*%
G04 #@! TD*
G04 #@! TA.AperFunction,ComponentPad*
%ADD15O,1.700000X1.700000*%
G04 #@! TD*
G04 #@! TA.AperFunction,ComponentPad*
%ADD16R,1.700000X1.700000*%
G04 #@! TD*
G04 #@! TA.AperFunction,ViaPad*
%ADD17C,0.800000*%
G04 #@! TD*
G04 #@! TA.AperFunction,Conductor*
%ADD18C,0.250000*%
G04 #@! TD*
G04 #@! TA.AperFunction,Conductor*
%ADD19C,6.000000*%
G04 #@! TD*
G04 #@! TA.AperFunction,Conductor*
%ADD20C,1.000000*%
G04 #@! TD*
G04 #@! TA.AperFunction,Conductor*
%ADD21C,0.254000*%
G04 #@! TD*
G04 #@! TA.AperFunction,Conductor*
%ADD22C,0.100000*%
G04 #@! TD*
G04 APERTURE END LIST*
D10*
X-96000000Y-59800000D03*
G04 #@! TA.AperFunction,ComponentPad*
G36*
G01*
X-97025001Y-53725000D02*
X-94974999Y-53725000D01*
G75*
G02*
X-94725000Y-53974999I0J-249999D01*
G01*
X-94725000Y-56025001D01*
G75*
G02*
X-94974999Y-56275000I-249999J0D01*
G01*
X-97025001Y-56275000D01*
G75*
G02*
X-97275000Y-56025001I0J249999D01*
G01*
X-97275000Y-53974999D01*
G75*
G02*
X-97025001Y-53725000I249999J0D01*
G01*
G37*
G04 #@! TD.AperFunction*
G04 #@! TA.AperFunction,ComponentPad*
G36*
G01*
X-30500000Y-36000000D02*
X-27500000Y-36000000D01*
G75*
G02*
X-26000000Y-37500000I0J-1500000D01*
G01*
X-26000000Y-40500000D01*
G75*
G02*
X-27500000Y-42000000I-1500000J0D01*
G01*
X-30500000Y-42000000D01*
G75*
G02*
X-32000000Y-40500000I0J1500000D01*
G01*
X-32000000Y-37500000D01*
G75*
G02*
X-30500000Y-36000000I1500000J0D01*
G01*
G37*
G04 #@! TD.AperFunction*
D11*
X-29000000Y-46200000D03*
G04 #@! TA.AperFunction,ComponentPad*
G36*
G01*
X-104500000Y-35800000D02*
X-101500000Y-35800000D01*
G75*
G02*
X-100000000Y-37300000I0J-1500000D01*
G01*
X-100000000Y-40300000D01*
G75*
G02*
X-101500000Y-41800000I-1500000J0D01*
G01*
X-104500000Y-41800000D01*
G75*
G02*
X-106000000Y-40300000I0J1500000D01*
G01*
X-106000000Y-37300000D01*
G75*
G02*
X-104500000Y-35800000I1500000J0D01*
G01*
G37*
G04 #@! TD.AperFunction*
X-103000000Y-46000000D03*
G04 #@! TA.AperFunction,ComponentPad*
G36*
G01*
X-67500000Y-35800000D02*
X-64500000Y-35800000D01*
G75*
G02*
X-63000000Y-37300000I0J-1500000D01*
G01*
X-63000000Y-40300000D01*
G75*
G02*
X-64500000Y-41800000I-1500000J0D01*
G01*
X-67500000Y-41800000D01*
G75*
G02*
X-69000000Y-40300000I0J1500000D01*
G01*
X-69000000Y-37300000D01*
G75*
G02*
X-67500000Y-35800000I1500000J0D01*
G01*
G37*
G04 #@! TD.AperFunction*
X-66000000Y-46000000D03*
D12*
X-110000000Y-104000000D03*
X-110000000Y-35000000D03*
D13*
X-58420000Y-91440000D03*
X-73660000Y-91440000D03*
X-58420000Y-55880000D03*
X-73660000Y-88900000D03*
X-58420000Y-58420000D03*
X-73660000Y-86360000D03*
X-58420000Y-60960000D03*
X-73660000Y-83820000D03*
X-58420000Y-63500000D03*
X-73660000Y-81280000D03*
X-58420000Y-66040000D03*
X-73660000Y-78740000D03*
X-58420000Y-68580000D03*
X-73660000Y-76200000D03*
X-58420000Y-71120000D03*
X-73660000Y-73660000D03*
X-58420000Y-73660000D03*
X-73660000Y-71120000D03*
X-58420000Y-76200000D03*
X-73660000Y-68580000D03*
X-58420000Y-78740000D03*
X-73660000Y-66040000D03*
X-58420000Y-81280000D03*
X-73660000Y-63500000D03*
X-58420000Y-83820000D03*
X-73660000Y-60960000D03*
X-58420000Y-86360000D03*
X-73660000Y-58420000D03*
X-58420000Y-88900000D03*
D14*
X-73660000Y-55880000D03*
D10*
X-96000000Y-90000000D03*
G04 #@! TA.AperFunction,ComponentPad*
G36*
G01*
X-97025001Y-83925000D02*
X-94974999Y-83925000D01*
G75*
G02*
X-94725000Y-84174999I0J-249999D01*
G01*
X-94725000Y-86225001D01*
G75*
G02*
X-94974999Y-86475000I-249999J0D01*
G01*
X-97025001Y-86475000D01*
G75*
G02*
X-97275000Y-86225001I0J249999D01*
G01*
X-97275000Y-84174999D01*
G75*
G02*
X-97025001Y-83925000I249999J0D01*
G01*
G37*
G04 #@! TD.AperFunction*
X-96000000Y-75000000D03*
G04 #@! TA.AperFunction,ComponentPad*
G36*
G01*
X-97025001Y-68925000D02*
X-94974999Y-68925000D01*
G75*
G02*
X-94725000Y-69174999I0J-249999D01*
G01*
X-94725000Y-71225001D01*
G75*
G02*
X-94974999Y-71475000I-249999J0D01*
G01*
X-97025001Y-71475000D01*
G75*
G02*
X-97275000Y-71225001I0J249999D01*
G01*
X-97275000Y-69174999D01*
G75*
G02*
X-97025001Y-68925000I249999J0D01*
G01*
G37*
G04 #@! TD.AperFunction*
X-36000000Y-85200000D03*
G04 #@! TA.AperFunction,ComponentPad*
G36*
G01*
X-34974999Y-91275000D02*
X-37025001Y-91275000D01*
G75*
G02*
X-37275000Y-91025001I0J249999D01*
G01*
X-37275000Y-88974999D01*
G75*
G02*
X-37025001Y-88725000I249999J0D01*
G01*
X-34974999Y-88725000D01*
G75*
G02*
X-34725000Y-88974999I0J-249999D01*
G01*
X-34725000Y-91025001D01*
G75*
G02*
X-34974999Y-91275000I-249999J0D01*
G01*
G37*
G04 #@! TD.AperFunction*
X-36000000Y-70000000D03*
G04 #@! TA.AperFunction,ComponentPad*
G36*
G01*
X-34974999Y-76075000D02*
X-37025001Y-76075000D01*
G75*
G02*
X-37275000Y-75825001I0J249999D01*
G01*
X-37275000Y-73774999D01*
G75*
G02*
X-37025001Y-73525000I249999J0D01*
G01*
X-34974999Y-73525000D01*
G75*
G02*
X-34725000Y-73774999I0J-249999D01*
G01*
X-34725000Y-75825001D01*
G75*
G02*
X-34974999Y-76075000I-249999J0D01*
G01*
G37*
G04 #@! TD.AperFunction*
X-36000000Y-55000000D03*
G04 #@! TA.AperFunction,ComponentPad*
G36*
G01*
X-34974999Y-61075000D02*
X-37025001Y-61075000D01*
G75*
G02*
X-37275000Y-60825001I0J249999D01*
G01*
X-37275000Y-58774999D01*
G75*
G02*
X-37025001Y-58525000I249999J0D01*
G01*
X-34974999Y-58525000D01*
G75*
G02*
X-34725000Y-58774999I0J-249999D01*
G01*
X-34725000Y-60825001D01*
G75*
G02*
X-34974999Y-61075000I-249999J0D01*
G01*
G37*
G04 #@! TD.AperFunction*
D12*
X-22000000Y-35000000D03*
X-22000000Y-104000000D03*
D15*
X-68455000Y-102235000D03*
X-65915000Y-102235000D03*
D16*
X-63375000Y-102235000D03*
D15*
X-81280000Y-102235000D03*
X-78740000Y-102235000D03*
D16*
X-76200000Y-102235000D03*
D15*
X-50800000Y-102235000D03*
X-53340000Y-102235000D03*
D16*
X-55880000Y-102235000D03*
D17*
X-86445484Y-56530744D03*
X-86445484Y-71864015D03*
X-85892933Y-88670753D03*
X-45280486Y-57727936D03*
X-45464669Y-74166308D03*
X-45464669Y-90512588D03*
D18*
X-65915000Y-78615000D02*
X-58420000Y-71120000D01*
X-65915000Y-102235000D02*
X-65915000Y-78615000D01*
X-63375000Y-78615000D02*
X-58420000Y-73660000D01*
X-63375000Y-102235000D02*
X-63375000Y-78615000D01*
D19*
X-103000000Y-38800000D02*
X-66000000Y-38800000D01*
X-29200000Y-38800000D02*
X-29000000Y-39000000D01*
X-66000000Y-38800000D02*
X-29200000Y-38800000D01*
D20*
X-24300001Y-48100001D02*
X-24300001Y-63300001D01*
X-35800000Y-74800000D02*
X-36000000Y-74800000D01*
X-24300001Y-63300001D02*
X-35800000Y-74800000D01*
X-24300001Y-78300001D02*
X-36000000Y-90000000D01*
X-24300001Y-63300001D02*
X-24300001Y-78300001D01*
X-24300001Y-43699999D02*
X-29000000Y-39000000D01*
X-24300001Y-48100001D02*
X-24300001Y-43699999D01*
X-36000000Y-59800000D02*
X-24300001Y-48100001D01*
X-87976228Y-55000000D02*
X-96000000Y-55000000D01*
X-86445484Y-56530744D02*
X-87976228Y-55000000D01*
X-88109499Y-70200000D02*
X-96000000Y-70200000D01*
X-86445484Y-71864015D02*
X-88109499Y-70200000D01*
X-89363686Y-85200000D02*
X-96000000Y-85200000D01*
X-85892933Y-88670753D02*
X-89363686Y-85200000D01*
X-43208422Y-59800000D02*
X-36000000Y-59800000D01*
X-45280486Y-57727936D02*
X-43208422Y-59800000D01*
X-36633692Y-74166308D02*
X-36000000Y-74800000D01*
X-45464669Y-74166308D02*
X-36633692Y-74166308D01*
X-36512588Y-90512588D02*
X-36000000Y-90000000D01*
X-45464669Y-90512588D02*
X-36512588Y-90512588D01*
X-103000000Y-38800000D02*
X-103800000Y-38800000D01*
X-96000000Y-70200000D02*
X-100115759Y-70200000D01*
X-100115759Y-70200000D02*
X-107497327Y-62818432D01*
X-107497327Y-43297327D02*
X-103000000Y-38800000D01*
X-107497327Y-73702673D02*
X-96000000Y-85200000D01*
X-107497327Y-62818432D02*
X-107497327Y-73702673D01*
X-96000000Y-55000000D02*
X-101000000Y-55000000D01*
X-107497327Y-48502673D02*
X-107497327Y-43297327D01*
X-101000000Y-55000000D02*
X-107497327Y-48502673D01*
X-107497327Y-62818432D02*
X-107497327Y-48502673D01*
D19*
X-103000000Y-46000000D02*
X-66000000Y-46000000D01*
X-29200000Y-46000000D02*
X-29000000Y-46200000D01*
X-66000000Y-46000000D02*
X-29200000Y-46000000D01*
D21*
X-23330407Y-31760702D02*
X-23936799Y-32082494D01*
X-23954243Y-32094150D01*
X-24272428Y-32547967D01*
X-22000000Y-34820395D01*
X-21985858Y-34806253D01*
X-21806253Y-34985858D01*
X-21820395Y-35000000D01*
X-19547967Y-37272428D01*
X-19094150Y-36954243D01*
X-18768731Y-36349790D01*
X-18660000Y-35995179D01*
X-18659999Y-103005182D01*
X-18760702Y-102669593D01*
X-19082494Y-102063201D01*
X-19094150Y-102045757D01*
X-19547967Y-101727572D01*
X-21820395Y-104000000D01*
X-21806253Y-104014143D01*
X-21985858Y-104193748D01*
X-22000000Y-104179605D01*
X-24272428Y-106452033D01*
X-23954243Y-106905850D01*
X-23349790Y-107231269D01*
X-22995180Y-107340000D01*
X-109005179Y-107340000D01*
X-108669593Y-107239298D01*
X-108063201Y-106917506D01*
X-108045757Y-106905850D01*
X-107727572Y-106452033D01*
X-110000000Y-104179605D01*
X-110014143Y-104193748D01*
X-110193748Y-104014143D01*
X-110179605Y-104000000D01*
X-109820395Y-104000000D01*
X-107547967Y-106272428D01*
X-107094150Y-105954243D01*
X-106768731Y-105349790D01*
X-106567488Y-104693465D01*
X-106498155Y-104010490D01*
X-106500157Y-103989510D01*
X-25501845Y-103989510D01*
X-25436605Y-104672888D01*
X-25239298Y-105330407D01*
X-24917506Y-105936799D01*
X-24905850Y-105954243D01*
X-24452033Y-106272428D01*
X-22179605Y-104000000D01*
X-24452033Y-101727572D01*
X-24905850Y-102045757D01*
X-25231269Y-102650210D01*
X-25432512Y-103306535D01*
X-25501845Y-103989510D01*
X-106500157Y-103989510D01*
X-106563395Y-103327112D01*
X-106760702Y-102669593D01*
X-106801935Y-102591891D01*
X-82721481Y-102591891D01*
X-82624157Y-102866252D01*
X-82475178Y-103116355D01*
X-82280269Y-103332588D01*
X-82046920Y-103506641D01*
X-81784099Y-103631825D01*
X-81636890Y-103676476D01*
X-81407000Y-103555155D01*
X-81407000Y-102362000D01*
X-82600814Y-102362000D01*
X-82721481Y-102591891D01*
X-106801935Y-102591891D01*
X-107082494Y-102063201D01*
X-107094150Y-102045757D01*
X-107333260Y-101878109D01*
X-82721481Y-101878109D01*
X-82600814Y-102108000D01*
X-81407000Y-102108000D01*
X-81407000Y-100914845D01*
X-81153000Y-100914845D01*
X-81153000Y-102108000D01*
X-81133000Y-102108000D01*
X-81133000Y-102362000D01*
X-81153000Y-102362000D01*
X-81153000Y-103555155D01*
X-80923110Y-103676476D01*
X-80775901Y-103631825D01*
X-80513080Y-103506641D01*
X-80279731Y-103332588D01*
X-80084822Y-103116355D01*
X-80015195Y-102999466D01*
X-79893475Y-103181632D01*
X-79686632Y-103388475D01*
X-79443411Y-103550990D01*
X-79173158Y-103662932D01*
X-78886260Y-103720000D01*
X-78593740Y-103720000D01*
X-78306842Y-103662932D01*
X-78036589Y-103550990D01*
X-77793368Y-103388475D01*
X-77661513Y-103256620D01*
X-77639502Y-103329180D01*
X-77580537Y-103439494D01*
X-77501185Y-103536185D01*
X-77404494Y-103615537D01*
X-77294180Y-103674502D01*
X-77174482Y-103710812D01*
X-77050000Y-103723072D01*
X-75350000Y-103723072D01*
X-75225518Y-103710812D01*
X-75105820Y-103674502D01*
X-74995506Y-103615537D01*
X-74898815Y-103536185D01*
X-74819463Y-103439494D01*
X-74760498Y-103329180D01*
X-74724188Y-103209482D01*
X-74711928Y-103085000D01*
X-74711928Y-102591891D01*
X-69896481Y-102591891D01*
X-69799157Y-102866252D01*
X-69650178Y-103116355D01*
X-69455269Y-103332588D01*
X-69221920Y-103506641D01*
X-68959099Y-103631825D01*
X-68811890Y-103676476D01*
X-68582000Y-103555155D01*
X-68582000Y-102362000D01*
X-69775814Y-102362000D01*
X-69896481Y-102591891D01*
X-74711928Y-102591891D01*
X-74711928Y-101878109D01*
X-69896481Y-101878109D01*
X-69775814Y-102108000D01*
X-68582000Y-102108000D01*
X-68582000Y-100914845D01*
X-68328000Y-100914845D01*
X-68328000Y-102108000D01*
X-68308000Y-102108000D01*
X-68308000Y-102362000D01*
X-68328000Y-102362000D01*
X-68328000Y-103555155D01*
X-68098110Y-103676476D01*
X-67950901Y-103631825D01*
X-67688080Y-103506641D01*
X-67454731Y-103332588D01*
X-67259822Y-103116355D01*
X-67190195Y-102999466D01*
X-67068475Y-103181632D01*
X-66861632Y-103388475D01*
X-66618411Y-103550990D01*
X-66348158Y-103662932D01*
X-66061260Y-103720000D01*
X-65768740Y-103720000D01*
X-65481842Y-103662932D01*
X-65211589Y-103550990D01*
X-64968368Y-103388475D01*
X-64836513Y-103256620D01*
X-64814502Y-103329180D01*
X-64755537Y-103439494D01*
X-64676185Y-103536185D01*
X-64579494Y-103615537D01*
X-64469180Y-103674502D01*
X-64349482Y-103710812D01*
X-64225000Y-103723072D01*
X-62525000Y-103723072D01*
X-62400518Y-103710812D01*
X-62280820Y-103674502D01*
X-62170506Y-103615537D01*
X-62073815Y-103536185D01*
X-61994463Y-103439494D01*
X-61935498Y-103329180D01*
X-61899188Y-103209482D01*
X-61886928Y-103085000D01*
X-61886928Y-101385000D01*
X-57368072Y-101385000D01*
X-57368072Y-103085000D01*
X-57355812Y-103209482D01*
X-57319502Y-103329180D01*
X-57260537Y-103439494D01*
X-57181185Y-103536185D01*
X-57084494Y-103615537D01*
X-56974180Y-103674502D01*
X-56854482Y-103710812D01*
X-56730000Y-103723072D01*
X-55030000Y-103723072D01*
X-54905518Y-103710812D01*
X-54785820Y-103674502D01*
X-54675506Y-103615537D01*
X-54578815Y-103536185D01*
X-54499463Y-103439494D01*
X-54440498Y-103329180D01*
X-54418487Y-103256620D01*
X-54286632Y-103388475D01*
X-54043411Y-103550990D01*
X-53773158Y-103662932D01*
X-53486260Y-103720000D01*
X-53193740Y-103720000D01*
X-52906842Y-103662932D01*
X-52636589Y-103550990D01*
X-52393368Y-103388475D01*
X-52186525Y-103181632D01*
X-52064805Y-102999466D01*
X-51995178Y-103116355D01*
X-51800269Y-103332588D01*
X-51566920Y-103506641D01*
X-51304099Y-103631825D01*
X-51156890Y-103676476D01*
X-50927000Y-103555155D01*
X-50927000Y-102362000D01*
X-50673000Y-102362000D01*
X-50673000Y-103555155D01*
X-50443110Y-103676476D01*
X-50295901Y-103631825D01*
X-50033080Y-103506641D01*
X-49799731Y-103332588D01*
X-49604822Y-103116355D01*
X-49455843Y-102866252D01*
X-49358519Y-102591891D01*
X-49479186Y-102362000D01*
X-50673000Y-102362000D01*
X-50927000Y-102362000D01*
X-50947000Y-102362000D01*
X-50947000Y-102108000D01*
X-50927000Y-102108000D01*
X-50927000Y-100914845D01*
X-50673000Y-100914845D01*
X-50673000Y-102108000D01*
X-49479186Y-102108000D01*
X-49358519Y-101878109D01*
X-49455843Y-101603748D01*
X-49489070Y-101547967D01*
X-24272428Y-101547967D01*
X-22000000Y-103820395D01*
X-19727572Y-101547967D01*
X-20045757Y-101094150D01*
X-20650210Y-100768731D01*
X-21306535Y-100567488D01*
X-21989510Y-100498155D01*
X-22672888Y-100563395D01*
X-23330407Y-100760702D01*
X-23936799Y-101082494D01*
X-23954243Y-101094150D01*
X-24272428Y-101547967D01*
X-49489070Y-101547967D01*
X-49604822Y-101353645D01*
X-49799731Y-101137412D01*
X-50033080Y-100963359D01*
X-50295901Y-100838175D01*
X-50443110Y-100793524D01*
X-50673000Y-100914845D01*
X-50927000Y-100914845D01*
X-51156890Y-100793524D01*
X-51304099Y-100838175D01*
X-51566920Y-100963359D01*
X-51800269Y-101137412D01*
X-51995178Y-101353645D01*
X-52064805Y-101470534D01*
X-52186525Y-101288368D01*
X-52393368Y-101081525D01*
X-52636589Y-100919010D01*
X-52906842Y-100807068D01*
X-53193740Y-100750000D01*
X-53486260Y-100750000D01*
X-53773158Y-100807068D01*
X-54043411Y-100919010D01*
X-54286632Y-101081525D01*
X-54418487Y-101213380D01*
X-54440498Y-101140820D01*
X-54499463Y-101030506D01*
X-54578815Y-100933815D01*
X-54675506Y-100854463D01*
X-54785820Y-100795498D01*
X-54905518Y-100759188D01*
X-55030000Y-100746928D01*
X-56730000Y-100746928D01*
X-56854482Y-100759188D01*
X-56974180Y-100795498D01*
X-57084494Y-100854463D01*
X-57181185Y-100933815D01*
X-57260537Y-101030506D01*
X-57319502Y-101140820D01*
X-57355812Y-101260518D01*
X-57368072Y-101385000D01*
X-61886928Y-101385000D01*
X-61899188Y-101260518D01*
X-61935498Y-101140820D01*
X-61994463Y-101030506D01*
X-62073815Y-100933815D01*
X-62170506Y-100854463D01*
X-62280820Y-100795498D01*
X-62400518Y-100759188D01*
X-62525000Y-100746928D01*
X-62615000Y-100746928D01*
X-62615000Y-78929801D01*
X-59855000Y-76169802D01*
X-59855000Y-76341335D01*
X-59799853Y-76618574D01*
X-59691680Y-76879727D01*
X-59534637Y-77114759D01*
X-59334759Y-77314637D01*
X-59102241Y-77470000D01*
X-59334759Y-77625363D01*
X-59534637Y-77825241D01*
X-59691680Y-78060273D01*
X-59799853Y-78321426D01*
X-59855000Y-78598665D01*
X-59855000Y-78881335D01*
X-59799853Y-79158574D01*
X-59691680Y-79419727D01*
X-59534637Y-79654759D01*
X-59334759Y-79854637D01*
X-59102241Y-80010000D01*
X-59334759Y-80165363D01*
X-59534637Y-80365241D01*
X-59691680Y-80600273D01*
X-59799853Y-80861426D01*
X-59855000Y-81138665D01*
X-59855000Y-81421335D01*
X-59799853Y-81698574D01*
X-59691680Y-81959727D01*
X-59534637Y-82194759D01*
X-59334759Y-82394637D01*
X-59102241Y-82550000D01*
X-59334759Y-82705363D01*
X-59534637Y-82905241D01*
X-59691680Y-83140273D01*
X-59799853Y-83401426D01*
X-59855000Y-83678665D01*
X-59855000Y-83961335D01*
X-59799853Y-84238574D01*
X-59691680Y-84499727D01*
X-59534637Y-84734759D01*
X-59334759Y-84934637D01*
X-59102241Y-85090000D01*
X-59334759Y-85245363D01*
X-59534637Y-85445241D01*
X-59691680Y-85680273D01*
X-59799853Y-85941426D01*
X-59855000Y-86218665D01*
X-59855000Y-86501335D01*
X-59799853Y-86778574D01*
X-59691680Y-87039727D01*
X-59534637Y-87274759D01*
X-59334759Y-87474637D01*
X-59102241Y-87630000D01*
X-59334759Y-87785363D01*
X-59534637Y-87985241D01*
X-59691680Y-88220273D01*
X-59799853Y-88481426D01*
X-59855000Y-88758665D01*
X-59855000Y-89041335D01*
X-59799853Y-89318574D01*
X-59691680Y-89579727D01*
X-59534637Y-89814759D01*
X-59334759Y-90014637D01*
X-59102241Y-90170000D01*
X-59334759Y-90325363D01*
X-59534637Y-90525241D01*
X-59691680Y-90760273D01*
X-59799853Y-91021426D01*
X-59855000Y-91298665D01*
X-59855000Y-91581335D01*
X-59799853Y-91858574D01*
X-59691680Y-92119727D01*
X-59534637Y-92354759D01*
X-59334759Y-92554637D01*
X-59099727Y-92711680D01*
X-58838574Y-92819853D01*
X-58561335Y-92875000D01*
X-58278665Y-92875000D01*
X-58001426Y-92819853D01*
X-57740273Y-92711680D01*
X-57505241Y-92554637D01*
X-57305363Y-92354759D01*
X-57148320Y-92119727D01*
X-57040147Y-91858574D01*
X-56985000Y-91581335D01*
X-56985000Y-91298665D01*
X-57040147Y-91021426D01*
X-57148320Y-90760273D01*
X-57305363Y-90525241D01*
X-57505241Y-90325363D01*
X-57737759Y-90170000D01*
X-57505241Y-90014637D01*
X-57305363Y-89814759D01*
X-57148320Y-89579727D01*
X-57040147Y-89318574D01*
X-56985000Y-89041335D01*
X-56985000Y-88758665D01*
X-57040147Y-88481426D01*
X-57148320Y-88220273D01*
X-57305363Y-87985241D01*
X-57505241Y-87785363D01*
X-57737759Y-87630000D01*
X-57505241Y-87474637D01*
X-57305363Y-87274759D01*
X-57148320Y-87039727D01*
X-57040147Y-86778574D01*
X-56985000Y-86501335D01*
X-56985000Y-86218665D01*
X-57040147Y-85941426D01*
X-57148320Y-85680273D01*
X-57305363Y-85445241D01*
X-57505241Y-85245363D01*
X-57737759Y-85090000D01*
X-57620846Y-85011881D01*
X-37910000Y-85011881D01*
X-37910000Y-85388119D01*
X-37836600Y-85757127D01*
X-37692620Y-86104724D01*
X-37483594Y-86417554D01*
X-37217554Y-86683594D01*
X-36904724Y-86892620D01*
X-36557127Y-87036600D01*
X-36188119Y-87110000D01*
X-35811881Y-87110000D01*
X-35442873Y-87036600D01*
X-35095276Y-86892620D01*
X-34782446Y-86683594D01*
X-34516406Y-86417554D01*
X-34307380Y-86104724D01*
X-34163400Y-85757127D01*
X-34090000Y-85388119D01*
X-34090000Y-85011881D01*
X-34163400Y-84642873D01*
X-34307380Y-84295276D01*
X-34516406Y-83982446D01*
X-34782446Y-83716406D01*
X-35095276Y-83507380D01*
X-35442873Y-83363400D01*
X-35811881Y-83290000D01*
X-36188119Y-83290000D01*
X-36557127Y-83363400D01*
X-36904724Y-83507380D01*
X-37217554Y-83716406D01*
X-37483594Y-83982446D01*
X-37692620Y-84295276D01*
X-37836600Y-84642873D01*
X-37910000Y-85011881D01*
X-57620846Y-85011881D01*
X-57505241Y-84934637D01*
X-57305363Y-84734759D01*
X-57148320Y-84499727D01*
X-57040147Y-84238574D01*
X-56985000Y-83961335D01*
X-56985000Y-83678665D01*
X-57040147Y-83401426D01*
X-57148320Y-83140273D01*
X-57305363Y-82905241D01*
X-57505241Y-82705363D01*
X-57737759Y-82550000D01*
X-57505241Y-82394637D01*
X-57305363Y-82194759D01*
X-57148320Y-81959727D01*
X-57040147Y-81698574D01*
X-56985000Y-81421335D01*
X-56985000Y-81138665D01*
X-57040147Y-80861426D01*
X-57148320Y-80600273D01*
X-57305363Y-80365241D01*
X-57505241Y-80165363D01*
X-57737759Y-80010000D01*
X-57505241Y-79854637D01*
X-57305363Y-79654759D01*
X-57148320Y-79419727D01*
X-57040147Y-79158574D01*
X-56985000Y-78881335D01*
X-56985000Y-78598665D01*
X-57040147Y-78321426D01*
X-57148320Y-78060273D01*
X-57305363Y-77825241D01*
X-57505241Y-77625363D01*
X-57737759Y-77470000D01*
X-57505241Y-77314637D01*
X-57305363Y-77114759D01*
X-57148320Y-76879727D01*
X-57040147Y-76618574D01*
X-56985000Y-76341335D01*
X-56985000Y-76058665D01*
X-57040147Y-75781426D01*
X-57148320Y-75520273D01*
X-57305363Y-75285241D01*
X-57505241Y-75085363D01*
X-57737759Y-74930000D01*
X-57505241Y-74774637D01*
X-57305363Y-74574759D01*
X-57148320Y-74339727D01*
X-57040147Y-74078574D01*
X-56985000Y-73801335D01*
X-56985000Y-73518665D01*
X-57040147Y-73241426D01*
X-57148320Y-72980273D01*
X-57305363Y-72745241D01*
X-57505241Y-72545363D01*
X-57737759Y-72390000D01*
X-57505241Y-72234637D01*
X-57305363Y-72034759D01*
X-57148320Y-71799727D01*
X-57040147Y-71538574D01*
X-56985000Y-71261335D01*
X-56985000Y-70978665D01*
X-57040147Y-70701426D01*
X-57148320Y-70440273D01*
X-57305363Y-70205241D01*
X-57505241Y-70005363D01*
X-57737759Y-69850000D01*
X-57680710Y-69811881D01*
X-37910000Y-69811881D01*
X-37910000Y-70188119D01*
X-37836600Y-70557127D01*
X-37692620Y-70904724D01*
X-37483594Y-71217554D01*
X-37217554Y-71483594D01*
X-36904724Y-71692620D01*
X-36557127Y-71836600D01*
X-36188119Y-71910000D01*
X-35811881Y-71910000D01*
X-35442873Y-71836600D01*
X-35095276Y-71692620D01*
X-34782446Y-71483594D01*
X-34516406Y-71217554D01*
X-34307380Y-70904724D01*
X-34163400Y-70557127D01*
X-34090000Y-70188119D01*
X-34090000Y-69811881D01*
X-34163400Y-69442873D01*
X-34307380Y-69095276D01*
X-34516406Y-68782446D01*
X-34782446Y-68516406D01*
X-35095276Y-68307380D01*
X-35442873Y-68163400D01*
X-35811881Y-68090000D01*
X-36188119Y-68090000D01*
X-36557127Y-68163400D01*
X-36904724Y-68307380D01*
X-37217554Y-68516406D01*
X-37483594Y-68782446D01*
X-37692620Y-69095276D01*
X-37836600Y-69442873D01*
X-37910000Y-69811881D01*
X-57680710Y-69811881D01*
X-57505241Y-69694637D01*
X-57305363Y-69494759D01*
X-57148320Y-69259727D01*
X-57040147Y-68998574D01*
X-56985000Y-68721335D01*
X-56985000Y-68438665D01*
X-57040147Y-68161426D01*
X-57148320Y-67900273D01*
X-57305363Y-67665241D01*
X-57505241Y-67465363D01*
X-57737759Y-67310000D01*
X-57505241Y-67154637D01*
X-57305363Y-66954759D01*
X-57148320Y-66719727D01*
X-57040147Y-66458574D01*
X-56985000Y-66181335D01*
X-56985000Y-65898665D01*
X-57040147Y-65621426D01*
X-57148320Y-65360273D01*
X-57305363Y-65125241D01*
X-57505241Y-64925363D01*
X-57737759Y-64770000D01*
X-57505241Y-64614637D01*
X-57305363Y-64414759D01*
X-57148320Y-64179727D01*
X-57040147Y-63918574D01*
X-56985000Y-63641335D01*
X-56985000Y-63358665D01*
X-57040147Y-63081426D01*
X-57148320Y-62820273D01*
X-57305363Y-62585241D01*
X-57505241Y-62385363D01*
X-57737759Y-62230000D01*
X-57505241Y-62074637D01*
X-57305363Y-61874759D01*
X-57148320Y-61639727D01*
X-57040147Y-61378574D01*
X-56985000Y-61101335D01*
X-56985000Y-60818665D01*
X-57040147Y-60541426D01*
X-57148320Y-60280273D01*
X-57305363Y-60045241D01*
X-57505241Y-59845363D01*
X-57740273Y-59688320D01*
X-57750865Y-59683933D01*
X-57564869Y-59572385D01*
X-57356481Y-59383414D01*
X-57188963Y-59157420D01*
X-57068754Y-58903087D01*
X-57028096Y-58769039D01*
X-57150085Y-58547000D01*
X-58293000Y-58547000D01*
X-58293000Y-58567000D01*
X-58547000Y-58567000D01*
X-58547000Y-58547000D01*
X-59689915Y-58547000D01*
X-59811904Y-58769039D01*
X-59771246Y-58903087D01*
X-59651037Y-59157420D01*
X-59483519Y-59383414D01*
X-59275131Y-59572385D01*
X-59089135Y-59683933D01*
X-59099727Y-59688320D01*
X-59334759Y-59845363D01*
X-59534637Y-60045241D01*
X-59691680Y-60280273D01*
X-59799853Y-60541426D01*
X-59855000Y-60818665D01*
X-59855000Y-61101335D01*
X-59799853Y-61378574D01*
X-59691680Y-61639727D01*
X-59534637Y-61874759D01*
X-59334759Y-62074637D01*
X-59102241Y-62230000D01*
X-59334759Y-62385363D01*
X-59534637Y-62585241D01*
X-59691680Y-62820273D01*
X-59799853Y-63081426D01*
X-59855000Y-63358665D01*
X-59855000Y-63641335D01*
X-59799853Y-63918574D01*
X-59691680Y-64179727D01*
X-59534637Y-64414759D01*
X-59334759Y-64614637D01*
X-59102241Y-64770000D01*
X-59334759Y-64925363D01*
X-59534637Y-65125241D01*
X-59691680Y-65360273D01*
X-59799853Y-65621426D01*
X-59855000Y-65898665D01*
X-59855000Y-66181335D01*
X-59799853Y-66458574D01*
X-59691680Y-66719727D01*
X-59534637Y-66954759D01*
X-59334759Y-67154637D01*
X-59102241Y-67310000D01*
X-59334759Y-67465363D01*
X-59534637Y-67665241D01*
X-59691680Y-67900273D01*
X-59799853Y-68161426D01*
X-59855000Y-68438665D01*
X-59855000Y-68721335D01*
X-59799853Y-68998574D01*
X-59691680Y-69259727D01*
X-59534637Y-69494759D01*
X-59334759Y-69694637D01*
X-59102241Y-69850000D01*
X-59334759Y-70005363D01*
X-59534637Y-70205241D01*
X-59691680Y-70440273D01*
X-59799853Y-70701426D01*
X-59855000Y-70978665D01*
X-59855000Y-71261335D01*
X-59818688Y-71443886D01*
X-66426002Y-78051201D01*
X-66455000Y-78074999D01*
X-66478798Y-78103997D01*
X-66478799Y-78103998D01*
X-66549974Y-78190724D01*
X-66620546Y-78322754D01*
X-66650820Y-78422558D01*
X-66664002Y-78466014D01*
X-66674999Y-78577667D01*
X-66678676Y-78615000D01*
X-66674999Y-78652333D01*
X-66675000Y-100956822D01*
X-66861632Y-101081525D01*
X-67068475Y-101288368D01*
X-67190195Y-101470534D01*
X-67259822Y-101353645D01*
X-67454731Y-101137412D01*
X-67688080Y-100963359D01*
X-67950901Y-100838175D01*
X-68098110Y-100793524D01*
X-68328000Y-100914845D01*
X-68582000Y-100914845D01*
X-68811890Y-100793524D01*
X-68959099Y-100838175D01*
X-69221920Y-100963359D01*
X-69455269Y-101137412D01*
X-69650178Y-101353645D01*
X-69799157Y-101603748D01*
X-69896481Y-101878109D01*
X-74711928Y-101878109D01*
X-74711928Y-101385000D01*
X-74724188Y-101260518D01*
X-74760498Y-101140820D01*
X-74819463Y-101030506D01*
X-74898815Y-100933815D01*
X-74995506Y-100854463D01*
X-75105820Y-100795498D01*
X-75225518Y-100759188D01*
X-75350000Y-100746928D01*
X-77050000Y-100746928D01*
X-77174482Y-100759188D01*
X-77294180Y-100795498D01*
X-77404494Y-100854463D01*
X-77501185Y-100933815D01*
X-77580537Y-101030506D01*
X-77639502Y-101140820D01*
X-77661513Y-101213380D01*
X-77793368Y-101081525D01*
X-78036589Y-100919010D01*
X-78306842Y-100807068D01*
X-78593740Y-100750000D01*
X-78886260Y-100750000D01*
X-79173158Y-100807068D01*
X-79443411Y-100919010D01*
X-79686632Y-101081525D01*
X-79893475Y-101288368D01*
X-80015195Y-101470534D01*
X-80084822Y-101353645D01*
X-80279731Y-101137412D01*
X-80513080Y-100963359D01*
X-80775901Y-100838175D01*
X-80923110Y-100793524D01*
X-81153000Y-100914845D01*
X-81407000Y-100914845D01*
X-81636890Y-100793524D01*
X-81784099Y-100838175D01*
X-82046920Y-100963359D01*
X-82280269Y-101137412D01*
X-82475178Y-101353645D01*
X-82624157Y-101603748D01*
X-82721481Y-101878109D01*
X-107333260Y-101878109D01*
X-107547967Y-101727572D01*
X-109820395Y-104000000D01*
X-110179605Y-104000000D01*
X-112452033Y-101727572D01*
X-112905850Y-102045757D01*
X-113231269Y-102650210D01*
X-113340000Y-103004820D01*
X-113340000Y-101547967D01*
X-112272428Y-101547967D01*
X-110000000Y-103820395D01*
X-107727572Y-101547967D01*
X-108045757Y-101094150D01*
X-108650210Y-100768731D01*
X-109306535Y-100567488D01*
X-109989510Y-100498155D01*
X-110672888Y-100563395D01*
X-111330407Y-100760702D01*
X-111936799Y-101082494D01*
X-111954243Y-101094150D01*
X-112272428Y-101547967D01*
X-113340000Y-101547967D01*
X-113340000Y-89799570D01*
X-111835000Y-89799570D01*
X-111835000Y-90200430D01*
X-111756796Y-90593587D01*
X-111603393Y-90963934D01*
X-111380687Y-91297237D01*
X-111097237Y-91580687D01*
X-110763934Y-91803393D01*
X-110393587Y-91956796D01*
X-110000430Y-92035000D01*
X-109599570Y-92035000D01*
X-109206413Y-91956796D01*
X-108836066Y-91803393D01*
X-108502763Y-91580687D01*
X-108219313Y-91297237D01*
X-107996607Y-90963934D01*
X-107843204Y-90593587D01*
X-107765000Y-90200430D01*
X-107765000Y-89811881D01*
X-97910000Y-89811881D01*
X-97910000Y-90188119D01*
X-97836600Y-90557127D01*
X-97692620Y-90904724D01*
X-97483594Y-91217554D01*
X-97217554Y-91483594D01*
X-96904724Y-91692620D01*
X-96557127Y-91836600D01*
X-96188119Y-91910000D01*
X-95811881Y-91910000D01*
X-95442873Y-91836600D01*
X-95095276Y-91692620D01*
X-94782446Y-91483594D01*
X-94516406Y-91217554D01*
X-94307380Y-90904724D01*
X-94163400Y-90557127D01*
X-94090000Y-90188119D01*
X-94090000Y-89811881D01*
X-94163400Y-89442873D01*
X-94307380Y-89095276D01*
X-94516406Y-88782446D01*
X-94782446Y-88516406D01*
X-95095276Y-88307380D01*
X-95442873Y-88163400D01*
X-95811881Y-88090000D01*
X-96188119Y-88090000D01*
X-96557127Y-88163400D01*
X-96904724Y-88307380D01*
X-97217554Y-88516406D01*
X-97483594Y-88782446D01*
X-97692620Y-89095276D01*
X-97836600Y-89442873D01*
X-97910000Y-89811881D01*
X-107765000Y-89811881D01*
X-107765000Y-89799570D01*
X-107843204Y-89406413D01*
X-107996607Y-89036066D01*
X-108219313Y-88702763D01*
X-108502763Y-88419313D01*
X-108836066Y-88196607D01*
X-109206413Y-88043204D01*
X-109599570Y-87965000D01*
X-110000430Y-87965000D01*
X-110393587Y-88043204D01*
X-110763934Y-88196607D01*
X-111097237Y-88419313D01*
X-111380687Y-88702763D01*
X-111603393Y-89036066D01*
X-111756796Y-89406413D01*
X-111835000Y-89799570D01*
X-113340000Y-89799570D01*
X-113340000Y-84999570D01*
X-111835000Y-84999570D01*
X-111835000Y-85400430D01*
X-111756796Y-85793587D01*
X-111603393Y-86163934D01*
X-111380687Y-86497237D01*
X-111097237Y-86780687D01*
X-110763934Y-87003393D01*
X-110393587Y-87156796D01*
X-110000430Y-87235000D01*
X-109599570Y-87235000D01*
X-109206413Y-87156796D01*
X-108836066Y-87003393D01*
X-108502763Y-86780687D01*
X-108219313Y-86497237D01*
X-107996607Y-86163934D01*
X-107843204Y-85793587D01*
X-107765000Y-85400430D01*
X-107765000Y-84999570D01*
X-107843204Y-84606413D01*
X-107996607Y-84236066D01*
X-108219313Y-83902763D01*
X-108502763Y-83619313D01*
X-108836066Y-83396607D01*
X-109206413Y-83243204D01*
X-109599570Y-83165000D01*
X-110000430Y-83165000D01*
X-110393587Y-83243204D01*
X-110763934Y-83396607D01*
X-111097237Y-83619313D01*
X-111380687Y-83902763D01*
X-111603393Y-84236066D01*
X-111756796Y-84606413D01*
X-111835000Y-84999570D01*
X-113340000Y-84999570D01*
X-113340000Y-54799570D01*
X-111835000Y-54799570D01*
X-111835000Y-55200430D01*
X-111756796Y-55593587D01*
X-111603393Y-55963934D01*
X-111380687Y-56297237D01*
X-111097237Y-56580687D01*
X-110763934Y-56803393D01*
X-110393587Y-56956796D01*
X-110000430Y-57035000D01*
X-109599570Y-57035000D01*
X-109206413Y-56956796D01*
X-108836066Y-56803393D01*
X-108632327Y-56667259D01*
X-108632327Y-58132741D01*
X-108836066Y-57996607D01*
X-109206413Y-57843204D01*
X-109599570Y-57765000D01*
X-110000430Y-57765000D01*
X-110393587Y-57843204D01*
X-110763934Y-57996607D01*
X-111097237Y-58219313D01*
X-111380687Y-58502763D01*
X-111603393Y-58836066D01*
X-111756796Y-59206413D01*
X-111835000Y-59599570D01*
X-111835000Y-60000430D01*
X-111756796Y-60393587D01*
X-111603393Y-60763934D01*
X-111380687Y-61097237D01*
X-111097237Y-61380687D01*
X-110763934Y-61603393D01*
X-110393587Y-61756796D01*
X-110000430Y-61835000D01*
X-109599570Y-61835000D01*
X-109206413Y-61756796D01*
X-108836066Y-61603393D01*
X-108632327Y-61467259D01*
X-108632327Y-62762680D01*
X-108637818Y-62818432D01*
X-108632327Y-62874183D01*
X-108632326Y-68532741D01*
X-108836066Y-68396607D01*
X-109206413Y-68243204D01*
X-109599570Y-68165000D01*
X-110000430Y-68165000D01*
X-110393587Y-68243204D01*
X-110763934Y-68396607D01*
X-111097237Y-68619313D01*
X-111380687Y-68902763D01*
X-111603393Y-69236066D01*
X-111756796Y-69606413D01*
X-111835000Y-69999570D01*
X-111835000Y-70400430D01*
X-111756796Y-70793587D01*
X-111603393Y-71163934D01*
X-111380687Y-71497237D01*
X-111097237Y-71780687D01*
X-110763934Y-72003393D01*
X-110393587Y-72156796D01*
X-110000430Y-72235000D01*
X-109599570Y-72235000D01*
X-109206413Y-72156796D01*
X-108836066Y-72003393D01*
X-108632326Y-71867258D01*
X-108632326Y-73332742D01*
X-108836066Y-73196607D01*
X-109206413Y-73043204D01*
X-109599570Y-72965000D01*
X-110000430Y-72965000D01*
X-110393587Y-73043204D01*
X-110763934Y-73196607D01*
X-111097237Y-73419313D01*
X-111380687Y-73702763D01*
X-111603393Y-74036066D01*
X-111756796Y-74406413D01*
X-111835000Y-74799570D01*
X-111835000Y-75200430D01*
X-111756796Y-75593587D01*
X-111603393Y-75963934D01*
X-111380687Y-76297237D01*
X-111097237Y-76580687D01*
X-110763934Y-76803393D01*
X-110393587Y-76956796D01*
X-110000430Y-77035000D01*
X-109599570Y-77035000D01*
X-109206413Y-76956796D01*
X-108836066Y-76803393D01*
X-108502763Y-76580687D01*
X-108219313Y-76297237D01*
X-107996607Y-75963934D01*
X-107843204Y-75593587D01*
X-107765000Y-75200430D01*
X-107765000Y-75040131D01*
X-97913072Y-84892060D01*
X-97913072Y-86225001D01*
X-97896008Y-86398255D01*
X-97845472Y-86564851D01*
X-97763405Y-86718387D01*
X-97652962Y-86852962D01*
X-97518387Y-86963405D01*
X-97364851Y-87045472D01*
X-97198255Y-87096008D01*
X-97025001Y-87113072D01*
X-94974999Y-87113072D01*
X-94801745Y-87096008D01*
X-94635149Y-87045472D01*
X-94481613Y-86963405D01*
X-94347038Y-86852962D01*
X-94236595Y-86718387D01*
X-94154528Y-86564851D01*
X-94103992Y-86398255D01*
X-94097762Y-86335000D01*
X-89833817Y-86335000D01*
X-86656077Y-89512741D01*
X-86526556Y-89619036D01*
X-86329380Y-89724429D01*
X-86115432Y-89789330D01*
X-85892933Y-89811244D01*
X-85670435Y-89789330D01*
X-85456487Y-89724429D01*
X-85259311Y-89619036D01*
X-85086485Y-89477201D01*
X-84944650Y-89304375D01*
X-84839257Y-89107199D01*
X-84774356Y-88893251D01*
X-84752442Y-88670753D01*
X-84774356Y-88448254D01*
X-84839257Y-88234306D01*
X-84944650Y-88037130D01*
X-85050945Y-87907609D01*
X-88521690Y-84436865D01*
X-88557237Y-84393551D01*
X-88730063Y-84251716D01*
X-88927239Y-84146324D01*
X-89141187Y-84081423D01*
X-89307934Y-84065000D01*
X-89307935Y-84065000D01*
X-89363686Y-84059509D01*
X-89419437Y-84065000D01*
X-94097762Y-84065000D01*
X-94103992Y-84001745D01*
X-94154528Y-83835149D01*
X-94236595Y-83681613D01*
X-94347038Y-83547038D01*
X-94481613Y-83436595D01*
X-94635149Y-83354528D01*
X-94801745Y-83303992D01*
X-94974999Y-83286928D01*
X-96307940Y-83286928D01*
X-104782987Y-74811881D01*
X-97910000Y-74811881D01*
X-97910000Y-75188119D01*
X-97836600Y-75557127D01*
X-97692620Y-75904724D01*
X-97483594Y-76217554D01*
X-97217554Y-76483594D01*
X-96904724Y-76692620D01*
X-96557127Y-76836600D01*
X-96188119Y-76910000D01*
X-95811881Y-76910000D01*
X-95442873Y-76836600D01*
X-95095276Y-76692620D01*
X-94782446Y-76483594D01*
X-94516406Y-76217554D01*
X-94307380Y-75904724D01*
X-94163400Y-75557127D01*
X-94090000Y-75188119D01*
X-94090000Y-74811881D01*
X-94163400Y-74442873D01*
X-94307380Y-74095276D01*
X-94516406Y-73782446D01*
X-94782446Y-73516406D01*
X-95095276Y-73307380D01*
X-95442873Y-73163400D01*
X-95811881Y-73090000D01*
X-96188119Y-73090000D01*
X-96557127Y-73163400D01*
X-96904724Y-73307380D01*
X-97217554Y-73516406D01*
X-97483594Y-73782446D01*
X-97692620Y-74095276D01*
X-97836600Y-74442873D01*
X-97910000Y-74811881D01*
X-104782987Y-74811881D01*
X-106362327Y-73232542D01*
X-106362327Y-65558564D01*
X-100957746Y-70963146D01*
X-100922208Y-71006449D01*
X-100878905Y-71041987D01*
X-100878903Y-71041989D01*
X-100749382Y-71148284D01*
X-100552206Y-71253676D01*
X-100338258Y-71318577D01*
X-100115759Y-71340491D01*
X-100060007Y-71335000D01*
X-97902238Y-71335000D01*
X-97896008Y-71398255D01*
X-97845472Y-71564851D01*
X-97763405Y-71718387D01*
X-97652962Y-71852962D01*
X-97518387Y-71963405D01*
X-97364851Y-72045472D01*
X-97198255Y-72096008D01*
X-97025001Y-72113072D01*
X-94974999Y-72113072D01*
X-94801745Y-72096008D01*
X-94635149Y-72045472D01*
X-94481613Y-71963405D01*
X-94347038Y-71852962D01*
X-94236595Y-71718387D01*
X-94154528Y-71564851D01*
X-94103992Y-71398255D01*
X-94097762Y-71335000D01*
X-88579630Y-71335000D01*
X-87208628Y-72706004D01*
X-87079107Y-72812299D01*
X-86881931Y-72917691D01*
X-86667983Y-72982592D01*
X-86445484Y-73004506D01*
X-86222985Y-72982592D01*
X-86009037Y-72917691D01*
X-85811861Y-72812299D01*
X-85639035Y-72670464D01*
X-85497200Y-72497638D01*
X-85391808Y-72300462D01*
X-85326907Y-72086514D01*
X-85304993Y-71864015D01*
X-85326907Y-71641516D01*
X-85391808Y-71427568D01*
X-85497200Y-71230392D01*
X-85603495Y-71100871D01*
X-87267504Y-69436864D01*
X-87303050Y-69393551D01*
X-87475876Y-69251716D01*
X-87673052Y-69146324D01*
X-87887000Y-69081423D01*
X-88053747Y-69065000D01*
X-88053748Y-69065000D01*
X-88109499Y-69059509D01*
X-88165250Y-69065000D01*
X-94097762Y-69065000D01*
X-94103992Y-69001745D01*
X-94154528Y-68835149D01*
X-94236595Y-68681613D01*
X-94347038Y-68547038D01*
X-94481613Y-68436595D01*
X-94635149Y-68354528D01*
X-94801745Y-68303992D01*
X-94974999Y-68286928D01*
X-97025001Y-68286928D01*
X-97198255Y-68303992D01*
X-97364851Y-68354528D01*
X-97518387Y-68436595D01*
X-97652962Y-68547038D01*
X-97763405Y-68681613D01*
X-97845472Y-68835149D01*
X-97896008Y-69001745D01*
X-97902238Y-69065000D01*
X-99645626Y-69065000D01*
X-102811961Y-65898665D01*
X-75095000Y-65898665D01*
X-75095000Y-66181335D01*
X-75039853Y-66458574D01*
X-74931680Y-66719727D01*
X-74774637Y-66954759D01*
X-74574759Y-67154637D01*
X-74342241Y-67310000D01*
X-74574759Y-67465363D01*
X-74774637Y-67665241D01*
X-74931680Y-67900273D01*
X-75039853Y-68161426D01*
X-75095000Y-68438665D01*
X-75095000Y-68721335D01*
X-75039853Y-68998574D01*
X-74931680Y-69259727D01*
X-74774637Y-69494759D01*
X-74574759Y-69694637D01*
X-74342241Y-69850000D01*
X-74574759Y-70005363D01*
X-74774637Y-70205241D01*
X-74931680Y-70440273D01*
X-75039853Y-70701426D01*
X-75095000Y-70978665D01*
X-75095000Y-71261335D01*
X-75039853Y-71538574D01*
X-74931680Y-71799727D01*
X-74774637Y-72034759D01*
X-74574759Y-72234637D01*
X-74342241Y-72390000D01*
X-74574759Y-72545363D01*
X-74774637Y-72745241D01*
X-74931680Y-72980273D01*
X-75039853Y-73241426D01*
X-75095000Y-73518665D01*
X-75095000Y-73801335D01*
X-75039853Y-74078574D01*
X-74931680Y-74339727D01*
X-74774637Y-74574759D01*
X-74574759Y-74774637D01*
X-74342241Y-74930000D01*
X-74574759Y-75085363D01*
X-74774637Y-75285241D01*
X-74931680Y-75520273D01*
X-75039853Y-75781426D01*
X-75095000Y-76058665D01*
X-75095000Y-76341335D01*
X-75039853Y-76618574D01*
X-74931680Y-76879727D01*
X-74774637Y-77114759D01*
X-74574759Y-77314637D01*
X-74342241Y-77470000D01*
X-74574759Y-77625363D01*
X-74774637Y-77825241D01*
X-74931680Y-78060273D01*
X-75039853Y-78321426D01*
X-75095000Y-78598665D01*
X-75095000Y-78881335D01*
X-75039853Y-79158574D01*
X-74931680Y-79419727D01*
X-74774637Y-79654759D01*
X-74574759Y-79854637D01*
X-74342241Y-80010000D01*
X-74574759Y-80165363D01*
X-74774637Y-80365241D01*
X-74931680Y-80600273D01*
X-75039853Y-80861426D01*
X-75095000Y-81138665D01*
X-75095000Y-81421335D01*
X-75039853Y-81698574D01*
X-74931680Y-81959727D01*
X-74774637Y-82194759D01*
X-74574759Y-82394637D01*
X-74342241Y-82550000D01*
X-74574759Y-82705363D01*
X-74774637Y-82905241D01*
X-74931680Y-83140273D01*
X-75039853Y-83401426D01*
X-75095000Y-83678665D01*
X-75095000Y-83961335D01*
X-75039853Y-84238574D01*
X-74931680Y-84499727D01*
X-74774637Y-84734759D01*
X-74574759Y-84934637D01*
X-74342241Y-85090000D01*
X-74574759Y-85245363D01*
X-74774637Y-85445241D01*
X-74931680Y-85680273D01*
X-75039853Y-85941426D01*
X-75095000Y-86218665D01*
X-75095000Y-86501335D01*
X-75039853Y-86778574D01*
X-74931680Y-87039727D01*
X-74774637Y-87274759D01*
X-74574759Y-87474637D01*
X-74342241Y-87630000D01*
X-74574759Y-87785363D01*
X-74774637Y-87985241D01*
X-74931680Y-88220273D01*
X-75039853Y-88481426D01*
X-75095000Y-88758665D01*
X-75095000Y-89041335D01*
X-75039853Y-89318574D01*
X-74931680Y-89579727D01*
X-74774637Y-89814759D01*
X-74574759Y-90014637D01*
X-74342241Y-90170000D01*
X-74574759Y-90325363D01*
X-74774637Y-90525241D01*
X-74931680Y-90760273D01*
X-75039853Y-91021426D01*
X-75095000Y-91298665D01*
X-75095000Y-91581335D01*
X-75039853Y-91858574D01*
X-74931680Y-92119727D01*
X-74774637Y-92354759D01*
X-74574759Y-92554637D01*
X-74339727Y-92711680D01*
X-74078574Y-92819853D01*
X-73801335Y-92875000D01*
X-73518665Y-92875000D01*
X-73241426Y-92819853D01*
X-72980273Y-92711680D01*
X-72745241Y-92554637D01*
X-72545363Y-92354759D01*
X-72388320Y-92119727D01*
X-72280147Y-91858574D01*
X-72225000Y-91581335D01*
X-72225000Y-91298665D01*
X-72280147Y-91021426D01*
X-72388320Y-90760273D01*
X-72545363Y-90525241D01*
X-72745241Y-90325363D01*
X-72977759Y-90170000D01*
X-72745241Y-90014637D01*
X-72545363Y-89814759D01*
X-72388320Y-89579727D01*
X-72280147Y-89318574D01*
X-72225000Y-89041335D01*
X-72225000Y-88758665D01*
X-72280147Y-88481426D01*
X-72388320Y-88220273D01*
X-72545363Y-87985241D01*
X-72745241Y-87785363D01*
X-72977759Y-87630000D01*
X-72745241Y-87474637D01*
X-72545363Y-87274759D01*
X-72388320Y-87039727D01*
X-72280147Y-86778574D01*
X-72225000Y-86501335D01*
X-72225000Y-86218665D01*
X-72280147Y-85941426D01*
X-72388320Y-85680273D01*
X-72545363Y-85445241D01*
X-72745241Y-85245363D01*
X-72977759Y-85090000D01*
X-72745241Y-84934637D01*
X-72545363Y-84734759D01*
X-72388320Y-84499727D01*
X-72280147Y-84238574D01*
X-72225000Y-83961335D01*
X-72225000Y-83678665D01*
X-72280147Y-83401426D01*
X-72388320Y-83140273D01*
X-72545363Y-82905241D01*
X-72745241Y-82705363D01*
X-72977759Y-82550000D01*
X-72745241Y-82394637D01*
X-72545363Y-82194759D01*
X-72388320Y-81959727D01*
X-72280147Y-81698574D01*
X-72225000Y-81421335D01*
X-72225000Y-81138665D01*
X-72280147Y-80861426D01*
X-72388320Y-80600273D01*
X-72545363Y-80365241D01*
X-72745241Y-80165363D01*
X-72977759Y-80010000D01*
X-72745241Y-79854637D01*
X-72545363Y-79654759D01*
X-72388320Y-79419727D01*
X-72280147Y-79158574D01*
X-72225000Y-78881335D01*
X-72225000Y-78598665D01*
X-72280147Y-78321426D01*
X-72388320Y-78060273D01*
X-72545363Y-77825241D01*
X-72745241Y-77625363D01*
X-72977759Y-77470000D01*
X-72745241Y-77314637D01*
X-72545363Y-77114759D01*
X-72388320Y-76879727D01*
X-72280147Y-76618574D01*
X-72225000Y-76341335D01*
X-72225000Y-76058665D01*
X-72280147Y-75781426D01*
X-72388320Y-75520273D01*
X-72545363Y-75285241D01*
X-72745241Y-75085363D01*
X-72977759Y-74930000D01*
X-72745241Y-74774637D01*
X-72545363Y-74574759D01*
X-72388320Y-74339727D01*
X-72280147Y-74078574D01*
X-72225000Y-73801335D01*
X-72225000Y-73518665D01*
X-72280147Y-73241426D01*
X-72388320Y-72980273D01*
X-72545363Y-72745241D01*
X-72745241Y-72545363D01*
X-72977759Y-72390000D01*
X-72745241Y-72234637D01*
X-72545363Y-72034759D01*
X-72388320Y-71799727D01*
X-72280147Y-71538574D01*
X-72225000Y-71261335D01*
X-72225000Y-70978665D01*
X-72280147Y-70701426D01*
X-72388320Y-70440273D01*
X-72545363Y-70205241D01*
X-72745241Y-70005363D01*
X-72977759Y-69850000D01*
X-72745241Y-69694637D01*
X-72545363Y-69494759D01*
X-72388320Y-69259727D01*
X-72280147Y-68998574D01*
X-72225000Y-68721335D01*
X-72225000Y-68438665D01*
X-72280147Y-68161426D01*
X-72388320Y-67900273D01*
X-72545363Y-67665241D01*
X-72745241Y-67465363D01*
X-72977759Y-67310000D01*
X-72745241Y-67154637D01*
X-72545363Y-66954759D01*
X-72388320Y-66719727D01*
X-72280147Y-66458574D01*
X-72225000Y-66181335D01*
X-72225000Y-65898665D01*
X-72280147Y-65621426D01*
X-72388320Y-65360273D01*
X-72545363Y-65125241D01*
X-72745241Y-64925363D01*
X-72980273Y-64768320D01*
X-72990865Y-64763933D01*
X-72804869Y-64652385D01*
X-72596481Y-64463414D01*
X-72428963Y-64237420D01*
X-72308754Y-63983087D01*
X-72268096Y-63849039D01*
X-72390085Y-63627000D01*
X-73533000Y-63627000D01*
X-73533000Y-63647000D01*
X-73787000Y-63647000D01*
X-73787000Y-63627000D01*
X-74929915Y-63627000D01*
X-75051904Y-63849039D01*
X-75011246Y-63983087D01*
X-74891037Y-64237420D01*
X-74723519Y-64463414D01*
X-74515131Y-64652385D01*
X-74329135Y-64763933D01*
X-74339727Y-64768320D01*
X-74574759Y-64925363D01*
X-74774637Y-65125241D01*
X-74931680Y-65360273D01*
X-75039853Y-65621426D01*
X-75095000Y-65898665D01*
X-102811961Y-65898665D01*
X-106362327Y-62348301D01*
X-106362327Y-59611881D01*
X-97910000Y-59611881D01*
X-97910000Y-59988119D01*
X-97836600Y-60357127D01*
X-97692620Y-60704724D01*
X-97483594Y-61017554D01*
X-97217554Y-61283594D01*
X-96904724Y-61492620D01*
X-96557127Y-61636600D01*
X-96188119Y-61710000D01*
X-95811881Y-61710000D01*
X-95442873Y-61636600D01*
X-95095276Y-61492620D01*
X-94782446Y-61283594D01*
X-94516406Y-61017554D01*
X-94307380Y-60704724D01*
X-94163400Y-60357127D01*
X-94090000Y-59988119D01*
X-94090000Y-59611881D01*
X-94163400Y-59242873D01*
X-94307380Y-58895276D01*
X-94516406Y-58582446D01*
X-94782446Y-58316406D01*
X-95095276Y-58107380D01*
X-95442873Y-57963400D01*
X-95811881Y-57890000D01*
X-96188119Y-57890000D01*
X-96557127Y-57963400D01*
X-96904724Y-58107380D01*
X-97217554Y-58316406D01*
X-97483594Y-58582446D01*
X-97692620Y-58895276D01*
X-97836600Y-59242873D01*
X-97910000Y-59611881D01*
X-106362327Y-59611881D01*
X-106362327Y-51242804D01*
X-101841991Y-55763141D01*
X-101806449Y-55806449D01*
X-101633623Y-55948284D01*
X-101461120Y-56040488D01*
X-101436447Y-56053676D01*
X-101222499Y-56118577D01*
X-101000000Y-56140491D01*
X-100944249Y-56135000D01*
X-97902238Y-56135000D01*
X-97896008Y-56198255D01*
X-97845472Y-56364851D01*
X-97763405Y-56518387D01*
X-97652962Y-56652962D01*
X-97518387Y-56763405D01*
X-97364851Y-56845472D01*
X-97198255Y-56896008D01*
X-97025001Y-56913072D01*
X-94974999Y-56913072D01*
X-94801745Y-56896008D01*
X-94635149Y-56845472D01*
X-94481613Y-56763405D01*
X-94347038Y-56652962D01*
X-94236595Y-56518387D01*
X-94154528Y-56364851D01*
X-94103992Y-56198255D01*
X-94097762Y-56135000D01*
X-88446359Y-56135000D01*
X-87208628Y-57372732D01*
X-87079107Y-57479027D01*
X-86881931Y-57584420D01*
X-86667983Y-57649321D01*
X-86445484Y-57671235D01*
X-86222986Y-57649321D01*
X-86009038Y-57584420D01*
X-85811862Y-57479027D01*
X-85639036Y-57337192D01*
X-85497201Y-57164366D01*
X-85391808Y-56967190D01*
X-85326907Y-56753242D01*
X-85304993Y-56530744D01*
X-85326907Y-56308245D01*
X-85391808Y-56094297D01*
X-85497201Y-55897121D01*
X-85603496Y-55767600D01*
X-86291096Y-55080000D01*
X-75098072Y-55080000D01*
X-75098072Y-56680000D01*
X-75085812Y-56804482D01*
X-75049502Y-56924180D01*
X-74990537Y-57034494D01*
X-74911185Y-57131185D01*
X-74814494Y-57210537D01*
X-74704180Y-57269502D01*
X-74584482Y-57305812D01*
X-74576039Y-57306643D01*
X-74774637Y-57505241D01*
X-74931680Y-57740273D01*
X-75039853Y-58001426D01*
X-75095000Y-58278665D01*
X-75095000Y-58561335D01*
X-75039853Y-58838574D01*
X-74931680Y-59099727D01*
X-74774637Y-59334759D01*
X-74574759Y-59534637D01*
X-74342241Y-59690000D01*
X-74574759Y-59845363D01*
X-74774637Y-60045241D01*
X-74931680Y-60280273D01*
X-75039853Y-60541426D01*
X-75095000Y-60818665D01*
X-75095000Y-61101335D01*
X-75039853Y-61378574D01*
X-74931680Y-61639727D01*
X-74774637Y-61874759D01*
X-74574759Y-62074637D01*
X-74339727Y-62231680D01*
X-74329135Y-62236067D01*
X-74515131Y-62347615D01*
X-74723519Y-62536586D01*
X-74891037Y-62762580D01*
X-75011246Y-63016913D01*
X-75051904Y-63150961D01*
X-74929915Y-63373000D01*
X-73787000Y-63373000D01*
X-73787000Y-63353000D01*
X-73533000Y-63353000D01*
X-73533000Y-63373000D01*
X-72390085Y-63373000D01*
X-72268096Y-63150961D01*
X-72308754Y-63016913D01*
X-72428963Y-62762580D01*
X-72596481Y-62536586D01*
X-72804869Y-62347615D01*
X-72990865Y-62236067D01*
X-72980273Y-62231680D01*
X-72745241Y-62074637D01*
X-72545363Y-61874759D01*
X-72388320Y-61639727D01*
X-72280147Y-61378574D01*
X-72225000Y-61101335D01*
X-72225000Y-60818665D01*
X-72280147Y-60541426D01*
X-72388320Y-60280273D01*
X-72545363Y-60045241D01*
X-72745241Y-59845363D01*
X-72977759Y-59690000D01*
X-72745241Y-59534637D01*
X-72545363Y-59334759D01*
X-72388320Y-59099727D01*
X-72280147Y-58838574D01*
X-72225000Y-58561335D01*
X-72225000Y-58278665D01*
X-72280147Y-58001426D01*
X-72388320Y-57740273D01*
X-72545363Y-57505241D01*
X-72743961Y-57306643D01*
X-72735518Y-57305812D01*
X-72615820Y-57269502D01*
X-72505506Y-57210537D01*
X-72408815Y-57131185D01*
X-72329463Y-57034494D01*
X-72270498Y-56924180D01*
X-72234188Y-56804482D01*
X-72221928Y-56680000D01*
X-72221928Y-55738665D01*
X-59855000Y-55738665D01*
X-59855000Y-56021335D01*
X-59799853Y-56298574D01*
X-59691680Y-56559727D01*
X-59534637Y-56794759D01*
X-59334759Y-56994637D01*
X-59099727Y-57151680D01*
X-59089135Y-57156067D01*
X-59275131Y-57267615D01*
X-59483519Y-57456586D01*
X-59651037Y-57682580D01*
X-59771246Y-57936913D01*
X-59811904Y-58070961D01*
X-59689915Y-58293000D01*
X-58547000Y-58293000D01*
X-58547000Y-58273000D01*
X-58293000Y-58273000D01*
X-58293000Y-58293000D01*
X-57150085Y-58293000D01*
X-57028096Y-58070961D01*
X-57068754Y-57936913D01*
X-57188963Y-57682580D01*
X-57356481Y-57456586D01*
X-57564869Y-57267615D01*
X-57750865Y-57156067D01*
X-57740273Y-57151680D01*
X-57505241Y-56994637D01*
X-57305363Y-56794759D01*
X-57148320Y-56559727D01*
X-57040147Y-56298574D01*
X-56985000Y-56021335D01*
X-56985000Y-55738665D01*
X-57040147Y-55461426D01*
X-57148320Y-55200273D01*
X-57305363Y-54965241D01*
X-57458723Y-54811881D01*
X-37910000Y-54811881D01*
X-37910000Y-55188119D01*
X-37836600Y-55557127D01*
X-37692620Y-55904724D01*
X-37483594Y-56217554D01*
X-37217554Y-56483594D01*
X-36904724Y-56692620D01*
X-36557127Y-56836600D01*
X-36188119Y-56910000D01*
X-35811881Y-56910000D01*
X-35442873Y-56836600D01*
X-35095276Y-56692620D01*
X-34782446Y-56483594D01*
X-34516406Y-56217554D01*
X-34307380Y-55904724D01*
X-34163400Y-55557127D01*
X-34090000Y-55188119D01*
X-34090000Y-54811881D01*
X-34163400Y-54442873D01*
X-34307380Y-54095276D01*
X-34516406Y-53782446D01*
X-34782446Y-53516406D01*
X-35095276Y-53307380D01*
X-35442873Y-53163400D01*
X-35811881Y-53090000D01*
X-36188119Y-53090000D01*
X-36557127Y-53163400D01*
X-36904724Y-53307380D01*
X-37217554Y-53516406D01*
X-37483594Y-53782446D01*
X-37692620Y-54095276D01*
X-37836600Y-54442873D01*
X-37910000Y-54811881D01*
X-57458723Y-54811881D01*
X-57505241Y-54765363D01*
X-57740273Y-54608320D01*
X-58001426Y-54500147D01*
X-58278665Y-54445000D01*
X-58561335Y-54445000D01*
X-58838574Y-54500147D01*
X-59099727Y-54608320D01*
X-59334759Y-54765363D01*
X-59534637Y-54965241D01*
X-59691680Y-55200273D01*
X-59799853Y-55461426D01*
X-59855000Y-55738665D01*
X-72221928Y-55738665D01*
X-72221928Y-55080000D01*
X-72234188Y-54955518D01*
X-72270498Y-54835820D01*
X-72329463Y-54725506D01*
X-72408815Y-54628815D01*
X-72505506Y-54549463D01*
X-72615820Y-54490498D01*
X-72735518Y-54454188D01*
X-72860000Y-54441928D01*
X-74460000Y-54441928D01*
X-74584482Y-54454188D01*
X-74704180Y-54490498D01*
X-74814494Y-54549463D01*
X-74911185Y-54628815D01*
X-74990537Y-54725506D01*
X-75049502Y-54835820D01*
X-75085812Y-54955518D01*
X-75098072Y-55080000D01*
X-86291096Y-55080000D01*
X-87134232Y-54236865D01*
X-87169779Y-54193551D01*
X-87342605Y-54051716D01*
X-87539781Y-53946324D01*
X-87753729Y-53881423D01*
X-87920476Y-53865000D01*
X-87920477Y-53865000D01*
X-87976228Y-53859509D01*
X-88031979Y-53865000D01*
X-94097762Y-53865000D01*
X-94103992Y-53801745D01*
X-94154528Y-53635149D01*
X-94236595Y-53481613D01*
X-94347038Y-53347038D01*
X-94481613Y-53236595D01*
X-94635149Y-53154528D01*
X-94801745Y-53103992D01*
X-94974999Y-53086928D01*
X-97025001Y-53086928D01*
X-97198255Y-53103992D01*
X-97364851Y-53154528D01*
X-97518387Y-53236595D01*
X-97652962Y-53347038D01*
X-97763405Y-53481613D01*
X-97845472Y-53635149D01*
X-97896008Y-53801745D01*
X-97902238Y-53865000D01*
X-100529868Y-53865000D01*
X-106362327Y-48032542D01*
X-106362327Y-47420655D01*
X-106289964Y-47556036D01*
X-106221295Y-47721818D01*
X-106121603Y-47871017D01*
X-106037016Y-48029269D01*
X-105923180Y-48167978D01*
X-105823489Y-48317177D01*
X-105696607Y-48444059D01*
X-105582770Y-48582770D01*
X-105444059Y-48696607D01*
X-105317177Y-48823489D01*
X-105167978Y-48923180D01*
X-105029269Y-49037016D01*
X-104871017Y-49121603D01*
X-104721818Y-49221295D01*
X-104556036Y-49289964D01*
X-104397785Y-49374551D01*
X-104226072Y-49426640D01*
X-104060290Y-49495309D01*
X-103884300Y-49530316D01*
X-103712585Y-49582405D01*
X-103534006Y-49599993D01*
X-103358016Y-49635000D01*
X-30205889Y-49635000D01*
X-30060290Y-49695309D01*
X-29884290Y-49730318D01*
X-29712584Y-49782404D01*
X-29534015Y-49799992D01*
X-29358016Y-49835000D01*
X-29178572Y-49835000D01*
X-29000000Y-49852588D01*
X-28821428Y-49835000D01*
X-28641984Y-49835000D01*
X-28465985Y-49799992D01*
X-28287416Y-49782404D01*
X-28115710Y-49730318D01*
X-27939710Y-49695309D01*
X-27773923Y-49626638D01*
X-27602216Y-49574551D01*
X-27443968Y-49489966D01*
X-27278182Y-49421295D01*
X-27128982Y-49321602D01*
X-27124154Y-49319022D01*
X-35692059Y-57886928D01*
X-37025001Y-57886928D01*
X-37198255Y-57903992D01*
X-37364851Y-57954528D01*
X-37518387Y-58036595D01*
X-37652962Y-58147038D01*
X-37763405Y-58281613D01*
X-37845472Y-58435149D01*
X-37896008Y-58601745D01*
X-37902238Y-58665000D01*
X-42738290Y-58665000D01*
X-44517343Y-56885948D01*
X-44646864Y-56779653D01*
X-44844040Y-56674260D01*
X-45057988Y-56609359D01*
X-45280486Y-56587445D01*
X-45502984Y-56609359D01*
X-45716932Y-56674260D01*
X-45914108Y-56779653D01*
X-46086934Y-56921488D01*
X-46228769Y-57094314D01*
X-46334162Y-57291490D01*
X-46399063Y-57505438D01*
X-46420977Y-57727936D01*
X-46399063Y-57950434D01*
X-46334162Y-58164382D01*
X-46228769Y-58361558D01*
X-46122474Y-58491079D01*
X-44050413Y-60563141D01*
X-44014871Y-60606449D01*
X-43842045Y-60748284D01*
X-43644869Y-60853676D01*
X-43430921Y-60918577D01*
X-43208423Y-60940491D01*
X-43152671Y-60935000D01*
X-37902238Y-60935000D01*
X-37896008Y-60998255D01*
X-37845472Y-61164851D01*
X-37763405Y-61318387D01*
X-37652962Y-61452962D01*
X-37518387Y-61563405D01*
X-37364851Y-61645472D01*
X-37198255Y-61696008D01*
X-37025001Y-61713072D01*
X-34974999Y-61713072D01*
X-34801745Y-61696008D01*
X-34635149Y-61645472D01*
X-34481613Y-61563405D01*
X-34347038Y-61452962D01*
X-34236595Y-61318387D01*
X-34154528Y-61164851D01*
X-34103992Y-60998255D01*
X-34086928Y-60825001D01*
X-34086928Y-59492059D01*
X-25435001Y-50840133D01*
X-25435000Y-62829867D01*
X-35492059Y-72886928D01*
X-37025001Y-72886928D01*
X-37198255Y-72903992D01*
X-37364851Y-72954528D01*
X-37508496Y-73031308D01*
X-45520421Y-73031308D01*
X-45687168Y-73047731D01*
X-45901116Y-73112632D01*
X-46098292Y-73218024D01*
X-46271118Y-73359859D01*
X-46412953Y-73532685D01*
X-46518345Y-73729861D01*
X-46583246Y-73943809D01*
X-46605160Y-74166308D01*
X-46583246Y-74388807D01*
X-46518345Y-74602755D01*
X-46412953Y-74799931D01*
X-46271118Y-74972757D01*
X-46098292Y-75114592D01*
X-45901116Y-75219984D01*
X-45687168Y-75284885D01*
X-45520421Y-75301308D01*
X-37913072Y-75301308D01*
X-37913072Y-75825001D01*
X-37896008Y-75998255D01*
X-37845472Y-76164851D01*
X-37763405Y-76318387D01*
X-37652962Y-76452962D01*
X-37518387Y-76563405D01*
X-37364851Y-76645472D01*
X-37198255Y-76696008D01*
X-37025001Y-76713072D01*
X-34974999Y-76713072D01*
X-34801745Y-76696008D01*
X-34635149Y-76645472D01*
X-34481613Y-76563405D01*
X-34347038Y-76452962D01*
X-34236595Y-76318387D01*
X-34154528Y-76164851D01*
X-34103992Y-75998255D01*
X-34086928Y-75825001D01*
X-34086928Y-74692059D01*
X-25435001Y-66040133D01*
X-25435000Y-77829868D01*
X-35692059Y-88086928D01*
X-37025001Y-88086928D01*
X-37198255Y-88103992D01*
X-37364851Y-88154528D01*
X-37518387Y-88236595D01*
X-37652962Y-88347038D01*
X-37763405Y-88481613D01*
X-37845472Y-88635149D01*
X-37896008Y-88801745D01*
X-37913072Y-88974999D01*
X-37913072Y-89377588D01*
X-45520421Y-89377588D01*
X-45687168Y-89394011D01*
X-45901116Y-89458912D01*
X-46098292Y-89564304D01*
X-46271118Y-89706139D01*
X-46412953Y-89878965D01*
X-46518345Y-90076141D01*
X-46583246Y-90290089D01*
X-46605160Y-90512588D01*
X-46583246Y-90735087D01*
X-46518345Y-90949035D01*
X-46412953Y-91146211D01*
X-46271118Y-91319037D01*
X-46098292Y-91460872D01*
X-45901116Y-91566264D01*
X-45687168Y-91631165D01*
X-45520421Y-91647588D01*
X-37657372Y-91647588D01*
X-37652962Y-91652962D01*
X-37518387Y-91763405D01*
X-37364851Y-91845472D01*
X-37198255Y-91896008D01*
X-37025001Y-91913072D01*
X-34974999Y-91913072D01*
X-34801745Y-91896008D01*
X-34635149Y-91845472D01*
X-34481613Y-91763405D01*
X-34347038Y-91652962D01*
X-34236595Y-91518387D01*
X-34154528Y-91364851D01*
X-34103992Y-91198255D01*
X-34086928Y-91025001D01*
X-34086928Y-89799570D01*
X-24235000Y-89799570D01*
X-24235000Y-90200430D01*
X-24156796Y-90593587D01*
X-24003393Y-90963934D01*
X-23780687Y-91297237D01*
X-23497237Y-91580687D01*
X-23163934Y-91803393D01*
X-22793587Y-91956796D01*
X-22400430Y-92035000D01*
X-21999570Y-92035000D01*
X-21606413Y-91956796D01*
X-21236066Y-91803393D01*
X-20902763Y-91580687D01*
X-20619313Y-91297237D01*
X-20396607Y-90963934D01*
X-20243204Y-90593587D01*
X-20165000Y-90200430D01*
X-20165000Y-89799570D01*
X-20243204Y-89406413D01*
X-20396607Y-89036066D01*
X-20619313Y-88702763D01*
X-20902763Y-88419313D01*
X-21236066Y-88196607D01*
X-21606413Y-88043204D01*
X-21999570Y-87965000D01*
X-22400430Y-87965000D01*
X-22793587Y-88043204D01*
X-23163934Y-88196607D01*
X-23497237Y-88419313D01*
X-23780687Y-88702763D01*
X-24003393Y-89036066D01*
X-24156796Y-89406413D01*
X-24235000Y-89799570D01*
X-34086928Y-89799570D01*
X-34086928Y-89692059D01*
X-29394439Y-84999570D01*
X-24235000Y-84999570D01*
X-24235000Y-85400430D01*
X-24156796Y-85793587D01*
X-24003393Y-86163934D01*
X-23780687Y-86497237D01*
X-23497237Y-86780687D01*
X-23163934Y-87003393D01*
X-22793587Y-87156796D01*
X-22400430Y-87235000D01*
X-21999570Y-87235000D01*
X-21606413Y-87156796D01*
X-21236066Y-87003393D01*
X-20902763Y-86780687D01*
X-20619313Y-86497237D01*
X-20396607Y-86163934D01*
X-20243204Y-85793587D01*
X-20165000Y-85400430D01*
X-20165000Y-84999570D01*
X-20243204Y-84606413D01*
X-20396607Y-84236066D01*
X-20619313Y-83902763D01*
X-20902763Y-83619313D01*
X-21236066Y-83396607D01*
X-21606413Y-83243204D01*
X-21999570Y-83165000D01*
X-22400430Y-83165000D01*
X-22793587Y-83243204D01*
X-23163934Y-83396607D01*
X-23497237Y-83619313D01*
X-23780687Y-83902763D01*
X-24003393Y-84236066D01*
X-24156796Y-84606413D01*
X-24235000Y-84999570D01*
X-29394439Y-84999570D01*
X-23536860Y-79141992D01*
X-23493552Y-79106450D01*
X-23351717Y-78933624D01*
X-23246325Y-78736448D01*
X-23181424Y-78522500D01*
X-23165001Y-78355753D01*
X-23165001Y-78355744D01*
X-23159511Y-78300002D01*
X-23165001Y-78244260D01*
X-23165001Y-76602680D01*
X-23163934Y-76603393D01*
X-22793587Y-76756796D01*
X-22400430Y-76835000D01*
X-21999570Y-76835000D01*
X-21606413Y-76756796D01*
X-21236066Y-76603393D01*
X-20902763Y-76380687D01*
X-20619313Y-76097237D01*
X-20396607Y-75763934D01*
X-20243204Y-75393587D01*
X-20165000Y-75000430D01*
X-20165000Y-74599570D01*
X-20243204Y-74206413D01*
X-20396607Y-73836066D01*
X-20619313Y-73502763D01*
X-20902763Y-73219313D01*
X-21236066Y-72996607D01*
X-21606413Y-72843204D01*
X-21999570Y-72765000D01*
X-22400430Y-72765000D01*
X-22793587Y-72843204D01*
X-23163934Y-72996607D01*
X-23165001Y-72997320D01*
X-23165001Y-71802680D01*
X-23163934Y-71803393D01*
X-22793587Y-71956796D01*
X-22400430Y-72035000D01*
X-21999570Y-72035000D01*
X-21606413Y-71956796D01*
X-21236066Y-71803393D01*
X-20902763Y-71580687D01*
X-20619313Y-71297237D01*
X-20396607Y-70963934D01*
X-20243204Y-70593587D01*
X-20165000Y-70200430D01*
X-20165000Y-69799570D01*
X-20243204Y-69406413D01*
X-20396607Y-69036066D01*
X-20619313Y-68702763D01*
X-20902763Y-68419313D01*
X-21236066Y-68196607D01*
X-21606413Y-68043204D01*
X-21999570Y-67965000D01*
X-22400430Y-67965000D01*
X-22793587Y-68043204D01*
X-23163934Y-68196607D01*
X-23165001Y-68197320D01*
X-23165001Y-63355753D01*
X-23159510Y-63300001D01*
X-23165001Y-63244249D01*
X-23165001Y-61602680D01*
X-23163934Y-61603393D01*
X-22793587Y-61756796D01*
X-22400430Y-61835000D01*
X-21999570Y-61835000D01*
X-21606413Y-61756796D01*
X-21236066Y-61603393D01*
X-20902763Y-61380687D01*
X-20619313Y-61097237D01*
X-20396607Y-60763934D01*
X-20243204Y-60393587D01*
X-20165000Y-60000430D01*
X-20165000Y-59599570D01*
X-20243204Y-59206413D01*
X-20396607Y-58836066D01*
X-20619313Y-58502763D01*
X-20902763Y-58219313D01*
X-21236066Y-57996607D01*
X-21606413Y-57843204D01*
X-21999570Y-57765000D01*
X-22400430Y-57765000D01*
X-22793587Y-57843204D01*
X-23163934Y-57996607D01*
X-23165001Y-57997320D01*
X-23165001Y-56802680D01*
X-23163934Y-56803393D01*
X-22793587Y-56956796D01*
X-22400430Y-57035000D01*
X-21999570Y-57035000D01*
X-21606413Y-56956796D01*
X-21236066Y-56803393D01*
X-20902763Y-56580687D01*
X-20619313Y-56297237D01*
X-20396607Y-55963934D01*
X-20243204Y-55593587D01*
X-20165000Y-55200430D01*
X-20165000Y-54799570D01*
X-20243204Y-54406413D01*
X-20396607Y-54036066D01*
X-20619313Y-53702763D01*
X-20902763Y-53419313D01*
X-21236066Y-53196607D01*
X-21606413Y-53043204D01*
X-21999570Y-52965000D01*
X-22400430Y-52965000D01*
X-22793587Y-53043204D01*
X-23163934Y-53196607D01*
X-23165001Y-53197320D01*
X-23165001Y-48155744D01*
X-23159511Y-48100002D01*
X-23165001Y-48044260D01*
X-23165001Y-43755740D01*
X-23159511Y-43699998D01*
X-23165001Y-43644256D01*
X-23165001Y-43644247D01*
X-23181424Y-43477500D01*
X-23246325Y-43263552D01*
X-23351717Y-43066376D01*
X-23493552Y-42893550D01*
X-23536860Y-42858008D01*
X-25420406Y-40974463D01*
X-25403010Y-40917117D01*
X-25361928Y-40500000D01*
X-25361928Y-39147382D01*
X-25347412Y-39000000D01*
X-25361928Y-38852618D01*
X-25361928Y-37500000D01*
X-25366652Y-37452033D01*
X-24272428Y-37452033D01*
X-23954243Y-37905850D01*
X-23349790Y-38231269D01*
X-22693465Y-38432512D01*
X-22010490Y-38501845D01*
X-21327112Y-38436605D01*
X-20669593Y-38239298D01*
X-20063201Y-37917506D01*
X-20045757Y-37905850D01*
X-19727572Y-37452033D01*
X-22000000Y-35179605D01*
X-24272428Y-37452033D01*
X-25366652Y-37452033D01*
X-25403010Y-37082883D01*
X-25524679Y-36681795D01*
X-25722258Y-36312151D01*
X-25988155Y-35988155D01*
X-26312151Y-35722258D01*
X-26681795Y-35524679D01*
X-27082883Y-35403010D01*
X-27500000Y-35361928D01*
X-28011615Y-35361928D01*
X-28487415Y-35217595D01*
X-29021425Y-35165000D01*
X-29021428Y-35165000D01*
X-29200000Y-35147412D01*
X-29378572Y-35165000D01*
X-64468809Y-35165000D01*
X-64500000Y-35161928D01*
X-67500000Y-35161928D01*
X-67531191Y-35165000D01*
X-101468809Y-35165000D01*
X-101500000Y-35161928D01*
X-104500000Y-35161928D01*
X-104917117Y-35203010D01*
X-105318205Y-35324679D01*
X-105687849Y-35522258D01*
X-106011845Y-35788155D01*
X-106277742Y-36112151D01*
X-106475321Y-36481795D01*
X-106596990Y-36882883D01*
X-106638072Y-37300000D01*
X-106638072Y-38652616D01*
X-106652588Y-38800000D01*
X-106638072Y-38947384D01*
X-106638072Y-40300000D01*
X-106596990Y-40717117D01*
X-106579594Y-40774463D01*
X-108260467Y-42455336D01*
X-108303775Y-42490878D01*
X-108445610Y-42663704D01*
X-108501943Y-42769097D01*
X-108551003Y-42860881D01*
X-108615904Y-43074829D01*
X-108637818Y-43297327D01*
X-108632326Y-43353088D01*
X-108632327Y-48446921D01*
X-108637818Y-48502673D01*
X-108632327Y-48558424D01*
X-108632326Y-48558434D01*
X-108632326Y-53332742D01*
X-108836066Y-53196607D01*
X-109206413Y-53043204D01*
X-109599570Y-52965000D01*
X-110000430Y-52965000D01*
X-110393587Y-53043204D01*
X-110763934Y-53196607D01*
X-111097237Y-53419313D01*
X-111380687Y-53702763D01*
X-111603393Y-54036066D01*
X-111756796Y-54406413D01*
X-111835000Y-54799570D01*
X-113340000Y-54799570D01*
X-113340000Y-37452033D01*
X-112272428Y-37452033D01*
X-111954243Y-37905850D01*
X-111349790Y-38231269D01*
X-110693465Y-38432512D01*
X-110010490Y-38501845D01*
X-109327112Y-38436605D01*
X-108669593Y-38239298D01*
X-108063201Y-37917506D01*
X-108045757Y-37905850D01*
X-107727572Y-37452033D01*
X-110000000Y-35179605D01*
X-112272428Y-37452033D01*
X-113340000Y-37452033D01*
X-113340000Y-35994821D01*
X-113239298Y-36330407D01*
X-112917506Y-36936799D01*
X-112905850Y-36954243D01*
X-112452033Y-37272428D01*
X-110179605Y-35000000D01*
X-109820395Y-35000000D01*
X-107547967Y-37272428D01*
X-107094150Y-36954243D01*
X-106768731Y-36349790D01*
X-106567488Y-35693465D01*
X-106498155Y-35010490D01*
X-106500157Y-34989510D01*
X-25501845Y-34989510D01*
X-25436605Y-35672888D01*
X-25239298Y-36330407D01*
X-24917506Y-36936799D01*
X-24905850Y-36954243D01*
X-24452033Y-37272428D01*
X-22179605Y-35000000D01*
X-24452033Y-32727572D01*
X-24905850Y-33045757D01*
X-25231269Y-33650210D01*
X-25432512Y-34306535D01*
X-25501845Y-34989510D01*
X-106500157Y-34989510D01*
X-106563395Y-34327112D01*
X-106760702Y-33669593D01*
X-107082494Y-33063201D01*
X-107094150Y-33045757D01*
X-107547967Y-32727572D01*
X-109820395Y-35000000D01*
X-110179605Y-35000000D01*
X-110193748Y-34985858D01*
X-110014143Y-34806253D01*
X-110000000Y-34820395D01*
X-107727572Y-32547967D01*
X-108045757Y-32094150D01*
X-108650210Y-31768731D01*
X-109004820Y-31660000D01*
X-22994821Y-31660000D01*
X-23330407Y-31760702D01*
G04 #@! TA.AperFunction,Conductor*
D22*
G36*
X-23330407Y-31760702D02*
G01*
X-23936799Y-32082494D01*
X-23954243Y-32094150D01*
X-24272428Y-32547967D01*
X-22000000Y-34820395D01*
X-21985858Y-34806253D01*
X-21806253Y-34985858D01*
X-21820395Y-35000000D01*
X-19547967Y-37272428D01*
X-19094150Y-36954243D01*
X-18768731Y-36349790D01*
X-18660000Y-35995179D01*
X-18659999Y-103005182D01*
X-18760702Y-102669593D01*
X-19082494Y-102063201D01*
X-19094150Y-102045757D01*
X-19547967Y-101727572D01*
X-21820395Y-104000000D01*
X-21806253Y-104014143D01*
X-21985858Y-104193748D01*
X-22000000Y-104179605D01*
X-24272428Y-106452033D01*
X-23954243Y-106905850D01*
X-23349790Y-107231269D01*
X-22995180Y-107340000D01*
X-109005179Y-107340000D01*
X-108669593Y-107239298D01*
X-108063201Y-106917506D01*
X-108045757Y-106905850D01*
X-107727572Y-106452033D01*
X-110000000Y-104179605D01*
X-110014143Y-104193748D01*
X-110193748Y-104014143D01*
X-110179605Y-104000000D01*
X-109820395Y-104000000D01*
X-107547967Y-106272428D01*
X-107094150Y-105954243D01*
X-106768731Y-105349790D01*
X-106567488Y-104693465D01*
X-106498155Y-104010490D01*
X-106500157Y-103989510D01*
X-25501845Y-103989510D01*
X-25436605Y-104672888D01*
X-25239298Y-105330407D01*
X-24917506Y-105936799D01*
X-24905850Y-105954243D01*
X-24452033Y-106272428D01*
X-22179605Y-104000000D01*
X-24452033Y-101727572D01*
X-24905850Y-102045757D01*
X-25231269Y-102650210D01*
X-25432512Y-103306535D01*
X-25501845Y-103989510D01*
X-106500157Y-103989510D01*
X-106563395Y-103327112D01*
X-106760702Y-102669593D01*
X-106801935Y-102591891D01*
X-82721481Y-102591891D01*
X-82624157Y-102866252D01*
X-82475178Y-103116355D01*
X-82280269Y-103332588D01*
X-82046920Y-103506641D01*
X-81784099Y-103631825D01*
X-81636890Y-103676476D01*
X-81407000Y-103555155D01*
X-81407000Y-102362000D01*
X-82600814Y-102362000D01*
X-82721481Y-102591891D01*
X-106801935Y-102591891D01*
X-107082494Y-102063201D01*
X-107094150Y-102045757D01*
X-107333260Y-101878109D01*
X-82721481Y-101878109D01*
X-82600814Y-102108000D01*
X-81407000Y-102108000D01*
X-81407000Y-100914845D01*
X-81153000Y-100914845D01*
X-81153000Y-102108000D01*
X-81133000Y-102108000D01*
X-81133000Y-102362000D01*
X-81153000Y-102362000D01*
X-81153000Y-103555155D01*
X-80923110Y-103676476D01*
X-80775901Y-103631825D01*
X-80513080Y-103506641D01*
X-80279731Y-103332588D01*
X-80084822Y-103116355D01*
X-80015195Y-102999466D01*
X-79893475Y-103181632D01*
X-79686632Y-103388475D01*
X-79443411Y-103550990D01*
X-79173158Y-103662932D01*
X-78886260Y-103720000D01*
X-78593740Y-103720000D01*
X-78306842Y-103662932D01*
X-78036589Y-103550990D01*
X-77793368Y-103388475D01*
X-77661513Y-103256620D01*
X-77639502Y-103329180D01*
X-77580537Y-103439494D01*
X-77501185Y-103536185D01*
X-77404494Y-103615537D01*
X-77294180Y-103674502D01*
X-77174482Y-103710812D01*
X-77050000Y-103723072D01*
X-75350000Y-103723072D01*
X-75225518Y-103710812D01*
X-75105820Y-103674502D01*
X-74995506Y-103615537D01*
X-74898815Y-103536185D01*
X-74819463Y-103439494D01*
X-74760498Y-103329180D01*
X-74724188Y-103209482D01*
X-74711928Y-103085000D01*
X-74711928Y-102591891D01*
X-69896481Y-102591891D01*
X-69799157Y-102866252D01*
X-69650178Y-103116355D01*
X-69455269Y-103332588D01*
X-69221920Y-103506641D01*
X-68959099Y-103631825D01*
X-68811890Y-103676476D01*
X-68582000Y-103555155D01*
X-68582000Y-102362000D01*
X-69775814Y-102362000D01*
X-69896481Y-102591891D01*
X-74711928Y-102591891D01*
X-74711928Y-101878109D01*
X-69896481Y-101878109D01*
X-69775814Y-102108000D01*
X-68582000Y-102108000D01*
X-68582000Y-100914845D01*
X-68328000Y-100914845D01*
X-68328000Y-102108000D01*
X-68308000Y-102108000D01*
X-68308000Y-102362000D01*
X-68328000Y-102362000D01*
X-68328000Y-103555155D01*
X-68098110Y-103676476D01*
X-67950901Y-103631825D01*
X-67688080Y-103506641D01*
X-67454731Y-103332588D01*
X-67259822Y-103116355D01*
X-67190195Y-102999466D01*
X-67068475Y-103181632D01*
X-66861632Y-103388475D01*
X-66618411Y-103550990D01*
X-66348158Y-103662932D01*
X-66061260Y-103720000D01*
X-65768740Y-103720000D01*
X-65481842Y-103662932D01*
X-65211589Y-103550990D01*
X-64968368Y-103388475D01*
X-64836513Y-103256620D01*
X-64814502Y-103329180D01*
X-64755537Y-103439494D01*
X-64676185Y-103536185D01*
X-64579494Y-103615537D01*
X-64469180Y-103674502D01*
X-64349482Y-103710812D01*
X-64225000Y-103723072D01*
X-62525000Y-103723072D01*
X-62400518Y-103710812D01*
X-62280820Y-103674502D01*
X-62170506Y-103615537D01*
X-62073815Y-103536185D01*
X-61994463Y-103439494D01*
X-61935498Y-103329180D01*
X-61899188Y-103209482D01*
X-61886928Y-103085000D01*
X-61886928Y-101385000D01*
X-57368072Y-101385000D01*
X-57368072Y-103085000D01*
X-57355812Y-103209482D01*
X-57319502Y-103329180D01*
X-57260537Y-103439494D01*
X-57181185Y-103536185D01*
X-57084494Y-103615537D01*
X-56974180Y-103674502D01*
X-56854482Y-103710812D01*
X-56730000Y-103723072D01*
X-55030000Y-103723072D01*
X-54905518Y-103710812D01*
X-54785820Y-103674502D01*
X-54675506Y-103615537D01*
X-54578815Y-103536185D01*
X-54499463Y-103439494D01*
X-54440498Y-103329180D01*
X-54418487Y-103256620D01*
X-54286632Y-103388475D01*
X-54043411Y-103550990D01*
X-53773158Y-103662932D01*
X-53486260Y-103720000D01*
X-53193740Y-103720000D01*
X-52906842Y-103662932D01*
X-52636589Y-103550990D01*
X-52393368Y-103388475D01*
X-52186525Y-103181632D01*
X-52064805Y-102999466D01*
X-51995178Y-103116355D01*
X-51800269Y-103332588D01*
X-51566920Y-103506641D01*
X-51304099Y-103631825D01*
X-51156890Y-103676476D01*
X-50927000Y-103555155D01*
X-50927000Y-102362000D01*
X-50673000Y-102362000D01*
X-50673000Y-103555155D01*
X-50443110Y-103676476D01*
X-50295901Y-103631825D01*
X-50033080Y-103506641D01*
X-49799731Y-103332588D01*
X-49604822Y-103116355D01*
X-49455843Y-102866252D01*
X-49358519Y-102591891D01*
X-49479186Y-102362000D01*
X-50673000Y-102362000D01*
X-50927000Y-102362000D01*
X-50947000Y-102362000D01*
X-50947000Y-102108000D01*
X-50927000Y-102108000D01*
X-50927000Y-100914845D01*
X-50673000Y-100914845D01*
X-50673000Y-102108000D01*
X-49479186Y-102108000D01*
X-49358519Y-101878109D01*
X-49455843Y-101603748D01*
X-49489070Y-101547967D01*
X-24272428Y-101547967D01*
X-22000000Y-103820395D01*
X-19727572Y-101547967D01*
X-20045757Y-101094150D01*
X-20650210Y-100768731D01*
X-21306535Y-100567488D01*
X-21989510Y-100498155D01*
X-22672888Y-100563395D01*
X-23330407Y-100760702D01*
X-23936799Y-101082494D01*
X-23954243Y-101094150D01*
X-24272428Y-101547967D01*
X-49489070Y-101547967D01*
X-49604822Y-101353645D01*
X-49799731Y-101137412D01*
X-50033080Y-100963359D01*
X-50295901Y-100838175D01*
X-50443110Y-100793524D01*
X-50673000Y-100914845D01*
X-50927000Y-100914845D01*
X-51156890Y-100793524D01*
X-51304099Y-100838175D01*
X-51566920Y-100963359D01*
X-51800269Y-101137412D01*
X-51995178Y-101353645D01*
X-52064805Y-101470534D01*
X-52186525Y-101288368D01*
X-52393368Y-101081525D01*
X-52636589Y-100919010D01*
X-52906842Y-100807068D01*
X-53193740Y-100750000D01*
X-53486260Y-100750000D01*
X-53773158Y-100807068D01*
X-54043411Y-100919010D01*
X-54286632Y-101081525D01*
X-54418487Y-101213380D01*
X-54440498Y-101140820D01*
X-54499463Y-101030506D01*
X-54578815Y-100933815D01*
X-54675506Y-100854463D01*
X-54785820Y-100795498D01*
X-54905518Y-100759188D01*
X-55030000Y-100746928D01*
X-56730000Y-100746928D01*
X-56854482Y-100759188D01*
X-56974180Y-100795498D01*
X-57084494Y-100854463D01*
X-57181185Y-100933815D01*
X-57260537Y-101030506D01*
X-57319502Y-101140820D01*
X-57355812Y-101260518D01*
X-57368072Y-101385000D01*
X-61886928Y-101385000D01*
X-61899188Y-101260518D01*
X-61935498Y-101140820D01*
X-61994463Y-101030506D01*
X-62073815Y-100933815D01*
X-62170506Y-100854463D01*
X-62280820Y-100795498D01*
X-62400518Y-100759188D01*
X-62525000Y-100746928D01*
X-62615000Y-100746928D01*
X-62615000Y-78929801D01*
X-59855000Y-76169802D01*
X-59855000Y-76341335D01*
X-59799853Y-76618574D01*
X-59691680Y-76879727D01*
X-59534637Y-77114759D01*
X-59334759Y-77314637D01*
X-59102241Y-77470000D01*
X-59334759Y-77625363D01*
X-59534637Y-77825241D01*
X-59691680Y-78060273D01*
X-59799853Y-78321426D01*
X-59855000Y-78598665D01*
X-59855000Y-78881335D01*
X-59799853Y-79158574D01*
X-59691680Y-79419727D01*
X-59534637Y-79654759D01*
X-59334759Y-79854637D01*
X-59102241Y-80010000D01*
X-59334759Y-80165363D01*
X-59534637Y-80365241D01*
X-59691680Y-80600273D01*
X-59799853Y-80861426D01*
X-59855000Y-81138665D01*
X-59855000Y-81421335D01*
X-59799853Y-81698574D01*
X-59691680Y-81959727D01*
X-59534637Y-82194759D01*
X-59334759Y-82394637D01*
X-59102241Y-82550000D01*
X-59334759Y-82705363D01*
X-59534637Y-82905241D01*
X-59691680Y-83140273D01*
X-59799853Y-83401426D01*
X-59855000Y-83678665D01*
X-59855000Y-83961335D01*
X-59799853Y-84238574D01*
X-59691680Y-84499727D01*
X-59534637Y-84734759D01*
X-59334759Y-84934637D01*
X-59102241Y-85090000D01*
X-59334759Y-85245363D01*
X-59534637Y-85445241D01*
X-59691680Y-85680273D01*
X-59799853Y-85941426D01*
X-59855000Y-86218665D01*
X-59855000Y-86501335D01*
X-59799853Y-86778574D01*
X-59691680Y-87039727D01*
X-59534637Y-87274759D01*
X-59334759Y-87474637D01*
X-59102241Y-87630000D01*
X-59334759Y-87785363D01*
X-59534637Y-87985241D01*
X-59691680Y-88220273D01*
X-59799853Y-88481426D01*
X-59855000Y-88758665D01*
X-59855000Y-89041335D01*
X-59799853Y-89318574D01*
X-59691680Y-89579727D01*
X-59534637Y-89814759D01*
X-59334759Y-90014637D01*
X-59102241Y-90170000D01*
X-59334759Y-90325363D01*
X-59534637Y-90525241D01*
X-59691680Y-90760273D01*
X-59799853Y-91021426D01*
X-59855000Y-91298665D01*
X-59855000Y-91581335D01*
X-59799853Y-91858574D01*
X-59691680Y-92119727D01*
X-59534637Y-92354759D01*
X-59334759Y-92554637D01*
X-59099727Y-92711680D01*
X-58838574Y-92819853D01*
X-58561335Y-92875000D01*
X-58278665Y-92875000D01*
X-58001426Y-92819853D01*
X-57740273Y-92711680D01*
X-57505241Y-92554637D01*
X-57305363Y-92354759D01*
X-57148320Y-92119727D01*
X-57040147Y-91858574D01*
X-56985000Y-91581335D01*
X-56985000Y-91298665D01*
X-57040147Y-91021426D01*
X-57148320Y-90760273D01*
X-57305363Y-90525241D01*
X-57505241Y-90325363D01*
X-57737759Y-90170000D01*
X-57505241Y-90014637D01*
X-57305363Y-89814759D01*
X-57148320Y-89579727D01*
X-57040147Y-89318574D01*
X-56985000Y-89041335D01*
X-56985000Y-88758665D01*
X-57040147Y-88481426D01*
X-57148320Y-88220273D01*
X-57305363Y-87985241D01*
X-57505241Y-87785363D01*
X-57737759Y-87630000D01*
X-57505241Y-87474637D01*
X-57305363Y-87274759D01*
X-57148320Y-87039727D01*
X-57040147Y-86778574D01*
X-56985000Y-86501335D01*
X-56985000Y-86218665D01*
X-57040147Y-85941426D01*
X-57148320Y-85680273D01*
X-57305363Y-85445241D01*
X-57505241Y-85245363D01*
X-57737759Y-85090000D01*
X-57620846Y-85011881D01*
X-37910000Y-85011881D01*
X-37910000Y-85388119D01*
X-37836600Y-85757127D01*
X-37692620Y-86104724D01*
X-37483594Y-86417554D01*
X-37217554Y-86683594D01*
X-36904724Y-86892620D01*
X-36557127Y-87036600D01*
X-36188119Y-87110000D01*
X-35811881Y-87110000D01*
X-35442873Y-87036600D01*
X-35095276Y-86892620D01*
X-34782446Y-86683594D01*
X-34516406Y-86417554D01*
X-34307380Y-86104724D01*
X-34163400Y-85757127D01*
X-34090000Y-85388119D01*
X-34090000Y-85011881D01*
X-34163400Y-84642873D01*
X-34307380Y-84295276D01*
X-34516406Y-83982446D01*
X-34782446Y-83716406D01*
X-35095276Y-83507380D01*
X-35442873Y-83363400D01*
X-35811881Y-83290000D01*
X-36188119Y-83290000D01*
X-36557127Y-83363400D01*
X-36904724Y-83507380D01*
X-37217554Y-83716406D01*
X-37483594Y-83982446D01*
X-37692620Y-84295276D01*
X-37836600Y-84642873D01*
X-37910000Y-85011881D01*
X-57620846Y-85011881D01*
X-57505241Y-84934637D01*
X-57305363Y-84734759D01*
X-57148320Y-84499727D01*
X-57040147Y-84238574D01*
X-56985000Y-83961335D01*
X-56985000Y-83678665D01*
X-57040147Y-83401426D01*
X-57148320Y-83140273D01*
X-57305363Y-82905241D01*
X-57505241Y-82705363D01*
X-57737759Y-82550000D01*
X-57505241Y-82394637D01*
X-57305363Y-82194759D01*
X-57148320Y-81959727D01*
X-57040147Y-81698574D01*
X-56985000Y-81421335D01*
X-56985000Y-81138665D01*
X-57040147Y-80861426D01*
X-57148320Y-80600273D01*
X-57305363Y-80365241D01*
X-57505241Y-80165363D01*
X-57737759Y-80010000D01*
X-57505241Y-79854637D01*
X-57305363Y-79654759D01*
X-57148320Y-79419727D01*
X-57040147Y-79158574D01*
X-56985000Y-78881335D01*
X-56985000Y-78598665D01*
X-57040147Y-78321426D01*
X-57148320Y-78060273D01*
X-57305363Y-77825241D01*
X-57505241Y-77625363D01*
X-57737759Y-77470000D01*
X-57505241Y-77314637D01*
X-57305363Y-77114759D01*
X-57148320Y-76879727D01*
X-57040147Y-76618574D01*
X-56985000Y-76341335D01*
X-56985000Y-76058665D01*
X-57040147Y-75781426D01*
X-57148320Y-75520273D01*
X-57305363Y-75285241D01*
X-57505241Y-75085363D01*
X-57737759Y-74930000D01*
X-57505241Y-74774637D01*
X-57305363Y-74574759D01*
X-57148320Y-74339727D01*
X-57040147Y-74078574D01*
X-56985000Y-73801335D01*
X-56985000Y-73518665D01*
X-57040147Y-73241426D01*
X-57148320Y-72980273D01*
X-57305363Y-72745241D01*
X-57505241Y-72545363D01*
X-57737759Y-72390000D01*
X-57505241Y-72234637D01*
X-57305363Y-72034759D01*
X-57148320Y-71799727D01*
X-57040147Y-71538574D01*
X-56985000Y-71261335D01*
X-56985000Y-70978665D01*
X-57040147Y-70701426D01*
X-57148320Y-70440273D01*
X-57305363Y-70205241D01*
X-57505241Y-70005363D01*
X-57737759Y-69850000D01*
X-57680710Y-69811881D01*
X-37910000Y-69811881D01*
X-37910000Y-70188119D01*
X-37836600Y-70557127D01*
X-37692620Y-70904724D01*
X-37483594Y-71217554D01*
X-37217554Y-71483594D01*
X-36904724Y-71692620D01*
X-36557127Y-71836600D01*
X-36188119Y-71910000D01*
X-35811881Y-71910000D01*
X-35442873Y-71836600D01*
X-35095276Y-71692620D01*
X-34782446Y-71483594D01*
X-34516406Y-71217554D01*
X-34307380Y-70904724D01*
X-34163400Y-70557127D01*
X-34090000Y-70188119D01*
X-34090000Y-69811881D01*
X-34163400Y-69442873D01*
X-34307380Y-69095276D01*
X-34516406Y-68782446D01*
X-34782446Y-68516406D01*
X-35095276Y-68307380D01*
X-35442873Y-68163400D01*
X-35811881Y-68090000D01*
X-36188119Y-68090000D01*
X-36557127Y-68163400D01*
X-36904724Y-68307380D01*
X-37217554Y-68516406D01*
X-37483594Y-68782446D01*
X-37692620Y-69095276D01*
X-37836600Y-69442873D01*
X-37910000Y-69811881D01*
X-57680710Y-69811881D01*
X-57505241Y-69694637D01*
X-57305363Y-69494759D01*
X-57148320Y-69259727D01*
X-57040147Y-68998574D01*
X-56985000Y-68721335D01*
X-56985000Y-68438665D01*
X-57040147Y-68161426D01*
X-57148320Y-67900273D01*
X-57305363Y-67665241D01*
X-57505241Y-67465363D01*
X-57737759Y-67310000D01*
X-57505241Y-67154637D01*
X-57305363Y-66954759D01*
X-57148320Y-66719727D01*
X-57040147Y-66458574D01*
X-56985000Y-66181335D01*
X-56985000Y-65898665D01*
X-57040147Y-65621426D01*
X-57148320Y-65360273D01*
X-57305363Y-65125241D01*
X-57505241Y-64925363D01*
X-57737759Y-64770000D01*
X-57505241Y-64614637D01*
X-57305363Y-64414759D01*
X-57148320Y-64179727D01*
X-57040147Y-63918574D01*
X-56985000Y-63641335D01*
X-56985000Y-63358665D01*
X-57040147Y-63081426D01*
X-57148320Y-62820273D01*
X-57305363Y-62585241D01*
X-57505241Y-62385363D01*
X-57737759Y-62230000D01*
X-57505241Y-62074637D01*
X-57305363Y-61874759D01*
X-57148320Y-61639727D01*
X-57040147Y-61378574D01*
X-56985000Y-61101335D01*
X-56985000Y-60818665D01*
X-57040147Y-60541426D01*
X-57148320Y-60280273D01*
X-57305363Y-60045241D01*
X-57505241Y-59845363D01*
X-57740273Y-59688320D01*
X-57750865Y-59683933D01*
X-57564869Y-59572385D01*
X-57356481Y-59383414D01*
X-57188963Y-59157420D01*
X-57068754Y-58903087D01*
X-57028096Y-58769039D01*
X-57150085Y-58547000D01*
X-58293000Y-58547000D01*
X-58293000Y-58567000D01*
X-58547000Y-58567000D01*
X-58547000Y-58547000D01*
X-59689915Y-58547000D01*
X-59811904Y-58769039D01*
X-59771246Y-58903087D01*
X-59651037Y-59157420D01*
X-59483519Y-59383414D01*
X-59275131Y-59572385D01*
X-59089135Y-59683933D01*
X-59099727Y-59688320D01*
X-59334759Y-59845363D01*
X-59534637Y-60045241D01*
X-59691680Y-60280273D01*
X-59799853Y-60541426D01*
X-59855000Y-60818665D01*
X-59855000Y-61101335D01*
X-59799853Y-61378574D01*
X-59691680Y-61639727D01*
X-59534637Y-61874759D01*
X-59334759Y-62074637D01*
X-59102241Y-62230000D01*
X-59334759Y-62385363D01*
X-59534637Y-62585241D01*
X-59691680Y-62820273D01*
X-59799853Y-63081426D01*
X-59855000Y-63358665D01*
X-59855000Y-63641335D01*
X-59799853Y-63918574D01*
X-59691680Y-64179727D01*
X-59534637Y-64414759D01*
X-59334759Y-64614637D01*
X-59102241Y-64770000D01*
X-59334759Y-64925363D01*
X-59534637Y-65125241D01*
X-59691680Y-65360273D01*
X-59799853Y-65621426D01*
X-59855000Y-65898665D01*
X-59855000Y-66181335D01*
X-59799853Y-66458574D01*
X-59691680Y-66719727D01*
X-59534637Y-66954759D01*
X-59334759Y-67154637D01*
X-59102241Y-67310000D01*
X-59334759Y-67465363D01*
X-59534637Y-67665241D01*
X-59691680Y-67900273D01*
X-59799853Y-68161426D01*
X-59855000Y-68438665D01*
X-59855000Y-68721335D01*
X-59799853Y-68998574D01*
X-59691680Y-69259727D01*
X-59534637Y-69494759D01*
X-59334759Y-69694637D01*
X-59102241Y-69850000D01*
X-59334759Y-70005363D01*
X-59534637Y-70205241D01*
X-59691680Y-70440273D01*
X-59799853Y-70701426D01*
X-59855000Y-70978665D01*
X-59855000Y-71261335D01*
X-59818688Y-71443886D01*
X-66426002Y-78051201D01*
X-66455000Y-78074999D01*
X-66478798Y-78103997D01*
X-66478799Y-78103998D01*
X-66549974Y-78190724D01*
X-66620546Y-78322754D01*
X-66650820Y-78422558D01*
X-66664002Y-78466014D01*
X-66674999Y-78577667D01*
X-66678676Y-78615000D01*
X-66674999Y-78652333D01*
X-66675000Y-100956822D01*
X-66861632Y-101081525D01*
X-67068475Y-101288368D01*
X-67190195Y-101470534D01*
X-67259822Y-101353645D01*
X-67454731Y-101137412D01*
X-67688080Y-100963359D01*
X-67950901Y-100838175D01*
X-68098110Y-100793524D01*
X-68328000Y-100914845D01*
X-68582000Y-100914845D01*
X-68811890Y-100793524D01*
X-68959099Y-100838175D01*
X-69221920Y-100963359D01*
X-69455269Y-101137412D01*
X-69650178Y-101353645D01*
X-69799157Y-101603748D01*
X-69896481Y-101878109D01*
X-74711928Y-101878109D01*
X-74711928Y-101385000D01*
X-74724188Y-101260518D01*
X-74760498Y-101140820D01*
X-74819463Y-101030506D01*
X-74898815Y-100933815D01*
X-74995506Y-100854463D01*
X-75105820Y-100795498D01*
X-75225518Y-100759188D01*
X-75350000Y-100746928D01*
X-77050000Y-100746928D01*
X-77174482Y-100759188D01*
X-77294180Y-100795498D01*
X-77404494Y-100854463D01*
X-77501185Y-100933815D01*
X-77580537Y-101030506D01*
X-77639502Y-101140820D01*
X-77661513Y-101213380D01*
X-77793368Y-101081525D01*
X-78036589Y-100919010D01*
X-78306842Y-100807068D01*
X-78593740Y-100750000D01*
X-78886260Y-100750000D01*
X-79173158Y-100807068D01*
X-79443411Y-100919010D01*
X-79686632Y-101081525D01*
X-79893475Y-101288368D01*
X-80015195Y-101470534D01*
X-80084822Y-101353645D01*
X-80279731Y-101137412D01*
X-80513080Y-100963359D01*
X-80775901Y-100838175D01*
X-80923110Y-100793524D01*
X-81153000Y-100914845D01*
X-81407000Y-100914845D01*
X-81636890Y-100793524D01*
X-81784099Y-100838175D01*
X-82046920Y-100963359D01*
X-82280269Y-101137412D01*
X-82475178Y-101353645D01*
X-82624157Y-101603748D01*
X-82721481Y-101878109D01*
X-107333260Y-101878109D01*
X-107547967Y-101727572D01*
X-109820395Y-104000000D01*
X-110179605Y-104000000D01*
X-112452033Y-101727572D01*
X-112905850Y-102045757D01*
X-113231269Y-102650210D01*
X-113340000Y-103004820D01*
X-113340000Y-101547967D01*
X-112272428Y-101547967D01*
X-110000000Y-103820395D01*
X-107727572Y-101547967D01*
X-108045757Y-101094150D01*
X-108650210Y-100768731D01*
X-109306535Y-100567488D01*
X-109989510Y-100498155D01*
X-110672888Y-100563395D01*
X-111330407Y-100760702D01*
X-111936799Y-101082494D01*
X-111954243Y-101094150D01*
X-112272428Y-101547967D01*
X-113340000Y-101547967D01*
X-113340000Y-89799570D01*
X-111835000Y-89799570D01*
X-111835000Y-90200430D01*
X-111756796Y-90593587D01*
X-111603393Y-90963934D01*
X-111380687Y-91297237D01*
X-111097237Y-91580687D01*
X-110763934Y-91803393D01*
X-110393587Y-91956796D01*
X-110000430Y-92035000D01*
X-109599570Y-92035000D01*
X-109206413Y-91956796D01*
X-108836066Y-91803393D01*
X-108502763Y-91580687D01*
X-108219313Y-91297237D01*
X-107996607Y-90963934D01*
X-107843204Y-90593587D01*
X-107765000Y-90200430D01*
X-107765000Y-89811881D01*
X-97910000Y-89811881D01*
X-97910000Y-90188119D01*
X-97836600Y-90557127D01*
X-97692620Y-90904724D01*
X-97483594Y-91217554D01*
X-97217554Y-91483594D01*
X-96904724Y-91692620D01*
X-96557127Y-91836600D01*
X-96188119Y-91910000D01*
X-95811881Y-91910000D01*
X-95442873Y-91836600D01*
X-95095276Y-91692620D01*
X-94782446Y-91483594D01*
X-94516406Y-91217554D01*
X-94307380Y-90904724D01*
X-94163400Y-90557127D01*
X-94090000Y-90188119D01*
X-94090000Y-89811881D01*
X-94163400Y-89442873D01*
X-94307380Y-89095276D01*
X-94516406Y-88782446D01*
X-94782446Y-88516406D01*
X-95095276Y-88307380D01*
X-95442873Y-88163400D01*
X-95811881Y-88090000D01*
X-96188119Y-88090000D01*
X-96557127Y-88163400D01*
X-96904724Y-88307380D01*
X-97217554Y-88516406D01*
X-97483594Y-88782446D01*
X-97692620Y-89095276D01*
X-97836600Y-89442873D01*
X-97910000Y-89811881D01*
X-107765000Y-89811881D01*
X-107765000Y-89799570D01*
X-107843204Y-89406413D01*
X-107996607Y-89036066D01*
X-108219313Y-88702763D01*
X-108502763Y-88419313D01*
X-108836066Y-88196607D01*
X-109206413Y-88043204D01*
X-109599570Y-87965000D01*
X-110000430Y-87965000D01*
X-110393587Y-88043204D01*
X-110763934Y-88196607D01*
X-111097237Y-88419313D01*
X-111380687Y-88702763D01*
X-111603393Y-89036066D01*
X-111756796Y-89406413D01*
X-111835000Y-89799570D01*
X-113340000Y-89799570D01*
X-113340000Y-84999570D01*
X-111835000Y-84999570D01*
X-111835000Y-85400430D01*
X-111756796Y-85793587D01*
X-111603393Y-86163934D01*
X-111380687Y-86497237D01*
X-111097237Y-86780687D01*
X-110763934Y-87003393D01*
X-110393587Y-87156796D01*
X-110000430Y-87235000D01*
X-109599570Y-87235000D01*
X-109206413Y-87156796D01*
X-108836066Y-87003393D01*
X-108502763Y-86780687D01*
X-108219313Y-86497237D01*
X-107996607Y-86163934D01*
X-107843204Y-85793587D01*
X-107765000Y-85400430D01*
X-107765000Y-84999570D01*
X-107843204Y-84606413D01*
X-107996607Y-84236066D01*
X-108219313Y-83902763D01*
X-108502763Y-83619313D01*
X-108836066Y-83396607D01*
X-109206413Y-83243204D01*
X-109599570Y-83165000D01*
X-110000430Y-83165000D01*
X-110393587Y-83243204D01*
X-110763934Y-83396607D01*
X-111097237Y-83619313D01*
X-111380687Y-83902763D01*
X-111603393Y-84236066D01*
X-111756796Y-84606413D01*
X-111835000Y-84999570D01*
X-113340000Y-84999570D01*
X-113340000Y-54799570D01*
X-111835000Y-54799570D01*
X-111835000Y-55200430D01*
X-111756796Y-55593587D01*
X-111603393Y-55963934D01*
X-111380687Y-56297237D01*
X-111097237Y-56580687D01*
X-110763934Y-56803393D01*
X-110393587Y-56956796D01*
X-110000430Y-57035000D01*
X-109599570Y-57035000D01*
X-109206413Y-56956796D01*
X-108836066Y-56803393D01*
X-108632327Y-56667259D01*
X-108632327Y-58132741D01*
X-108836066Y-57996607D01*
X-109206413Y-57843204D01*
X-109599570Y-57765000D01*
X-110000430Y-57765000D01*
X-110393587Y-57843204D01*
X-110763934Y-57996607D01*
X-111097237Y-58219313D01*
X-111380687Y-58502763D01*
X-111603393Y-58836066D01*
X-111756796Y-59206413D01*
X-111835000Y-59599570D01*
X-111835000Y-60000430D01*
X-111756796Y-60393587D01*
X-111603393Y-60763934D01*
X-111380687Y-61097237D01*
X-111097237Y-61380687D01*
X-110763934Y-61603393D01*
X-110393587Y-61756796D01*
X-110000430Y-61835000D01*
X-109599570Y-61835000D01*
X-109206413Y-61756796D01*
X-108836066Y-61603393D01*
X-108632327Y-61467259D01*
X-108632327Y-62762680D01*
X-108637818Y-62818432D01*
X-108632327Y-62874183D01*
X-108632326Y-68532741D01*
X-108836066Y-68396607D01*
X-109206413Y-68243204D01*
X-109599570Y-68165000D01*
X-110000430Y-68165000D01*
X-110393587Y-68243204D01*
X-110763934Y-68396607D01*
X-111097237Y-68619313D01*
X-111380687Y-68902763D01*
X-111603393Y-69236066D01*
X-111756796Y-69606413D01*
X-111835000Y-69999570D01*
X-111835000Y-70400430D01*
X-111756796Y-70793587D01*
X-111603393Y-71163934D01*
X-111380687Y-71497237D01*
X-111097237Y-71780687D01*
X-110763934Y-72003393D01*
X-110393587Y-72156796D01*
X-110000430Y-72235000D01*
X-109599570Y-72235000D01*
X-109206413Y-72156796D01*
X-108836066Y-72003393D01*
X-108632326Y-71867258D01*
X-108632326Y-73332742D01*
X-108836066Y-73196607D01*
X-109206413Y-73043204D01*
X-109599570Y-72965000D01*
X-110000430Y-72965000D01*
X-110393587Y-73043204D01*
X-110763934Y-73196607D01*
X-111097237Y-73419313D01*
X-111380687Y-73702763D01*
X-111603393Y-74036066D01*
X-111756796Y-74406413D01*
X-111835000Y-74799570D01*
X-111835000Y-75200430D01*
X-111756796Y-75593587D01*
X-111603393Y-75963934D01*
X-111380687Y-76297237D01*
X-111097237Y-76580687D01*
X-110763934Y-76803393D01*
X-110393587Y-76956796D01*
X-110000430Y-77035000D01*
X-109599570Y-77035000D01*
X-109206413Y-76956796D01*
X-108836066Y-76803393D01*
X-108502763Y-76580687D01*
X-108219313Y-76297237D01*
X-107996607Y-75963934D01*
X-107843204Y-75593587D01*
X-107765000Y-75200430D01*
X-107765000Y-75040131D01*
X-97913072Y-84892060D01*
X-97913072Y-86225001D01*
X-97896008Y-86398255D01*
X-97845472Y-86564851D01*
X-97763405Y-86718387D01*
X-97652962Y-86852962D01*
X-97518387Y-86963405D01*
X-97364851Y-87045472D01*
X-97198255Y-87096008D01*
X-97025001Y-87113072D01*
X-94974999Y-87113072D01*
X-94801745Y-87096008D01*
X-94635149Y-87045472D01*
X-94481613Y-86963405D01*
X-94347038Y-86852962D01*
X-94236595Y-86718387D01*
X-94154528Y-86564851D01*
X-94103992Y-86398255D01*
X-94097762Y-86335000D01*
X-89833817Y-86335000D01*
X-86656077Y-89512741D01*
X-86526556Y-89619036D01*
X-86329380Y-89724429D01*
X-86115432Y-89789330D01*
X-85892933Y-89811244D01*
X-85670435Y-89789330D01*
X-85456487Y-89724429D01*
X-85259311Y-89619036D01*
X-85086485Y-89477201D01*
X-84944650Y-89304375D01*
X-84839257Y-89107199D01*
X-84774356Y-88893251D01*
X-84752442Y-88670753D01*
X-84774356Y-88448254D01*
X-84839257Y-88234306D01*
X-84944650Y-88037130D01*
X-85050945Y-87907609D01*
X-88521690Y-84436865D01*
X-88557237Y-84393551D01*
X-88730063Y-84251716D01*
X-88927239Y-84146324D01*
X-89141187Y-84081423D01*
X-89307934Y-84065000D01*
X-89307935Y-84065000D01*
X-89363686Y-84059509D01*
X-89419437Y-84065000D01*
X-94097762Y-84065000D01*
X-94103992Y-84001745D01*
X-94154528Y-83835149D01*
X-94236595Y-83681613D01*
X-94347038Y-83547038D01*
X-94481613Y-83436595D01*
X-94635149Y-83354528D01*
X-94801745Y-83303992D01*
X-94974999Y-83286928D01*
X-96307940Y-83286928D01*
X-104782987Y-74811881D01*
X-97910000Y-74811881D01*
X-97910000Y-75188119D01*
X-97836600Y-75557127D01*
X-97692620Y-75904724D01*
X-97483594Y-76217554D01*
X-97217554Y-76483594D01*
X-96904724Y-76692620D01*
X-96557127Y-76836600D01*
X-96188119Y-76910000D01*
X-95811881Y-76910000D01*
X-95442873Y-76836600D01*
X-95095276Y-76692620D01*
X-94782446Y-76483594D01*
X-94516406Y-76217554D01*
X-94307380Y-75904724D01*
X-94163400Y-75557127D01*
X-94090000Y-75188119D01*
X-94090000Y-74811881D01*
X-94163400Y-74442873D01*
X-94307380Y-74095276D01*
X-94516406Y-73782446D01*
X-94782446Y-73516406D01*
X-95095276Y-73307380D01*
X-95442873Y-73163400D01*
X-95811881Y-73090000D01*
X-96188119Y-73090000D01*
X-96557127Y-73163400D01*
X-96904724Y-73307380D01*
X-97217554Y-73516406D01*
X-97483594Y-73782446D01*
X-97692620Y-74095276D01*
X-97836600Y-74442873D01*
X-97910000Y-74811881D01*
X-104782987Y-74811881D01*
X-106362327Y-73232542D01*
X-106362327Y-65558564D01*
X-100957746Y-70963146D01*
X-100922208Y-71006449D01*
X-100878905Y-71041987D01*
X-100878903Y-71041989D01*
X-100749382Y-71148284D01*
X-100552206Y-71253676D01*
X-100338258Y-71318577D01*
X-100115759Y-71340491D01*
X-100060007Y-71335000D01*
X-97902238Y-71335000D01*
X-97896008Y-71398255D01*
X-97845472Y-71564851D01*
X-97763405Y-71718387D01*
X-97652962Y-71852962D01*
X-97518387Y-71963405D01*
X-97364851Y-72045472D01*
X-97198255Y-72096008D01*
X-97025001Y-72113072D01*
X-94974999Y-72113072D01*
X-94801745Y-72096008D01*
X-94635149Y-72045472D01*
X-94481613Y-71963405D01*
X-94347038Y-71852962D01*
X-94236595Y-71718387D01*
X-94154528Y-71564851D01*
X-94103992Y-71398255D01*
X-94097762Y-71335000D01*
X-88579630Y-71335000D01*
X-87208628Y-72706004D01*
X-87079107Y-72812299D01*
X-86881931Y-72917691D01*
X-86667983Y-72982592D01*
X-86445484Y-73004506D01*
X-86222985Y-72982592D01*
X-86009037Y-72917691D01*
X-85811861Y-72812299D01*
X-85639035Y-72670464D01*
X-85497200Y-72497638D01*
X-85391808Y-72300462D01*
X-85326907Y-72086514D01*
X-85304993Y-71864015D01*
X-85326907Y-71641516D01*
X-85391808Y-71427568D01*
X-85497200Y-71230392D01*
X-85603495Y-71100871D01*
X-87267504Y-69436864D01*
X-87303050Y-69393551D01*
X-87475876Y-69251716D01*
X-87673052Y-69146324D01*
X-87887000Y-69081423D01*
X-88053747Y-69065000D01*
X-88053748Y-69065000D01*
X-88109499Y-69059509D01*
X-88165250Y-69065000D01*
X-94097762Y-69065000D01*
X-94103992Y-69001745D01*
X-94154528Y-68835149D01*
X-94236595Y-68681613D01*
X-94347038Y-68547038D01*
X-94481613Y-68436595D01*
X-94635149Y-68354528D01*
X-94801745Y-68303992D01*
X-94974999Y-68286928D01*
X-97025001Y-68286928D01*
X-97198255Y-68303992D01*
X-97364851Y-68354528D01*
X-97518387Y-68436595D01*
X-97652962Y-68547038D01*
X-97763405Y-68681613D01*
X-97845472Y-68835149D01*
X-97896008Y-69001745D01*
X-97902238Y-69065000D01*
X-99645626Y-69065000D01*
X-102811961Y-65898665D01*
X-75095000Y-65898665D01*
X-75095000Y-66181335D01*
X-75039853Y-66458574D01*
X-74931680Y-66719727D01*
X-74774637Y-66954759D01*
X-74574759Y-67154637D01*
X-74342241Y-67310000D01*
X-74574759Y-67465363D01*
X-74774637Y-67665241D01*
X-74931680Y-67900273D01*
X-75039853Y-68161426D01*
X-75095000Y-68438665D01*
X-75095000Y-68721335D01*
X-75039853Y-68998574D01*
X-74931680Y-69259727D01*
X-74774637Y-69494759D01*
X-74574759Y-69694637D01*
X-74342241Y-69850000D01*
X-74574759Y-70005363D01*
X-74774637Y-70205241D01*
X-74931680Y-70440273D01*
X-75039853Y-70701426D01*
X-75095000Y-70978665D01*
X-75095000Y-71261335D01*
X-75039853Y-71538574D01*
X-74931680Y-71799727D01*
X-74774637Y-72034759D01*
X-74574759Y-72234637D01*
X-74342241Y-72390000D01*
X-74574759Y-72545363D01*
X-74774637Y-72745241D01*
X-74931680Y-72980273D01*
X-75039853Y-73241426D01*
X-75095000Y-73518665D01*
X-75095000Y-73801335D01*
X-75039853Y-74078574D01*
X-74931680Y-74339727D01*
X-74774637Y-74574759D01*
X-74574759Y-74774637D01*
X-74342241Y-74930000D01*
X-74574759Y-75085363D01*
X-74774637Y-75285241D01*
X-74931680Y-75520273D01*
X-75039853Y-75781426D01*
X-75095000Y-76058665D01*
X-75095000Y-76341335D01*
X-75039853Y-76618574D01*
X-74931680Y-76879727D01*
X-74774637Y-77114759D01*
X-74574759Y-77314637D01*
X-74342241Y-77470000D01*
X-74574759Y-77625363D01*
X-74774637Y-77825241D01*
X-74931680Y-78060273D01*
X-75039853Y-78321426D01*
X-75095000Y-78598665D01*
X-75095000Y-78881335D01*
X-75039853Y-79158574D01*
X-74931680Y-79419727D01*
X-74774637Y-79654759D01*
X-74574759Y-79854637D01*
X-74342241Y-80010000D01*
X-74574759Y-80165363D01*
X-74774637Y-80365241D01*
X-74931680Y-80600273D01*
X-75039853Y-80861426D01*
X-75095000Y-81138665D01*
X-75095000Y-81421335D01*
X-75039853Y-81698574D01*
X-74931680Y-81959727D01*
X-74774637Y-82194759D01*
X-74574759Y-82394637D01*
X-74342241Y-82550000D01*
X-74574759Y-82705363D01*
X-74774637Y-82905241D01*
X-74931680Y-83140273D01*
X-75039853Y-83401426D01*
X-75095000Y-83678665D01*
X-75095000Y-83961335D01*
X-75039853Y-84238574D01*
X-74931680Y-84499727D01*
X-74774637Y-84734759D01*
X-74574759Y-84934637D01*
X-74342241Y-85090000D01*
X-74574759Y-85245363D01*
X-74774637Y-85445241D01*
X-74931680Y-85680273D01*
X-75039853Y-85941426D01*
X-75095000Y-86218665D01*
X-75095000Y-86501335D01*
X-75039853Y-86778574D01*
X-74931680Y-87039727D01*
X-74774637Y-87274759D01*
X-74574759Y-87474637D01*
X-74342241Y-87630000D01*
X-74574759Y-87785363D01*
X-74774637Y-87985241D01*
X-74931680Y-88220273D01*
X-75039853Y-88481426D01*
X-75095000Y-88758665D01*
X-75095000Y-89041335D01*
X-75039853Y-89318574D01*
X-74931680Y-89579727D01*
X-74774637Y-89814759D01*
X-74574759Y-90014637D01*
X-74342241Y-90170000D01*
X-74574759Y-90325363D01*
X-74774637Y-90525241D01*
X-74931680Y-90760273D01*
X-75039853Y-91021426D01*
X-75095000Y-91298665D01*
X-75095000Y-91581335D01*
X-75039853Y-91858574D01*
X-74931680Y-92119727D01*
X-74774637Y-92354759D01*
X-74574759Y-92554637D01*
X-74339727Y-92711680D01*
X-74078574Y-92819853D01*
X-73801335Y-92875000D01*
X-73518665Y-92875000D01*
X-73241426Y-92819853D01*
X-72980273Y-92711680D01*
X-72745241Y-92554637D01*
X-72545363Y-92354759D01*
X-72388320Y-92119727D01*
X-72280147Y-91858574D01*
X-72225000Y-91581335D01*
X-72225000Y-91298665D01*
X-72280147Y-91021426D01*
X-72388320Y-90760273D01*
X-72545363Y-90525241D01*
X-72745241Y-90325363D01*
X-72977759Y-90170000D01*
X-72745241Y-90014637D01*
X-72545363Y-89814759D01*
X-72388320Y-89579727D01*
X-72280147Y-89318574D01*
X-72225000Y-89041335D01*
X-72225000Y-88758665D01*
X-72280147Y-88481426D01*
X-72388320Y-88220273D01*
X-72545363Y-87985241D01*
X-72745241Y-87785363D01*
X-72977759Y-87630000D01*
X-72745241Y-87474637D01*
X-72545363Y-87274759D01*
X-72388320Y-87039727D01*
X-72280147Y-86778574D01*
X-72225000Y-86501335D01*
X-72225000Y-86218665D01*
X-72280147Y-85941426D01*
X-72388320Y-85680273D01*
X-72545363Y-85445241D01*
X-72745241Y-85245363D01*
X-72977759Y-85090000D01*
X-72745241Y-84934637D01*
X-72545363Y-84734759D01*
X-72388320Y-84499727D01*
X-72280147Y-84238574D01*
X-72225000Y-83961335D01*
X-72225000Y-83678665D01*
X-72280147Y-83401426D01*
X-72388320Y-83140273D01*
X-72545363Y-82905241D01*
X-72745241Y-82705363D01*
X-72977759Y-82550000D01*
X-72745241Y-82394637D01*
X-72545363Y-82194759D01*
X-72388320Y-81959727D01*
X-72280147Y-81698574D01*
X-72225000Y-81421335D01*
X-72225000Y-81138665D01*
X-72280147Y-80861426D01*
X-72388320Y-80600273D01*
X-72545363Y-80365241D01*
X-72745241Y-80165363D01*
X-72977759Y-80010000D01*
X-72745241Y-79854637D01*
X-72545363Y-79654759D01*
X-72388320Y-79419727D01*
X-72280147Y-79158574D01*
X-72225000Y-78881335D01*
X-72225000Y-78598665D01*
X-72280147Y-78321426D01*
X-72388320Y-78060273D01*
X-72545363Y-77825241D01*
X-72745241Y-77625363D01*
X-72977759Y-77470000D01*
X-72745241Y-77314637D01*
X-72545363Y-77114759D01*
X-72388320Y-76879727D01*
X-72280147Y-76618574D01*
X-72225000Y-76341335D01*
X-72225000Y-76058665D01*
X-72280147Y-75781426D01*
X-72388320Y-75520273D01*
X-72545363Y-75285241D01*
X-72745241Y-75085363D01*
X-72977759Y-74930000D01*
X-72745241Y-74774637D01*
X-72545363Y-74574759D01*
X-72388320Y-74339727D01*
X-72280147Y-74078574D01*
X-72225000Y-73801335D01*
X-72225000Y-73518665D01*
X-72280147Y-73241426D01*
X-72388320Y-72980273D01*
X-72545363Y-72745241D01*
X-72745241Y-72545363D01*
X-72977759Y-72390000D01*
X-72745241Y-72234637D01*
X-72545363Y-72034759D01*
X-72388320Y-71799727D01*
X-72280147Y-71538574D01*
X-72225000Y-71261335D01*
X-72225000Y-70978665D01*
X-72280147Y-70701426D01*
X-72388320Y-70440273D01*
X-72545363Y-70205241D01*
X-72745241Y-70005363D01*
X-72977759Y-69850000D01*
X-72745241Y-69694637D01*
X-72545363Y-69494759D01*
X-72388320Y-69259727D01*
X-72280147Y-68998574D01*
X-72225000Y-68721335D01*
X-72225000Y-68438665D01*
X-72280147Y-68161426D01*
X-72388320Y-67900273D01*
X-72545363Y-67665241D01*
X-72745241Y-67465363D01*
X-72977759Y-67310000D01*
X-72745241Y-67154637D01*
X-72545363Y-66954759D01*
X-72388320Y-66719727D01*
X-72280147Y-66458574D01*
X-72225000Y-66181335D01*
X-72225000Y-65898665D01*
X-72280147Y-65621426D01*
X-72388320Y-65360273D01*
X-72545363Y-65125241D01*
X-72745241Y-64925363D01*
X-72980273Y-64768320D01*
X-72990865Y-64763933D01*
X-72804869Y-64652385D01*
X-72596481Y-64463414D01*
X-72428963Y-64237420D01*
X-72308754Y-63983087D01*
X-72268096Y-63849039D01*
X-72390085Y-63627000D01*
X-73533000Y-63627000D01*
X-73533000Y-63647000D01*
X-73787000Y-63647000D01*
X-73787000Y-63627000D01*
X-74929915Y-63627000D01*
X-75051904Y-63849039D01*
X-75011246Y-63983087D01*
X-74891037Y-64237420D01*
X-74723519Y-64463414D01*
X-74515131Y-64652385D01*
X-74329135Y-64763933D01*
X-74339727Y-64768320D01*
X-74574759Y-64925363D01*
X-74774637Y-65125241D01*
X-74931680Y-65360273D01*
X-75039853Y-65621426D01*
X-75095000Y-65898665D01*
X-102811961Y-65898665D01*
X-106362327Y-62348301D01*
X-106362327Y-59611881D01*
X-97910000Y-59611881D01*
X-97910000Y-59988119D01*
X-97836600Y-60357127D01*
X-97692620Y-60704724D01*
X-97483594Y-61017554D01*
X-97217554Y-61283594D01*
X-96904724Y-61492620D01*
X-96557127Y-61636600D01*
X-96188119Y-61710000D01*
X-95811881Y-61710000D01*
X-95442873Y-61636600D01*
X-95095276Y-61492620D01*
X-94782446Y-61283594D01*
X-94516406Y-61017554D01*
X-94307380Y-60704724D01*
X-94163400Y-60357127D01*
X-94090000Y-59988119D01*
X-94090000Y-59611881D01*
X-94163400Y-59242873D01*
X-94307380Y-58895276D01*
X-94516406Y-58582446D01*
X-94782446Y-58316406D01*
X-95095276Y-58107380D01*
X-95442873Y-57963400D01*
X-95811881Y-57890000D01*
X-96188119Y-57890000D01*
X-96557127Y-57963400D01*
X-96904724Y-58107380D01*
X-97217554Y-58316406D01*
X-97483594Y-58582446D01*
X-97692620Y-58895276D01*
X-97836600Y-59242873D01*
X-97910000Y-59611881D01*
X-106362327Y-59611881D01*
X-106362327Y-51242804D01*
X-101841991Y-55763141D01*
X-101806449Y-55806449D01*
X-101633623Y-55948284D01*
X-101461120Y-56040488D01*
X-101436447Y-56053676D01*
X-101222499Y-56118577D01*
X-101000000Y-56140491D01*
X-100944249Y-56135000D01*
X-97902238Y-56135000D01*
X-97896008Y-56198255D01*
X-97845472Y-56364851D01*
X-97763405Y-56518387D01*
X-97652962Y-56652962D01*
X-97518387Y-56763405D01*
X-97364851Y-56845472D01*
X-97198255Y-56896008D01*
X-97025001Y-56913072D01*
X-94974999Y-56913072D01*
X-94801745Y-56896008D01*
X-94635149Y-56845472D01*
X-94481613Y-56763405D01*
X-94347038Y-56652962D01*
X-94236595Y-56518387D01*
X-94154528Y-56364851D01*
X-94103992Y-56198255D01*
X-94097762Y-56135000D01*
X-88446359Y-56135000D01*
X-87208628Y-57372732D01*
X-87079107Y-57479027D01*
X-86881931Y-57584420D01*
X-86667983Y-57649321D01*
X-86445484Y-57671235D01*
X-86222986Y-57649321D01*
X-86009038Y-57584420D01*
X-85811862Y-57479027D01*
X-85639036Y-57337192D01*
X-85497201Y-57164366D01*
X-85391808Y-56967190D01*
X-85326907Y-56753242D01*
X-85304993Y-56530744D01*
X-85326907Y-56308245D01*
X-85391808Y-56094297D01*
X-85497201Y-55897121D01*
X-85603496Y-55767600D01*
X-86291096Y-55080000D01*
X-75098072Y-55080000D01*
X-75098072Y-56680000D01*
X-75085812Y-56804482D01*
X-75049502Y-56924180D01*
X-74990537Y-57034494D01*
X-74911185Y-57131185D01*
X-74814494Y-57210537D01*
X-74704180Y-57269502D01*
X-74584482Y-57305812D01*
X-74576039Y-57306643D01*
X-74774637Y-57505241D01*
X-74931680Y-57740273D01*
X-75039853Y-58001426D01*
X-75095000Y-58278665D01*
X-75095000Y-58561335D01*
X-75039853Y-58838574D01*
X-74931680Y-59099727D01*
X-74774637Y-59334759D01*
X-74574759Y-59534637D01*
X-74342241Y-59690000D01*
X-74574759Y-59845363D01*
X-74774637Y-60045241D01*
X-74931680Y-60280273D01*
X-75039853Y-60541426D01*
X-75095000Y-60818665D01*
X-75095000Y-61101335D01*
X-75039853Y-61378574D01*
X-74931680Y-61639727D01*
X-74774637Y-61874759D01*
X-74574759Y-62074637D01*
X-74339727Y-62231680D01*
X-74329135Y-62236067D01*
X-74515131Y-62347615D01*
X-74723519Y-62536586D01*
X-74891037Y-62762580D01*
X-75011246Y-63016913D01*
X-75051904Y-63150961D01*
X-74929915Y-63373000D01*
X-73787000Y-63373000D01*
X-73787000Y-63353000D01*
X-73533000Y-63353000D01*
X-73533000Y-63373000D01*
X-72390085Y-63373000D01*
X-72268096Y-63150961D01*
X-72308754Y-63016913D01*
X-72428963Y-62762580D01*
X-72596481Y-62536586D01*
X-72804869Y-62347615D01*
X-72990865Y-62236067D01*
X-72980273Y-62231680D01*
X-72745241Y-62074637D01*
X-72545363Y-61874759D01*
X-72388320Y-61639727D01*
X-72280147Y-61378574D01*
X-72225000Y-61101335D01*
X-72225000Y-60818665D01*
X-72280147Y-60541426D01*
X-72388320Y-60280273D01*
X-72545363Y-60045241D01*
X-72745241Y-59845363D01*
X-72977759Y-59690000D01*
X-72745241Y-59534637D01*
X-72545363Y-59334759D01*
X-72388320Y-59099727D01*
X-72280147Y-58838574D01*
X-72225000Y-58561335D01*
X-72225000Y-58278665D01*
X-72280147Y-58001426D01*
X-72388320Y-57740273D01*
X-72545363Y-57505241D01*
X-72743961Y-57306643D01*
X-72735518Y-57305812D01*
X-72615820Y-57269502D01*
X-72505506Y-57210537D01*
X-72408815Y-57131185D01*
X-72329463Y-57034494D01*
X-72270498Y-56924180D01*
X-72234188Y-56804482D01*
X-72221928Y-56680000D01*
X-72221928Y-55738665D01*
X-59855000Y-55738665D01*
X-59855000Y-56021335D01*
X-59799853Y-56298574D01*
X-59691680Y-56559727D01*
X-59534637Y-56794759D01*
X-59334759Y-56994637D01*
X-59099727Y-57151680D01*
X-59089135Y-57156067D01*
X-59275131Y-57267615D01*
X-59483519Y-57456586D01*
X-59651037Y-57682580D01*
X-59771246Y-57936913D01*
X-59811904Y-58070961D01*
X-59689915Y-58293000D01*
X-58547000Y-58293000D01*
X-58547000Y-58273000D01*
X-58293000Y-58273000D01*
X-58293000Y-58293000D01*
X-57150085Y-58293000D01*
X-57028096Y-58070961D01*
X-57068754Y-57936913D01*
X-57188963Y-57682580D01*
X-57356481Y-57456586D01*
X-57564869Y-57267615D01*
X-57750865Y-57156067D01*
X-57740273Y-57151680D01*
X-57505241Y-56994637D01*
X-57305363Y-56794759D01*
X-57148320Y-56559727D01*
X-57040147Y-56298574D01*
X-56985000Y-56021335D01*
X-56985000Y-55738665D01*
X-57040147Y-55461426D01*
X-57148320Y-55200273D01*
X-57305363Y-54965241D01*
X-57458723Y-54811881D01*
X-37910000Y-54811881D01*
X-37910000Y-55188119D01*
X-37836600Y-55557127D01*
X-37692620Y-55904724D01*
X-37483594Y-56217554D01*
X-37217554Y-56483594D01*
X-36904724Y-56692620D01*
X-36557127Y-56836600D01*
X-36188119Y-56910000D01*
X-35811881Y-56910000D01*
X-35442873Y-56836600D01*
X-35095276Y-56692620D01*
X-34782446Y-56483594D01*
X-34516406Y-56217554D01*
X-34307380Y-55904724D01*
X-34163400Y-55557127D01*
X-34090000Y-55188119D01*
X-34090000Y-54811881D01*
X-34163400Y-54442873D01*
X-34307380Y-54095276D01*
X-34516406Y-53782446D01*
X-34782446Y-53516406D01*
X-35095276Y-53307380D01*
X-35442873Y-53163400D01*
X-35811881Y-53090000D01*
X-36188119Y-53090000D01*
X-36557127Y-53163400D01*
X-36904724Y-53307380D01*
X-37217554Y-53516406D01*
X-37483594Y-53782446D01*
X-37692620Y-54095276D01*
X-37836600Y-54442873D01*
X-37910000Y-54811881D01*
X-57458723Y-54811881D01*
X-57505241Y-54765363D01*
X-57740273Y-54608320D01*
X-58001426Y-54500147D01*
X-58278665Y-54445000D01*
X-58561335Y-54445000D01*
X-58838574Y-54500147D01*
X-59099727Y-54608320D01*
X-59334759Y-54765363D01*
X-59534637Y-54965241D01*
X-59691680Y-55200273D01*
X-59799853Y-55461426D01*
X-59855000Y-55738665D01*
X-72221928Y-55738665D01*
X-72221928Y-55080000D01*
X-72234188Y-54955518D01*
X-72270498Y-54835820D01*
X-72329463Y-54725506D01*
X-72408815Y-54628815D01*
X-72505506Y-54549463D01*
X-72615820Y-54490498D01*
X-72735518Y-54454188D01*
X-72860000Y-54441928D01*
X-74460000Y-54441928D01*
X-74584482Y-54454188D01*
X-74704180Y-54490498D01*
X-74814494Y-54549463D01*
X-74911185Y-54628815D01*
X-74990537Y-54725506D01*
X-75049502Y-54835820D01*
X-75085812Y-54955518D01*
X-75098072Y-55080000D01*
X-86291096Y-55080000D01*
X-87134232Y-54236865D01*
X-87169779Y-54193551D01*
X-87342605Y-54051716D01*
X-87539781Y-53946324D01*
X-87753729Y-53881423D01*
X-87920476Y-53865000D01*
X-87920477Y-53865000D01*
X-87976228Y-53859509D01*
X-88031979Y-53865000D01*
X-94097762Y-53865000D01*
X-94103992Y-53801745D01*
X-94154528Y-53635149D01*
X-94236595Y-53481613D01*
X-94347038Y-53347038D01*
X-94481613Y-53236595D01*
X-94635149Y-53154528D01*
X-94801745Y-53103992D01*
X-94974999Y-53086928D01*
X-97025001Y-53086928D01*
X-97198255Y-53103992D01*
X-97364851Y-53154528D01*
X-97518387Y-53236595D01*
X-97652962Y-53347038D01*
X-97763405Y-53481613D01*
X-97845472Y-53635149D01*
X-97896008Y-53801745D01*
X-97902238Y-53865000D01*
X-100529868Y-53865000D01*
X-106362327Y-48032542D01*
X-106362327Y-47420655D01*
X-106289964Y-47556036D01*
X-106221295Y-47721818D01*
X-106121603Y-47871017D01*
X-106037016Y-48029269D01*
X-105923180Y-48167978D01*
X-105823489Y-48317177D01*
X-105696607Y-48444059D01*
X-105582770Y-48582770D01*
X-105444059Y-48696607D01*
X-105317177Y-48823489D01*
X-105167978Y-48923180D01*
X-105029269Y-49037016D01*
X-104871017Y-49121603D01*
X-104721818Y-49221295D01*
X-104556036Y-49289964D01*
X-104397785Y-49374551D01*
X-104226072Y-49426640D01*
X-104060290Y-49495309D01*
X-103884300Y-49530316D01*
X-103712585Y-49582405D01*
X-103534006Y-49599993D01*
X-103358016Y-49635000D01*
X-30205889Y-49635000D01*
X-30060290Y-49695309D01*
X-29884290Y-49730318D01*
X-29712584Y-49782404D01*
X-29534015Y-49799992D01*
X-29358016Y-49835000D01*
X-29178572Y-49835000D01*
X-29000000Y-49852588D01*
X-28821428Y-49835000D01*
X-28641984Y-49835000D01*
X-28465985Y-49799992D01*
X-28287416Y-49782404D01*
X-28115710Y-49730318D01*
X-27939710Y-49695309D01*
X-27773923Y-49626638D01*
X-27602216Y-49574551D01*
X-27443968Y-49489966D01*
X-27278182Y-49421295D01*
X-27128982Y-49321602D01*
X-27124154Y-49319022D01*
X-35692059Y-57886928D01*
X-37025001Y-57886928D01*
X-37198255Y-57903992D01*
X-37364851Y-57954528D01*
X-37518387Y-58036595D01*
X-37652962Y-58147038D01*
X-37763405Y-58281613D01*
X-37845472Y-58435149D01*
X-37896008Y-58601745D01*
X-37902238Y-58665000D01*
X-42738290Y-58665000D01*
X-44517343Y-56885948D01*
X-44646864Y-56779653D01*
X-44844040Y-56674260D01*
X-45057988Y-56609359D01*
X-45280486Y-56587445D01*
X-45502984Y-56609359D01*
X-45716932Y-56674260D01*
X-45914108Y-56779653D01*
X-46086934Y-56921488D01*
X-46228769Y-57094314D01*
X-46334162Y-57291490D01*
X-46399063Y-57505438D01*
X-46420977Y-57727936D01*
X-46399063Y-57950434D01*
X-46334162Y-58164382D01*
X-46228769Y-58361558D01*
X-46122474Y-58491079D01*
X-44050413Y-60563141D01*
X-44014871Y-60606449D01*
X-43842045Y-60748284D01*
X-43644869Y-60853676D01*
X-43430921Y-60918577D01*
X-43208423Y-60940491D01*
X-43152671Y-60935000D01*
X-37902238Y-60935000D01*
X-37896008Y-60998255D01*
X-37845472Y-61164851D01*
X-37763405Y-61318387D01*
X-37652962Y-61452962D01*
X-37518387Y-61563405D01*
X-37364851Y-61645472D01*
X-37198255Y-61696008D01*
X-37025001Y-61713072D01*
X-34974999Y-61713072D01*
X-34801745Y-61696008D01*
X-34635149Y-61645472D01*
X-34481613Y-61563405D01*
X-34347038Y-61452962D01*
X-34236595Y-61318387D01*
X-34154528Y-61164851D01*
X-34103992Y-60998255D01*
X-34086928Y-60825001D01*
X-34086928Y-59492059D01*
X-25435001Y-50840133D01*
X-25435000Y-62829867D01*
X-35492059Y-72886928D01*
X-37025001Y-72886928D01*
X-37198255Y-72903992D01*
X-37364851Y-72954528D01*
X-37508496Y-73031308D01*
X-45520421Y-73031308D01*
X-45687168Y-73047731D01*
X-45901116Y-73112632D01*
X-46098292Y-73218024D01*
X-46271118Y-73359859D01*
X-46412953Y-73532685D01*
X-46518345Y-73729861D01*
X-46583246Y-73943809D01*
X-46605160Y-74166308D01*
X-46583246Y-74388807D01*
X-46518345Y-74602755D01*
X-46412953Y-74799931D01*
X-46271118Y-74972757D01*
X-46098292Y-75114592D01*
X-45901116Y-75219984D01*
X-45687168Y-75284885D01*
X-45520421Y-75301308D01*
X-37913072Y-75301308D01*
X-37913072Y-75825001D01*
X-37896008Y-75998255D01*
X-37845472Y-76164851D01*
X-37763405Y-76318387D01*
X-37652962Y-76452962D01*
X-37518387Y-76563405D01*
X-37364851Y-76645472D01*
X-37198255Y-76696008D01*
X-37025001Y-76713072D01*
X-34974999Y-76713072D01*
X-34801745Y-76696008D01*
X-34635149Y-76645472D01*
X-34481613Y-76563405D01*
X-34347038Y-76452962D01*
X-34236595Y-76318387D01*
X-34154528Y-76164851D01*
X-34103992Y-75998255D01*
X-34086928Y-75825001D01*
X-34086928Y-74692059D01*
X-25435001Y-66040133D01*
X-25435000Y-77829868D01*
X-35692059Y-88086928D01*
X-37025001Y-88086928D01*
X-37198255Y-88103992D01*
X-37364851Y-88154528D01*
X-37518387Y-88236595D01*
X-37652962Y-88347038D01*
X-37763405Y-88481613D01*
X-37845472Y-88635149D01*
X-37896008Y-88801745D01*
X-37913072Y-88974999D01*
X-37913072Y-89377588D01*
X-45520421Y-89377588D01*
X-45687168Y-89394011D01*
X-45901116Y-89458912D01*
X-46098292Y-89564304D01*
X-46271118Y-89706139D01*
X-46412953Y-89878965D01*
X-46518345Y-90076141D01*
X-46583246Y-90290089D01*
X-46605160Y-90512588D01*
X-46583246Y-90735087D01*
X-46518345Y-90949035D01*
X-46412953Y-91146211D01*
X-46271118Y-91319037D01*
X-46098292Y-91460872D01*
X-45901116Y-91566264D01*
X-45687168Y-91631165D01*
X-45520421Y-91647588D01*
X-37657372Y-91647588D01*
X-37652962Y-91652962D01*
X-37518387Y-91763405D01*
X-37364851Y-91845472D01*
X-37198255Y-91896008D01*
X-37025001Y-91913072D01*
X-34974999Y-91913072D01*
X-34801745Y-91896008D01*
X-34635149Y-91845472D01*
X-34481613Y-91763405D01*
X-34347038Y-91652962D01*
X-34236595Y-91518387D01*
X-34154528Y-91364851D01*
X-34103992Y-91198255D01*
X-34086928Y-91025001D01*
X-34086928Y-89799570D01*
X-24235000Y-89799570D01*
X-24235000Y-90200430D01*
X-24156796Y-90593587D01*
X-24003393Y-90963934D01*
X-23780687Y-91297237D01*
X-23497237Y-91580687D01*
X-23163934Y-91803393D01*
X-22793587Y-91956796D01*
X-22400430Y-92035000D01*
X-21999570Y-92035000D01*
X-21606413Y-91956796D01*
X-21236066Y-91803393D01*
X-20902763Y-91580687D01*
X-20619313Y-91297237D01*
X-20396607Y-90963934D01*
X-20243204Y-90593587D01*
X-20165000Y-90200430D01*
X-20165000Y-89799570D01*
X-20243204Y-89406413D01*
X-20396607Y-89036066D01*
X-20619313Y-88702763D01*
X-20902763Y-88419313D01*
X-21236066Y-88196607D01*
X-21606413Y-88043204D01*
X-21999570Y-87965000D01*
X-22400430Y-87965000D01*
X-22793587Y-88043204D01*
X-23163934Y-88196607D01*
X-23497237Y-88419313D01*
X-23780687Y-88702763D01*
X-24003393Y-89036066D01*
X-24156796Y-89406413D01*
X-24235000Y-89799570D01*
X-34086928Y-89799570D01*
X-34086928Y-89692059D01*
X-29394439Y-84999570D01*
X-24235000Y-84999570D01*
X-24235000Y-85400430D01*
X-24156796Y-85793587D01*
X-24003393Y-86163934D01*
X-23780687Y-86497237D01*
X-23497237Y-86780687D01*
X-23163934Y-87003393D01*
X-22793587Y-87156796D01*
X-22400430Y-87235000D01*
X-21999570Y-87235000D01*
X-21606413Y-87156796D01*
X-21236066Y-87003393D01*
X-20902763Y-86780687D01*
X-20619313Y-86497237D01*
X-20396607Y-86163934D01*
X-20243204Y-85793587D01*
X-20165000Y-85400430D01*
X-20165000Y-84999570D01*
X-20243204Y-84606413D01*
X-20396607Y-84236066D01*
X-20619313Y-83902763D01*
X-20902763Y-83619313D01*
X-21236066Y-83396607D01*
X-21606413Y-83243204D01*
X-21999570Y-83165000D01*
X-22400430Y-83165000D01*
X-22793587Y-83243204D01*
X-23163934Y-83396607D01*
X-23497237Y-83619313D01*
X-23780687Y-83902763D01*
X-24003393Y-84236066D01*
X-24156796Y-84606413D01*
X-24235000Y-84999570D01*
X-29394439Y-84999570D01*
X-23536860Y-79141992D01*
X-23493552Y-79106450D01*
X-23351717Y-78933624D01*
X-23246325Y-78736448D01*
X-23181424Y-78522500D01*
X-23165001Y-78355753D01*
X-23165001Y-78355744D01*
X-23159511Y-78300002D01*
X-23165001Y-78244260D01*
X-23165001Y-76602680D01*
X-23163934Y-76603393D01*
X-22793587Y-76756796D01*
X-22400430Y-76835000D01*
X-21999570Y-76835000D01*
X-21606413Y-76756796D01*
X-21236066Y-76603393D01*
X-20902763Y-76380687D01*
X-20619313Y-76097237D01*
X-20396607Y-75763934D01*
X-20243204Y-75393587D01*
X-20165000Y-75000430D01*
X-20165000Y-74599570D01*
X-20243204Y-74206413D01*
X-20396607Y-73836066D01*
X-20619313Y-73502763D01*
X-20902763Y-73219313D01*
X-21236066Y-72996607D01*
X-21606413Y-72843204D01*
X-21999570Y-72765000D01*
X-22400430Y-72765000D01*
X-22793587Y-72843204D01*
X-23163934Y-72996607D01*
X-23165001Y-72997320D01*
X-23165001Y-71802680D01*
X-23163934Y-71803393D01*
X-22793587Y-71956796D01*
X-22400430Y-72035000D01*
X-21999570Y-72035000D01*
X-21606413Y-71956796D01*
X-21236066Y-71803393D01*
X-20902763Y-71580687D01*
X-20619313Y-71297237D01*
X-20396607Y-70963934D01*
X-20243204Y-70593587D01*
X-20165000Y-70200430D01*
X-20165000Y-69799570D01*
X-20243204Y-69406413D01*
X-20396607Y-69036066D01*
X-20619313Y-68702763D01*
X-20902763Y-68419313D01*
X-21236066Y-68196607D01*
X-21606413Y-68043204D01*
X-21999570Y-67965000D01*
X-22400430Y-67965000D01*
X-22793587Y-68043204D01*
X-23163934Y-68196607D01*
X-23165001Y-68197320D01*
X-23165001Y-63355753D01*
X-23159510Y-63300001D01*
X-23165001Y-63244249D01*
X-23165001Y-61602680D01*
X-23163934Y-61603393D01*
X-22793587Y-61756796D01*
X-22400430Y-61835000D01*
X-21999570Y-61835000D01*
X-21606413Y-61756796D01*
X-21236066Y-61603393D01*
X-20902763Y-61380687D01*
X-20619313Y-61097237D01*
X-20396607Y-60763934D01*
X-20243204Y-60393587D01*
X-20165000Y-60000430D01*
X-20165000Y-59599570D01*
X-20243204Y-59206413D01*
X-20396607Y-58836066D01*
X-20619313Y-58502763D01*
X-20902763Y-58219313D01*
X-21236066Y-57996607D01*
X-21606413Y-57843204D01*
X-21999570Y-57765000D01*
X-22400430Y-57765000D01*
X-22793587Y-57843204D01*
X-23163934Y-57996607D01*
X-23165001Y-57997320D01*
X-23165001Y-56802680D01*
X-23163934Y-56803393D01*
X-22793587Y-56956796D01*
X-22400430Y-57035000D01*
X-21999570Y-57035000D01*
X-21606413Y-56956796D01*
X-21236066Y-56803393D01*
X-20902763Y-56580687D01*
X-20619313Y-56297237D01*
X-20396607Y-55963934D01*
X-20243204Y-55593587D01*
X-20165000Y-55200430D01*
X-20165000Y-54799570D01*
X-20243204Y-54406413D01*
X-20396607Y-54036066D01*
X-20619313Y-53702763D01*
X-20902763Y-53419313D01*
X-21236066Y-53196607D01*
X-21606413Y-53043204D01*
X-21999570Y-52965000D01*
X-22400430Y-52965000D01*
X-22793587Y-53043204D01*
X-23163934Y-53196607D01*
X-23165001Y-53197320D01*
X-23165001Y-48155744D01*
X-23159511Y-48100002D01*
X-23165001Y-48044260D01*
X-23165001Y-43755740D01*
X-23159511Y-43699998D01*
X-23165001Y-43644256D01*
X-23165001Y-43644247D01*
X-23181424Y-43477500D01*
X-23246325Y-43263552D01*
X-23351717Y-43066376D01*
X-23493552Y-42893550D01*
X-23536860Y-42858008D01*
X-25420406Y-40974463D01*
X-25403010Y-40917117D01*
X-25361928Y-40500000D01*
X-25361928Y-39147382D01*
X-25347412Y-39000000D01*
X-25361928Y-38852618D01*
X-25361928Y-37500000D01*
X-25366652Y-37452033D01*
X-24272428Y-37452033D01*
X-23954243Y-37905850D01*
X-23349790Y-38231269D01*
X-22693465Y-38432512D01*
X-22010490Y-38501845D01*
X-21327112Y-38436605D01*
X-20669593Y-38239298D01*
X-20063201Y-37917506D01*
X-20045757Y-37905850D01*
X-19727572Y-37452033D01*
X-22000000Y-35179605D01*
X-24272428Y-37452033D01*
X-25366652Y-37452033D01*
X-25403010Y-37082883D01*
X-25524679Y-36681795D01*
X-25722258Y-36312151D01*
X-25988155Y-35988155D01*
X-26312151Y-35722258D01*
X-26681795Y-35524679D01*
X-27082883Y-35403010D01*
X-27500000Y-35361928D01*
X-28011615Y-35361928D01*
X-28487415Y-35217595D01*
X-29021425Y-35165000D01*
X-29021428Y-35165000D01*
X-29200000Y-35147412D01*
X-29378572Y-35165000D01*
X-64468809Y-35165000D01*
X-64500000Y-35161928D01*
X-67500000Y-35161928D01*
X-67531191Y-35165000D01*
X-101468809Y-35165000D01*
X-101500000Y-35161928D01*
X-104500000Y-35161928D01*
X-104917117Y-35203010D01*
X-105318205Y-35324679D01*
X-105687849Y-35522258D01*
X-106011845Y-35788155D01*
X-106277742Y-36112151D01*
X-106475321Y-36481795D01*
X-106596990Y-36882883D01*
X-106638072Y-37300000D01*
X-106638072Y-38652616D01*
X-106652588Y-38800000D01*
X-106638072Y-38947384D01*
X-106638072Y-40300000D01*
X-106596990Y-40717117D01*
X-106579594Y-40774463D01*
X-108260467Y-42455336D01*
X-108303775Y-42490878D01*
X-108445610Y-42663704D01*
X-108501943Y-42769097D01*
X-108551003Y-42860881D01*
X-108615904Y-43074829D01*
X-108637818Y-43297327D01*
X-108632326Y-43353088D01*
X-108632327Y-48446921D01*
X-108637818Y-48502673D01*
X-108632327Y-48558424D01*
X-108632326Y-48558434D01*
X-108632326Y-53332742D01*
X-108836066Y-53196607D01*
X-109206413Y-53043204D01*
X-109599570Y-52965000D01*
X-110000430Y-52965000D01*
X-110393587Y-53043204D01*
X-110763934Y-53196607D01*
X-111097237Y-53419313D01*
X-111380687Y-53702763D01*
X-111603393Y-54036066D01*
X-111756796Y-54406413D01*
X-111835000Y-54799570D01*
X-113340000Y-54799570D01*
X-113340000Y-37452033D01*
X-112272428Y-37452033D01*
X-111954243Y-37905850D01*
X-111349790Y-38231269D01*
X-110693465Y-38432512D01*
X-110010490Y-38501845D01*
X-109327112Y-38436605D01*
X-108669593Y-38239298D01*
X-108063201Y-37917506D01*
X-108045757Y-37905850D01*
X-107727572Y-37452033D01*
X-110000000Y-35179605D01*
X-112272428Y-37452033D01*
X-113340000Y-37452033D01*
X-113340000Y-35994821D01*
X-113239298Y-36330407D01*
X-112917506Y-36936799D01*
X-112905850Y-36954243D01*
X-112452033Y-37272428D01*
X-110179605Y-35000000D01*
X-109820395Y-35000000D01*
X-107547967Y-37272428D01*
X-107094150Y-36954243D01*
X-106768731Y-36349790D01*
X-106567488Y-35693465D01*
X-106498155Y-35010490D01*
X-106500157Y-34989510D01*
X-25501845Y-34989510D01*
X-25436605Y-35672888D01*
X-25239298Y-36330407D01*
X-24917506Y-36936799D01*
X-24905850Y-36954243D01*
X-24452033Y-37272428D01*
X-22179605Y-35000000D01*
X-24452033Y-32727572D01*
X-24905850Y-33045757D01*
X-25231269Y-33650210D01*
X-25432512Y-34306535D01*
X-25501845Y-34989510D01*
X-106500157Y-34989510D01*
X-106563395Y-34327112D01*
X-106760702Y-33669593D01*
X-107082494Y-33063201D01*
X-107094150Y-33045757D01*
X-107547967Y-32727572D01*
X-109820395Y-35000000D01*
X-110179605Y-35000000D01*
X-110193748Y-34985858D01*
X-110014143Y-34806253D01*
X-110000000Y-34820395D01*
X-107727572Y-32547967D01*
X-108045757Y-32094150D01*
X-108650210Y-31768731D01*
X-109004820Y-31660000D01*
X-22994821Y-31660000D01*
X-23330407Y-31760702D01*
G37*
G04 #@! TD.AperFunction*
M02*
