M48
; DRILL file {KiCad (5.1.9)-1} date 06/08/21 18:40:03
; FORMAT={3:3/ absolute / metric / suppress leading zeros}
; #@! TF.CreationDate,2021-06-08T18:40:03+01:00
; #@! TF.GenerationSoftware,Kicad,Pcbnew,(5.1.9)-1
FMAT,2
METRIC,TZ
T1C0.400
T2C1.000
T3C1.550
T4C3.200
T5C4.500
T6C2.800
%
G90
G05
T1
X-86445Y-56531
X-86445Y-71864
X-85893Y-88671
X-45465Y-74166
X-45465Y-90513
X-45280Y-57728
T2
X-81280Y-102235
X-78740Y-102235
X-76200Y-102235
X-73660Y-55880
X-73660Y-58420
X-73660Y-60960
X-73660Y-63500
X-73660Y-66040
X-73660Y-68580
X-73660Y-71120
X-73660Y-73660
X-73660Y-76200
X-73660Y-78740
X-73660Y-81280
X-73660Y-83820
X-73660Y-86360
X-73660Y-88900
X-73660Y-91440
X-68455Y-102235
X-65915Y-102235
X-63375Y-102235
X-58420Y-55880
X-58420Y-58420
X-58420Y-60960
X-58420Y-63500
X-58420Y-66040
X-58420Y-68580
X-58420Y-71120
X-58420Y-73660
X-58420Y-76200
X-58420Y-78740
X-58420Y-81280
X-58420Y-83820
X-58420Y-86360
X-58420Y-88900
X-58420Y-91440
X-55880Y-102235
X-53340Y-102235
X-50800Y-102235
T3
X-96000Y-55000
X-96000Y-59800
X-96000Y-70200
X-96000Y-75000
X-96000Y-85200
X-96000Y-90000
X-36000Y-55000
X-36000Y-59800
X-36000Y-70000
X-36000Y-74800
X-36000Y-85200
X-36000Y-90000
T4
X-110000Y-35000
X-110000Y-104000
X-22000Y-35000
X-22000Y-104000
T5
X-103000Y-38800
X-103000Y-46000
X-66000Y-38800
X-66000Y-46000
X-29000Y-39000
X-29000Y-46200
T6
X-109800Y-55000
X-109800Y-59800
X-109800Y-70200
X-109800Y-75000
X-109800Y-85200
X-109800Y-90000
X-22200Y-55000
X-22200Y-59800
X-22200Y-70000
X-22200Y-74800
X-22200Y-85200
X-22200Y-90000
T0
M30
