G04 #@! TF.GenerationSoftware,KiCad,Pcbnew,(5.1.9)-1*
G04 #@! TF.CreationDate,2021-06-08T18:40:06+01:00*
G04 #@! TF.ProjectId,BrushlessPlatform V1 - SMD,42727573-686c-4657-9373-506c6174666f,rev?*
G04 #@! TF.SameCoordinates,Original*
G04 #@! TF.FileFunction,Soldermask,Top*
G04 #@! TF.FilePolarity,Negative*
%FSLAX46Y46*%
G04 Gerber Fmt 4.6, Leading zero omitted, Abs format (unit mm)*
G04 Created by KiCad (PCBNEW (5.1.9)-1) date 2021-06-08 18:40:06*
%MOMM*%
%LPD*%
G01*
G04 APERTURE LIST*
%ADD10C,2.800000*%
%ADD11C,2.550000*%
%ADD12C,6.000000*%
%ADD13C,5.700000*%
%ADD14O,1.600000X1.600000*%
%ADD15R,1.600000X1.600000*%
%ADD16R,2.500000X1.800000*%
%ADD17R,1.500000X0.600000*%
%ADD18R,0.900000X0.800000*%
%ADD19R,1.500000X1.000000*%
%ADD20O,1.700000X1.700000*%
%ADD21R,1.700000X1.700000*%
G04 APERTURE END LIST*
D10*
X-109800000Y-59800000D03*
X-109800000Y-55000000D03*
D11*
X-96000000Y-59800000D03*
G36*
G01*
X-97025001Y-53725000D02*
X-94974999Y-53725000D01*
G75*
G02*
X-94725000Y-53974999I0J-249999D01*
G01*
X-94725000Y-56025001D01*
G75*
G02*
X-94974999Y-56275000I-249999J0D01*
G01*
X-97025001Y-56275000D01*
G75*
G02*
X-97275000Y-56025001I0J249999D01*
G01*
X-97275000Y-53974999D01*
G75*
G02*
X-97025001Y-53725000I249999J0D01*
G01*
G37*
G36*
G01*
X-30500000Y-36000000D02*
X-27500000Y-36000000D01*
G75*
G02*
X-26000000Y-37500000I0J-1500000D01*
G01*
X-26000000Y-40500000D01*
G75*
G02*
X-27500000Y-42000000I-1500000J0D01*
G01*
X-30500000Y-42000000D01*
G75*
G02*
X-32000000Y-40500000I0J1500000D01*
G01*
X-32000000Y-37500000D01*
G75*
G02*
X-30500000Y-36000000I1500000J0D01*
G01*
G37*
D12*
X-29000000Y-46200000D03*
G36*
G01*
X-104500000Y-35800000D02*
X-101500000Y-35800000D01*
G75*
G02*
X-100000000Y-37300000I0J-1500000D01*
G01*
X-100000000Y-40300000D01*
G75*
G02*
X-101500000Y-41800000I-1500000J0D01*
G01*
X-104500000Y-41800000D01*
G75*
G02*
X-106000000Y-40300000I0J1500000D01*
G01*
X-106000000Y-37300000D01*
G75*
G02*
X-104500000Y-35800000I1500000J0D01*
G01*
G37*
X-103000000Y-46000000D03*
G36*
G01*
X-67500000Y-35800000D02*
X-64500000Y-35800000D01*
G75*
G02*
X-63000000Y-37300000I0J-1500000D01*
G01*
X-63000000Y-40300000D01*
G75*
G02*
X-64500000Y-41800000I-1500000J0D01*
G01*
X-67500000Y-41800000D01*
G75*
G02*
X-69000000Y-40300000I0J1500000D01*
G01*
X-69000000Y-37300000D01*
G75*
G02*
X-67500000Y-35800000I1500000J0D01*
G01*
G37*
X-66000000Y-46000000D03*
D13*
X-110000000Y-104000000D03*
X-110000000Y-35000000D03*
D14*
X-58420000Y-91440000D03*
X-73660000Y-91440000D03*
X-58420000Y-55880000D03*
X-73660000Y-88900000D03*
X-58420000Y-58420000D03*
X-73660000Y-86360000D03*
X-58420000Y-60960000D03*
X-73660000Y-83820000D03*
X-58420000Y-63500000D03*
X-73660000Y-81280000D03*
X-58420000Y-66040000D03*
X-73660000Y-78740000D03*
X-58420000Y-68580000D03*
X-73660000Y-76200000D03*
X-58420000Y-71120000D03*
X-73660000Y-73660000D03*
X-58420000Y-73660000D03*
X-73660000Y-71120000D03*
X-58420000Y-76200000D03*
X-73660000Y-68580000D03*
X-58420000Y-78740000D03*
X-73660000Y-66040000D03*
X-58420000Y-81280000D03*
X-73660000Y-63500000D03*
X-58420000Y-83820000D03*
X-73660000Y-60960000D03*
X-58420000Y-86360000D03*
X-73660000Y-58420000D03*
X-58420000Y-88900000D03*
D15*
X-73660000Y-55880000D03*
D10*
X-109800000Y-90000000D03*
X-109800000Y-85200000D03*
D11*
X-96000000Y-90000000D03*
G36*
G01*
X-97025001Y-83925000D02*
X-94974999Y-83925000D01*
G75*
G02*
X-94725000Y-84174999I0J-249999D01*
G01*
X-94725000Y-86225001D01*
G75*
G02*
X-94974999Y-86475000I-249999J0D01*
G01*
X-97025001Y-86475000D01*
G75*
G02*
X-97275000Y-86225001I0J249999D01*
G01*
X-97275000Y-84174999D01*
G75*
G02*
X-97025001Y-83925000I249999J0D01*
G01*
G37*
D10*
X-109800000Y-75000000D03*
X-109800000Y-70200000D03*
D11*
X-96000000Y-75000000D03*
G36*
G01*
X-97025001Y-68925000D02*
X-94974999Y-68925000D01*
G75*
G02*
X-94725000Y-69174999I0J-249999D01*
G01*
X-94725000Y-71225001D01*
G75*
G02*
X-94974999Y-71475000I-249999J0D01*
G01*
X-97025001Y-71475000D01*
G75*
G02*
X-97275000Y-71225001I0J249999D01*
G01*
X-97275000Y-69174999D01*
G75*
G02*
X-97025001Y-68925000I249999J0D01*
G01*
G37*
D10*
X-22200000Y-85200000D03*
X-22200000Y-90000000D03*
D11*
X-36000000Y-85200000D03*
G36*
G01*
X-34974999Y-91275000D02*
X-37025001Y-91275000D01*
G75*
G02*
X-37275000Y-91025001I0J249999D01*
G01*
X-37275000Y-88974999D01*
G75*
G02*
X-37025001Y-88725000I249999J0D01*
G01*
X-34974999Y-88725000D01*
G75*
G02*
X-34725000Y-88974999I0J-249999D01*
G01*
X-34725000Y-91025001D01*
G75*
G02*
X-34974999Y-91275000I-249999J0D01*
G01*
G37*
D10*
X-22200000Y-70000000D03*
X-22200000Y-74800000D03*
D11*
X-36000000Y-70000000D03*
G36*
G01*
X-34974999Y-76075000D02*
X-37025001Y-76075000D01*
G75*
G02*
X-37275000Y-75825001I0J249999D01*
G01*
X-37275000Y-73774999D01*
G75*
G02*
X-37025001Y-73525000I249999J0D01*
G01*
X-34974999Y-73525000D01*
G75*
G02*
X-34725000Y-73774999I0J-249999D01*
G01*
X-34725000Y-75825001D01*
G75*
G02*
X-34974999Y-76075000I-249999J0D01*
G01*
G37*
D10*
X-22200000Y-55000000D03*
X-22200000Y-59800000D03*
D11*
X-36000000Y-55000000D03*
G36*
G01*
X-34974999Y-61075000D02*
X-37025001Y-61075000D01*
G75*
G02*
X-37275000Y-60825001I0J249999D01*
G01*
X-37275000Y-58774999D01*
G75*
G02*
X-37025001Y-58525000I249999J0D01*
G01*
X-34974999Y-58525000D01*
G75*
G02*
X-34725000Y-58774999I0J-249999D01*
G01*
X-34725000Y-60825001D01*
G75*
G02*
X-34974999Y-61075000I-249999J0D01*
G01*
G37*
D13*
X-22000000Y-35000000D03*
X-22000000Y-104000000D03*
D16*
X-88676000Y-93218000D03*
X-84676000Y-93218000D03*
X-88930000Y-76454000D03*
X-84930000Y-76454000D03*
X-88930000Y-60960000D03*
X-84930000Y-60960000D03*
X-43036000Y-86122000D03*
X-47036000Y-86122000D03*
X-43036000Y-69612000D03*
X-47036000Y-69612000D03*
D17*
X-85279000Y-89916000D03*
X-85279000Y-87376000D03*
X-78929000Y-87376000D03*
X-78929000Y-89916000D03*
X-85533000Y-73152000D03*
X-85533000Y-70612000D03*
X-79183000Y-70612000D03*
X-79183000Y-73152000D03*
X-85533000Y-57658000D03*
X-85533000Y-55118000D03*
X-79183000Y-55118000D03*
X-79183000Y-57658000D03*
X-46433000Y-89424000D03*
X-46433000Y-91964000D03*
X-52783000Y-91964000D03*
X-52783000Y-89424000D03*
X-46433000Y-72914000D03*
X-46433000Y-75454000D03*
X-52783000Y-75454000D03*
X-52783000Y-72914000D03*
X-46306000Y-56404000D03*
X-46306000Y-58944000D03*
X-52656000Y-58944000D03*
X-52656000Y-56404000D03*
G36*
G01*
X-84157000Y-85365000D02*
X-84157000Y-84815000D01*
G75*
G02*
X-83957000Y-84615000I200000J0D01*
G01*
X-83557000Y-84615000D01*
G75*
G02*
X-83357000Y-84815000I0J-200000D01*
G01*
X-83357000Y-85365000D01*
G75*
G02*
X-83557000Y-85565000I-200000J0D01*
G01*
X-83957000Y-85565000D01*
G75*
G02*
X-84157000Y-85365000I0J200000D01*
G01*
G37*
G36*
G01*
X-85807000Y-85365000D02*
X-85807000Y-84815000D01*
G75*
G02*
X-85607000Y-84615000I200000J0D01*
G01*
X-85207000Y-84615000D01*
G75*
G02*
X-85007000Y-84815000I0J-200000D01*
G01*
X-85007000Y-85365000D01*
G75*
G02*
X-85207000Y-85565000I-200000J0D01*
G01*
X-85607000Y-85565000D01*
G75*
G02*
X-85807000Y-85365000I0J200000D01*
G01*
G37*
G36*
G01*
X-84473000Y-68601000D02*
X-84473000Y-68051000D01*
G75*
G02*
X-84273000Y-67851000I200000J0D01*
G01*
X-83873000Y-67851000D01*
G75*
G02*
X-83673000Y-68051000I0J-200000D01*
G01*
X-83673000Y-68601000D01*
G75*
G02*
X-83873000Y-68801000I-200000J0D01*
G01*
X-84273000Y-68801000D01*
G75*
G02*
X-84473000Y-68601000I0J200000D01*
G01*
G37*
G36*
G01*
X-86123000Y-68601000D02*
X-86123000Y-68051000D01*
G75*
G02*
X-85923000Y-67851000I200000J0D01*
G01*
X-85523000Y-67851000D01*
G75*
G02*
X-85323000Y-68051000I0J-200000D01*
G01*
X-85323000Y-68601000D01*
G75*
G02*
X-85523000Y-68801000I-200000J0D01*
G01*
X-85923000Y-68801000D01*
G75*
G02*
X-86123000Y-68601000I0J200000D01*
G01*
G37*
G36*
G01*
X-84473000Y-53107000D02*
X-84473000Y-52557000D01*
G75*
G02*
X-84273000Y-52357000I200000J0D01*
G01*
X-83873000Y-52357000D01*
G75*
G02*
X-83673000Y-52557000I0J-200000D01*
G01*
X-83673000Y-53107000D01*
G75*
G02*
X-83873000Y-53307000I-200000J0D01*
G01*
X-84273000Y-53307000D01*
G75*
G02*
X-84473000Y-53107000I0J200000D01*
G01*
G37*
G36*
G01*
X-86123000Y-53107000D02*
X-86123000Y-52557000D01*
G75*
G02*
X-85923000Y-52357000I200000J0D01*
G01*
X-85523000Y-52357000D01*
G75*
G02*
X-85323000Y-52557000I0J-200000D01*
G01*
X-85323000Y-53107000D01*
G75*
G02*
X-85523000Y-53307000I-200000J0D01*
G01*
X-85923000Y-53307000D01*
G75*
G02*
X-86123000Y-53107000I0J200000D01*
G01*
G37*
G36*
G01*
X-47493000Y-93975000D02*
X-47493000Y-94525000D01*
G75*
G02*
X-47693000Y-94725000I-200000J0D01*
G01*
X-48093000Y-94725000D01*
G75*
G02*
X-48293000Y-94525000I0J200000D01*
G01*
X-48293000Y-93975000D01*
G75*
G02*
X-48093000Y-93775000I200000J0D01*
G01*
X-47693000Y-93775000D01*
G75*
G02*
X-47493000Y-93975000I0J-200000D01*
G01*
G37*
G36*
G01*
X-45843000Y-93975000D02*
X-45843000Y-94525000D01*
G75*
G02*
X-46043000Y-94725000I-200000J0D01*
G01*
X-46443000Y-94725000D01*
G75*
G02*
X-46643000Y-94525000I0J200000D01*
G01*
X-46643000Y-93975000D01*
G75*
G02*
X-46443000Y-93775000I200000J0D01*
G01*
X-46043000Y-93775000D01*
G75*
G02*
X-45843000Y-93975000I0J-200000D01*
G01*
G37*
G36*
G01*
X-47493000Y-77465000D02*
X-47493000Y-78015000D01*
G75*
G02*
X-47693000Y-78215000I-200000J0D01*
G01*
X-48093000Y-78215000D01*
G75*
G02*
X-48293000Y-78015000I0J200000D01*
G01*
X-48293000Y-77465000D01*
G75*
G02*
X-48093000Y-77265000I200000J0D01*
G01*
X-47693000Y-77265000D01*
G75*
G02*
X-47493000Y-77465000I0J-200000D01*
G01*
G37*
G36*
G01*
X-45843000Y-77465000D02*
X-45843000Y-78015000D01*
G75*
G02*
X-46043000Y-78215000I-200000J0D01*
G01*
X-46443000Y-78215000D01*
G75*
G02*
X-46643000Y-78015000I0J200000D01*
G01*
X-46643000Y-77465000D01*
G75*
G02*
X-46443000Y-77265000I200000J0D01*
G01*
X-46043000Y-77265000D01*
G75*
G02*
X-45843000Y-77465000I0J-200000D01*
G01*
G37*
G36*
G01*
X-47239000Y-60955000D02*
X-47239000Y-61505000D01*
G75*
G02*
X-47439000Y-61705000I-200000J0D01*
G01*
X-47839000Y-61705000D01*
G75*
G02*
X-48039000Y-61505000I0J200000D01*
G01*
X-48039000Y-60955000D01*
G75*
G02*
X-47839000Y-60755000I200000J0D01*
G01*
X-47439000Y-60755000D01*
G75*
G02*
X-47239000Y-60955000I0J-200000D01*
G01*
G37*
G36*
G01*
X-45589000Y-60955000D02*
X-45589000Y-61505000D01*
G75*
G02*
X-45789000Y-61705000I-200000J0D01*
G01*
X-46189000Y-61705000D01*
G75*
G02*
X-46389000Y-61505000I0J200000D01*
G01*
X-46389000Y-60955000D01*
G75*
G02*
X-46189000Y-60755000I200000J0D01*
G01*
X-45789000Y-60755000D01*
G75*
G02*
X-45589000Y-60955000I0J-200000D01*
G01*
G37*
G36*
G01*
X-79989000Y-91927000D02*
X-79989000Y-92477000D01*
G75*
G02*
X-80189000Y-92677000I-200000J0D01*
G01*
X-80589000Y-92677000D01*
G75*
G02*
X-80789000Y-92477000I0J200000D01*
G01*
X-80789000Y-91927000D01*
G75*
G02*
X-80589000Y-91727000I200000J0D01*
G01*
X-80189000Y-91727000D01*
G75*
G02*
X-79989000Y-91927000I0J-200000D01*
G01*
G37*
G36*
G01*
X-78339000Y-91927000D02*
X-78339000Y-92477000D01*
G75*
G02*
X-78539000Y-92677000I-200000J0D01*
G01*
X-78939000Y-92677000D01*
G75*
G02*
X-79139000Y-92477000I0J200000D01*
G01*
X-79139000Y-91927000D01*
G75*
G02*
X-78939000Y-91727000I200000J0D01*
G01*
X-78539000Y-91727000D01*
G75*
G02*
X-78339000Y-91927000I0J-200000D01*
G01*
G37*
G36*
G01*
X-80243000Y-75163000D02*
X-80243000Y-75713000D01*
G75*
G02*
X-80443000Y-75913000I-200000J0D01*
G01*
X-80843000Y-75913000D01*
G75*
G02*
X-81043000Y-75713000I0J200000D01*
G01*
X-81043000Y-75163000D01*
G75*
G02*
X-80843000Y-74963000I200000J0D01*
G01*
X-80443000Y-74963000D01*
G75*
G02*
X-80243000Y-75163000I0J-200000D01*
G01*
G37*
G36*
G01*
X-78593000Y-75163000D02*
X-78593000Y-75713000D01*
G75*
G02*
X-78793000Y-75913000I-200000J0D01*
G01*
X-79193000Y-75913000D01*
G75*
G02*
X-79393000Y-75713000I0J200000D01*
G01*
X-79393000Y-75163000D01*
G75*
G02*
X-79193000Y-74963000I200000J0D01*
G01*
X-78793000Y-74963000D01*
G75*
G02*
X-78593000Y-75163000I0J-200000D01*
G01*
G37*
G36*
G01*
X-80243000Y-59669000D02*
X-80243000Y-60219000D01*
G75*
G02*
X-80443000Y-60419000I-200000J0D01*
G01*
X-80843000Y-60419000D01*
G75*
G02*
X-81043000Y-60219000I0J200000D01*
G01*
X-81043000Y-59669000D01*
G75*
G02*
X-80843000Y-59469000I200000J0D01*
G01*
X-80443000Y-59469000D01*
G75*
G02*
X-80243000Y-59669000I0J-200000D01*
G01*
G37*
G36*
G01*
X-78593000Y-59669000D02*
X-78593000Y-60219000D01*
G75*
G02*
X-78793000Y-60419000I-200000J0D01*
G01*
X-79193000Y-60419000D01*
G75*
G02*
X-79393000Y-60219000I0J200000D01*
G01*
X-79393000Y-59669000D01*
G75*
G02*
X-79193000Y-59469000I200000J0D01*
G01*
X-78793000Y-59469000D01*
G75*
G02*
X-78593000Y-59669000I0J-200000D01*
G01*
G37*
G36*
G01*
X-51723000Y-87413000D02*
X-51723000Y-86863000D01*
G75*
G02*
X-51523000Y-86663000I200000J0D01*
G01*
X-51123000Y-86663000D01*
G75*
G02*
X-50923000Y-86863000I0J-200000D01*
G01*
X-50923000Y-87413000D01*
G75*
G02*
X-51123000Y-87613000I-200000J0D01*
G01*
X-51523000Y-87613000D01*
G75*
G02*
X-51723000Y-87413000I0J200000D01*
G01*
G37*
G36*
G01*
X-53373000Y-87413000D02*
X-53373000Y-86863000D01*
G75*
G02*
X-53173000Y-86663000I200000J0D01*
G01*
X-52773000Y-86663000D01*
G75*
G02*
X-52573000Y-86863000I0J-200000D01*
G01*
X-52573000Y-87413000D01*
G75*
G02*
X-52773000Y-87613000I-200000J0D01*
G01*
X-53173000Y-87613000D01*
G75*
G02*
X-53373000Y-87413000I0J200000D01*
G01*
G37*
G36*
G01*
X-51723000Y-70903000D02*
X-51723000Y-70353000D01*
G75*
G02*
X-51523000Y-70153000I200000J0D01*
G01*
X-51123000Y-70153000D01*
G75*
G02*
X-50923000Y-70353000I0J-200000D01*
G01*
X-50923000Y-70903000D01*
G75*
G02*
X-51123000Y-71103000I-200000J0D01*
G01*
X-51523000Y-71103000D01*
G75*
G02*
X-51723000Y-70903000I0J200000D01*
G01*
G37*
G36*
G01*
X-53373000Y-70903000D02*
X-53373000Y-70353000D01*
G75*
G02*
X-53173000Y-70153000I200000J0D01*
G01*
X-52773000Y-70153000D01*
G75*
G02*
X-52573000Y-70353000I0J-200000D01*
G01*
X-52573000Y-70903000D01*
G75*
G02*
X-52773000Y-71103000I-200000J0D01*
G01*
X-53173000Y-71103000D01*
G75*
G02*
X-53373000Y-70903000I0J200000D01*
G01*
G37*
G36*
G01*
X-51786000Y-54393000D02*
X-51786000Y-53843000D01*
G75*
G02*
X-51586000Y-53643000I200000J0D01*
G01*
X-51186000Y-53643000D01*
G75*
G02*
X-50986000Y-53843000I0J-200000D01*
G01*
X-50986000Y-54393000D01*
G75*
G02*
X-51186000Y-54593000I-200000J0D01*
G01*
X-51586000Y-54593000D01*
G75*
G02*
X-51786000Y-54393000I0J200000D01*
G01*
G37*
G36*
G01*
X-53436000Y-54393000D02*
X-53436000Y-53843000D01*
G75*
G02*
X-53236000Y-53643000I200000J0D01*
G01*
X-52836000Y-53643000D01*
G75*
G02*
X-52636000Y-53843000I0J-200000D01*
G01*
X-52636000Y-54393000D01*
G75*
G02*
X-52836000Y-54593000I-200000J0D01*
G01*
X-53236000Y-54593000D01*
G75*
G02*
X-53436000Y-54393000I0J200000D01*
G01*
G37*
D18*
X-89708000Y-88646000D03*
X-87708000Y-87696000D03*
X-87708000Y-89596000D03*
X-89978000Y-71882000D03*
X-87978000Y-70932000D03*
X-87978000Y-72832000D03*
X-89962000Y-56388000D03*
X-87962000Y-55438000D03*
X-87962000Y-57338000D03*
X-42004000Y-90694000D03*
X-44004000Y-91644000D03*
X-44004000Y-89744000D03*
X-42004000Y-74184000D03*
X-44004000Y-75134000D03*
X-44004000Y-73234000D03*
X-41750000Y-57674000D03*
X-43750000Y-58624000D03*
X-43750000Y-56724000D03*
D19*
X-78740000Y-97775000D03*
X-78740000Y-99075000D03*
X-53340000Y-97760000D03*
X-53340000Y-99060000D03*
D20*
X-68455000Y-102235000D03*
X-65915000Y-102235000D03*
D21*
X-63375000Y-102235000D03*
D20*
X-81280000Y-102235000D03*
X-78740000Y-102235000D03*
D21*
X-76200000Y-102235000D03*
D20*
X-50800000Y-102235000D03*
X-53340000Y-102235000D03*
D21*
X-55880000Y-102235000D03*
D16*
X-42782000Y-53229000D03*
X-46782000Y-53229000D03*
G36*
G01*
X-79914000Y-84833750D02*
X-79914000Y-85346250D01*
G75*
G02*
X-80132750Y-85565000I-218750J0D01*
G01*
X-80570250Y-85565000D01*
G75*
G02*
X-80789000Y-85346250I0J218750D01*
G01*
X-80789000Y-84833750D01*
G75*
G02*
X-80570250Y-84615000I218750J0D01*
G01*
X-80132750Y-84615000D01*
G75*
G02*
X-79914000Y-84833750I0J-218750D01*
G01*
G37*
G36*
G01*
X-78339000Y-84833750D02*
X-78339000Y-85346250D01*
G75*
G02*
X-78557750Y-85565000I-218750J0D01*
G01*
X-78995250Y-85565000D01*
G75*
G02*
X-79214000Y-85346250I0J218750D01*
G01*
X-79214000Y-84833750D01*
G75*
G02*
X-78995250Y-84615000I218750J0D01*
G01*
X-78557750Y-84615000D01*
G75*
G02*
X-78339000Y-84833750I0J-218750D01*
G01*
G37*
G36*
G01*
X-80168000Y-68069750D02*
X-80168000Y-68582250D01*
G75*
G02*
X-80386750Y-68801000I-218750J0D01*
G01*
X-80824250Y-68801000D01*
G75*
G02*
X-81043000Y-68582250I0J218750D01*
G01*
X-81043000Y-68069750D01*
G75*
G02*
X-80824250Y-67851000I218750J0D01*
G01*
X-80386750Y-67851000D01*
G75*
G02*
X-80168000Y-68069750I0J-218750D01*
G01*
G37*
G36*
G01*
X-78593000Y-68069750D02*
X-78593000Y-68582250D01*
G75*
G02*
X-78811750Y-68801000I-218750J0D01*
G01*
X-79249250Y-68801000D01*
G75*
G02*
X-79468000Y-68582250I0J218750D01*
G01*
X-79468000Y-68069750D01*
G75*
G02*
X-79249250Y-67851000I218750J0D01*
G01*
X-78811750Y-67851000D01*
G75*
G02*
X-78593000Y-68069750I0J-218750D01*
G01*
G37*
G36*
G01*
X-80168000Y-52575750D02*
X-80168000Y-53088250D01*
G75*
G02*
X-80386750Y-53307000I-218750J0D01*
G01*
X-80824250Y-53307000D01*
G75*
G02*
X-81043000Y-53088250I0J218750D01*
G01*
X-81043000Y-52575750D01*
G75*
G02*
X-80824250Y-52357000I218750J0D01*
G01*
X-80386750Y-52357000D01*
G75*
G02*
X-80168000Y-52575750I0J-218750D01*
G01*
G37*
G36*
G01*
X-78593000Y-52575750D02*
X-78593000Y-53088250D01*
G75*
G02*
X-78811750Y-53307000I-218750J0D01*
G01*
X-79249250Y-53307000D01*
G75*
G02*
X-79468000Y-53088250I0J218750D01*
G01*
X-79468000Y-52575750D01*
G75*
G02*
X-79249250Y-52357000I218750J0D01*
G01*
X-78811750Y-52357000D01*
G75*
G02*
X-78593000Y-52575750I0J-218750D01*
G01*
G37*
G36*
G01*
X-51798000Y-94506250D02*
X-51798000Y-93993750D01*
G75*
G02*
X-51579250Y-93775000I218750J0D01*
G01*
X-51141750Y-93775000D01*
G75*
G02*
X-50923000Y-93993750I0J-218750D01*
G01*
X-50923000Y-94506250D01*
G75*
G02*
X-51141750Y-94725000I-218750J0D01*
G01*
X-51579250Y-94725000D01*
G75*
G02*
X-51798000Y-94506250I0J218750D01*
G01*
G37*
G36*
G01*
X-53373000Y-94506250D02*
X-53373000Y-93993750D01*
G75*
G02*
X-53154250Y-93775000I218750J0D01*
G01*
X-52716750Y-93775000D01*
G75*
G02*
X-52498000Y-93993750I0J-218750D01*
G01*
X-52498000Y-94506250D01*
G75*
G02*
X-52716750Y-94725000I-218750J0D01*
G01*
X-53154250Y-94725000D01*
G75*
G02*
X-53373000Y-94506250I0J218750D01*
G01*
G37*
G36*
G01*
X-51798000Y-77996250D02*
X-51798000Y-77483750D01*
G75*
G02*
X-51579250Y-77265000I218750J0D01*
G01*
X-51141750Y-77265000D01*
G75*
G02*
X-50923000Y-77483750I0J-218750D01*
G01*
X-50923000Y-77996250D01*
G75*
G02*
X-51141750Y-78215000I-218750J0D01*
G01*
X-51579250Y-78215000D01*
G75*
G02*
X-51798000Y-77996250I0J218750D01*
G01*
G37*
G36*
G01*
X-53373000Y-77996250D02*
X-53373000Y-77483750D01*
G75*
G02*
X-53154250Y-77265000I218750J0D01*
G01*
X-52716750Y-77265000D01*
G75*
G02*
X-52498000Y-77483750I0J-218750D01*
G01*
X-52498000Y-77996250D01*
G75*
G02*
X-52716750Y-78215000I-218750J0D01*
G01*
X-53154250Y-78215000D01*
G75*
G02*
X-53373000Y-77996250I0J218750D01*
G01*
G37*
G36*
G01*
X-51671000Y-61486250D02*
X-51671000Y-60973750D01*
G75*
G02*
X-51452250Y-60755000I218750J0D01*
G01*
X-51014750Y-60755000D01*
G75*
G02*
X-50796000Y-60973750I0J-218750D01*
G01*
X-50796000Y-61486250D01*
G75*
G02*
X-51014750Y-61705000I-218750J0D01*
G01*
X-51452250Y-61705000D01*
G75*
G02*
X-51671000Y-61486250I0J218750D01*
G01*
G37*
G36*
G01*
X-53246000Y-61486250D02*
X-53246000Y-60973750D01*
G75*
G02*
X-53027250Y-60755000I218750J0D01*
G01*
X-52589750Y-60755000D01*
G75*
G02*
X-52371000Y-60973750I0J-218750D01*
G01*
X-52371000Y-61486250D01*
G75*
G02*
X-52589750Y-61705000I-218750J0D01*
G01*
X-53027250Y-61705000D01*
G75*
G02*
X-53246000Y-61486250I0J218750D01*
G01*
G37*
M02*
