G04 #@! TF.GenerationSoftware,KiCad,Pcbnew,(5.1.9)-1*
G04 #@! TF.CreationDate,2021-06-08T18:40:06+01:00*
G04 #@! TF.ProjectId,BrushlessPlatform V1 - SMD,42727573-686c-4657-9373-506c6174666f,rev?*
G04 #@! TF.SameCoordinates,Original*
G04 #@! TF.FileFunction,Soldermask,Bot*
G04 #@! TF.FilePolarity,Negative*
%FSLAX46Y46*%
G04 Gerber Fmt 4.6, Leading zero omitted, Abs format (unit mm)*
G04 Created by KiCad (PCBNEW (5.1.9)-1) date 2021-06-08 18:40:06*
%MOMM*%
%LPD*%
G01*
G04 APERTURE LIST*
%ADD10C,2.800000*%
%ADD11C,2.550000*%
%ADD12C,6.000000*%
%ADD13C,5.700000*%
%ADD14O,1.600000X1.600000*%
%ADD15R,1.600000X1.600000*%
%ADD16O,1.700000X1.700000*%
%ADD17R,1.700000X1.700000*%
%ADD18C,0.254000*%
%ADD19C,0.100000*%
G04 APERTURE END LIST*
D10*
X-109800000Y-59800000D03*
X-109800000Y-55000000D03*
D11*
X-96000000Y-59800000D03*
G36*
G01*
X-97025001Y-53725000D02*
X-94974999Y-53725000D01*
G75*
G02*
X-94725000Y-53974999I0J-249999D01*
G01*
X-94725000Y-56025001D01*
G75*
G02*
X-94974999Y-56275000I-249999J0D01*
G01*
X-97025001Y-56275000D01*
G75*
G02*
X-97275000Y-56025001I0J249999D01*
G01*
X-97275000Y-53974999D01*
G75*
G02*
X-97025001Y-53725000I249999J0D01*
G01*
G37*
G36*
G01*
X-30500000Y-36000000D02*
X-27500000Y-36000000D01*
G75*
G02*
X-26000000Y-37500000I0J-1500000D01*
G01*
X-26000000Y-40500000D01*
G75*
G02*
X-27500000Y-42000000I-1500000J0D01*
G01*
X-30500000Y-42000000D01*
G75*
G02*
X-32000000Y-40500000I0J1500000D01*
G01*
X-32000000Y-37500000D01*
G75*
G02*
X-30500000Y-36000000I1500000J0D01*
G01*
G37*
D12*
X-29000000Y-46200000D03*
G36*
G01*
X-104500000Y-35800000D02*
X-101500000Y-35800000D01*
G75*
G02*
X-100000000Y-37300000I0J-1500000D01*
G01*
X-100000000Y-40300000D01*
G75*
G02*
X-101500000Y-41800000I-1500000J0D01*
G01*
X-104500000Y-41800000D01*
G75*
G02*
X-106000000Y-40300000I0J1500000D01*
G01*
X-106000000Y-37300000D01*
G75*
G02*
X-104500000Y-35800000I1500000J0D01*
G01*
G37*
X-103000000Y-46000000D03*
G36*
G01*
X-67500000Y-35800000D02*
X-64500000Y-35800000D01*
G75*
G02*
X-63000000Y-37300000I0J-1500000D01*
G01*
X-63000000Y-40300000D01*
G75*
G02*
X-64500000Y-41800000I-1500000J0D01*
G01*
X-67500000Y-41800000D01*
G75*
G02*
X-69000000Y-40300000I0J1500000D01*
G01*
X-69000000Y-37300000D01*
G75*
G02*
X-67500000Y-35800000I1500000J0D01*
G01*
G37*
X-66000000Y-46000000D03*
D13*
X-110000000Y-104000000D03*
X-110000000Y-35000000D03*
D14*
X-58420000Y-91440000D03*
X-73660000Y-91440000D03*
X-58420000Y-55880000D03*
X-73660000Y-88900000D03*
X-58420000Y-58420000D03*
X-73660000Y-86360000D03*
X-58420000Y-60960000D03*
X-73660000Y-83820000D03*
X-58420000Y-63500000D03*
X-73660000Y-81280000D03*
X-58420000Y-66040000D03*
X-73660000Y-78740000D03*
X-58420000Y-68580000D03*
X-73660000Y-76200000D03*
X-58420000Y-71120000D03*
X-73660000Y-73660000D03*
X-58420000Y-73660000D03*
X-73660000Y-71120000D03*
X-58420000Y-76200000D03*
X-73660000Y-68580000D03*
X-58420000Y-78740000D03*
X-73660000Y-66040000D03*
X-58420000Y-81280000D03*
X-73660000Y-63500000D03*
X-58420000Y-83820000D03*
X-73660000Y-60960000D03*
X-58420000Y-86360000D03*
X-73660000Y-58420000D03*
X-58420000Y-88900000D03*
D15*
X-73660000Y-55880000D03*
D10*
X-109800000Y-90000000D03*
X-109800000Y-85200000D03*
D11*
X-96000000Y-90000000D03*
G36*
G01*
X-97025001Y-83925000D02*
X-94974999Y-83925000D01*
G75*
G02*
X-94725000Y-84174999I0J-249999D01*
G01*
X-94725000Y-86225001D01*
G75*
G02*
X-94974999Y-86475000I-249999J0D01*
G01*
X-97025001Y-86475000D01*
G75*
G02*
X-97275000Y-86225001I0J249999D01*
G01*
X-97275000Y-84174999D01*
G75*
G02*
X-97025001Y-83925000I249999J0D01*
G01*
G37*
D10*
X-109800000Y-75000000D03*
X-109800000Y-70200000D03*
D11*
X-96000000Y-75000000D03*
G36*
G01*
X-97025001Y-68925000D02*
X-94974999Y-68925000D01*
G75*
G02*
X-94725000Y-69174999I0J-249999D01*
G01*
X-94725000Y-71225001D01*
G75*
G02*
X-94974999Y-71475000I-249999J0D01*
G01*
X-97025001Y-71475000D01*
G75*
G02*
X-97275000Y-71225001I0J249999D01*
G01*
X-97275000Y-69174999D01*
G75*
G02*
X-97025001Y-68925000I249999J0D01*
G01*
G37*
D10*
X-22200000Y-85200000D03*
X-22200000Y-90000000D03*
D11*
X-36000000Y-85200000D03*
G36*
G01*
X-34974999Y-91275000D02*
X-37025001Y-91275000D01*
G75*
G02*
X-37275000Y-91025001I0J249999D01*
G01*
X-37275000Y-88974999D01*
G75*
G02*
X-37025001Y-88725000I249999J0D01*
G01*
X-34974999Y-88725000D01*
G75*
G02*
X-34725000Y-88974999I0J-249999D01*
G01*
X-34725000Y-91025001D01*
G75*
G02*
X-34974999Y-91275000I-249999J0D01*
G01*
G37*
D10*
X-22200000Y-70000000D03*
X-22200000Y-74800000D03*
D11*
X-36000000Y-70000000D03*
G36*
G01*
X-34974999Y-76075000D02*
X-37025001Y-76075000D01*
G75*
G02*
X-37275000Y-75825001I0J249999D01*
G01*
X-37275000Y-73774999D01*
G75*
G02*
X-37025001Y-73525000I249999J0D01*
G01*
X-34974999Y-73525000D01*
G75*
G02*
X-34725000Y-73774999I0J-249999D01*
G01*
X-34725000Y-75825001D01*
G75*
G02*
X-34974999Y-76075000I-249999J0D01*
G01*
G37*
D10*
X-22200000Y-55000000D03*
X-22200000Y-59800000D03*
D11*
X-36000000Y-55000000D03*
G36*
G01*
X-34974999Y-61075000D02*
X-37025001Y-61075000D01*
G75*
G02*
X-37275000Y-60825001I0J249999D01*
G01*
X-37275000Y-58774999D01*
G75*
G02*
X-37025001Y-58525000I249999J0D01*
G01*
X-34974999Y-58525000D01*
G75*
G02*
X-34725000Y-58774999I0J-249999D01*
G01*
X-34725000Y-60825001D01*
G75*
G02*
X-34974999Y-61075000I-249999J0D01*
G01*
G37*
D13*
X-22000000Y-35000000D03*
X-22000000Y-104000000D03*
D16*
X-68455000Y-102235000D03*
X-65915000Y-102235000D03*
D17*
X-63375000Y-102235000D03*
D16*
X-81280000Y-102235000D03*
X-78740000Y-102235000D03*
D17*
X-76200000Y-102235000D03*
D16*
X-50800000Y-102235000D03*
X-53340000Y-102235000D03*
D17*
X-55880000Y-102235000D03*
D18*
X-26127000Y-48873000D02*
X-105873000Y-48873000D01*
X-105873000Y-35877000D01*
X-26127000Y-35877000D01*
X-26127000Y-48873000D01*
D19*
G36*
X-26127000Y-48873000D02*
G01*
X-105873000Y-48873000D01*
X-105873000Y-35877000D01*
X-26127000Y-35877000D01*
X-26127000Y-48873000D01*
G37*
M02*
